<?xml version="1.0" encoding="UTF-8" standalone="no"?>
<svg width="43px" height="43px" viewBox="0 0 43 43" version="1.1" xmlns="http://www.w3.org/2000/svg" xmlns:xlink="http://www.w3.org/1999/xlink">
    <!-- Generator: Sketch 41.2 (35397) - http://www.bohemiancoding.com/sketch -->
    <title>Group</title>
    <desc>Created with Sketch.</desc>
    <defs></defs>
    <g id="Page-1" stroke="none" stroke-width="1" fill="none" fill-rule="evenodd">
        <g id="Group" fill="#FEFEFE">
            <g id="Award-icon">
                <path d="M18.6996762,36.8937 C17.3574619,37.5057 14.8634619,37.3397 14.8634619,37.3397 C14.8634619,37.3397 17.3216286,36.9327 18.2522714,36.5327 C18.8522238,36.2737 19.5903905,35.6657 19.7634143,35.5187 C19.6477238,35.3077 19.147081,34.3907 18.8614381,33.8157 C18.5368905,33.1617 17.3922714,31.7627 17.3922714,31.7627 C17.3922714,31.7627 19.0651762,33.1867 19.8586286,34.4467 C20.093081,34.8207 20.2906762,35.1137 20.4514143,35.3427 C20.2394857,34.9887 20.0122,34.5647 19.9620333,34.2917 C19.8617,33.7507 20.2394857,32.7577 19.3006524,31.7977 C18.4539619,30.9317 16.7155333,30.7697 15.5340571,30.0147 C15.5340571,30.0147 16.1626762,31.2887 16.2988429,32.0767 C16.4309143,32.8367 16.3961048,33.8797 17.0994619,34.2967 C17.6963429,34.6507 18.5133429,35.0237 19.233081,35.3267 C17.5222952,34.8177 16.4186286,35.0247 15.8698667,35.2337 C15.1951762,35.4927 14.448819,36.6407 13.7239619,37.2117 C13.0922714,37.7087 11.8667714,38.3147 11.8667714,38.3147 C13.8427238,38.6317 14.632081,39.5177 16.2793905,39.1447 C18.0516048,38.7417 18.1232714,37.7447 18.8430095,37.0237 C19.0590333,36.8077 19.3692476,36.6157 19.6825333,36.4567 C19.4102,36.5747 19.0836048,36.7187 18.6996762,36.8937" id="Fill-1"></path>
                <path d="M13.3070667,34.4132 C11.9228762,34.6502 9.67459048,33.8942 9.67459048,33.8942 C9.67459048,33.8942 12.0324238,34.1152 12.9866143,33.9732 C13.6019238,33.8812 14.4312095,33.5012 14.6267571,33.4092 C14.573519,33.1862 14.3431619,32.2252 14.2244,31.6282 C14.090281,30.9492 13.3899952,29.3882 13.3899952,29.3882 C13.3899952,29.3882 14.5694238,31.0992 14.982019,32.4472 C15.1038524,32.8472 15.2113524,33.1642 15.3024714,33.4132 C15.1959952,33.0372 15.0946381,32.5932 15.1161381,32.3302 C15.1601619,31.8102 15.7539714,30.9902 15.132519,29.8822 C14.5724952,28.8832 13.0173286,28.3132 12.1214952,27.3352 C12.1214952,27.3352 12.3794952,28.6562 12.3088524,29.4122 C12.2392333,30.1422 11.9464238,31.0902 12.488019,31.6432 C12.9477095,32.1122 13.6039714,32.6512 14.1885667,33.1042 C12.746019,32.2232 11.6812571,32.1462 11.1253286,32.2062 C10.4404,32.2792 9.47085238,33.1532 8.66101905,33.5012 C7.95868571,33.8042 6.68097143,34.0642 6.68097143,34.0642 C8.41632857,34.8332 8.91799524,35.8372 10.5233286,35.8922 C12.2504952,35.9532 12.5658286,35.0552 13.4063762,34.5672 C13.6582333,34.4202 13.9909714,34.3192 14.3185905,34.2502 C14.0390905,34.2922 13.703281,34.3452 13.3070667,34.4132" id="Fill-3"></path>
                <path d="M8.9423619,30.9227 C7.61243333,30.8057 5.7388619,29.5677 5.7388619,29.5677 C5.7388619,29.5677 7.84688571,30.3417 8.75807619,30.4417 C9.34574286,30.5057 10.2016476,30.3587 10.4043619,30.3207 C10.4105048,30.1027 10.4391714,29.1647 10.4801238,28.5887 C10.527219,27.9337 10.2743381,26.3317 10.2743381,26.3317 C10.2743381,26.3317 10.9285524,28.1867 10.9705286,29.5237 C10.9828143,29.9207 11.0022667,30.2377 11.0227429,30.4877 C11.0196714,30.1167 11.0370762,29.6847 11.1230762,29.4487 C11.2930286,28.9817 12.043481,28.3737 11.7496476,27.2067 C11.4855048,26.1537 10.2006238,25.2547 9.62319524,24.1407 C9.62319524,24.1407 9.53105238,25.4157 9.27612381,26.0927 C9.03040952,26.7447 8.52362381,27.5447 8.88298095,28.1827 C9.18705238,28.7247 9.65493333,29.3787 10.0777667,29.9347 C8.97512381,28.7777 8.0168381,28.4487 7.49162381,28.3687 C6.8456,28.2717 5.73579048,28.8377 4.90650476,28.9627 C4.18574286,29.0697 2.95000476,28.9997 2.95000476,28.9997 C4.34955238,30.1247 4.55943333,31.1667 6.0173381,31.6067 C7.5868381,32.0797 8.10079048,31.3317 8.9956,31.0867 C9.26281429,31.0147 9.59248095,31.0017 9.91088571,31.0177 C9.64367143,30.9887 9.32321905,30.9557 8.9423619,30.9227" id="Fill-5"></path>
                <path d="M5.75432143,26.7255 C4.56363095,26.2965 3.15384524,24.7075 3.15384524,24.7075 C3.15384524,24.7075 4.89432143,25.9275 5.70517857,26.2395 C6.22834524,26.4405 7.0514881,26.5125 7.24703571,26.5265 C7.30744048,26.3285 7.5685119,25.4745 7.74870238,24.9555 C7.9555119,24.3655 8.12341667,22.8345 8.12341667,22.8345 C8.12341667,22.8345 8.26060714,24.6955 7.96575,25.9325 C7.87667857,26.2995 7.81525,26.5955 7.77225,26.8295 C7.86132143,26.4885 7.98520238,26.0965 8.12341667,25.9005 C8.39677381,25.5125 9.23629762,25.1365 9.25984524,23.9945 C9.28032143,22.9645 8.32613095,21.8295 8.07427381,20.6665 C8.07427381,20.6665 7.66986905,21.8145 7.2675119,22.3735 C6.8794881,22.9135 6.21503571,23.5245 6.3849881,24.1965 C6.52832143,24.7675 6.7945119,25.4805 7.04329762,26.0935 C6.3204881,24.7645 5.52396429,24.2315 5.06222619,24.0315 C4.4929881,23.7855 3.33403571,24.0375 2.54160714,23.9505 C1.85360714,23.8755 0.735607143,23.5115 0.735607143,23.5115 C1.73894048,24.8825 1.67136905,25.8905 2.89994048,26.6465 C4.22167857,27.4595 4.8799881,26.8975 5.7614881,26.8895 C6.02563095,26.8875 6.33072619,26.9555 6.61944048,27.0475 C6.38191667,26.9555 6.09525,26.8475 5.75432143,26.7255" id="Fill-7"></path>
                <path d="M3.80130238,22.1586 C2.81537381,21.4766 1.91954048,19.6786 1.91954048,19.6786 C1.91954048,19.6786 3.2115881,21.2186 3.8780881,21.7006 C4.3080881,22.0126 5.04523095,22.2766 5.22132619,22.3366 C5.32473095,22.1706 5.77827857,21.4496 6.07415952,21.0166 C6.41099286,20.5256 6.94849286,19.1616 6.94849286,19.1616 C6.94849286,19.1616 6.6085881,20.9026 6.0280881,21.9666 C5.8560881,22.2806 5.72504048,22.5376 5.62675476,22.7426 C5.79363571,22.4516 6.00556429,22.1206 6.18165952,21.9746 C6.52873095,21.6856 7.39385,21.5426 7.69996905,20.5006 C7.97639762,19.5606 7.38565952,18.2876 7.44401667,17.1596 C7.44401667,17.1596 6.78673095,18.1156 6.27789762,18.5316 C5.78646905,18.9326 5.02475476,19.3326 5.01144524,19.9906 C5.00120714,20.5486 5.06673095,21.2676 5.14249286,21.8906 C4.81077857,20.4966 4.21287381,19.8146 3.83918333,19.5196 C3.37846905,19.1556 2.25125476,19.1066 1.54687381,18.8356 C0.933611905,18.5996 -0.000102380952,17.9956 -0.000102380952,17.9956 C0.57732619,19.4966 0.263016667,20.4046 1.20185,21.3956 C2.21235,22.4616 2.95563571,22.1046 3.76649286,22.3116 C4.01015952,22.3726 4.27225476,22.5096 4.51489762,22.6636 C4.31935,22.5216 4.08387381,22.3536 3.80130238,22.1586" id="Fill-9"></path>
                <path d="M3.05904048,17.5407 C2.32496905,16.6767 1.95230238,14.8087 1.95230238,14.8087 C1.95230238,14.8087 2.75394524,16.5357 3.24332619,17.1397 C3.56070714,17.5287 4.17089762,17.9497 4.31730238,18.0477 C4.45449286,17.9197 5.05035,17.3677 5.43018333,17.0427 C5.86223095,16.6737 6.69663571,15.5517 6.69663571,15.5517 C6.69663571,15.5517 5.94925476,17.0667 5.15068333,17.9027 C4.91315952,18.1497 4.72989762,18.3537 4.5886119,18.5177 C4.81487381,18.2907 5.09232619,18.0397 5.28992143,17.9477 C5.67999286,17.7657 6.51030238,17.8447 7.05087381,16.9627 C7.54025476,16.1657 7.31501667,14.8557 7.65287381,13.8347 C7.65287381,13.8347 6.81027857,14.5527 6.23796905,14.8117 C5.68715952,15.0607 4.88756429,15.2437 4.71146905,15.8447 C4.56301667,16.3537 4.44323095,17.0297 4.35620714,17.6197 C4.40125476,16.2597 4.02346905,15.4887 3.75420714,15.1277 C3.42146905,14.6837 2.39970714,14.3657 1.82125476,13.9457 C1.31754048,13.5807 0.611111905,12.8017 0.611111905,12.8017 C0.766730952,14.3187 0.250730952,15.0757 0.863992857,16.2117 C1.52435,17.4347 2.29732619,17.2867 2.98942143,17.6727 C3.19725476,17.7877 3.40406429,17.9767 3.58732619,18.1757 C3.44399286,17.9997 3.26892143,17.7877 3.05904048,17.5407" id="Fill-12"></path>
                <path d="M3.43815714,13.1582 C2.98051429,12.1872 3.10439524,10.3842 3.10439524,10.3842 C3.10439524,10.3842 3.40846667,12.1622 3.70741905,12.8342 C3.90091905,13.2692 4.35549048,13.8022 4.4660619,13.9272 C4.62372857,13.8432 5.30865714,13.4812 5.73865714,13.2742 C6.22701429,13.0402 7.27232381,12.2132 7.27232381,12.2132 C7.27232381,12.2132 6.20858571,13.4222 5.26668095,13.9962 C4.98718095,14.1662 4.76808571,14.3082 4.59710952,14.4242 C4.86125238,14.2712 5.17863333,14.1082 5.38237143,14.0712 C5.78677619,13.9982 6.5290381,14.2712 7.24570476,13.5932 C7.89377619,12.9802 8.01458571,11.7232 8.57870476,10.8682 C8.57870476,10.8682 7.6265619,11.3232 7.03787143,11.4222 C6.46965714,11.5182 5.6905381,11.4922 5.37827619,12.0012 C5.11413333,12.4332 4.83565714,13.0232 4.60939524,13.5442 C4.98922857,12.3072 4.83565714,11.5082 4.67799048,11.1122 C4.48551429,10.6242 3.6275619,10.0852 3.20063333,9.5602 C2.83001429,9.1042 2.37646667,8.2172 2.37646667,8.2172 C2.13996667,9.6462 1.4775619,10.2172 1.7560381,11.4072 C2.05601429,12.6892 2.80237143,12.7412 3.34191905,13.2622 C3.50265714,13.4182 3.64599048,13.6422 3.76475238,13.8692 C3.67568095,13.6722 3.56920476,13.4362 3.43815714,13.1582" id="Fill-14"></path>
                <path d="M4.79316905,9.2571 C4.61605,8.2561 5.18119286,6.6311 5.18119286,6.6311 C5.18119286,6.6311 5.01533571,8.3361 5.1218119,9.0251 C5.19040714,9.4701 5.47400238,10.0701 5.54362143,10.2121 C5.71050238,10.1721 6.42819286,10.0061 6.87457381,9.9211 C7.38238333,9.8231 8.54850238,9.3171 8.54850238,9.3171 C8.54850238,9.3171 7.26874048,10.1701 6.2613119,10.4681 C5.96338333,10.5561 5.72585952,10.6341 5.53952619,10.6991 C5.82107381,10.6231 6.1527881,10.5491 6.34935952,10.5651 C6.73840714,10.5961 7.35064524,11.0261 8.17890714,10.5771 C8.92526429,10.1721 9.35116905,9.0471 10.0831929,8.3991 C10.0831929,8.3991 9.09521667,8.5861 8.53109762,8.5351 C7.98540714,8.4851 7.27590714,8.2731 6.8622881,8.6641 C6.51214524,8.9971 6.1097881,9.4721 5.77090714,9.8941 C6.42921667,8.8511 6.48757381,8.0821 6.44252619,7.6791 C6.38724048,7.1851 5.73507381,6.4831 5.47400238,5.8981 C5.24774048,5.3891 5.05424048,4.4661 5.05424048,4.4661 C4.47988333,5.7211 3.72943095,6.0841 3.68745476,7.2441 C3.64240714,8.4931 4.31300238,8.7201 4.67850238,9.3291 C4.78702619,9.5111 4.8627881,9.7511 4.91500238,9.9881 C4.88326429,9.7861 4.84333571,9.5431 4.79316905,9.2571" id="Fill-16"></path>
                <path d="M6.92760714,6.0382 C7.01463095,5.0762 7.94015476,3.7212 7.94015476,3.7212 C7.94015476,3.7212 7.36170238,5.2462 7.2879881,5.9052 C7.23884524,6.3302 7.34941667,6.9482 7.37705952,7.0962 C7.53984524,7.1002 8.24115476,7.1212 8.67217857,7.1502 C9.16155952,7.1842 10.3583929,7.0012 10.3583929,7.0012 C10.3583929,7.0012 8.97215476,7.4752 7.97291667,7.5042 C7.6760119,7.5132 7.4395119,7.5272 7.25317857,7.5422 C7.52960714,7.5402 7.85210714,7.5522 8.02922619,7.6152 C8.37732143,7.7372 8.83189286,8.2802 9.70417857,8.0682 C10.4914881,7.8772 11.1631071,6.9482 11.9954643,6.5302 C11.9954643,6.5302 11.0433214,6.4632 10.5375595,6.2792 C10.0492024,6.1012 9.45232143,5.7362 8.97420238,5.9952 C8.57082143,6.2152 8.08144048,6.5532 7.66577381,6.8602 C8.53089286,6.0612 8.77660714,5.3692 8.8359881,4.9892 C8.90867857,4.5222 8.48482143,3.7202 8.39165476,3.1202 C8.31179762,2.5992 8.3640119,1.7042 8.3640119,1.7042 C7.52346429,2.7172 6.74434524,2.8682 6.41570238,3.9232 C6.0624881,5.0592 6.6214881,5.4292 6.80475,6.0762 C6.8590119,6.2702 6.86822619,6.5082 6.85594048,6.7382 C6.87846429,6.5452 6.90303571,6.3132 6.92760714,6.0382" id="Fill-18"></path>
                <path d="M9.61387857,3.6286 C9.93535476,2.7666 11.12195,1.7476 11.12195,1.7476 C11.12195,1.7476 10.2097357,3.0066 9.97733095,3.5926 C9.82683095,3.9716 9.77359286,4.5666 9.76233095,4.7076 C9.91078333,4.7506 10.5486167,4.9396 10.9366405,5.0716 C11.3779024,5.2196 12.5214976,5.3426 12.5214976,5.3426 C12.5214976,5.3426 11.1311643,5.4406 10.2056405,5.2266 C9.93228333,5.1636 9.71114048,5.1196 9.53606905,5.0876 C9.79099762,5.1516 10.0838071,5.2416 10.2302119,5.3416 C10.51995,5.5386 10.8014976,6.1466 11.654331,6.1626 C12.4242357,6.1776 13.2729738,5.4886 14.1421881,5.3056 C14.1421881,5.3056 13.2842357,5.0136 12.8665214,4.7236 C12.4631405,4.4416 12.0065214,3.9616 11.5028071,4.0836 C11.0769024,4.1886 10.5434976,4.3806 10.0858548,4.5606 C11.07895,4.0376 11.4772119,3.4616 11.6266881,3.1276 C11.8109738,2.7166 11.6225929,1.8786 11.6870929,1.3056 C11.7444262,0.8086 12.0157357,-0.0004 12.0157357,-0.0004 C10.9909024,0.7256 10.2384024,0.6756 9.67325952,1.5646 C9.06511667,2.5206 9.48590238,2.9966 9.49102143,3.6336 C9.49306905,3.8246 9.44187857,4.0456 9.37225952,4.2536 C9.44187857,4.0826 9.52173571,3.8756 9.61387857,3.6286" id="Fill-20"></path>
                <path d="M12.3576881,3.5916 C12.4836167,3.5046 13.0272595,3.1276 13.3518071,2.8826 C13.7203786,2.6036 14.7646643,2.1316 14.7646643,2.1316 C14.7646643,2.1316 13.4163071,2.4716 12.6095452,2.9626 C12.3709976,3.1076 12.1764738,3.2186 12.0208548,3.3026 C12.2409738,3.1626 12.4457357,2.9076 12.5522119,2.7676 C12.7620929,2.4906 12.8777833,1.9066 13.6794262,1.6256 C14.4032595,1.3706 15.4280929,1.7596 16.3095929,1.6606 C16.3095929,1.6606 15.6267119,2.1636 15.2560929,2.5516 C14.9172119,2.9046 14.6981167,3.4986 14.2056643,3.6396 C13.6794262,3.7896 13.1982357,3.5386 12.3576881,3.5916" id="Fill-23"></path>
                <path d="M23.71235,36.8937 C25.0545643,37.5057 27.5485643,37.3397 27.5485643,37.3397 C27.5485643,37.3397 25.0903976,36.9327 24.1597548,36.5327 C23.5598024,36.2737 22.8216357,35.6657 22.6486119,35.5187 C22.7643024,35.3077 23.2649452,34.3907 23.5505881,33.8157 C23.8751357,33.1617 25.0197548,31.7627 25.0197548,31.7627 C25.0197548,31.7627 23.34685,33.1867 22.5533976,34.4467 C22.3189452,34.8207 22.12135,35.1137 21.9606119,35.3427 C22.1725405,34.9887 22.3998262,34.5647 22.4499929,34.2917 C22.5503262,33.7507 22.1725405,32.7577 23.1113738,31.7977 C23.9580643,30.9317 25.6964929,30.7697 26.8789929,30.0147 C26.8789929,30.0147 26.2503738,31.2887 26.1131833,32.0767 C25.9811119,32.8367 26.0159214,33.8797 25.3125643,34.2967 C24.7156833,34.6507 23.8986833,35.0237 23.1789452,35.3267 C24.889731,34.8177 25.9933976,35.0247 26.5421595,35.2337 C27.2178738,35.4927 27.9621833,36.6407 28.6880643,37.2117 C29.3197548,37.7087 30.5462786,38.3147 30.5462786,38.3147 C28.5693024,38.6317 27.7799452,39.5177 26.1326357,39.1447 C24.3604214,38.7417 24.2887548,37.7447 23.5690167,37.0237 C23.3529929,36.8077 23.0427786,36.6157 22.7294929,36.4567 C23.0018262,36.5747 23.3284214,36.7187 23.71235,36.8937" id="Fill-25"></path>
                <path d="M29.1050619,34.4132 C30.4892524,34.6502 32.7375381,33.8942 32.7375381,33.8942 C32.7375381,33.8942 30.3797048,34.1152 29.4255143,33.9732 C28.8102048,33.8812 27.980919,33.5012 27.7843476,33.4092 C27.8386095,33.1862 28.0689667,32.2252 28.1877286,31.6282 C28.3218476,30.9492 29.0221333,29.3882 29.0221333,29.3882 C29.0221333,29.3882 27.8427048,31.0992 27.4301095,32.4472 C27.3082762,32.8472 27.2007762,33.1642 27.110681,33.4132 C27.2161333,33.0372 27.3185143,32.5932 27.2959905,32.3302 C27.2519667,31.8102 26.6581571,30.9902 27.2796095,29.8822 C27.8396333,28.8832 29.3948,28.3132 30.2906333,27.3352 C30.2906333,27.3352 30.0326333,28.6562 30.1032762,29.4122 C30.1728952,30.1422 30.4657048,31.0902 29.9241095,31.6432 C29.464419,32.1122 28.8071333,32.6512 28.2235619,33.1042 C29.6661095,32.2232 30.7308714,32.1462 31.2868,32.2062 C31.9707048,32.2792 32.9423,33.1532 33.7511095,33.5012 C34.4534429,33.8042 35.7301333,34.0642 35.7301333,34.0642 C33.9958,34.8332 33.4931095,35.8372 31.8888,35.8922 C30.1616333,35.9532 29.8463,35.0552 29.0057524,34.5672 C28.7538952,34.4202 28.4211571,34.3192 28.0935381,34.2502 C28.3730381,34.2922 28.7088476,34.3452 29.1050619,34.4132" id="Fill-27"></path>
                <path d="M33.4699714,30.9227 C34.7999,30.8057 36.6734714,29.5677 36.6734714,29.5677 C36.6734714,29.5677 34.5644238,30.3417 33.6542571,30.4417 C33.0665905,30.5057 32.2106857,30.3587 32.0079714,30.3207 C32.0018286,30.1027 31.9721381,29.1647 31.9311857,28.5887 C31.8851143,27.9337 32.1379952,26.3317 32.1379952,26.3317 C32.1379952,26.3317 31.4827571,28.1867 31.4418048,29.5237 C31.429519,29.9207 31.4100667,30.2377 31.3895905,30.4877 C31.3926619,30.1167 31.3752571,29.6847 31.2892571,29.4487 C31.1193048,28.9817 30.3688524,28.3737 30.6616619,27.2067 C30.9268286,26.1537 32.2117095,25.2547 32.7891381,24.1407 C32.7891381,24.1407 32.881281,25.4157 33.1362095,26.0927 C33.3819238,26.7447 33.8876857,27.5447 33.5293524,28.1827 C33.225281,28.7247 32.7574,29.3787 32.3335429,29.9347 C33.4372095,28.7777 34.3954952,28.4487 34.9207095,28.3687 C35.5667333,28.2717 36.6765429,28.8377 37.5048048,28.9627 C38.2255667,29.0697 39.4623286,28.9997 39.4623286,28.9997 C38.062781,30.1247 37.8529,31.1667 36.3939714,31.6067 C34.8244714,32.0797 34.3115429,31.3317 33.4167333,31.0867 C33.149519,31.0147 32.8198524,31.0017 32.5014476,31.0177 C32.7686619,30.9887 33.0891143,30.9557 33.4699714,30.9227" id="Fill-29"></path>
                <path d="M36.6580119,26.7255 C37.8487024,26.2965 39.2584881,24.7075 39.2584881,24.7075 C39.2584881,24.7075 37.5180119,25.9275 36.706131,26.2395 C36.1839881,26.4405 35.3608452,26.5125 35.1652976,26.5265 C35.1048929,26.3285 34.8438214,25.4745 34.6626071,24.9555 C34.4568214,24.3655 34.2878929,22.8345 34.2878929,22.8345 C34.2878929,22.8345 34.1517262,24.6955 34.4465833,25.9325 C34.534631,26.2995 34.5960595,26.5955 34.6400833,26.8295 C34.5499881,26.4885 34.4261071,26.0965 34.2889167,25.9005 C34.0155595,25.5125 33.1760357,25.1365 33.1524881,23.9945 C33.1320119,22.9645 34.0862024,21.8295 34.3380595,20.6665 C34.3380595,20.6665 34.7414405,21.8145 35.1437976,22.3735 C35.5328452,22.9135 36.1972976,23.5245 36.0273452,24.1965 C35.8829881,24.7675 35.6167976,25.4805 35.3690357,26.0935 C36.0918452,24.7645 36.888369,24.2315 37.3501071,24.0315 C37.9193452,23.7855 39.0782976,24.0375 39.8707262,23.9505 C40.5587262,23.8755 41.6757024,23.5115 41.6757024,23.5115 C40.672369,24.8825 40.7409643,25.8905 39.5123929,26.6465 C38.1906548,27.4595 37.5323452,26.8975 36.6508452,26.8895 C36.3867024,26.8875 36.0816071,26.9555 35.7928929,27.0475 C36.0304167,26.9555 36.3170833,26.8475 36.6580119,26.7255" id="Fill-31"></path>
                <path d="M38.6107238,22.1586 C39.5966524,21.4766 40.4924857,19.6786 40.4924857,19.6786 C40.4924857,19.6786 39.2004381,21.2186 38.5339381,21.7006 C38.1039381,22.0126 37.3667952,22.2766 37.1917238,22.3366 C37.0872952,22.1706 36.6337476,21.4496 36.3378667,21.0166 C36.0010333,20.5256 35.4635333,19.1616 35.4635333,19.1616 C35.4635333,19.1616 35.8034381,20.9026 36.3839381,21.9666 C36.5569619,22.2806 36.6869857,22.5376 36.7852714,22.7426 C36.6183905,22.4516 36.4064619,22.1206 36.2303667,21.9746 C35.8832952,21.6856 35.0181762,21.5426 34.7120571,20.5006 C34.4346048,19.5606 35.0273905,18.2876 34.9669857,17.1596 C34.9669857,17.1596 35.6252952,18.1156 36.1341286,18.5316 C36.626581,18.9326 37.3872714,19.3326 37.400581,19.9906 C37.410819,20.5486 37.3452952,21.2676 37.2695333,21.8906 C37.6012476,20.4966 38.1991524,19.8146 38.5728429,19.5196 C39.0325333,19.1556 40.1597476,19.1066 40.8651524,18.8356 C41.4784143,18.5996 42.4121286,17.9956 42.4121286,17.9956 C41.8347,19.4966 42.1490095,20.4046 41.2101762,21.3956 C40.1996762,22.4616 39.4563905,22.1046 38.6445095,22.3116 C38.4028905,22.3726 38.1387476,22.5096 37.8971286,22.6636 C38.0926762,22.5216 38.3281524,22.3536 38.6107238,22.1586" id="Fill-33"></path>
                <path d="M39.3530881,17.5407 C40.0871595,16.6767 40.4598262,14.8087 40.4598262,14.8087 C40.4598262,14.8087 39.6581833,16.5357 39.1677786,17.1397 C38.8514214,17.5287 38.241231,17.9497 38.0948262,18.0477 C37.9576357,17.9197 37.3617786,17.3677 36.9819452,17.0427 C36.5498976,16.6737 35.7154929,15.5517 35.7154929,15.5517 C35.7154929,15.5517 36.4628738,17.0667 37.2614452,17.9027 C37.4979452,18.1497 37.682231,18.3537 37.8235167,18.5177 C37.5972548,18.2907 37.3208262,18.0397 37.123231,17.9477 C36.7321357,17.7657 35.9018262,17.8447 35.3612548,16.9627 C34.8718738,16.1657 35.0971119,14.8557 34.7602786,13.8347 C34.7602786,13.8347 35.6028738,14.5527 36.1731357,14.8117 C36.724969,15.0607 37.5245643,15.2437 37.7006595,15.8447 C37.8501357,16.3537 37.9688976,17.0297 38.0548976,17.6197 C38.0108738,16.2597 38.3886595,15.4887 38.6589452,15.1277 C38.9906595,14.6837 40.0124214,14.3657 40.5908738,13.9457 C41.0945881,13.5807 41.8010167,12.8017 41.8010167,12.8017 C41.6453976,14.3187 42.1613976,15.0757 41.5481357,16.2117 C40.8877786,17.4347 40.1158262,17.2867 39.4227071,17.6727 C39.2148738,17.7877 39.0080643,17.9767 38.8248024,18.1757 C38.9681357,17.9997 39.1432071,17.7877 39.3530881,17.5407" id="Fill-35"></path>
                <path d="M38.973869,13.1582 C39.4315119,12.1872 39.307631,10.3842 39.307631,10.3842 C39.307631,10.3842 39.0035595,12.1622 38.7035833,12.8342 C38.5111071,13.2692 38.0565357,13.8022 37.9459643,13.9272 C37.7882976,13.8432 37.103369,13.4812 36.673369,13.2742 C36.1850119,13.0402 35.1386786,12.2132 35.1386786,12.2132 C35.1386786,12.2132 36.2034405,13.4222 37.1453452,13.9962 C37.4248452,14.1662 37.6439405,14.3082 37.8149167,14.4242 C37.5507738,14.2712 37.2333929,14.1082 37.0296548,14.0712 C36.62525,13.9982 35.8829881,14.2712 35.1663214,13.5932 C34.51825,12.9802 34.3974405,11.7232 33.8333214,10.8682 C33.8333214,10.8682 34.7854643,11.3232 35.3741548,11.4222 C35.942369,11.5182 36.7214881,11.4922 37.03375,12.0012 C37.2978929,12.4332 37.576369,13.0232 37.802631,13.5442 C37.4227976,12.3072 37.576369,11.5082 37.7330119,11.1122 C37.9265119,10.6242 38.7854881,10.0852 39.2124167,9.5602 C39.5830357,9.1042 40.0355595,8.2172 40.0355595,8.2172 C40.2720595,9.6462 40.9344643,10.2172 40.6559881,11.4072 C40.3549881,12.6892 39.6096548,12.7412 39.0701071,13.2622 C38.909369,13.4182 38.7660357,13.6422 38.6472738,13.8692 C38.7363452,13.6722 38.8428214,13.4362 38.973869,13.1582" id="Fill-37"></path>
                <path d="M37.6188571,9.2571 C37.7959762,8.2561 37.2308333,6.6311 37.2308333,6.6311 C37.2308333,6.6311 37.3966905,8.3361 37.2902143,9.0251 C37.221619,9.4701 36.9380238,10.0701 36.8694286,10.2121 C36.7025476,10.1721 35.9838333,10.0061 35.5374524,9.9211 C35.0296429,9.8231 33.8635238,9.3171 33.8635238,9.3171 C33.8635238,9.3171 35.1432857,10.1701 36.1507143,10.4681 C36.4486429,10.5561 36.6861667,10.6341 36.8725,10.6991 C36.5909524,10.6231 36.2592381,10.5491 36.0626667,10.5651 C35.673619,10.5961 35.061381,11.0261 34.233119,10.5771 C33.4857381,10.1721 33.0608571,9.0471 32.3298571,8.3991 C32.3298571,8.3991 33.3168095,8.5861 33.8819524,8.5351 C34.4276429,8.4851 35.136119,8.2731 35.5497381,8.6641 C35.899881,8.9971 36.3022381,9.4721 36.641119,9.8941 C35.9828095,8.8511 35.9254762,8.0821 35.9695,7.6791 C36.0247857,7.1851 36.6769524,6.4831 36.9380238,5.8981 C37.1632619,5.3891 37.3588095,4.4661 37.3588095,4.4661 C37.9331667,5.7211 38.683619,6.0841 38.7245714,7.2441 C38.769619,8.4931 38.0990238,8.7201 37.7335238,9.3291 C37.6239762,9.5111 37.5492381,9.7511 37.4970238,9.9881 C37.5287619,9.7861 37.5686905,9.5431 37.6188571,9.2571" id="Fill-39"></path>
                <path d="M35.4845214,6.0382 C35.3974976,5.0762 34.4719738,3.7212 34.4719738,3.7212 C34.4719738,3.7212 35.0504262,5.2462 35.1241405,5.9052 C35.1732833,6.3302 35.0627119,6.9482 35.035069,7.0962 C34.8722833,7.1002 34.1709738,7.1212 33.73995,7.1502 C33.250569,7.1842 32.0537357,7.0012 32.0537357,7.0012 C32.0537357,7.0012 33.4399738,7.4752 34.4402357,7.5042 C34.7361167,7.5132 34.9726167,7.5272 35.15895,7.5422 C34.8825214,7.5402 34.5600214,7.5522 34.3829024,7.6152 C34.0337833,7.7372 33.5802357,8.2802 32.70795,8.0682 C31.9206405,7.8772 31.2490214,6.9482 30.4166643,6.5302 C30.4166643,6.5302 31.3688071,6.4632 31.874569,6.2792 C32.3629262,6.1012 32.9598071,5.7362 33.4379262,5.9952 C33.8413071,6.2152 34.3306881,6.5532 34.7463548,6.8602 C33.8812357,6.0612 33.6355214,5.3692 33.5761405,4.9892 C33.50345,4.5222 33.9273071,3.7202 34.0204738,3.1202 C34.100331,2.5992 34.0470929,1.7042 34.0470929,1.7042 C34.8886643,2.7172 35.6677833,2.8682 35.9954024,3.9232 C36.3496405,5.0592 35.7896167,5.4292 35.6084024,6.0762 C35.5531167,6.2702 35.5439024,6.5082 35.5561881,6.7382 C35.5336643,6.5452 35.5090929,6.3132 35.4845214,6.0382" id="Fill-41"></path>
                <path d="M32.7985571,3.6286 C32.477081,2.7666 31.2904857,1.7476 31.2904857,1.7476 C31.2904857,1.7476 32.2016762,3.0066 32.4351048,3.5926 C32.5856048,3.9716 32.637819,4.5666 32.6501048,4.7076 C32.5016524,4.7506 31.863819,4.9396 31.4757952,5.0716 C31.0345333,5.2196 29.8899143,5.3426 29.8899143,5.3426 C29.8899143,5.3426 31.2812714,5.4406 32.2057714,5.2266 C32.4801524,5.1636 32.7012952,5.1196 32.8763667,5.0876 C32.6214381,5.1516 32.3286286,5.2416 32.1812,5.3416 C31.8924857,5.5386 31.6109381,6.1466 30.757081,6.1626 C29.9882,6.1776 29.1394619,5.4886 28.2702476,5.3056 C28.2702476,5.3056 29.1282,5.0136 29.5459143,4.7236 C29.9492952,4.4416 30.4059143,3.9616 30.9086048,4.0836 C31.3355333,4.1886 31.8679143,4.3806 32.3255571,4.5606 C31.3334857,4.0376 30.9352238,3.4616 30.7857476,3.1276 C30.6014619,2.7166 30.7898429,1.8786 30.724319,1.3056 C30.6680095,0.8086 30.3967,-0.0004 30.3967,-0.0004 C31.4215333,0.7256 32.1740333,0.6756 32.7391762,1.5646 C33.347319,2.5206 32.9265333,2.9966 32.9214143,3.6336 C32.9193667,3.8246 32.9705571,4.0456 33.0391524,4.2536 C32.9705571,4.0826 32.8896762,3.8756 32.7985571,3.6286" id="Fill-43"></path>
                <path d="M30.0544405,3.5916 C29.9285119,3.5046 29.3858929,3.1276 29.0603214,2.8826 C28.69175,2.6036 27.6474643,2.1316 27.6474643,2.1316 C27.6474643,2.1316 28.9958214,2.4716 29.8025833,2.9626 C30.041131,3.1076 30.2356548,3.2186 30.3912738,3.3026 C30.1711548,3.1626 29.9663929,2.9076 29.8599167,2.7676 C29.6500357,2.4906 29.5343452,1.9066 28.7327024,1.6256 C28.008869,1.3706 26.9840357,1.7596 26.1025357,1.6606 C26.1025357,1.6606 26.7854167,2.1636 27.1570595,2.5516 C27.4949167,2.9046 27.7150357,3.4986 28.2064643,3.6396 C28.7327024,3.7896 29.2138929,3.5386 30.0544405,3.5916" id="Fill-46"></path>
                <path d="M21.4386738,36.7537 C21.4048881,37.3007 21.6024833,38.2497 21.5707452,39.0107 C21.5297929,39.9957 21.206269,41.2337 21.206269,41.2337 C21.206269,41.2337 20.8827452,39.9957 20.8417929,39.0107 C20.8100548,38.2497 21.0066262,37.3007 20.9728405,36.7537 C20.4158881,38.4437 19.3531738,38.7727 19.3173405,40.0487 C19.2815071,41.3437 21.206269,42.4997 21.206269,42.4997 C21.206269,42.4997 23.1300071,41.3437 23.0941738,40.0487 C23.0593643,38.7727 21.9956262,38.4437 21.4386738,36.7537" id="Fill-48"></path>
                <polygon id="Fill-51" points="21.6804976 10.6428 23.5765929 14.0278 27.4322595 14.7568 24.747831 17.5778 25.2351643 21.4128 21.6804976 19.7708 18.125831 21.4128 18.6131643 17.5778 15.9287357 14.7568 19.7844024 14.0278"></polygon>
            </g>
        </g>
    </g>
</svg>