<?xml version="1.0" encoding="UTF-8" standalone="no"?>
<svg width="136px" height="42px" viewBox="0 0 136 42" version="1.1" xmlns="http://www.w3.org/2000/svg" xmlns:xlink="http://www.w3.org/1999/xlink">
    <!-- Generator: Sketch 41.2 (35397) - http://www.bohemiancoding.com/sketch -->
    <title>Group</title>
    <desc>Created with Sketch.</desc>
    <defs>
        <path d="M-1.42108547e-13,15.4890284 L-1.42108547e-13,2.8 C1.5463973,2.8 2.8,1.5463973 2.8,1.16984042e-13 L132.6,5.68434189e-14 C132.6,1.5463973 133.853603,2.8 135.4,2.8 C135.60595,2.8 135.806706,2.77776482 136,2.73556409 L136,15.4140656 C133.09389,15.6191642 130.8,18.0416988 130.8,21 C130.8,23.9583012 133.09389,26.3808358 136,26.5859344 L136,39.2644359 C135.806706,39.2222352 135.60595,39.2 135.4,39.2 C133.853603,39.2 132.6,40.4536027 132.6,42 L2.8,42 C2.8,40.4536027 1.5463973,39.2 -8.08851538e-14,39.2 L-1.42108547e-13,26.5109716 C2.61565733,26.0394678 4.6,23.7514679 4.6,21 C4.6,18.2485321 2.61565733,15.9605322 -1.50379709e-13,15.4890284 Z" id="path-1"></path>
        <path d="M133,4.99527273 L133,37.0047273 C132.160646,37.4839091 131.460585,38.1736364 130.974031,39 L5.02596923,39 C4.53941538,38.1736364 3.83907692,37.4839091 3,37.0047273 L3,4.99527273 C3.83907692,4.51609091 4.53941538,3.82636364 5.02596923,3 L130.974031,3 C131.460585,3.82636364 132.160646,4.51609091 133,4.99527273 Z" id="path-3"></path>
        <mask id="mask-4" maskContentUnits="userSpaceOnUse" maskUnits="objectBoundingBox" x="0" y="0" width="130" height="36" fill="white">
            <use xlink:href="#path-3"></use>
        </mask>
    </defs>
    <g id="Page-1" stroke="none" stroke-width="1" fill="none" fill-rule="evenodd">
        <g id="Group">
            <g id="Tcket">
                <mask id="mask-2" fill="white">
                    <use xlink:href="#path-1"></use>
                </mask>
                <use id="Combined-Shape" fill="#D9222A" xlink:href="#path-1"></use>
                <g id="Fill-1" opacity="0.300000012" mask="url(#mask-2)" stroke-width="2" stroke="#FFFFFF" stroke-dasharray="2">
                    <use mask="url(#mask-4)" xlink:href="#path-3"></use>
                </g>
            </g>
        </g>
    </g>
</svg>