<?xml version="1.0" encoding="UTF-8" standalone="no"?>
<svg width="142px" height="20px" viewBox="0 0 142 20" version="1.1" xmlns="http://www.w3.org/2000/svg" xmlns:xlink="http://www.w3.org/1999/xlink">
    <!-- Generator: Sketch 41.2 (35397) - http://www.bohemiancoding.com/sketch -->
    <title>Amediateka</title>
    <desc>Created with Sketch.</desc>
    <defs></defs>
    <g id="Page-1" stroke="none" stroke-width="1" fill="none" fill-rule="evenodd">
        <g id="Amediateka" fill="#FFFFFF">
            <path d="M108.173101,19.9838332 L108.173101,7.48691768 L111.395055,7.48691768 L111.395055,12.2237822 L111.62462,12.2237822 L114.669367,7.48691768 L118.394752,7.48691768 L114.927123,13.003829 L118.926374,19.4947883 L118.926374,19.9959583 L115.386252,19.9959583 L112.683837,15.2267603 L111.415193,15.2267603 L111.415193,20 L108.193238,20 L108.173101,19.9838332 Z M6.24253718,12.450117 L7.676307,15.7158051 L6.23850973,15.7158051 L5.11485304,18.4277813 L8.69927761,18.4277813 L9.4322723,19.9878749 L12.5213213,19.9878749 L12.5213213,19.5230802 L6.93525743,7.39800043 L5.57398158,7.39800043 L0,19.5230802 L0,19.9878749 L3.09710393,19.9878749 L6.24253718,12.450117 Z M26.9516508,7.48691768 L28.0873898,7.48691768 L28.0873898,19.9959583 L24.8372431,19.9959583 L24.8372431,14.4224633 L22.1831579,17.1869815 L21.8287429,17.1869815 L19.1988224,14.4062965 L19.1988224,19.9676665 L15.9486756,19.9676665 L15.9486756,7.48691768 L17.1206616,7.48691768 L21.9858132,12.9027866 L26.9516508,7.48691768 Z M40.5764916,10.3605616 L35.9771513,10.3605616 L35.9771513,12.1267815 L40.2019394,12.1267815 L40.2019394,14.9559668 L35.9771513,14.9559668 L35.9771513,17.1465646 L40.7335619,17.1465646 L40.7335619,19.9757498 L32.8156083,19.9757498 L32.8156083,7.51116784 L40.5764916,7.51116784 L40.5764916,10.3605616 Z M49.827529,19.9838332 L45.1395849,19.9838332 L45.1395849,7.51116784 L49.827529,7.51116784 C57.9267175,7.54754308 57.9267175,19.947458 49.827529,19.9838332 Z M48.3172377,17.0778558 L49.827529,17.0778558 C53.7865058,17.0778558 53.7865058,10.4131036 49.827529,10.4131036 L48.3172377,10.4131036 L48.3172377,17.0778558 Z M65.9292475,17.1869815 L65.9292475,19.9838332 L59.6222712,19.9838332 L59.6222712,17.1869815 L61.1849192,17.1869815 L61.1849192,10.2918528 L59.7310122,10.2918528 L59.7310122,7.51116784 L65.7721772,7.51116784 L65.7721772,10.2918528 L64.3142427,10.2918528 L64.3142427,17.1869815 L65.8970279,17.1869815 L65.9292475,17.1869815 Z M77.9390835,18.3994895 L73.037685,18.3994895 L72.3127452,19.9676665 L69.1995315,19.9676665 L69.1995315,19.5028717 L74.7936503,7.33333333 L76.1589535,7.33333333 L81.7691821,19.5028717 L81.7691821,19.9676665 L78.6640233,19.9676665 L77.9390835,18.3994895 Z M75.4702607,12.3935333 L74.0727379,15.691555 L76.8919482,15.691555 L75.4702607,12.3935333 Z M83.0176896,10.3605616 L83.0176896,7.51116784 L92.2526171,7.51116784 L92.2526171,10.3605616 L89.2159249,10.3605616 L89.2159249,19.9838332 L86.074519,19.9838332 L86.074519,10.3605616 L83.021717,10.3605616 L83.0176896,10.3605616 Z M104.008724,10.3605616 L99.4093839,10.3605616 L99.4093839,12.1267815 L103.634172,12.1267815 L103.634172,14.9559668 L99.4093839,14.9559668 L99.4093839,17.1465646 L104.169822,17.1465646 L104.169822,19.9757498 L96.2518684,19.9757498 L96.2518684,7.51116784 L104.012752,7.51116784 L104.012752,10.3605616 L104.008724,10.3605616 Z M131.479915,19.9838332 L134.597156,19.9838332 L134.597156,19.5190385 L128.994983,7.34141672 L127.637734,7.34141672 L121.999314,19.5190385 L121.999314,19.9838332 L125.104472,19.9838332 L125.841495,18.4156562 L129.442029,18.4156562 L128.314345,15.691555 L126.868493,15.691555 L128.30629,12.4097001 L131.479915,19.9838332 Z" id="Shape"></path>
            <path d="M137.643857,0.000151303455 C140.059744,0.0101436266 142.010034,1.95828565 141.999961,4.35145739 C141.989888,6.74462914 140.023266,8.67659292 137.607379,8.66662829 C135.191491,8.65666367 133.241178,6.70854401 133.251223,4.31537215 C133.251183,3.16462029 133.715137,2.06151886 134.53998,1.25121189 C135.364824,0.440904916 136.482223,-0.00947841991 137.643857,0.000151303455 Z M137.643857,7.87226966 C139.62189,7.87226966 141.225402,6.28383422 141.225402,4.32439981 C141.225402,2.36496539 139.62189,0.776529949 137.643857,0.776529949 C135.665824,0.776529949 134.062311,2.36496539 134.062311,4.32439981 C134.062286,6.27680479 135.654719,7.86233376 137.62563,7.87226966 L137.643857,7.87226966 Z M136.021681,6.8160336 L136.021681,1.69735113 L137.561837,1.69735113 C139.001746,1.69735113 139.457413,2.39248085 139.457413,3.21399779 C139.44935,3.91893848 138.943512,4.52174388 138.245338,4.65842318 L139.849287,6.8160336 L139.019972,6.8160336 L137.54361,4.7848104 L136.650502,4.7848104 L136.650502,6.8160336 L135.967001,6.8160336 L136.021681,6.8160336 Z M136.705182,2.21192768 L136.705182,4.27926151 L137.616517,4.27926151 C138.239196,4.31012327 138.771243,3.83940455 138.810365,3.22302545 C138.80144,2.90851298 138.651433,2.61431598 138.401192,2.42054401 C138.150951,2.22677205 137.82653,2.15360102 137.51627,2.22095534 L136.650502,2.22095534 L136.705182,2.21192768 Z" id="Shape"></path>
        </g>
    </g>
</svg>