<?xml version="1.0" encoding="UTF-8" standalone="no"?>
<svg width="94px" height="96px" viewBox="0 0 94 96" version="1.1" xmlns="http://www.w3.org/2000/svg" xmlns:xlink="http://www.w3.org/1999/xlink">
    <!-- Generator: Sketch 41.2 (35397) - http://www.bohemiancoding.com/sketch -->
    <title>Cinemapark</title>
    <desc>Created with Sketch.</desc>
    <defs></defs>
    <g id="Page-1" stroke="none" stroke-width="1" fill="none" fill-rule="evenodd">
        <g id="Cinemapark" fill="#FFFFFF">
            <path d="M12.5843164,0.177859609 C13.4425311,0.00741081703 14.3294237,0.0190563867 15.1940113,0.140805524 C24.9562034,1.71189873 34.7247684,3.24593786 44.483774,4.83714614 C46.392452,5.11240506 48.3414915,5.10181818 50.2491073,4.81491369 C59.9348249,3.22264672 69.6343503,1.71295742 79.3243164,0.146098964 C80.9833898,-0.0995166858 82.864452,0.0666973533 84.1613333,1.23443038 C85.4932655,2.44027618 85.9276836,4.31521289 85.9552994,6.04405063 C85.9574237,12.7116686 85.9552994,19.3792865 85.9552994,26.0469045 C85.9499887,27.2146375 85.995661,28.3897814 85.8108475,29.5469275 C85.6929492,30.3007135 85.4284746,31.0460299 84.9526328,31.6515995 C84.1400904,32.6912313 82.9696045,33.3518527 81.9478192,34.1596318 C72.4692203,41.3957652 62.9948701,48.6382509 53.5162712,55.8743843 C51.9177401,57.0834062 49.8582373,57.4391254 47.8985763,57.5100575 C45.9304181,57.5534638 43.8825989,57.4010127 42.0907571,56.5201841 C41.3419435,56.1697583 40.7227119,55.6160644 40.0652429,55.1290679 C30.7640226,48.0242117 21.4638644,40.9161795 12.1615819,33.812382 C11.1971525,33.1041197 10.1509379,32.4413809 9.45841808,31.443038 C8.72447458,30.3610587 8.63631638,29.0059379 8.61825989,27.7397468 C8.6140113,20.5057307 8.61719774,13.2727733 8.61613559,6.03875719 C8.62781921,4.54918297 8.94858757,2.98867664 9.88327684,1.79024166 C10.5343729,0.932704258 11.532791,0.380069045 12.5843164,0.177859609 L12.5843164,0.177859609 Z M79.6068475,2.9293901 C69.2668475,4.32156502 58.9268475,5.70844649 48.5868475,7.09638665 C47.7902373,7.21495972 47.1890621,7.99203682 47.188,8.77970081 C47.1858757,14.0424396 47.1858757,19.3062371 47.1869379,24.5689758 C47.1784407,25.3852244 47.8136045,26.201473 48.6505763,26.286168 C58.8832994,27.6624626 69.1170847,29.0324051 79.3487458,30.410817 C80.0125876,30.523038 80.7146667,30.5579747 81.3508927,30.29542 C82.0614689,30.0371001 82.6679548,29.3733026 82.6530847,28.5866974 C82.6573333,20.7524051 82.6530847,12.9181128 82.655209,5.08382048 C82.6562712,4.41684695 82.4980113,3.66729574 81.9265763,3.25017261 C81.259548,2.76635213 80.3800904,2.83516686 79.6068475,2.9293901 L79.6068475,2.9293901 Z M41.9378079,25.8182278 C42.1088136,26.5264902 42.3998418,27.2220483 42.8778079,27.779977 C43.6202486,28.6470426 44.7429379,29.0535788 45.8295141,29.2875489 C53.8880226,31.1180207 61.9486554,32.9304948 70.0199096,34.7037975 C71.7299661,35.0425777 73.4336497,35.5698044 75.1957514,35.499931 C76.0741469,35.4628769 77.0290169,35.1812658 77.5484068,34.4221864 C77.6960452,34.1765708 77.955209,33.8536709 77.7364068,33.5752359 C77.2106441,32.8712083 76.4416497,32.3143383 75.5515706,32.1968239 C75.4708475,32.7240506 75.1607006,33.2406904 74.6296271,33.4143153 C73.6503277,33.7435673 72.5998644,33.5371231 71.6088814,33.3804373 C68.1059209,32.6806444 64.5880904,32.0613119 61.0766328,31.4081013 C56.1578305,30.506099 51.2400904,29.5956272 46.3170395,28.7147986 C45.3164972,28.5168239 44.2925876,28.2309781 43.471548,27.6021174 C42.8406328,27.1373533 42.4391412,26.4439125 42.1417401,25.7356502 C42.0896949,25.5736709 41.9048814,25.6668354 41.9378079,25.8182278 L41.9378079,25.8182278 Z M37.8867797,26.5571922 C38.0620339,27.5862371 38.6090395,28.5528193 39.451322,29.1827388 C41.0137401,30.376939 42.9893333,30.7474799 44.823661,31.3329344 C51.6320226,33.333855 58.4233898,35.3982969 65.2444972,37.3558113 C67.0193446,37.8226928 68.7740113,38.5224856 70.6348927,38.524603 C71.5239096,38.5383659 72.4872768,38.2673418 73.0502147,37.5379056 C73.2371525,37.2933487 73.5016271,36.9556272 73.2711412,36.653901 C72.7878644,35.9562255 72.1102147,35.319954 71.2477514,35.1547986 C71.1224181,35.618504 70.8228927,36.0525662 70.3693559,36.2452474 C69.7203842,36.5152129 68.9949379,36.4516916 68.3172881,36.3468815 C66.971548,36.1256157 65.6874124,35.6513234 64.3618531,35.3411277 C57.3463729,33.5805293 50.3606328,31.7024166 43.3228475,30.0275719 C41.8708927,29.6644419 40.3159096,29.31084 39.1932203,28.2542693 C38.6239096,27.7355121 38.3031412,27.0219563 38.0599096,26.3073418 C37.8655367,26.1252474 37.8336723,26.418504 37.8867797,26.5571922 L37.8867797,26.5571922 Z M33.9494011,27.9408976 C34.3115932,29.3563636 35.4927006,30.3674108 36.724791,31.0513234 C37.3450847,31.4747986 38.0715932,31.6865362 38.7630508,31.9607365 C42.0865085,33.2089298 45.4216497,34.4232451 48.7451073,35.6682624 C53.0871638,37.2891139 57.4302825,38.9089068 61.7999548,40.4545915 C63.3113898,41.0008746 64.8610621,41.6191484 66.4957062,41.5672727 C67.4473898,41.5513924 68.4203164,41.0718067 68.8706667,40.2110932 C68.9609492,40.0575834 68.8791638,39.8701956 68.808,39.7272727 C68.3831412,39.0190104 67.7840904,38.3721519 66.9832316,38.096893 C66.8164746,38.4314384 66.6189153,38.772336 66.291774,38.9766628 C65.699096,39.3662601 64.9428475,39.3408516 64.2715706,39.2275719 C62.6953446,38.9491369 61.2433898,38.2451093 59.7202712,37.7835213 C53.3718192,35.7444879 47.072226,33.5551208 40.6919096,31.6145455 C39.2091525,31.1264902 37.6573559,30.7781818 36.2924972,29.9958113 C35.3886102,29.4855236 34.5983729,28.7105639 34.2393672,27.7238665 C34.1108475,27.4104948 34.1012881,27.0494822 33.8867345,26.7763406 C33.6923616,27.1394707 33.8750508,27.5650633 33.9494011,27.9408976 L33.9494011,27.9408976 Z M29.7167458,27.7365708 C29.732678,28.2828539 29.8335819,28.8301956 30.0375141,29.3394246 C30.4868023,30.4616341 31.3928136,31.3286997 32.3784859,31.9977906 C33.1177401,32.5970081 34.0396836,32.8828539 34.8830282,33.2989183 C41.887887,36.4146375 48.8576949,39.607641 55.8912316,42.6587802 C57.6299661,43.3564557 59.3060339,44.292336 61.1817853,44.5771231 C62.1536497,44.7274568 63.2519096,44.5760644 63.9773559,43.8603913 C64.2131525,43.6126582 64.5785311,43.3056387 64.4085876,42.9234522 C64.0495819,42.1431991 63.4813333,41.4275259 62.7027797,41.0315765 C62.3246554,41.7345455 61.5747797,42.2130725 60.7632994,42.1717837 C59.1297175,42.1135558 57.6883842,41.253901 56.212,40.6504488 C52.9830734,39.3281473 49.7286554,38.0672497 46.4965424,36.7534177 C42.6972429,35.1749137 38.8480226,33.7192175 35.0009266,32.2635213 C33.6318192,31.7447641 32.2265989,31.1656617 31.1782599,30.1112083 C30.4432542,29.3955351 30.0343277,28.4130725 29.9228023,27.4052014 C29.7666667,27.4454315 29.6795706,27.5756502 29.7167458,27.7365708 L29.7167458,27.7365708 Z M25.7432542,27.9779517 C25.5616271,28.1632221 25.655096,28.4543613 25.632791,28.6883314 C25.6529718,30.3716456 26.6938757,31.8622785 27.9843842,32.8701496 C28.7363842,33.5540621 29.6944407,33.9309551 30.5685876,34.4274799 C38.2532203,38.4526122 45.8985537,42.5539701 53.6405424,46.4700575 C54.751548,46.9941082 55.8976045,47.5319217 57.1403164,47.6272037 C57.9974689,47.7087227 58.9077288,47.4832221 59.5386441,46.8776525 C59.776565,46.6457998 60.1185763,46.3610127 59.9677514,45.9872957 C59.6533559,45.1816341 59.1637062,44.4034983 58.4212655,43.9270886 C58.012339,44.5305409 57.3569944,44.9857768 56.6092429,45.0058918 C55.3389153,45.0376525 54.1779887,44.4225547 53.0818531,43.8550978 C51.9028701,43.2018872 50.6835254,42.6280783 49.4663051,42.0521519 C43.7115932,39.3472037 37.9972429,36.5575604 32.191548,33.9648331 C30.7417175,33.2851554 29.2090395,32.7282854 27.9344633,31.7362946 C26.8712542,30.9253395 25.9928588,29.7374914 25.9174463,28.3654315 C25.8834576,28.2394476 25.9556836,27.9525432 25.7432542,27.9779517 L25.7432542,27.9779517 Z M21.5700791,28.6883314 C21.4181921,29.5702186 21.5520226,30.48916 21.8770395,31.3181128 C22.495209,32.8690909 23.7581017,34.0961105 25.1962486,34.909183 C33.088,39.6849252 40.9510734,44.5093671 48.9001808,49.1898274 C50.1025311,49.8737399 51.3739209,50.5576525 52.7802034,50.667756 C53.7871186,50.7619793 54.823774,50.335328 55.4546893,49.5444879 C55.6310056,49.320046 55.532226,49.0278481 55.4451299,48.7885846 C55.1498531,48.0602071 54.7834124,47.3191254 54.1355028,46.8395397 C53.847661,47.1285616 53.5576949,47.4334638 53.1806328,47.6070886 C52.4732429,47.9617491 51.6288362,47.8844649 50.9023277,47.6314384 C49.480113,47.1455006 48.2958192,46.1916226 46.992565,45.4759494 C43.796565,43.6730035 40.5591412,41.9473418 37.3440226,40.1793326 C33.5691525,38.0947756 29.7517966,36.0875029 25.9397514,34.0717606 C24.8892881,33.5043038 23.8706893,32.8352129 23.0825763,31.9300345 C22.4867119,31.2514154 22.024678,30.4319908 21.8812881,29.5342232 C21.8164972,29.212382 21.8494237,28.8820713 21.8143729,28.5581128 L21.6954124,28.5125892 C21.663548,28.5559954 21.6008814,28.6449252 21.5700791,28.6883314 L21.5700791,28.6883314 Z M17.4712542,29.3404833 C17.0963164,31.2005984 17.8323842,33.1517606 19.1080226,34.5142923 C19.732565,35.2130265 20.5408588,35.7042578 21.3002938,36.2410127 C28.8850847,41.4656387 36.4624407,46.7019102 44.1014011,51.8471346 C45.3271186,52.6591484 46.6303729,53.4701036 48.1152542,53.6818412 C49.1742147,53.8469965 50.296904,53.4309321 50.9947345,52.6210357 C51.1933559,52.3775374 51.092452,52.0482854 51.0053559,51.781496 C50.7430056,51.041473 50.4530395,50.2643959 49.8401808,49.7361105 C49.191209,50.4348446 48.2182825,50.8530265 47.260226,50.6561105 C45.7052429,50.355443 44.4816497,49.2755811 43.2155706,48.4021634 C41.6882034,47.3688838 40.1141017,46.4054776 38.5516836,45.4251323 C32.8702599,41.8954661 27.1612203,38.4081473 21.4447458,34.9335328 C20.1266215,34.1066974 18.8902825,33.0363636 18.1988249,31.6187802 C17.8005198,30.85229 17.6932429,29.9778136 17.7580339,29.1266283 C17.6210169,28.8894822 17.484,29.2166168 17.4712542,29.3404833 Z" id="Shape"></path>
            <path d="M1.94054237,68.841473 C3.1439548,67.5234062 4.91667797,66.8013809 6.69046328,66.7484465 C8.40264407,66.706099 10.2093559,66.9887687 11.6336949,67.9976985 C13.0644068,68.9960414 13.832339,70.7100575 13.9736045,72.4103107 C12.5343955,72.3976064 11.0951864,72.4081933 9.65491525,72.4039586 C9.58587571,71.6808746 9.27679096,70.9366168 8.64375141,70.5321979 C7.8120904,70.0144994 6.63841808,69.9647411 5.83968362,70.5766628 C5.2820565,71.0064902 4.97934463,71.6787572 4.81896045,72.3467894 C4.61184181,73.227618 4.5959096,74.1423245 4.66282486,75.0411507 C4.73823729,75.8044649 4.9060565,76.6175374 5.44562712,77.1998159 C5.99688136,77.796916 6.86677966,77.980069 7.65170621,77.9080783 C8.24225989,77.8530265 8.80838418,77.5470656 9.15251977,77.0611277 C9.47647458,76.629183 9.60287006,76.0956041 9.69740113,75.5747296 C11.156791,75.5789643 12.6151186,75.5906099 14.0745085,75.5694361 C13.9024407,77.1828769 13.1982373,78.781496 11.9300339,79.8327733 C10.4366554,81.0904948 8.37715254,81.4578596 6.47378531,81.2651784 C4.69575141,81.1201381 2.90072316,80.4044649 1.73129944,79.0218182 C0.534259887,77.6412888 0.0616045198,75.7737629 0.0743502825,73.9803452 C0.069039548,72.1255236 0.651096045,70.2135328 1.94054237,68.841473 Z" id="Shape"></path>
            <path d="M15.9863729,67.0956962 C17.4372655,67.1475719 18.908339,67.0628769 20.3454237,67.136985 C20.3571073,68.253901 20.3443616,69.370817 20.3496723,70.487733 C20.3825989,71.998481 20.180791,73.5007595 20.1266215,75.0083314 C21.8026893,72.3721979 23.4511412,69.7180667 25.1420791,67.0925201 C26.5547345,67.1316916 27.968452,67.099931 29.3811073,67.1105178 C29.3747345,71.720046 29.3747345,76.3295742 29.3811073,80.9401611 C27.9227797,80.9327503 26.4655141,80.9412198 25.0071864,80.9359264 C25.0305537,79.4654085 25.0029379,77.993832 25.0220565,76.5222555 C25.0847232,75.3598159 25.1792542,74.1994937 25.2429831,73.0381128 C23.5754124,75.6700115 21.9205876,78.3103797 20.2477062,80.9401611 C18.828678,80.9412198 17.4096497,80.9232221 15.9906215,80.9496893 C15.9778757,76.3316916 15.9863729,71.7136939 15.9863729,67.0956962 Z" id="Shape"></path>
            <path d="M32.0640904,67.1094591 C33.5840226,67.1094591 35.1050169,67.1126352 36.6249492,67.1084005 C36.6228249,68.7176064 36.6185763,70.3268124 36.6270734,71.9370771 C38.0524746,71.9264902 39.4789379,71.9360184 40.904339,71.9317837 C40.9064633,70.3246951 40.9075254,68.7176064 40.904339,67.1094591 C42.4263955,67.1084005 43.948452,67.1158113 45.4705085,67.1062831 C45.4758192,71.71687 45.4683842,76.3285155 45.4747571,80.9391024 C43.9495141,80.9348677 42.4242712,80.9359264 40.9000904,80.9391024 C40.9138983,79.0144074 40.9022147,77.0897123 40.9054011,75.1650173 C39.4778757,75.1628999 38.0492881,75.1650173 36.6217627,75.1639586 C36.6270734,77.0886536 36.6153898,79.0133487 36.6291977,80.9380437 C35.1060791,80.9380437 33.5840226,80.9359264 32.0619661,80.9391024 C32.0651525,76.3295742 32.060904,71.7189873 32.0640904,67.1094591 Z" id="Shape"></path>
            <path d="M48.1481808,67.1073418 C51.9219887,67.1126352 55.6957966,67.1105178 59.4706667,67.1084005 C59.4685424,68.1872037 59.4642938,69.2670656 59.4717288,70.3458688 C57.2157288,70.3405754 54.9597288,70.3437514 52.7037288,70.3437514 C52.7154124,71.0001381 52.7111638,71.6575834 52.7069153,72.3139701 C54.6134689,72.3097353 56.5210847,72.3182048 58.4287006,72.3097353 C58.4340113,73.3885386 58.4287006,74.4673418 58.4308249,75.546145 C56.523209,75.5493211 54.6155932,75.546145 52.7079774,75.5472037 C52.7164746,76.2713464 52.6994802,76.9965478 52.7175367,77.7206904 C55.0585085,77.6973993 57.3994802,77.7238665 59.740452,77.7069275 C59.7351412,78.784672 59.7330169,79.8634753 59.740452,80.9412198 C55.8774237,80.9327503 52.0133333,80.9359264 48.1503051,80.9401611 C48.1524294,76.3295742 48.156678,71.7179287 48.1481808,67.1073418 Z" id="Shape"></path>
            <path d="M61.9380339,67.1084005 C63.7723616,67.1126352 65.6077514,67.1084005 67.4420791,67.1105178 C68.2546215,69.9763867 69.0576045,72.8454315 69.8882034,75.7049482 C70.6975593,72.8380207 71.5154124,69.9732106 72.3268927,67.1062831 C74.1569718,67.1126352 75.9891751,67.1126352 77.8203164,67.1062831 C77.8203164,71.7179287 77.8150056,76.3295742 77.8224407,80.9422785 C76.4575819,80.9327503 75.0937853,80.9359264 73.7289266,80.9412198 C73.7618531,78.7264442 73.6662599,76.5074338 73.8149605,74.2958343 C73.8383277,73.5452244 73.9944633,72.8020253 73.9817175,72.0514154 C73.1585537,75.0168009 72.3088362,77.9758343 71.4633672,80.9359264 C70.4075932,80.9391024 69.3518192,80.9348677 68.2960452,80.9391024 C67.4962486,78.1049942 66.6709605,75.2782969 65.8881582,72.4410127 C65.8456723,72.3192635 65.8021243,72.1985731 65.7585763,72.08 C65.7490169,72.1001151 65.7320226,72.1403452 65.7224633,72.1604603 C66.176,75.0655006 65.9890621,78.0139471 66.0336723,80.9422785 C64.6677514,80.9327503 63.3018305,80.936985 61.9359096,80.9401611 C61.9486554,76.3295742 61.9465311,71.7189873 61.9380339,67.1084005 Z" id="Shape"></path>
            <path d="M84.3461469,67.1062831 C85.887322,67.1147526 87.4284972,67.1105178 88.9696723,67.1073418 C90.6329944,71.7179287 92.2931299,76.3295742 93.9394576,80.9454545 C92.4290847,80.9327503 90.919774,80.9295742 89.4094011,80.9465132 C89.2214011,80.3409436 89.0525198,79.7311392 88.8719548,79.1245109 C87.3647684,79.1213349 85.8586441,79.1192175 84.3514576,79.1255696 C84.1762034,79.7269045 84.0020113,80.329298 83.8426893,80.9359264 C82.3493107,80.933809 80.8559322,80.9475719 79.3636158,80.9295742 C81.0471186,76.3295742 82.6785763,71.7115765 84.3461469,67.1062831 L84.3461469,67.1062831 Z M86.6095819,71.3368009 C86.140113,72.9671807 85.691887,74.6039125 85.2117966,76.2311162 C86.1677288,76.2311162 87.1247232,76.2279402 88.0817175,76.2342923 C87.5771977,74.6060299 87.1332203,72.9587112 86.6095819,71.3368009 Z" id="Shape"></path>
            <path d="M26.8319548,86.67084 C29.827209,86.6687227 32.8224633,86.6718987 35.8166554,86.6697814 C35.8145311,89.7632681 35.8113446,92.8578136 35.8187797,95.952359 C34.7980565,95.9428308 33.7773333,95.9407135 32.7566102,95.9534177 C32.7619209,93.583015 32.7523616,91.2126122 32.7619209,88.8432681 C31.8028023,88.8485616 30.8436836,88.8475029 29.8856271,88.8422094 C29.899435,91.2126122 29.8835028,93.583015 29.8941243,95.9534177 C28.8744633,95.9417722 27.8548023,95.9417722 26.8340791,95.952359 C26.8340791,92.8588723 26.8383277,89.7643268 26.8319548,86.67084 Z" id="Shape"></path>
            <path d="M40.1788927,86.6750748 C41.2059887,86.6581358 42.2341469,86.6856617 43.2623051,86.6602532 C44.4179209,89.743153 45.4843164,92.859931 46.6303729,95.9470656 C45.6096497,95.9438895 44.5889266,95.9502417 43.5682034,95.9428308 C43.4598644,95.5299425 43.3324068,95.1223475 43.203887,94.71687 C42.1980339,94.7211047 41.1921808,94.7009896 40.1863277,94.7263982 C40.0737401,95.1339931 39.9526554,95.538412 39.8421921,95.9460069 C38.8384633,95.9460069 37.8357966,95.9481243 36.8331299,95.9449482 C37.9738757,92.8641657 39.0615141,89.7643268 40.1788927,86.6750748 L40.1788927,86.6750748 Z M41.7094463,89.512359 C41.3695593,90.595397 41.092339,91.6964327 40.7651977,92.7837054 C41.4056723,92.7741772 42.0450847,92.7805293 42.6866215,92.778412 C42.3467345,91.6943153 42.0387119,90.5996318 41.7094463,89.512359 Z" id="Shape"></path>
            <path d="M47.911322,86.6718987 C49.3962034,86.667664 50.8810847,86.6718987 52.3659661,86.6697814 C53.312339,86.6824856 54.3075706,86.8042348 55.1190508,87.3282854 C55.7786441,87.7432911 56.2151864,88.4663751 56.3182147,89.2339241 C56.4541695,90.2259148 56.276791,91.3396548 55.5449718,92.0775604 C54.8694463,92.7667664 53.8742147,92.9933257 52.9416497,93.0536709 C52.2820565,93.0790794 51.6235254,93.0589643 50.9639322,93.0653165 C50.9660565,94.0244879 50.9543729,94.9847181 50.9713672,95.9438895 C49.9485198,95.9460069 48.9256723,95.949183 47.9028249,95.9438895 C47.9293785,92.8535788 47.911322,89.7622094 47.911322,86.6718987 L47.911322,86.6718987 Z M50.9607458,88.8453855 C50.9681808,89.5271807 50.9575593,90.2089758 50.9660565,90.890771 C51.5704181,90.8558343 52.1949605,90.9691139 52.7865763,90.8113694 C53.5226441,90.6229229 53.7095819,89.4700115 53.0372429,89.0941772 C52.4063277,88.7395167 51.6522034,88.8729114 50.9607458,88.8453855 Z" id="Shape"></path>
            <path d="M57.7499887,86.6655466 C58.7685876,86.6740161 59.7871864,86.6718987 60.8057853,86.6666053 C60.803661,87.6607135 60.8238418,88.6558803 60.7930395,89.6499885 C61.6491299,88.7522209 62.4489266,87.801519 63.2827119,86.8836364 C63.3761808,86.7925892 63.4622147,86.6433142 63.6183503,86.67084 C64.772904,86.6644879 65.9274576,86.6793096 67.0830734,86.6634292 C65.9391412,87.8322209 64.7983955,89.0052474 63.6534011,90.1719217 C64.9237288,92.092382 66.1770621,94.0244879 67.4240226,95.9597699 C66.2004294,95.9269505 64.975774,95.9587112 63.7521808,95.9428308 C63.0044294,94.7136939 62.2726102,93.4760875 61.5163616,92.2533026 C61.2858757,92.5116226 61.0500791,92.7667664 60.8068475,93.0134407 C60.8079096,93.9927273 60.8057853,94.9730725 60.811096,95.9534177 C59.791435,95.9375374 58.7707119,95.9502417 57.7510508,95.9470656 C57.7542373,92.8535788 57.7574237,89.7600921 57.7499887,86.6655466 Z" id="Shape"></path>
        </g>
    </g>
</svg>