<?xml version="1.0" encoding="UTF-8" standalone="no"?>
<svg width="90px" height="79px" viewBox="0 0 90 79" version="1.1" xmlns="http://www.w3.org/2000/svg" xmlns:xlink="http://www.w3.org/1999/xlink">
    <!-- Generator: Sketch 41.2 (35397) - http://www.bohemiancoding.com/sketch -->
    <title>Cinepromo</title>
    <desc>Created with Sketch.</desc>
    <defs></defs>
    <g id="Page-1" stroke="none" stroke-width="1" fill="none" fill-rule="evenodd">
        <g id="Cinepromo" fill="#FFFFFF">
            <path d="M58.1643145,0.55822223 C60.071371,-0.137669886 62.2986895,-0.280135989 64.1367944,0.695208867 C64.9796371,1.11712771 65.5530242,1.89977803 66.315121,2.43402591 C66.6453629,2.67238266 67.0409274,2.78653819 67.4383065,2.84681231 C67.2006048,2.1901897 66.9502016,1.53722006 66.7106855,0.881510693 C67.1470766,0.98836027 67.5825605,1.10160256 68.0198589,1.20662564 C68.030746,1.25411435 68.0543347,1.35091824 68.0652218,1.39840694 C69.0142137,1.64772262 69.8951613,2.18562348 70.5030242,2.96736055 C71.3694556,4.06416689 71.8076613,5.4285538 72.643246,6.547278 C72.5779234,5.83403424 72.4971774,5.12261697 72.4363911,4.41028646 C73.719254,4.95366679 74.8143145,5.88334943 75.6453629,6.9993339 C76.6914315,8.39842409 77.4254032,10.0002545 78.1022177,11.6029981 C78.1385081,10.5381554 78.1076613,9.47239932 78.1203629,8.40755653 C78.9105847,8.9600693 79.7361895,9.4678331 80.461996,10.1089306 C81.1605847,10.7208042 81.7693548,11.5153267 81.9072581,12.4605345 C82.1413306,13.7107659 81.7294355,14.9746959 81.9199597,16.2249273 C81.9970766,15.3591717 82.072379,14.4934162 82.153125,13.6276606 C83.394254,14.5664757 84.4929435,15.8203601 84.8993952,17.3591766 C85.194254,18.4532432 84.740625,19.5801866 84.9547379,20.680646 C85.0109879,21.0212861 85.2232863,21.3025653 85.4782258,21.5226572 C85.6542339,20.8395505 85.8157258,20.1527908 85.9935484,19.4705973 C86.8454637,20.7865823 87.3399194,22.3190061 87.4678427,23.881567 C87.4977823,24.5272307 87.3362903,25.1591957 87.2909274,25.79938 C87.2065524,26.6824871 87.1330645,27.5665076 87.1258065,28.454181 C87.7627016,27.665138 88.3905242,26.8697022 89.0174395,26.0733532 C88.9376008,27.7957319 89.6207661,29.4560099 89.4846774,31.1793018 C89.433871,32.0487103 88.8740927,32.7519084 88.5211694,33.5135541 C88.308871,33.9519113 88.0902218,34.4879857 88.3542339,34.9546535 C88.6164315,34.8231464 88.8477823,34.6395843 89.0455645,34.4231454 C89.2633065,34.4176659 89.4828629,34.4158394 89.7024194,34.4149262 C89.8521169,35.0322793 89.9355847,35.6633311 90,36.2962093 L90,37.1875357 C89.9392137,38.5829729 89.4166331,39.9500996 88.5166331,41.0140291 C88.1074597,41.4715645 87.6320565,41.8578668 87.163004,42.2487353 L87.1403226,42.3318405 C87.3199597,42.7062707 87.5621976,43.0459976 87.7627016,43.4094688 C88.2771169,43.2377788 88.7897177,43.0615227 89.3059476,42.8953122 C89.0591734,44.2898362 88.6608871,45.6816204 87.9114919,46.8925823 C87.0142137,48.3537731 85.7177419,49.4962417 84.5528226,50.7327744 C85.2704637,50.4049197 85.9871976,50.0743253 86.7066532,49.7501236 C86.5487903,51.0405377 86.150504,52.3336915 85.3539315,53.3738767 C84.8576613,54.0524172 84.1926411,54.5720532 83.5829637,55.1400911 C83.1819556,55.5145212 82.6648185,55.7200012 82.2347782,56.0551618 C81.9753024,56.2405504 81.7158266,56.425939 81.4617944,56.6195468 C82.233871,56.4825601 83.0041331,56.3373543 83.7753024,56.1985412 C83.1511089,57.106306 82.571371,58.0478608 81.8745968,58.9026574 C81.3048387,59.6058555 80.6398185,60.2506059 79.8350806,60.673438 C78.6012097,61.3200149 77.0924395,61.1647634 75.9148185,61.9455872 C76.7467742,61.9684183 77.5796371,61.9501535 78.4125,61.9556329 C78.4115927,62.1108844 78.4115927,62.2670492 78.4125,62.4241272 C76.9545363,63.4314356 75.491129,64.4314381 74.0349798,65.440573 C73.7655242,65.635094 73.4243952,65.665231 73.1150202,65.758382 C71.8394153,66.0981088 70.5601815,66.4213973 69.2863911,66.7666036 C70.203629,66.8259645 71.1199597,66.8917181 72.0371976,66.9501657 C72.0381048,67.1054172 72.0399194,67.2624952 72.0417339,67.4204865 C70.5864919,68.3483426 69.1439516,69.2981167 67.6941532,70.2351053 C66.3087702,70.1355616 64.9252016,70.0095339 63.5389113,69.9246022 C64.2420363,70.2451509 64.9478831,70.5602202 65.6455645,70.8917279 C64.4761089,71.4469804 63.2839718,71.9830547 62.015625,72.2615942 C60.7998992,72.5328278 59.516129,72.5474397 58.3131048,72.2104526 C57.3976815,71.9583971 56.4740927,71.6296292 55.5105847,71.7218669 C56.0132056,71.9702693 56.5221774,72.2095393 57.0447581,72.4159325 C57.5228831,72.6762071 58.0209677,72.8972122 58.5145161,73.1264365 C58.5,73.2186742 58.4854839,73.3118251 58.471875,73.4058893 C56.8814516,73.4889945 55.4779234,74.403152 53.8938508,74.5273532 C52.7370968,74.6570339 51.5948589,74.3775812 50.452621,74.2378548 C49.6660282,74.1383112 48.8340726,74.2195899 48.1354839,74.6214174 C47.784375,74.8086324 47.4795363,75.0670806 47.1792339,75.3255287 C49.018246,75.865256 50.8554435,76.4132026 52.6971774,76.9428842 C52.6980847,77.0880901 52.6989919,77.2342092 52.6998992,77.3812415 C51.9015121,77.9620648 51.1294355,78.643345 50.1604839,78.9145786 C49.6270161,79.0670904 49.0409274,79.0159487 48.5482863,78.7565873 C47.4740927,78.209554 46.7110887,77.1876337 45.5951613,76.710007 C44.9528226,76.4369469 44.240625,76.6753037 43.6509073,76.9711948 C42.5912298,77.495397 41.6948589,78.3145771 40.584375,78.7392357 C40.0055444,78.9602408 39.3205645,78.9821586 38.7789315,78.6479113 C38.053125,78.2186865 37.6221774,77.4552143 37.2429435,76.7273586 C39.1064516,76.2552113 40.9717742,75.7931097 42.834375,75.3163962 C42.2700605,74.8004132 41.596875,74.3647957 40.8302419,74.249727 C39.7333669,74.0743841 38.6537298,74.4259831 37.5668347,74.5173075 C36.6858871,74.6113717 35.7877016,74.5447049 34.9321573,74.3118276 C33.6892137,73.9857994 32.4916331,73.4022363 31.1842742,73.4022363 L31.1842742,72.9218698 C32.0407258,72.61228 32.8998992,72.3099962 33.753629,71.9931004 C33.9033266,71.9383058 34.0566532,71.8953833 34.2154234,71.8752919 C34.2254032,71.8405886 34.2353831,71.8058854 34.2435484,71.7730086 C32.938004,72.0524613 31.6043347,72.1839685 30.2879032,72.4104531 C29.8923387,72.5081702 29.5022177,72.3684438 29.1193548,72.2835121 C27.5189516,71.9163879 25.9194556,71.5456107 24.3172379,71.1867058 C25.0512097,70.794924 25.7634073,70.3520005 26.518246,70.0031412 L26.5844758,69.9848763 C26.6334677,69.9446936 26.6298387,69.87894 26.6425403,69.8250586 C26.3449597,69.9775704 26.0038306,69.923689 25.6826613,69.957479 C24.4959677,70.0451505 23.3065524,70.1017716 22.1198589,70.2031417 C20.7326613,69.2862445 19.3654234,68.3392102 17.9827621,67.4140938 C17.9809476,67.2597555 17.9800403,67.1063305 17.9782258,66.9538187 C18.8981855,66.8862386 19.8181452,66.8296175 20.7371976,66.7656904 C19.29375,66.3803013 17.8466734,66.0058712 16.400504,65.627788 C16.2471774,65.5885185 16.1029234,65.5209385 15.9740927,65.429614 C14.5224798,64.4232189 13.0645161,63.4268694 11.6110887,62.423214 C11.6101815,62.266136 11.6101815,62.1108844 11.6101815,61.9556329 C12.4430444,61.9501535 13.2768145,61.9665918 14.1096774,61.9465005 C12.849496,61.1236674 11.2073589,61.3592844 9.9453629,60.5382778 C8.29778226,59.5090516 7.32701613,57.7574491 6.24919355,56.1967147 C7.01945565,56.3391808 7.78971774,56.4825601 8.5608871,56.6186335 C7.20090726,55.6040192 5.66582661,54.762008 4.61159274,53.3930549 C3.80504032,52.3574359 3.42762097,51.0514966 3.32782258,49.7546898 C4.04274194,50.073412 4.75221774,50.4058329 5.46622984,50.7291214 C4.39929435,49.5720409 3.18266129,48.5373352 2.31260081,47.2103913 C1.43891129,45.9281964 0.980745968,44.4112977 0.721270161,42.8916593 C1.23568548,43.0642624 1.74919355,43.2368656 2.26360887,43.4094688 C2.46592742,43.0167737 2.76804435,42.6715674 2.87782258,42.2350367 C1.77459677,41.4651718 0.832862903,40.4067217 0.37016129,39.1227003 C0.156048387,38.5528359 0.05625,37.9482682 0,37.3446137 L0,36.5172144 C0.0435483871,35.7674409 0.167842742,35.0240601 0.351108871,34.2971177 C0.82016129,34.687073 1.28195565,35.0852475 1.75554435,35.46881 C1.68840726,33.4952892 0.366532258,31.8021344 0.359274194,29.8176546 C0.343850806,29.0888857 0.656854839,28.375642 1.18850806,27.8843166 C1.14133065,27.856006 1.04879032,27.7993849 1.00252016,27.7710743 C1.00524194,27.2961873 1.00070565,26.8222135 1.00433468,26.3482397 C1.63760081,27.056004 2.25907258,27.773814 2.89324597,28.4797518 C2.90866935,27.1564609 2.74264113,25.8404759 2.62379032,24.524491 C2.58477823,23.9756312 2.65282258,23.4267714 2.71633065,22.8824778 C2.87872984,21.6532511 3.403125,20.5080428 4.02913306,19.4532457 C4.20604839,20.1418319 4.37116935,20.8331577 4.54627016,21.5226572 C4.79395161,21.2934328 5.00715726,21.0121536 5.06340726,20.6706003 C5.26663306,19.5829264 4.84747984,18.4705949 5.11875,17.3874872 C5.50433468,15.8340587 6.59576613,14.5500373 7.86683468,13.6349666 C7.96572581,14.4988957 8.015625,15.3683042 8.10725806,16.2340597 C8.20524194,15.1262944 7.88770161,14.0322278 7.96844758,12.9253758 C8.00836694,12.1829082 8.31683468,11.4742307 8.78407258,10.9043663 C9.63235887,9.85322217 10.8226815,9.17924792 11.9050403,8.40664328 C11.9050403,9.33084646 11.9023185,10.2550496 11.9050403,11.1792528 C13.2677419,9.721715 13.8365927,7.72718956 15.1131048,6.20846438 C15.774496,5.4121154 16.6454637,4.81850664 17.5881048,4.40754673 C17.5300403,5.118964 17.4447581,5.82855478 17.3830645,6.53997204 C18.2857863,5.34727506 18.7013105,3.84407503 19.7129032,2.7290038 C20.309879,2.05502955 21.1282258,1.62123853 21.9855847,1.38379503 C21.9883065,1.3399593 21.99375,1.2532011 21.997379,1.21027862 C22.4364919,1.10068931 22.8765121,0.990186758 23.315625,0.87877096 C23.1006048,1.4678135 22.8756048,2.05320306 22.6633065,2.64315884 C23.8073589,1.95731242 24.9405242,1.24772164 26.0972782,0.586532801 C27.924496,0.430368035 29.7616935,0.344523076 31.5925403,0.215755637 C31.0563508,1.34635201 30.0420363,2.1655321 28.9306452,2.68242835 C27.3375,3.43220187 25.5728831,3.7217003 23.8300403,3.83768232 C25.2,4.06690662 26.5690524,4.29887066 27.9399194,4.52352875 C27.9426411,4.6733008 27.9444556,4.82215962 27.9471774,4.97193167 C26.3231855,6.08334992 24.4868952,7.0075531 22.4918347,7.10892321 C21.6172379,7.17376355 20.7471774,6.92901409 19.8743952,7.04499611 C19.458871,7.09887752 19.0814516,7.30344423 18.755746,7.56097911 C19.8117944,7.49248579 20.8660282,7.41120705 21.9220766,7.33814752 C21.5092742,8.173766 20.9513105,8.96463552 20.1610887,9.4760523 C19.0206653,10.2486569 17.6243952,10.402082 16.3279234,10.7555075 C15.5186492,10.9646404 14.7375,11.307107 14.0724798,11.8221768 C14.878125,11.7582497 15.6810484,11.6760577 16.4857863,11.6048246 C16.1301411,12.4349637 15.6021169,13.2002623 14.8862903,13.7555148 C13.6342742,14.7472981 12.0447581,15.1390799 10.7237903,16.0176208 C11.4913306,15.8888534 12.2543347,15.7390813 13.0200605,15.6020947 C12.2806452,16.7199057 11.5421371,17.8386299 10.8027218,18.9573541 C10.6321573,19.2094095 10.381754,19.3874921 10.1558468,19.5847529 C9.22862903,20.3783621 8.30050403,21.1701449 7.37782258,21.9674071 C8.44022177,21.5555339 9.49082661,21.1153502 10.5514113,20.6989108 C8.71421371,23.1016565 6.86431452,25.4952696 5.02167339,27.893449 C5.39364919,27.6678777 5.78739919,27.4770096 6.14667339,27.2304337 C6.14667339,27.1719861 6.14758065,27.056004 6.1484879,26.9975564 C6.45241935,27.0852279 6.80262097,27.1555477 6.99405242,27.4368269 C7.25715726,27.8076041 7.20544355,28.2943632 7.11925403,28.7171953 C6.9577621,29.4085212 6.82711694,30.125418 6.46875,30.7491638 C5.83820565,31.9035045 4.77943548,32.7400362 4.11441532,33.8706326 C3.83770161,34.3299945 3.68709677,34.8551099 3.64264113,35.3893578 C4.44284274,34.6140134 5.2203629,33.815838 6.00877016,33.0286214 C6.00967742,33.8267969 6.0078629,34.6258856 6.00967742,35.4240611 C5.84183468,35.4240611 5.67399194,35.4240611 5.50614919,35.4249743 C5.48346774,35.3071658 5.45987903,35.1893573 5.43629032,35.0715488 C5.35282258,35.1108183 5.26844758,35.151001 5.18497984,35.1911838 C5.16229839,35.1482613 5.11875,35.0642428 5.09606855,35.0213204 C5.19768145,34.9729184 5.30020161,34.926343 5.40362903,34.881594 C5.36915323,34.720863 5.33558468,34.5610453 5.30292339,34.4012275 C4.77489919,34.9911833 4.24143145,35.6213218 4.00191532,36.3930132 C3.72066532,37.3035177 3.91300403,38.2642507 4.02913306,39.1848009 C4.1171371,39.1784082 4.20514113,39.1729287 4.29405242,39.1683625 C4.36754032,38.3418764 4.46189516,37.5172169 4.53356855,36.6916441 L4.82570565,36.6916441 C4.82479839,37.5272626 4.8266129,38.3628811 4.82479839,39.1984995 C4.77308468,39.2131114 4.66965726,39.2423353 4.61794355,39.2569472 C4.52268145,39.6980441 4.48729839,40.1510133 4.41018145,40.5966765 C4.79395161,39.4953039 5.146875,38.3838857 5.51975806,37.2788601 C5.56875,37.2742939 5.66673387,37.2651615 5.71572581,37.2605952 C5.71391129,36.6770322 5.71754032,36.0943823 5.71209677,35.5117325 C5.78649194,35.5080795 5.93528226,35.4998603 6.00967742,35.4962074 C6.09405242,36.1053413 6.18387097,36.7144752 6.26733871,37.3245223 C6.21290323,37.3263488 6.10493952,37.3290886 6.05050403,37.3309151 C5.5859879,38.6341146 5.09243952,39.9263552 4.6297379,41.230468 C4.88739919,40.9272709 5.18044355,40.6496446 5.38457661,40.3044383 C5.41270161,40.2907397 5.46895161,40.2642556 5.49707661,40.2505569 C5.7202621,39.9893691 5.9452621,39.7300077 6.18296371,39.4825185 C6.37711694,40.3455343 6.56310484,41.2103766 6.75544355,42.0733924 C6.57399194,42.0743057 6.39344758,42.0752189 6.21199597,42.0770454 C6.14032258,41.6733914 6.07862903,41.2688242 6.02056452,40.8633438 C6.01330645,41.1053535 6.00877016,41.3473633 6.00604839,41.5902862 C5.84274194,41.589373 5.67852823,41.5884597 5.51431452,41.5884597 C5.47893145,41.4797837 5.44354839,41.3720208 5.40816532,41.264258 C5.06975806,42.5902887 4.69868952,43.9071869 4.38296371,45.238697 C4.78487903,45.8341322 5.17772177,46.4341337 5.57328629,47.0332219 C5.93891129,45.6971456 6.30997984,44.3628958 6.68014113,43.0286459 C6.61572581,43.0268194 6.48780242,43.0240797 6.4233871,43.0231664 C6.4233871,42.7318415 6.4233871,42.4405166 6.42429435,42.1501049 C6.496875,42.142799 6.64294355,42.1300136 6.71552419,42.1227076 C6.80806452,42.3912014 6.87066532,42.6724807 6.99586694,42.9291023 C7.04758065,42.9446274 7.15100806,42.9738513 7.20272177,42.9893764 C7.07389113,44.5802479 6.9078629,46.1683796 6.80534274,47.7601644 C7.03397177,47.3245468 7.24082661,46.8779704 7.46310484,46.4396132 C8.15625,46.9875597 8.74778226,47.6715797 9.15423387,48.4615359 C9.91542339,49.9227267 10.016129,51.6085756 10.0288306,53.2268444 C9.86008065,53.2250179 9.69042339,53.2241047 9.52167339,53.2241047 C8.99002016,51.3756983 8.4547379,49.5282052 7.9140121,47.6816253 C7.39052419,48.2496633 7.0875,49.048752 7.24354839,49.8240963 C7.43860887,50.8578888 8.071875,51.7236444 8.61532258,52.5957926 C8.746875,52.533692 8.8875,52.4597192 9.02631048,52.5528702 C8.92923387,52.6286694 8.83125,52.7035555 8.73145161,52.776615 C9.01633065,53.210406 9.27489919,53.6615487 9.50806452,54.1273032 C9.66955645,54.1254767 9.83104839,54.1254767 9.99254032,54.1254767 C10.1703629,53.4177125 10.3454637,52.7081217 10.5205645,51.9994441 C11.0758065,52.8241037 11.478629,53.7528731 12.1318548,54.5099526 C12.6453629,55.162009 13.021875,55.9090428 13.3357863,56.6761679 C13.7576613,57.4515123 14.2412298,58.1912401 14.6748992,58.9592785 C14.6767137,58.5072226 14.677621,58.0551667 14.6767137,57.6040241 C16.0657258,58.1665825 17.2823589,59.0935254 18.3084677,60.1811993 C18.7176411,60.6222963 19.1231855,61.0780052 19.4071573,61.6149928 C19.6766129,62.0825739 19.8979839,62.6058628 20.3225806,62.9574619 C20.583871,63.1802935 20.9449597,63.126412 21.2534274,63.2250424 C21.9347782,63.4296091 22.5889113,63.724587 23.2013105,64.0880582 C24.4279234,64.8177404 25.4721774,65.8040442 26.5844758,66.6917176 C26.441129,66.1830405 26.296875,65.6752767 26.152621,65.1665997 C27.7521169,65.8606653 29.3507056,66.5583839 30.9520161,67.2487966 C31.1144153,67.3163766 31.2604839,67.4177468 31.3929435,67.5337288 C32.0552419,68.1063329 32.7247984,68.6698046 33.384375,69.2451485 C33.2600806,68.8524535 33.127621,68.4634114 32.9987903,68.0743694 C34.702621,68.525512 36.6006048,68.4268816 38.1193548,69.4424092 C39.6172379,70.4634163 40.7504032,71.9337396 42.2664315,72.9328288 C43.0992944,73.4880813 44.0818548,73.8606849 45.0934476,73.8250684 C46.269254,73.8232419 47.3634073,73.2679894 48.2797379,72.5638781 C49.5653226,71.5958392 50.5986895,70.3282562 51.9133065,69.396747 C53.4384073,68.405877 55.3309476,68.5227723 57.0302419,68.0725429 C56.8832661,68.5045074 56.7399194,68.9382984 56.5983871,69.3720894 C56.9857863,69.1446916 57.3759073,68.9200335 57.765121,68.6944622 C58.0654234,68.5236855 58.2931452,68.2579315 58.5680444,68.0524515 C59.263004,67.5227698 60.0686492,67.1739105 60.8516129,66.7976539 C61.8967742,66.3017623 62.8847782,65.6944549 63.8854839,65.1145448 C63.7357863,65.6506191 63.5806452,66.184867 63.4309476,66.7209414 C63.763004,66.4816714 64.0959677,66.2433147 64.4271169,66.0013049 C64.5541331,65.9264189 64.6766129,65.7812131 64.8435484,65.8405739 C64.7972782,65.7446833 64.7519153,65.6506191 64.7083669,65.556555 C65.4278226,64.7419411 66.2697581,64.0149987 67.2495968,63.5382852 C67.8184476,63.2588325 68.5388105,63.1455902 69.0831653,63.5455912 C69.7472782,62.8798361 70.4549395,62.255177 71.0945565,61.5656776 C72.0063508,60.2907887 73.2746976,59.3492338 74.3497984,58.2268567 C74.3652218,58.2688659 74.3951613,58.3519711 74.4096774,58.3939804 C74.7335685,58.0633859 75.0683468,57.7428372 75.4085685,57.4286812 C75.3459677,57.8186365 75.290625,58.209505 75.2434476,58.6012868 C75.6181452,57.8323351 75.9728831,57.0515113 76.3793347,56.2989981 C77.4145161,54.8697708 78.46875,53.453329 79.5102823,52.028668 C79.6871976,52.7254733 79.8550403,53.4259317 80.0319556,54.1236503 C80.1898185,54.1254767 80.3476815,54.1273032 80.5082661,54.1318695 C80.771371,53.6350646 81.0272177,53.1309538 81.3565524,52.6743316 C81.2377016,52.69077 81.1061492,52.7382587 80.9981855,52.6560668 C81.0553427,52.6104045 81.1705645,52.5199934 81.2277218,52.4752444 C81.2939516,52.4989887 81.3610887,52.5236463 81.4291331,52.5492172 C81.7766129,51.9674806 82.1594758,51.4030956 82.4370968,50.7820896 C82.7882056,50.0341425 82.9333669,49.1254645 82.5523185,48.3592526 C82.4253024,48.1428137 82.3227823,47.852402 82.0977823,47.7355068 C82.0288306,47.9227218 81.9780242,48.1145031 81.9208669,48.3062844 C81.9852823,48.3090241 82.1132056,48.3135904 82.177621,48.3163301 C82.2919355,48.6816278 82.3608871,49.0587977 82.4606855,49.4286616 C82.2701613,49.4286616 82.0805444,49.4295748 81.8909274,49.4304881 C81.8918347,49.0998937 81.8918347,48.7702125 81.8845766,48.4414446 C81.4282258,50.0377955 80.9637097,51.63232 80.4991935,53.2268444 C80.3349798,53.2259312 80.1725806,53.2259312 80.0101815,53.2268444 C79.9793347,51.9400833 80.1716734,50.6423632 80.6334677,49.4387073 C81.0108871,48.4496638 81.4754032,47.4953235 81.9462702,46.5492025 C82.1676411,46.5035403 82.3944556,46.5291111 82.6185484,46.5391568 C82.8181452,46.9674683 83.0358871,47.3884739 83.2436492,47.8140458 C83.105746,46.117238 82.9524194,44.4222566 82.8308468,42.7254488 C82.8907258,42.7254488 83.0086694,42.7272753 83.0676411,42.7281886 L83.0676411,41.9163144 C83.1638105,41.9044422 83.2608871,41.8934833 83.3597782,41.8834376 C83.4541331,42.1775023 83.5521169,42.4715669 83.6555444,42.7628918 C83.5793347,42.7738508 83.4269153,42.7957686 83.3507056,42.8067276 C83.6791331,44.2880097 83.9522177,45.7811641 84.3024194,47.2569668 C84.7506048,46.5802528 85.1969758,45.9017123 85.6487903,45.2277381 C85.2886089,43.7921181 84.8984879,42.3628909 84.5328629,40.9281841 C84.4793347,40.9382298 84.3704637,40.9592344 84.3160282,40.9692801 C84.4103831,41.2578653 84.5056452,41.5455373 84.603629,41.8332092 L84.0139113,41.8332092 C84.013004,41.5729346 84.0139113,41.3117467 84.0157258,41.0514721 C83.8433468,41.0925681 83.6691532,41.1345773 83.499496,41.1784131 C83.611996,40.6076354 83.7299395,40.037771 83.8351815,39.4651669 C84.3495968,40.0359445 84.8467742,40.6222473 85.3666331,41.1884588 C84.9284274,40.0386842 84.4793347,38.8925627 84.0375,37.7437015 C84.013004,37.6030618 83.8923387,37.5592261 83.7716734,37.5290891 C83.8569556,36.033195 83.9467742,34.5382142 84.0347782,33.0423201 C84.821371,33.8167512 85.5861895,34.6140134 86.3764113,35.3847916 C86.3237903,34.8998589 86.1940524,34.4185792 85.9409274,33.9994 C85.3675403,33.0477995 84.459375,32.3619531 83.8614919,31.4277042 C83.0023185,30.1226782 82.8099798,28.5044094 82.8426411,26.9728988 C83.5884073,27.3235846 84.3405242,27.661485 85.0890121,28.0057781 C83.2173387,25.5665027 81.3375,23.13362 79.4676411,20.6934314 C80.5273185,21.1190032 81.5860887,21.5464015 82.6466734,21.9710601 C81.8337702,21.2742547 81.0163306,20.5820156 80.2016129,19.8870367 C79.9212702,19.6459402 79.6082661,19.4295013 79.4050403,19.1135188 C78.6075605,17.9409132 77.8001008,16.7747003 76.9980847,15.6048344 C77.7683468,15.7336019 78.5340726,15.8897666 79.3043347,16.0176208 C78.0078629,15.1683037 76.468246,14.7646497 75.2253024,13.8240082 C74.4731855,13.2568835 73.9052419,12.4724067 73.5396169,11.6039114 C74.3434476,11.6760577 75.146371,11.7591629 75.9502016,11.8221768 C74.784375,10.8833617 73.2719758,10.6614433 71.8657258,10.316237 C70.9902218,10.0943187 70.1210685,9.75459179 69.4306452,9.15367708 C68.8490927,8.66691789 68.4381048,8.01212177 68.1060484,7.33632103 C69.1584677,7.4121203 70.2108871,7.49431228 71.2633065,7.55823938 C70.9992944,7.35001969 70.7053427,7.17376355 70.3769153,7.0943113 C69.5485887,6.89157108 68.7021169,7.12718809 67.865625,7.11622916 C65.7571573,7.1025305 63.7385081,6.23586171 62.075504,4.96736545 C62.0764113,4.81941988 62.0782258,4.67147432 62.0809476,4.52444199 C63.4481855,4.30617662 64.8099798,4.05594769 66.178125,3.85046774 C64.6121976,3.72535328 63.0471774,3.42124294 61.5991935,2.79475739 C60.3335685,2.26233599 59.1695565,1.49612407 58.1643145,0.55822223 L58.1643145,0.55822223 Z M26.7641129,1.01484435 C25.9466734,1.23310973 25.2226815,1.7691841 24.7881048,2.50160599 C24.8806452,2.46781595 24.9722782,2.43311267 25.0639113,2.3965829 C25.0666331,2.33813527 25.0720766,2.22032676 25.0747984,2.16187913 C26.208871,1.85228933 27.3311492,1.50160354 28.4670363,1.19840645 C28.4915323,1.26416003 28.5405242,1.39384072 28.5659274,1.45868106 C27.5053427,1.85320257 26.4356855,2.21941351 25.3751008,2.61210854 C25.4767137,2.72809056 25.6109879,2.82124147 25.7715726,2.81850174 C26.3658266,2.85320502 26.9355847,2.62398072 27.4808468,2.41393454 C28.4298387,1.99566867 29.3679435,1.49521083 30.1173387,0.761875697 C29.7353831,0.804798176 29.2971774,0.640414212 28.9587702,0.867812029 L29.1320565,0.877857716 C29.0948589,0.949090767 29.0195565,1.09155687 28.9823589,1.16278992 C28.9288306,1.10434229 28.8780242,1.04498141 28.8290323,0.983794048 C28.8952621,0.913474241 28.9487903,0.834021992 28.9905242,0.7454373 C28.2438508,0.782880314 27.4853831,0.797492222 26.7641129,1.01484435 L26.7641129,1.01484435 Z M59.8980847,0.759135964 C60.3907258,1.25776732 60.9895161,1.6349372 61.6019153,1.96644486 C62.2642137,2.31439092 62.9555444,2.63037342 63.6913306,2.78197197 C64.0197581,2.84315933 64.4144153,2.88242884 64.6693548,2.61758801 C63.5715726,2.22032676 62.4737903,1.82580524 61.3741935,1.43311022 C61.372379,1.25046137 61.372379,1.06781252 61.372379,0.88516367 C62.5581653,1.3171282 63.7512097,1.73174109 64.9333669,2.17466455 C64.9487903,2.2376784 64.9814516,2.36461935 64.9977823,2.42854645 C65.0785282,2.45046431 65.1592742,2.47238217 65.2409274,2.49338679 C64.996875,2.13904802 64.7310484,1.79018872 64.3726815,1.54543926 C63.5225806,0.923519928 62.4365927,0.803884932 61.4168347,0.760962452 C61.2834677,0.723519438 61.1727823,0.807537909 61.0611895,0.858679587 L61.203629,0.897949089 C61.1537298,0.983794048 61.1038306,1.06963901 61.055746,1.15548397 C60.8271169,1.09794958 60.9931452,0.88516367 61.006754,0.739957835 C60.6375,0.769181651 60.2673387,0.754569743 59.8980847,0.759135964 L59.8980847,0.759135964 Z M67.9808468,1.90160452 C69.0196573,3.12717829 70.0729839,4.34361963 71.1435484,5.53996959 C70.8178427,4.72718221 70.4231855,3.92444052 69.8434476,3.26233844 C69.3335685,2.67512239 68.68125,2.22763271 67.9808468,1.90160452 L67.9808468,1.90160452 Z M20.4178427,2.96644731 C19.8644153,3.4678184 19.4525202,4.11165559 19.1730847,4.80298149 C20.0621976,3.95640407 20.8977823,3.05137902 21.7878024,2.20662809 C21.825,2.20754134 21.8993952,2.20845458 21.9365927,2.20936783 C21.9402218,2.13996126 21.9483871,2.00297463 21.9529234,1.93448131 C21.4085685,2.22580622 20.8678427,2.53722251 20.4178427,2.96644731 L20.4178427,2.96644731 Z M19.4915323,5.70435356 C20.5575605,4.95001381 21.4575605,3.89339022 21.8358871,2.62032774 C21.0474798,3.64316129 20.2672379,4.67238756 19.4915323,5.70435356 L19.4915323,5.70435356 Z M68.1260081,2.59110392 C68.4607863,3.90526239 69.4524194,4.95001381 70.5293347,5.71165951 C69.7354839,4.66599485 68.9225806,3.6349421 68.1260081,2.59110392 L68.1260081,2.59110392 Z M22.2831653,3.58014744 C22.2831653,3.65412022 22.2831653,3.80389228 22.2840726,3.87786507 C22.3221774,3.91804781 22.3974798,3.99750006 22.4355847,4.03676956 C22.5335685,4.03676956 22.6315524,4.03585632 22.7295363,4.03585632 C22.7794355,3.8331161 22.8302419,3.63037587 22.8801411,3.42672241 C22.6805444,3.47512435 22.4818548,3.52626603 22.2831653,3.58014744 L22.2831653,3.58014744 Z M67.1516129,3.62946263 C67.3103831,3.74179167 67.468246,3.85686045 67.6252016,3.97375571 C67.6560484,3.95275109 67.7168347,3.90982861 67.7476815,3.88791075 C67.7485887,3.82124392 67.7513105,3.68699702 67.7522177,3.61941694 C67.5517137,3.61941694 67.3512097,3.62124343 67.1516129,3.62946263 L67.1516129,3.62946263 Z M21.652621,4.34361963 C21.7379032,4.58106314 21.9556452,4.72718221 22.1207661,4.90526484 C21.8504032,5.12170373 21.5782258,5.33448964 21.3142137,5.55732123 C22.4691532,5.29795987 23.6277218,5.05138392 24.7790323,4.7764974 C23.7365927,4.63311806 22.6986895,4.44955596 21.652621,4.34361963 L21.652621,4.34361963 Z M67.8728831,4.36097127 C66.990121,4.4997844 66.1046371,4.6258121 65.2227823,4.76645172 C66.3740927,5.04042499 67.5290323,5.31257178 68.6921371,5.53722986 C68.4326613,5.32353071 68.1659274,5.11713751 67.9064516,4.90343835 C68.0597782,4.75457954 68.2085685,4.59932802 68.347379,4.4358573 C68.1949597,4.37832291 68.0361895,4.3162223 67.8728831,4.36097127 L67.8728831,4.36097127 Z M64.5895161,4.90343835 C64.2293347,4.88334698 63.875504,4.96919194 63.5225806,5.02307335 C65.1211694,6.20115843 67.2169355,6.6504746 69.1512097,6.20937763 C67.7467742,5.86234481 66.3287298,5.57010665 64.9188508,5.24773144 C64.916129,5.09613289 64.9152218,4.94453435 64.9134073,4.7929358 C64.803629,4.82672584 64.6947581,4.85868939 64.5895161,4.90343835 L64.5895161,4.90343835 Z M25.1065524,4.81941988 C25.1065524,4.9600595 25.1065524,5.10069911 25.1074597,5.24225197 C23.8409274,5.59659074 22.5725806,5.94088382 21.3105847,6.30983449 C23.1169355,6.64316864 25.0203629,6.09430885 26.4919355,5.02124686 C26.0346774,4.91439729 25.5574597,4.94910057 25.1065524,4.81941988 L25.1065524,4.81941988 Z M16.1319556,6.01029038 C16.1936492,6.04134069 16.3170363,6.10526778 16.3787298,6.13723133 C16.0484879,6.86326051 15.7282258,7.5938559 15.408871,8.32536455 C15.3480847,8.34180294 15.2256048,8.37376649 15.1639113,8.39020489 C14.9579637,8.85321972 14.8028226,9.33906566 14.6240927,9.81395267 C15.4478831,9.29522994 16.1183468,8.52536504 16.4921371,7.62033999 C16.758871,6.98837497 16.8368952,6.27147824 16.6481855,5.60663642 C16.4694556,5.73266413 16.2970766,5.86691103 16.1319556,6.01029038 L16.1319556,6.01029038 Z M73.2257056,5.79933096 C73.269254,7.37833026 73.9741935,9.0386083 75.406754,9.81395267 C75.3196573,9.48427149 75.2017137,9.16463601 75.1001008,8.83952106 C75.0420363,8.83678132 74.9268145,8.83038861 74.8696573,8.82764888 C74.3915323,7.9281033 73.8997984,7.03586367 73.4144153,6.13997106 C73.4797379,6.10526778 73.6103831,6.03677446 73.6757056,6.00298443 C74.1919355,6.84408238 74.7417339,7.66417571 75.2470766,8.51166637 C75.3477823,8.53358423 75.4503024,8.55458885 75.5537298,8.57559347 C75.652621,8.85961243 75.7587702,9.1418049 75.8948589,9.41029871 C75.9837702,8.82947537 75.8522177,8.23221363 75.5628024,7.72536308 C75.0492944,6.82581749 74.1892137,6.15001675 73.2257056,5.79933096 L73.2257056,5.79933096 Z M15.2392137,6.80755261 C14.4979839,7.55915262 14.0625,8.5947716 14.038004,9.65413492 C14.291129,9.17742143 14.4580645,8.6586987 14.6912298,8.17193951 C14.7320565,8.00755555 14.9615927,8.12901703 15.0178427,7.98655093 C15.3816532,7.34271374 15.7363911,6.69431032 16.0893145,6.04590691 C15.7871976,6.2769577 15.5014113,6.5308396 15.2392137,6.80755261 L15.2392137,6.80755261 Z M15.894254,9.63860977 C16.1237903,9.61121244 16.3515121,9.56920321 16.5756048,9.51440855 C16.5756048,9.45230795 16.5765121,9.32810673 16.5765121,9.26691936 C17.1698589,9.20390551 17.7577621,9.10070891 18.3483871,9.02034342 C18.365625,9.11532082 18.3837702,9.21029822 18.4019153,9.30527562 C17.8875,9.44774172 17.3748992,9.59751378 16.8622984,9.74728584 C16.8604839,9.80664671 16.8568548,9.92445522 16.8550403,9.9838161 C16.6572581,10.0450035 16.4585685,10.1043643 16.2626008,10.1719444 C17.9310484,10.1308484 19.655746,9.44408875 20.6854839,8.07970184 C20.0476815,8.05139127 19.4044355,8.02125421 18.7702621,8.11897135 C17.6688508,8.25139176 16.618246,8.78837938 15.894254,9.63860977 L15.894254,9.63860977 Z M69.3362903,8.08152833 C70.4132056,9.51166882 72.2277218,10.1491133 73.9596774,10.2048212 C74.0721774,10.084273 74.1873992,9.96646446 74.3008065,9.84591622 C73.9905242,9.48061852 73.659375,9.12719299 73.2592742,8.86143892 C72.1188508,8.07239589 70.674496,7.9838112 69.3362903,8.08152833 L69.3362903,8.08152833 Z M9.15423387,11.826743 C8.64072581,12.8705812 8.66975806,14.0870225 8.83487903,15.2121394 C9.26129032,13.9902186 9.73487903,12.7847362 10.177621,11.5682949 C10.1939516,11.4057374 10.3227823,11.3792533 10.4643145,11.3865593 C10.5341734,11.0313072 10.6049395,10.6769685 10.6766129,10.323543 C10.768246,10.3290224 10.859879,10.3354151 10.9524194,10.3418078 C10.9542339,10.7920373 10.9542339,11.2413534 10.9533266,11.6915828 C10.8861895,11.6897563 10.7510081,11.6870166 10.683871,11.6851901 C10.3627016,12.6778866 10.016129,13.6623639 9.70856855,14.6587134 C10.4189516,13.9874789 10.944254,13.1198968 11.225504,12.1810818 C11.4731855,11.3454633 11.4668347,10.398429 11.0295363,9.62582435 C10.3082661,10.2641821 9.59334677,10.9536815 9.15423387,11.826743 L9.15423387,11.826743 Z M78.8289315,9.83495728 C78.359879,11.553683 78.9541331,13.4961535 80.3014113,14.6504942 C79.8142137,13.1619061 79.2753024,11.6915828 78.7690524,10.2093874 L79.3106855,10.2093874 C79.9022177,11.7756013 80.49375,13.3418152 81.0870968,14.9062026 C81.0970766,14.9052893 81.1170363,14.9043761 81.1270161,14.9034629 C81.4636089,14.0441 81.4989919,13.0596227 81.1578629,12.1966069 C80.750504,11.1244582 79.8450605,10.3134973 78.8289315,9.83495728 L78.8289315,9.83495728 Z M13.0472782,10.5061918 C12.9955645,10.7244572 12.941129,10.9418093 12.8885081,11.1591614 L13.4664315,11.1591614 C13.4083669,10.9363298 13.3521169,10.712585 13.2949597,10.4897534 C13.2123992,10.4943196 13.1298387,10.4997991 13.0472782,10.5061918 L13.0472782,10.5061918 Z M76.5217742,10.7016261 C76.5172379,10.8532246 76.5163306,11.0057364 76.5154234,11.157335 C76.6678427,11.1582482 76.8202621,11.1591614 76.9754032,11.1600747 C76.8247984,11.0057364 76.6741935,10.8523114 76.5217742,10.7016261 L76.5217742,10.7016261 Z M75.4929435,12.458708 C76.4609879,12.9226361 77.4390121,13.3637331 78.4097782,13.8203552 C78.4106855,13.8760631 78.4134073,13.9874789 78.4152218,14.0431868 C78.5739919,14.0778901 78.7336694,14.1180728 78.894254,14.1536893 C78.6284274,13.7600811 78.3181452,13.3902171 77.9280242,13.1171571 C77.2230847,12.6139595 76.3339718,12.4970643 75.4929435,12.458708 L75.4929435,12.458708 Z M11.8605847,12.6358774 C11.5720766,13.1272028 11.3534274,13.6541447 11.1075605,14.167388 C11.3044355,14.0833695 11.7027218,14.1463834 11.6219758,13.8130492 C12.519254,13.4788018 13.4174395,13.1436412 14.3219758,12.8294852 C14.34375,12.8979785 14.3863911,13.0358784 14.4072581,13.1043717 C13.5698589,13.4696694 12.7469758,13.8678439 11.9104839,14.2349681 C11.9077621,14.2979819 11.9014113,14.4221831 11.8977823,14.4842837 C11.4133065,14.7034624 10.916129,14.8943304 10.4398185,15.1326872 C12.1672379,14.8358828 13.9490927,14.0778901 14.9996976,12.6084801 C14.9017137,12.6769734 14.8064516,12.7482064 14.713004,12.8230925 C14.6667339,12.776517 14.5732863,12.6842793 14.5270161,12.6377039 C13.6379032,12.6367906 12.7496976,12.6413569 11.8605847,12.6358774 L11.8605847,12.6358774 Z M75.209879,12.9125904 C76.33125,14.1317715 77.9035282,14.8130517 79.4984879,15.1372534 C79.5320565,15.1272077 79.6010081,15.1080296 79.6345766,15.0979839 C79.1110887,14.9609972 78.6365927,14.679718 78.13125,14.4879367 C78.1230847,14.4221831 78.1058468,14.2915892 78.0967742,14.2258356 C77.1287298,13.801177 76.1879032,13.3135046 75.209879,12.9125904 L75.209879,12.9125904 Z M7.11471774,14.7737822 C6.47056452,15.872415 5.79193548,17.0130571 5.64858871,18.3071242 C5.57419355,18.8294999 5.65221774,19.3537021 5.66491935,19.876991 C5.67580645,19.8112374 5.69667339,19.6806435 5.70665323,19.6158032 C5.80735887,19.607584 5.90715726,19.5993648 6.0078629,19.5920588 C6.09314516,20.0112379 6.16481855,20.43407 6.26824597,20.8505094 C6.58125,20.1993662 6.91602823,19.5600953 7.22358871,18.9071256 C7.26260081,18.919911 7.33881048,18.9463951 7.37782258,18.9600938 C7.37691532,17.9034702 7.36330645,16.8468466 7.38508065,15.790223 C7.29707661,15.8468442 7.2108871,15.9052918 7.12469758,15.9655659 C6.90514113,15.838625 7.08296371,15.7162502 7.24264113,15.6514099 L7.25987903,15.8285793 C7.48487903,15.5235557 7.33245968,15.1153355 7.37419355,14.7637365 C7.30977823,14.7664762 7.18004032,14.7719557 7.11471774,14.7737822 L7.11471774,14.7737822 Z M82.8154234,15.0523217 C82.8381048,15.1345136 82.8834677,15.2998109 82.9061492,15.3820028 C82.5813508,15.6578026 82.3908266,16.0651095 82.3545363,16.4888549 C82.2774194,17.2943363 82.4996976,18.089772 82.7664315,18.8404588 C83.0386089,19.5546158 83.3525202,20.2596404 83.7816532,20.8934319 C83.7852823,20.516262 83.7834677,20.1390921 83.7825605,19.7628355 C83.7299395,19.7555295 83.6246976,19.7418309 83.5720766,19.7354382 C83.3951613,18.8322396 83.2427419,17.9244748 83.077621,17.0185365 C83.1701613,16.9984452 83.2636089,16.9783538 83.3579637,16.9582624 C83.5820565,17.7920544 83.8106855,18.6240199 84.0320565,19.4578119 C84.1046371,19.4596384 84.2497984,19.4642046 84.322379,19.4660311 C84.3323589,18.811235 84.3532258,18.1509594 84.2370968,17.5034692 C84.0873992,16.541823 83.5484879,15.674241 82.8154234,15.0523217 L82.8154234,15.0523217 Z M80.5082661,15.9628262 C80.6679435,16.2733292 80.8022177,16.5984442 80.9854839,16.8961618 C81.193246,17.0925093 81.4354839,17.2505006 81.6722782,17.4112316 C81.4191532,16.8358877 81.0344758,16.3107722 80.5082661,15.9628262 L80.5082661,15.9628262 Z M8.42389113,17.2815509 C8.73870968,17.0084908 8.91471774,16.6148826 9.14788306,16.2751557 C8.82671371,16.5336038 8.49647177,16.8568923 8.42389113,17.2815509 L8.42389113,17.2815509 Z M10.9560484,16.8331479 C9.89455645,17.8961642 8.88296371,19.0112355 7.8858871,20.1345259 C9.50987903,19.3829259 11.133871,18.2596355 11.780746,16.50438 C11.5076613,16.6075766 11.161996,16.5984442 10.9560484,16.8331479 L10.9560484,16.8331479 Z M78.24375,16.4888549 C78.9024194,18.2660282 80.5200605,19.4833827 82.209375,20.191147 C81.5089718,19.4130629 80.8013105,18.6413716 80.0945565,17.8715067 C79.6382056,17.4486746 79.140121,17.0751577 78.6810484,16.6568918 C78.5667339,16.5372568 78.3889113,16.5381701 78.24375,16.4888549 L78.24375,16.4888549 Z M79.231754,16.7427368 C80.2097782,17.5893142 81.2240927,18.3911426 82.2365927,19.1957108 C82.1032258,18.7336092 81.9725806,18.2715076 81.8292339,17.8139723 C81.5742944,17.8194517 81.3674395,17.6404559 81.1424395,17.5454785 C80.9637097,17.4340627 80.6479839,17.3993594 80.7123992,17.1144272 C80.2188508,16.9883995 79.7262097,16.8614585 79.231754,16.7427368 L79.231754,16.7427368 Z M8.61804435,17.413058 C8.465625,17.4349759 8.4483871,17.6157983 8.37580645,17.7235611 C8.32590726,17.7427392 8.22610887,17.7820087 8.17711694,17.8011868 C8.08185484,18.2934255 7.95030242,18.7783582 7.8858871,19.2760763 C7.82147177,19.2806425 7.69082661,19.2906882 7.62641129,19.2952544 C7.67631048,19.330871 7.72711694,19.3674007 7.77883065,19.4030173 C8.47923387,18.7336092 9.21592742,18.1034707 9.92268145,17.4413686 C9.95080645,17.2231032 10.0569556,17.0505001 10.2502016,16.9463902 C9.70493952,17.0970755 9.15967742,17.2486741 8.61804435,17.413058 L8.61804435,17.413058 Z M3.02842742,23.0459486 C2.68729839,24.5400161 3.12368952,26.0614811 3.59637097,27.4742699 C3.60997984,25.5939 3.60090726,23.7144433 3.60090726,21.8349867 C3.74243952,21.8358999 3.88397177,21.8377264 4.02459677,21.8395529 C3.94657258,21.6587305 3.85766129,21.4833876 3.76058468,21.3135242 C3.41219758,21.8368132 3.17540323,22.4340749 3.02842742,23.0459486 L3.02842742,23.0459486 Z M86.1060484,21.308958 C86.0434476,21.4833876 85.9835685,21.6587305 85.9236895,21.8340734 C86.0924395,21.8349867 86.2602823,21.8358999 86.4308468,21.8377264 C86.4335685,23.7107904 86.4235887,25.5838543 86.4362903,27.4569183 C86.8354839,26.2450431 87.24375,24.9902456 87.163004,23.6961785 C87.1103831,22.8039388 86.7120968,21.9546217 86.1060484,21.308958 L86.1060484,21.308958 Z M5.19768145,21.9920647 C5.11330645,22.1601016 5.02893145,22.3290518 4.94364919,22.4961755 C5.14778226,22.456906 5.35191532,22.4139835 5.55514113,22.3683213 C5.4390121,22.2395539 5.31834677,22.1153527 5.19768145,21.9920647 L5.19768145,21.9920647 Z M5.1577621,25.0952686 C5.89173387,24.0751748 6.68830645,23.0395558 7.79425403,22.4057643 C8.13084677,22.2021109 8.51552419,22.1171792 8.8983871,22.060558 C8.92560484,22.0386401 8.97913306,21.9938912 9.00544355,21.9710601 C7.30887097,22.2477731 5.72389113,23.4331641 5.1577621,25.0952686 L5.1577621,25.0952686 Z M81.453629,22.0696905 C82.5704637,22.9865877 83.7154234,23.8669551 84.8386089,24.7765464 C83.9023185,23.6733474 82.8934476,22.4861298 81.453629,22.0696905 L81.453629,22.0696905 Z M84.4040323,22.3601021 C84.6,22.3984584 84.796875,22.4377279 84.99375,22.4779106 C84.8748992,22.3199194 84.7569556,22.1628414 84.6399194,22.0039369 C84.5600806,22.1226586 84.4820565,22.2413804 84.4040323,22.3601021 L84.4040323,22.3601021 Z M85.7894153,25.5363656 C85.7113911,25.9601109 85.7141129,26.4039476 85.7231855,26.8413916 C85.0899194,26.2523491 84.4920363,25.6249503 83.836996,25.0596521 C84.5301411,25.8130786 85.2114919,26.5774641 85.9082661,27.3281508 C85.8964718,25.56011 85.9236895,23.7911559 85.8982863,22.0240282 C85.471875,23.1327068 85.4065524,24.401203 85.7894153,25.5363656 L85.7894153,25.5363656 Z M4.13346774,22.1208321 C4.1171371,23.8496035 4.12983871,25.5792881 4.12802419,27.3089727 C4.34758065,27.0934471 4.54899194,26.8605698 4.75766129,26.6349984 C4.60524194,26.6340852 4.45282258,26.6340852 4.30040323,26.6349984 C4.33669355,25.1354514 4.66512097,23.5692375 4.13346774,22.1208321 L4.13346774,22.1208321 Z M5.05796371,23.3135291 C5.05705645,23.5317945 5.05614919,23.7509731 5.05796371,23.971065 C5.17681452,23.7573658 5.28477823,23.5381872 5.39364919,23.3190086 C5.28205645,23.3162689 5.16955645,23.3144424 5.05796371,23.3135291 L5.05796371,23.3135291 Z M84.6399194,23.3107894 C84.736996,23.5381872 84.8449597,23.7601056 84.9601815,23.9792842 C84.9610887,23.7582791 84.9601815,23.537274 84.9610887,23.3171821 C84.853125,23.3144424 84.7460685,23.3126159 84.6399194,23.3107894 L84.6399194,23.3107894 Z M5.34012097,25.6103384 C5.21129032,25.7144482 5.09969758,25.8751792 4.91733871,25.8715263 C4.87560484,26.0989241 4.84657258,26.3290616 4.8202621,26.5591992 C5.57691532,25.7327131 6.33084677,24.9044006 7.08114919,24.0742616 C6.48689516,24.56924 5.91622984,25.0943554 5.34012097,25.6103384 L5.34012097,25.6103384 Z M6.25100806,27.4477858 L6.25100806,27.7418505 C5.68397177,28.1911666 5.13054435,28.6706199 4.70231855,29.2605757 C4.0672379,30.1089796 3.71340726,31.1226807 3.36864919,32.1144639 C3.20897177,32.1126374 3.05020161,32.1126374 2.89052419,32.1126374 C2.88961694,31.583869 2.7952621,31.0633198 2.74082661,30.5391176 C2.70725806,30.5345514 2.63830645,30.5254189 2.6047379,30.5208527 C2.51582661,30.5793003 2.42782258,30.6404877 2.33618952,30.6952824 C2.32258065,30.641401 2.2953629,30.5345514 2.28175403,30.4815832 C2.35252016,30.4660581 2.49314516,30.435921 2.56391129,30.4213091 C2.59929435,30.3637747 2.6328629,30.3062403 2.66643145,30.2477927 C2.44233871,29.4614894 2.1266129,28.6642272 1.5078629,28.1053217 C1.38538306,29.0678811 1.33548387,30.0496187 1.48518145,31.0121781 C1.65302419,32.103505 2.05221774,33.1372975 2.42237903,34.1701767 C2.51854839,34.1738297 2.61471774,34.1774827 2.7108871,34.1802224 C3.58004032,32.5975701 4.43377016,31.0066986 5.31290323,29.4295258 C5.50252016,29.4340921 5.69122984,29.4350053 5.88084677,29.4386583 C5.25120968,30.5628619 4.61885081,31.6843259 3.99737903,32.814009 C5.3328629,31.6551021 6.5077621,30.0149154 6.38981855,28.1582898 C6.33629032,28.2587467 6.28366935,28.3592036 6.23195565,28.4624002 C6.14122984,28.4213042 6.05050403,28.3811214 5.96068548,28.3409387 C6.08316532,28.1802077 6.0922379,27.7984716 6.36441532,27.8834033 C6.32631048,27.7372842 6.29092742,27.5920784 6.25100806,27.4477858 L6.25100806,27.4477858 Z M83.5611895,27.6623982 L83.5221774,27.7062339 C83.6110887,27.9491569 83.8633065,28.0961892 84.0311492,28.2888838 C83.9649194,28.3601168 83.8995968,28.4322631 83.8333669,28.5034962 C83.7163306,28.3884274 83.5992944,28.2733586 83.4804435,28.1610296 C83.4387097,29.9701664 84.4140121,31.707157 85.8193548,32.7930044 C85.3140121,31.7382073 84.7787298,30.6971089 84.2643145,29.6459647 C84.3269153,29.609435 84.4503024,29.5363754 84.511996,29.4998456 C85.1434476,30.5802136 85.7467742,31.6770199 86.3700605,32.7628673 C86.431754,32.7656071 86.5551411,32.7701733 86.6159274,32.772913 C86.8345766,33.2222292 87.0641129,33.6669791 87.2800403,34.119035 C88.0176411,33.6532805 88.5157258,32.8614977 88.6853831,32.0076143 C88.9648185,30.6541864 88.70625,29.2742743 88.5393145,27.9244993 C87.894254,28.3765552 87.5658266,29.1382009 87.3553427,29.8742758 C87.1004032,30.8258763 86.9733871,31.8048741 86.8028226,32.7738263 C86.368246,31.6057869 86.1178427,30.3519025 85.4546371,29.2815803 C85.0073589,28.5637703 84.3287298,28.0030383 83.5611895,27.6623982 L83.5611895,27.6623982 Z M3.35050403,28.9007574 C3.30604839,29.2359181 3.25524194,29.5710787 3.23346774,29.9080658 C3.44939516,29.6249601 3.55010081,29.2222194 3.35050403,28.9007574 L3.35050403,28.9007574 Z M84.736996,34.4185792 C84.6970766,34.687073 84.6607863,34.9555668 84.6172379,35.2240606 C84.6743952,35.203056 84.7887097,35.1601335 84.8458669,35.1391289 C85.0472782,35.3464353 84.7224798,35.3811386 84.5836694,35.4368465 C84.5020161,36.1236062 84.3931452,36.8076261 84.3006048,37.4934725 C84.350504,37.4998652 84.4503024,37.5144771 84.5002016,37.5217831 C84.884879,38.5135664 85.186996,39.5382264 85.5970766,40.519964 C85.4482863,39.7016971 85.3158266,38.8797773 85.1842742,38.0587707 C85.1298387,38.048725 85.0200605,38.0295469 84.965625,38.0204145 C84.8939516,37.2660747 84.800504,36.5144747 84.7224798,35.7610482 C84.7959677,35.7500893 84.9420363,35.7290846 85.0155242,35.7181257 C85.1851815,36.4688125 85.3294355,37.2268052 85.5226815,37.9710993 C85.5689516,37.977492 85.6605847,37.9902774 85.7068548,37.9957569 C85.7903226,38.4715571 85.813004,38.9583163 85.9327621,39.4277238 C86.0126008,38.497128 86.2058468,37.5546599 86.038004,36.6231508 C85.8737903,35.7592217 85.3121976,35.0496309 84.736996,34.4185792 L84.736996,34.4185792 Z M2.40423387,35.3263439 C2.35252016,35.5710934 2.21915323,35.8268018 2.3234879,36.0770307 C2.54395161,36.0249758 2.76441532,35.9710944 2.98487903,35.9190395 C2.79163306,35.7208654 2.59657258,35.5254312 2.40423387,35.3263439 L2.40423387,35.3263439 Z M87.2083669,35.7363906 C87.3589718,35.8697243 87.5739919,35.8596786 87.7636089,35.8843362 C87.7064516,35.6587648 87.6483871,35.4341068 87.5857863,35.2112752 C87.4288306,35.3482618 87.1058468,35.46881 87.2083669,35.7363906 L87.2083669,35.7363906 Z M0.784778226,35.4222346 C0.553427419,36.8158453 0.557056452,38.2907348 1.02520161,39.6359435 C1.29465726,40.4332058 1.92520161,41.189372 2.81068548,41.2596918 C2.53487903,40.467909 2.22550403,39.6870852 1.96965726,38.8889097 C2.025,38.8551197 2.13568548,38.7875396 2.19102823,38.7537496 C2.04858871,38.7500966 1.90614919,38.7464436 1.76370968,38.7427907 C1.59405242,38.3930181 1.40715726,38.0505515 1.2547379,37.693473 C1.3391129,37.6542035 1.42439516,37.614934 1.50967742,37.577491 C1.79818548,37.9710993 2.08850806,38.3628811 2.38518145,38.7491834 L2.19556452,38.7336582 C2.58024194,39.5574045 2.94042339,40.3921098 3.32782258,41.2140296 C3.72520161,40.878869 3.65171371,40.3035251 3.56733871,39.8487294 C3.41945565,39.1464446 3.17358871,38.4624247 2.83790323,37.8286332 C2.31985887,36.9747498 1.63306452,36.2423279 1.06693548,35.4222346 C0.973487903,35.4222346 0.879133065,35.4213213 0.784778226,35.4222346 L0.784778226,35.4222346 Z M88.9439516,35.4258876 C88.5647177,35.9829665 88.0974798,36.4779449 87.7509073,37.0569418 C87.3290323,37.4889063 87.078629,38.052378 86.8382056,38.5994113 C86.5796371,39.2341161 86.3256048,39.9007844 86.3392137,40.5975897 C86.3355847,40.8560378 86.4471774,41.1135727 86.6685484,41.2551256 C86.9715726,40.4350322 87.2637097,39.6121992 87.5631048,38.7911926 C87.6547379,38.8158502 87.7472782,38.841421 87.8407258,38.8679051 C87.6229839,39.6980441 87.3707661,40.519964 87.1820565,41.3583222 C88.1129032,41.3227057 88.6917339,40.4532971 88.9566532,39.6469025 C89.3957661,38.2943877 89.5055444,36.8176718 89.2388105,35.4185816 C89.1399194,35.4204081 89.0410282,35.4231478 88.9439516,35.4258876 L88.9439516,35.4258876 Z M2.69455645,36.6231508 C2.69727823,36.6624203 2.70272177,36.7427858 2.70544355,36.7829685 C2.74627016,36.792101 2.82792339,36.8112791 2.86875,36.8204115 C2.87510081,36.7647036 2.88780242,36.6532878 2.89415323,36.5975799 C2.84425403,36.6039726 2.74445565,36.6167581 2.69455645,36.6231508 L2.69455645,36.6231508 Z M86.347379,43.5117521 C86.5796371,43.5491951 86.8100806,43.5921176 87.0423387,43.6405196 C86.9951613,43.406729 86.9516129,43.171112 86.9144153,42.9364082 C86.7166331,43.1190571 86.5270161,43.3108384 86.347379,43.5117521 L86.347379,43.5117521 Z M3.23074597,43.05513 C3.24979839,43.2578702 3.27792339,43.4587839 3.30695565,43.6615242 C3.43941532,43.6149487 3.571875,43.571113 3.70433468,43.5272773 C3.55282258,43.3628933 3.39677419,43.2039888 3.23074597,43.05513 L3.23074597,43.05513 Z M1.66754032,44.001251 C1.63941532,44.0204292 1.58225806,44.0569589 1.55413306,44.0752238 C1.68205645,44.9291072 1.97872984,45.7555932 2.33981855,46.5373303 C2.98397177,47.9081099 4.08266129,49.052405 5.428125,49.7364249 C4.20514113,47.9482927 2.97127016,46.1674664 1.73377016,44.3884666 C1.81360887,44.3281925 1.89344758,44.2679184 1.97328629,44.2094707 C3.16995968,45.952854 4.37570565,47.6907578 5.5796371,49.4295748 C5.75020161,49.4962417 5.69485887,49.2752366 5.66673387,49.1820856 C5.28387097,48.1629051 4.9046371,47.1309391 4.33125,46.2003432 C3.7233871,45.193948 2.78528226,44.3738547 1.66754032,44.001251 L1.66754032,44.001251 Z M88.0793347,44.1126668 C88.1002016,44.7957735 87.8225806,45.440524 87.4914315,46.0213473 C86.9497984,46.9446372 86.23125,47.7565114 85.4246976,48.4533167 C85.3729839,48.4049148 85.2686492,48.3081109 85.2169355,48.2606222 C86.0761089,46.9172399 86.9452621,45.5811636 87.8008065,44.2359548 C85.9001008,45.1318474 84.6898185,47.1839072 84.5573589,49.2587982 C84.6108871,49.280716 84.7170363,49.3245517 84.7705645,49.3473829 C84.7016129,49.4798033 84.6335685,49.6131369 84.568246,49.7482971 C85.6515121,49.1921313 86.5814516,48.3391612 87.2373992,47.3081084 C87.8534274,46.3473755 88.2417339,45.2533089 88.4785282,44.1391509 C88.4177419,43.8989677 88.2190524,44.0514795 88.0793347,44.1126668 L88.0793347,44.1126668 Z M6.00514113,49.1318572 C6.2891129,49.0953274 6.29637097,49.4478397 6.41522177,49.6277488 C6.29455645,49.1893916 6.14939516,48.7592536 6.02147177,48.3236361 C6.0015121,48.5921299 6.00332661,48.8615369 6.00514113,49.1318572 L6.00514113,49.1318572 Z M83.5929435,49.635968 C83.6736895,49.4798033 83.7489919,49.3208988 83.8288306,49.1638208 C83.8705645,49.1565148 83.953125,49.1419029 83.9939516,49.1336837 C84.0492944,48.8679296 84.0030242,48.5921299 83.9885081,48.3245493 C83.8832661,48.7692992 83.7335685,49.2012638 83.5929435,49.635968 L83.5929435,49.635968 Z M4.22147177,50.9346014 C4.28860887,51.1026383 4.35483871,51.2725017 4.42288306,51.4414519 C4.45100806,51.4085751 4.50816532,51.3419083 4.53629032,51.3090315 C5.57056452,52.2578923 6.5984879,53.214059 7.61733871,54.1793582 C7.56925403,54.2295866 7.47217742,54.3300435 7.42318548,54.3811851 C6.4515121,53.5026442 5.51431452,52.5866602 4.53719758,51.7135987 C5.04435484,52.974789 5.72389113,54.2779885 6.92782258,54.9912323 C7.47852823,55.2898632 8.07550403,55.6222841 8.72419355,55.5364391 C8.43931452,55.0880362 7.99203629,54.7684007 7.6391129,54.3747924 C7.71169355,54.3035594 7.78518145,54.2341528 7.85957661,54.1665727 C8.23155242,54.5473956 8.60262097,54.9309582 8.99002016,55.2962559 C9.10614919,54.6158889 8.6797379,54.0085815 8.32772177,53.4697674 C7.32429435,52.1510427 5.75201613,51.4359724 4.22147177,50.9346014 L4.22147177,50.9346014 Z M82.908871,52.3592624 C82.3418347,52.7866607 81.840121,53.3053834 81.4137097,53.8752478 C81.1814516,54.2177144 80.9174395,54.5930578 80.9364919,55.0277621 C80.9555444,55.109954 80.9256048,55.277991 81.0535282,55.2761645 C81.3520161,54.9126933 81.6378024,54.5391764 81.9308468,54.171139 C82.0052419,54.2350661 82.0805444,54.2999064 82.156754,54.36566 C81.8700605,54.7437431 81.5298387,55.0871229 81.2866935,55.4944299 C81.706754,55.7145217 82.2102823,55.6414622 82.6212702,55.4378087 C83.3171371,55.0907759 83.8633065,54.5044731 84.3169355,53.8807273 C84.9111895,53.0131453 85.4419355,52.0231885 85.4673387,50.9455603 C84.6154234,51.4177076 83.7235887,51.8204483 82.908871,52.3592624 L82.908871,52.3592624 Z M10.6076613,56.4898661 C11.1955645,56.9638399 11.6219758,57.5994579 12.1264113,58.1574501 C12.5628024,58.7337072 13.1516129,59.1620188 13.7277218,59.5848509 C13.6115927,58.8643011 13.4900202,58.1428382 13.2768145,57.4432931 C12.8504032,55.954705 12.005746,54.5994505 10.8689516,53.5565256 C10.4969758,54.4743361 10.3282258,55.5236537 10.6076613,56.4898661 L10.6076613,56.4898661 Z M78.7645161,53.8542432 C78.2972782,54.5181718 77.8191532,55.1766209 77.4181452,55.8843852 C76.7612903,57.0131551 76.3357863,58.2944367 76.3040323,59.6085952 C77.2112903,58.6661271 78.1711694,57.7638418 79.0503024,56.8021956 C79.1029234,56.7802778 79.2081653,56.7346156 79.2616935,56.7117845 C79.3388105,56.2414637 79.4912298,55.7830151 79.5502016,55.3108678 C79.3660282,54.7647477 79.1519153,54.2277601 78.9532258,53.6871195 C78.8497984,53.6405441 78.8262097,53.804928 78.7645161,53.8542432 L78.7645161,53.8542432 Z M9.365625,56.0789062 C9.41280242,56.2231988 9.4608871,56.3665781 9.50806452,56.5126972 C9.81018145,56.5875832 9.84375,56.2889524 9.89727823,56.0761665 C9.7203629,56.0761665 9.54254032,56.0770797 9.365625,56.0789062 L9.365625,56.0789062 Z M79.1129032,56.9592736 C78.9650202,57.225941 79.4113911,56.9857577 79.1129032,56.9592736 L79.1129032,56.9592736 Z M7.95393145,57.2442058 C8.27419355,57.9181801 8.68608871,58.5547113 9.23497984,59.0633884 C10.3436492,60.1391901 11.8560484,60.6478672 13.334879,60.950151 C13.2169355,60.7738949 13.1171371,60.5720679 12.9311492,60.4579124 C12.0365927,59.8542579 11.1356855,59.2588227 10.2465726,58.6478623 C10.205746,58.5611041 10.1640121,58.4716061 10.0660282,58.4432955 C9.56068548,58.1948931 9.06078629,57.9346185 8.55362903,57.6907823 C8.55272177,57.5419235 8.55181452,57.3948912 8.55090726,57.2478588 C8.35221774,57.2442058 8.15262097,57.2442058 7.95393145,57.2442058 L7.95393145,57.2442058 Z M8.90201613,57.2889548 C9.29032258,57.5154394 9.70493952,57.6926088 10.100504,57.9072212 C10.8789315,58.5638438 11.7181452,59.1501466 12.5256048,59.7738924 C12.7950605,59.9620207 13.0318548,60.2085967 13.3421371,60.3300582 C13.1978831,60.0022035 12.9511089,59.7373626 12.7551411,59.4414715 C12.571875,59.2022015 12.4394153,58.9099634 12.1763105,58.7464926 C11.1991935,58.0460343 10.1023185,57.4606447 8.90201613,57.2889548 L8.90201613,57.2889548 Z M80.7459677,57.5044805 C80.859375,57.6232022 80.9745968,57.7400975 81.0907258,57.8588192 C79.9702621,58.5784557 78.8579637,59.3117908 77.7420363,60.0387332 C77.3609879,60.3017476 76.89375,60.4926156 76.6959677,60.946498 C77.741129,60.6944426 78.7899194,60.3912455 79.7225806,59.8405592 C80.7332661,59.2652154 81.5425403,58.3656698 82.0397177,57.3126992 C81.6060484,57.3638408 81.1760081,57.4359871 80.7459677,57.5044805 L80.7459677,57.5044805 Z M79.3451613,57.7181796 C79.4159274,57.9318788 79.1791331,58.0350754 79.063004,58.1693223 C78.2954637,58.8889587 77.4952621,59.5757184 76.756754,60.3254919 C77.9788306,59.4195536 79.1863911,58.4944372 80.3993952,57.5757135 C80.0446573,57.6021976 79.6953629,57.6670379 79.3451613,57.7181796 L79.3451613,57.7181796 Z M15.5449597,58.7346205 C15.4333669,58.8551687 15.3190524,58.9729772 15.2092742,59.0953519 C15.2809476,59.4369053 15.3308468,59.7830249 15.3870968,60.1291444 C15.436996,60.5364514 15.6864919,60.8761782 15.858871,61.2387362 C15.9205645,61.2442156 16.0430444,61.2542613 16.1047379,61.2597408 C16.3397177,61.7328013 16.7053427,62.1218434 17.0700605,62.4962735 C17.8230847,63.2305219 18.6813508,63.8697929 19.6421371,64.3026706 C19.5123992,63.335545 19.1304435,62.4113418 18.5761089,61.6140796 C17.771371,60.4606521 16.6844758,59.5382754 15.5449597,58.7346205 L15.5449597,58.7346205 Z M72.0907258,60.8232101 C71.2524194,61.7035775 70.5719758,62.7875984 70.4077621,64.0168252 C71.7768145,63.4122575 73.1857863,62.6149953 73.9360887,61.2560878 C74.1120968,61.2670468 74.2654234,61.1939872 74.3579637,61.0405622 C74.2881048,60.3136198 74.218246,59.5875906 74.1438508,58.8606482 C73.4579637,59.5136178 72.7376008,60.1309709 72.0907258,60.8232101 L72.0907258,60.8232101 Z M14.3246976,60.0314273 C14.4698589,60.8743517 15.075,61.5501525 15.7681452,62.0012951 C15.7318548,61.8433039 15.6919355,61.6871391 15.6529234,61.5309743 C15.5939516,61.5318876 15.4769153,61.5337141 15.4188508,61.5337141 C15.3390121,61.1994667 15.2519153,60.8661325 15.1675403,60.5337116 C14.8844758,60.3693277 14.6104839,60.1903318 14.3246976,60.0314273 L14.3246976,60.0314273 Z M74.8732863,60.9766351 C74.7852823,61.0853112 74.6410282,61.0515211 74.5212702,61.0652198 C74.4006048,61.3729831 74.3289315,61.6971848 74.246371,62.0177335 C74.8905242,61.5738968 75.4784274,60.9720689 75.6707661,60.1875921 C75.3922379,60.437821 75.1436492,60.718187 74.8732863,60.9766351 L74.8732863,60.9766351 Z M13.0391129,62.4935338 C13.2486895,62.7382832 13.4700605,62.97664 13.7340726,63.1647683 C13.7340726,63.0807498 13.7349798,62.9145394 13.7349798,62.8314341 C14.2230847,63.0369141 14.7166331,63.2314351 15.2083669,63.4277826 C15.2092742,63.6131712 15.2092742,63.7967333 15.2092742,63.9839484 C14.9126008,63.8725326 14.6231855,63.7419387 14.3246976,63.6396553 C15.4896169,64.4588354 16.8722782,64.883494 18.2358871,65.2305268 C17.8376008,65.0825812 17.4302419,64.9611197 17.0301411,64.8195669 C17.0310484,64.6360048 17.0310484,64.4524427 17.0319556,64.2707071 C17.8321573,64.5401141 18.6314516,64.8113477 19.434375,65.074362 C18.1714718,63.8241306 16.5719758,62.7428495 14.7384073,62.7254978 C14.6939516,62.6460456 14.6504032,62.5675066 14.6068548,62.490794 C14.0842742,62.4898808 13.5616935,62.4807484 13.0391129,62.4935338 L13.0391129,62.4935338 Z M75.4103831,62.490794 C75.3813508,62.5483284 75.3241935,62.6633972 75.2951613,62.7209316 C74.6818548,62.7483289 74.0694556,62.8560917 73.4933468,63.0725306 C72.4572581,63.4542667 71.5663306,64.1401132 70.7670363,64.8898867 C71.5100806,64.6944524 72.2504032,64.4898857 72.9907258,64.2834925 C72.9889113,64.4606619 72.9898185,64.640571 72.9907258,64.8195669 C72.6006048,65.0086084 72.140625,65.0131747 71.7759073,65.2451387 C71.8784274,65.2369195 71.9800403,65.2232208 72.0825605,65.2031295 L72.144254,65.1693394 C72.1760081,65.1519878 72.2395161,65.1181977 72.2712702,65.1008461 C73.3146169,64.8040417 74.3488911,64.4378308 75.2842742,63.8761856 C75.2851815,63.6542672 75.2842742,63.4323489 75.2806452,63.2113438 C75.4666331,63.1099736 75.6553427,63.0131698 75.8449597,62.9172791 C75.9021169,62.9958181 75.9610887,63.0752704 76.0209677,63.1556359 C75.8113911,63.3702483 75.5927419,63.5766415 75.3949597,63.8022128 C75.9701613,63.4387416 76.5127016,63.0095168 76.9617944,62.494447 C76.4446573,62.4816616 75.9275202,62.4898808 75.4103831,62.490794 L75.4103831,62.490794 Z M21.9438508,64.0570079 C23.143246,65.1081521 24.3326613,66.1702551 25.5384073,67.2140933 C25.4821573,67.2789336 25.425,67.343774 25.36875,67.4095276 C25.5556452,67.4698017 25.7416331,67.5282493 25.9285282,67.5885234 C25.2780242,65.8551858 23.7148185,64.5145433 21.9438508,64.0570079 L21.9438508,64.0570079 Z M68.0688508,64.2734468 C67.3330645,65.0177409 66.5990927,65.7629482 65.8569556,66.5017628 C65.7834677,66.42779 65.7272177,66.3465113 65.6882056,66.2561001 C66.2198589,65.679843 66.8086694,65.1574672 67.3285282,64.5702512 C66.4956653,65.0277866 65.5992944,65.3766459 64.803629,65.8962818 L64.9669355,65.9401176 C64.7138105,66.4707125 64.4461694,66.9940014 64.1866935,67.5218566 C64.318246,67.4652355 64.4516129,67.4095276 64.5840726,67.3556461 C64.5568548,67.3200296 64.5015121,67.2478833 64.4742944,67.2122668 C64.7256048,66.9108962 64.9433468,66.5821283 65.1919355,66.2771047 C65.2645161,66.3410318 65.3398185,66.4086119 65.415121,66.4743654 C65.2236895,66.7236811 65.021371,66.9666041 64.8626008,67.2396641 C65.4332661,66.9866955 66.0003024,66.7154619 66.5174395,66.3629497 C67.3439516,65.8140899 68.0180444,65.0095217 68.3355847,64.0597477 C68.2403226,64.1227615 68.1495968,64.1921681 68.0688508,64.2734468 L68.0688508,64.2734468 Z M19.8399194,64.3693375 C20.1329637,64.4944519 20.4450605,64.5629452 20.7616935,64.5903426 C20.7172379,64.4515294 20.6727823,64.3127163 20.6283266,64.1757297 C20.3670363,64.244223 20.1039315,64.3072369 19.8399194,64.3693375 L19.8399194,64.3693375 Z M21.6825605,64.2286978 C21.8168347,64.6716213 22.0137097,65.0971931 22.2886089,65.4697968 C23.0035282,66.4396622 24.1258065,66.9857822 25.2362903,67.3602124 C24.0650202,66.3017623 22.8756048,65.2615771 21.6825605,64.2286978 L21.6825605,64.2286978 Z M69.2002016,64.3483328 C69.2038306,64.5044976 69.2110887,64.6643154 69.3072581,64.797649 C69.5549395,64.7410279 69.8017137,64.678014 70.0493952,64.6195664 C69.9886089,64.483493 70.0121976,64.2798395 69.8888105,64.1876019 C69.6574597,64.2341773 69.4306452,64.2999309 69.2002016,64.3483328 L69.2002016,64.3483328 Z M68.68125,65.0962799 C68.5261089,65.3565545 68.3691532,65.6159159 68.2149194,65.878017 C68.5306452,65.7720806 68.846371,65.665231 69.1611895,65.5574682 C69.1602823,65.4825822 69.159375,65.3318969 69.1584677,65.2570109 C69.1212702,65.2186546 69.0486895,65.1419421 69.0114919,65.1035858 C68.9008065,65.0999329 68.7910282,65.0971931 68.68125,65.0962799 L68.68125,65.0962799 Z M20.8778226,65.2898877 C20.8769153,65.3821253 20.8769153,65.4752762 20.8778226,65.5693404 C21.1835685,65.6615781 21.4847782,65.7693409 21.7868952,65.874364 C21.6616935,65.6150026 21.5110887,65.3675134 21.3559476,65.1255037 C21.1962702,65.1812116 21.0375,65.2360063 20.8778226,65.2898877 L20.8778226,65.2898877 Z M27.3021169,66.6734527 C27.4726815,67.336468 27.8165323,67.9812185 28.3844758,68.3803062 C29.0540323,68.8597594 29.8796371,69.0533672 30.6780242,69.1812214 C30.0647177,68.7483436 29.4495968,68.3182056 28.8362903,67.8853278 C28.8371976,67.8259669 28.8371976,67.7081584 28.8381048,67.6497108 C28.3400202,67.3008515 27.8210685,66.9876087 27.3021169,66.6734527 L27.3021169,66.6734527 Z M28.18125,66.70085 C28.2801411,66.857928 28.3899194,67.015006 28.5559476,67.1099834 C29.7916331,67.9291635 31.0608871,68.6953755 32.3101815,69.4926377 C31.3983871,68.016835 29.7181452,67.3191164 28.18125,66.70085 L28.18125,66.70085 Z M60.2219758,67.425966 C59.171371,67.9191178 58.1171371,68.5784802 57.5691532,69.6478892 C57.8785282,69.5392131 58.1897177,69.4351033 58.5081653,69.3574775 C58.4700605,69.2652399 58.2913306,69.1666095 58.3974798,69.0661526 C59.2176411,68.1227713 60.2863911,67.21318 61.5892137,67.1510794 C61.6363911,66.9958279 61.6844758,66.8414896 61.7352823,66.6889778 C61.2371976,66.9465127 60.7282258,67.1839562 60.2219758,67.425966 L60.2219758,67.425966 Z M61.8731855,67.1949152 C61.9503024,67.2077006 62.1045363,67.2350979 62.1816532,67.2478833 C60.9931452,67.9547344 59.7756048,68.6122702 58.5943548,69.3309935 C59.5923387,69.0688924 60.665625,68.9675222 61.5556452,68.4003976 C62.1616935,68.0195747 62.5318548,67.3647786 62.7214718,66.6871514 C62.4329637,66.8460559 62.152621,67.0195723 61.8731855,67.1949152 L61.8731855,67.1949152 Z M20.591129,67.2396641 C22.3484879,67.6177472 24.1176411,67.9465152 25.8768145,68.3191188 C24.2582661,67.4698017 22.3938508,67.2478833 20.591129,67.2396641 L20.591129,67.2396641 Z M65.5176411,67.6451446 C64.9841734,67.8451451 64.430746,68.0177482 63.9544355,68.3401234 C65.7217742,68.0077025 67.4845766,67.6424048 69.2464718,67.2780204 C69.0051411,67.186696 68.7483871,67.1529059 68.4934476,67.141947 C67.4800403,67.097198 66.4738911,67.3255091 65.5176411,67.6451446 L65.5176411,67.6451446 Z M64.0224798,68.8688919 C64.0224798,68.9337322 64.0206653,69.0634129 64.0197581,69.1282532 C63.8428427,69.1291665 63.6677419,69.1300797 63.4926411,69.1373857 C64.6729839,69.36661 65.893246,69.5309939 67.0908266,69.3401259 C68.4671371,69.1127281 69.6819556,68.3538221 70.7724798,67.5145506 C68.5215726,67.9593006 66.2742944,68.4232287 64.0224798,68.8688919 L64.0224798,68.8688919 Z M19.2638105,67.5191169 C20.056754,68.1419494 20.9195565,68.6917225 21.8649194,69.048801 C23.3528226,69.60588 24.9913306,69.441496 26.5137097,69.1291665 C26.3440524,69.1264267 26.1753024,69.1291665 26.0065524,69.1319062 C26.0056452,69.0670659 26.0047379,68.9364719 26.0038306,68.8707184 C23.7565524,68.4250552 21.511996,67.9602138 19.2638105,67.5191169 L19.2638105,67.5191169 Z M27.5234879,69.5054231 C27.7221774,69.4524549 27.9217742,69.4022265 28.1222782,69.3565643 C28.2166331,69.0433215 27.9199597,68.9072481 27.7194556,68.7492569 C27.6459677,68.9985725 27.5851815,69.2515412 27.5234879,69.5054231 L27.5234879,69.5054231 Z M61.9085685,69.0497142 C61.906754,69.1492578 61.9058468,69.2497147 61.9058468,69.3510848 C62.1027218,69.404053 62.300504,69.4524549 62.4991935,69.5045099 C62.4393145,69.2533677 62.377621,69.004052 62.3168347,68.7547363 C62.1798387,68.8524535 62.0446573,68.9510838 61.9085685,69.0497142 L61.9085685,69.0497142 Z M35.096371,69.1556506 C35.5944556,69.407706 36.1261089,69.5857886 36.6251008,69.8351043 C36.6378024,69.9026843 36.6641129,70.0378445 36.6768145,70.1054246 C37.1068548,70.4186673 37.5405242,70.7264307 37.9696573,71.0405867 C38.3606855,71.3355646 38.8179435,71.5182134 39.2507056,71.7401318 C38.9821573,71.2497196 38.6501008,70.7903578 38.2418347,70.4077084 C37.4017137,69.6031402 36.2395161,69.2104452 35.096371,69.1556506 L35.096371,69.1556506 Z M55.0995968,69.1940068 C55.1349798,69.3319067 55.1694556,69.4725463 55.205746,69.6131859 C54.4363911,69.9803101 53.6761089,70.3675257 52.9185484,70.757481 C52.5247984,71.0369337 52.1501008,71.3474367 51.7862903,71.6652457 C52.8069556,71.5383048 53.8512097,71.2579388 54.6695565,70.6031427 C55.1694556,70.2177536 55.5514113,69.7008574 55.8553427,69.1501711 C55.603125,69.1666095 55.3518145,69.1903538 55.0995968,69.1940068 L55.0995968,69.1940068 Z M34.2997984,69.3273405 C35.075504,70.2360185 35.9691532,71.0798562 37.0478831,71.6077114 C37.3590726,71.7657026 37.9016129,71.8880773 38.0132056,71.4314552 C37.5142137,71.1556555 37.0215726,70.8688968 36.5280242,70.5839646 C36.3864919,70.5319096 36.3483871,70.4013157 36.3565524,70.2615893 C35.6706653,69.9510863 34.991129,69.6268846 34.2997984,69.3273405 L34.2997984,69.3273405 Z M52.4522177,69.9090771 C51.7273185,70.309078 51.159375,70.9574815 50.7855847,71.6944696 C51.408871,71.3191262 52.03125,70.9428695 52.653629,70.5666129 L52.653629,70.316384 C53.4275202,70.0177531 54.1832661,69.6716336 54.9698589,69.4086192 C55.0578629,69.3720894 55.0451613,69.2789385 55.0279234,69.2040525 C54.1469758,69.3282537 53.2379032,69.4597609 52.4522177,69.9090771 L52.4522177,69.9090771 Z M27.0997984,70.5035991 C28.8462702,70.5163845 30.5927419,70.510905 32.3392137,70.5063388 C31.672379,69.9656982 30.7760081,69.8122732 29.9404234,69.8424102 C28.9678427,69.8935519 27.9943548,70.1172967 27.0997984,70.5035991 L27.0997984,70.5035991 Z M57.4149194,70.5081653 C59.1804435,70.510905 60.9459677,70.5136448 62.7123992,70.5063388 C62.1408266,70.1300822 61.4667339,69.9373876 60.7926411,69.8679811 C59.6377016,69.7638712 58.4501008,69.9793969 57.4149194,70.5081653 L57.4149194,70.5081653 Z M26.300504,70.9812258 C26.8811492,71.3583957 27.5416331,71.6049716 28.2220766,71.7246066 C29.5965726,71.9593104 31.0028226,71.7337391 32.3283266,71.344697 C31.5117944,70.9291709 30.5609879,70.8944676 29.6646169,70.8204948 C28.5423387,70.7730061 27.4128024,70.8177551 26.300504,70.9812258 L26.300504,70.9812258 Z M57.3269153,71.2670713 C58.3394153,71.5364783 59.3773185,71.7264331 60.4233871,71.7848807 C61.4993952,71.8241502 62.6234879,71.6415014 63.5497984,71.0634178 C61.4748992,71.10908 59.4009073,71.1903587 57.3269153,71.2670713 L57.3269153,71.2670713 Z M34.0040323,72.4049736 C35.5844758,72.4232385 37.1658266,72.4131928 38.7462702,72.4095398 C37.2420363,71.7574834 35.5391129,71.9958402 34.0040323,72.4049736 L34.0040323,72.4049736 Z M51.0405242,72.3994941 C52.6327621,72.4296312 54.2259073,72.4095398 55.8181452,72.4104531 C54.2513105,72.0533745 52.6128024,72.0990368 51.0405242,72.3994941 L51.0405242,72.3994941 Z M33.1285282,72.6552025 C33.1285282,72.7236958 33.127621,72.8606825 33.127621,72.9291758 C34.0620968,73.2826013 35.0265121,73.5830587 36.024496,73.6780361 C37.4280242,73.8369406 38.8315524,73.4990402 40.1207661,72.9574864 C38.0086694,72.9054314 35.8947581,72.9611393 33.781754,72.9282625 C33.7835685,72.7720978 33.7844758,72.6168462 33.7862903,72.4634212 C33.5667339,72.5255218 33.3480847,72.5903622 33.1285282,72.6552025 L33.1285282,72.6552025 Z M56.2354839,72.4917318 C56.2345766,72.6387641 56.2354839,72.7867097 56.2363911,72.9364817 C54.1324597,72.9529201 52.0258065,72.9063447 49.9236895,72.9602261 C50.8699597,73.3556608 51.8679435,73.6588579 52.8976815,73.7036069 C54.2685484,73.7830592 55.6167339,73.4131952 56.8896169,72.9319155 C56.8923387,72.8652487 56.8977823,72.7310018 56.9014113,72.664335 C56.6800403,72.6031476 56.4568548,72.5465264 56.2354839,72.4917318 L56.2354839,72.4917318 Z M41.2811492,73.2451583 C42.0867944,73.7154791 42.9196573,74.1383112 43.7416331,74.5784949 C43.196371,73.7565751 42.1965726,73.4323734 41.2811492,73.2451583 L41.2811492,73.2451583 Z M46.1712702,74.8579476 C47.1347782,74.3821474 48.0792339,73.8615982 49.0173387,73.337396 C47.9032258,73.2725556 46.6339718,73.7693605 46.1712702,74.8579476 L46.1712702,74.8579476 Z M44.6833669,75.031464 C44.6053427,75.3273552 44.8103831,75.5739311 45.1215726,75.5118305 C45.1787298,75.3045241 45.2322581,75.0981309 45.2866935,74.8917377 C45.0861895,74.9401396 44.8847782,74.9885416 44.6833669,75.031464 L44.6833669,75.031464 Z M38.2917339,77.1858072 C39.2815524,77.543799 40.3648185,77.9200556 41.4172379,77.611379 C42.3771169,77.3100084 43.1845766,76.6807831 44.0165323,76.1355763 C44.1390121,76.0689095 44.1870968,75.9611467 44.1607863,75.8141144 C42.2065524,76.2816954 40.2459677,76.7200526 38.2917339,77.1858072 L38.2917339,77.1858072 Z M45.8174395,76.0022427 C46.5668347,76.6469931 47.3479839,77.3127482 48.3033266,77.6205115 C49.3530242,77.9337543 50.4589718,77.622338 51.4569556,77.2679992 C50.3709677,76.7602354 49.2450605,76.3273576 48.0783266,76.0479049 C47.3434476,75.8935666 46.5423387,75.7255297 45.8174395,76.0022427 Z" id="Shape"></path>
            <path d="M70.590364,7.98876404 C70.9640923,8.08489515 71.3431596,8.16395624 71.7142183,8.27356366 C71.8076504,8.30680526 71.788964,8.46941955 71.9001926,8.48648956 C72.6351916,8.74074285 73.3746397,8.98601192 74.1123081,9.23307783 C74.1131979,9.41006687 74.1140877,9.58705591 74.1176471,9.76404494 C73.3328177,9.50529955 72.5462087,9.25014784 71.7702776,8.96894191 C71.7587098,8.92581768 71.7355742,8.83956921 71.7240065,8.79644498 C71.3449392,8.70031388 70.965872,8.60867489 70.5885844,8.50984852 C70.5876945,8.33555475 70.5885844,8.1621594 70.590364,7.98876404 Z" id="Shape"></path>
            <path d="M19.5794785,7.98876404 C19.6701291,8.06867328 19.7607797,8.14858252 19.8529412,8.22849176 C19.7728665,8.44446267 19.6943026,8.65827387 19.6172496,8.87640449 C19.2410496,8.72522486 19.4767412,8.31488012 19.5794785,7.98876404 Z" id="Shape"></path>
            <path d="M82.4856066,15.9944168 C83.2641927,15.8669517 82.931262,16.5058705 82.3335595,16.411865 C81.8276096,16.3831853 82.1054888,15.9896369 82.4856066,15.9944168 Z" id="Shape"></path>
            <path d="M7.18558507,16.4213483 C6.77591406,16.129042 7.45264909,15.9430289 7.89084151,15.9828888 C8.12160556,16.2766715 7.50191333,16.3091499 7.18558507,16.4213483 Z" id="Shape"></path>
            <path d="M82.9411765,16.372035 C83.1647059,16.2405327 83.3905882,16.1090304 83.6188235,15.9775281 C83.6705882,16.1035511 83.7717647,16.3555972 83.8235294,16.4816202 C83.6,16.6076432 83.3811765,16.7364059 83.1623529,16.8651685 C83.1082353,16.7418851 82.9952941,16.4953184 82.9411765,16.372035 Z" id="Shape"></path>
            <path d="M6.73675219,16.8986566 C6.83823716,16.8748824 6.94289353,16.8634707 7.05072131,16.8653727 C7.06763547,17.4207394 7.05177844,17.9761061 7.05812126,18.5314729 C6.86149413,18.5314729 6.66380987,18.5314729 6.4661256,18.5324238 C6.62786727,18.8519499 6.73780932,19.1885934 6.85937986,19.5204821 C6.63103868,19.5223841 6.40375463,19.5223841 6.17647059,19.5280899 C6.18387053,19.2266323 6.18175626,18.9251746 6.18069913,18.623717 C6.24201296,18.6132563 6.3635835,18.592335 6.42489733,18.5818743 C6.52215376,18.0198508 6.61518165,17.4568763 6.73675219,16.8986566 Z" id="Shape"></path>
            <path d="M87.3529412,30.5851752 C87.6201691,30.4447426 87.892439,30.3096093 88.169751,30.1797753 C88.4042057,30.7123596 87.9630275,30.8898876 87.5823538,31.0674157 C87.5016812,30.9057857 87.4260507,30.7441556 87.3529412,30.5851752 Z" id="Shape"></path>
            <path d="M26.8160647,30.4622466 C27.0340174,30.1488585 27.5732622,30.0967768 27.8954939,30.3033077 C28.1961182,30.4469813 28.2308778,30.7935938 28.3483092,31.05939 C29.2173013,33.3429024 30.0731411,35.6327006 30.9966214,37.8964579 C31.0576857,35.578823 31.2850328,33.2674738 31.3357632,30.9498389 C31.3592495,30.7648591 31.5527764,30.676859 31.7218775,30.6436345 C32.0328358,30.5888589 32.3870088,30.6454304 32.6143559,30.8708184 C32.6622679,31.0486145 32.6425394,31.2344922 32.6453578,31.4167781 C32.5842935,34.7051078 32.3447335,37.9889478 32.2987004,41.2781754 C32.3080949,41.421849 32.2000581,41.5466655 32.0675955,41.602339 C31.7425454,41.7487065 31.3216714,41.6993187 31.0464123,41.4775226 C30.9017369,41.265604 30.8434909,41.0123793 30.7448486,40.7807056 C29.7650012,38.2789888 28.8067613,35.7700885 27.8184589,33.2719636 C27.5121979,35.9433947 27.2219075,38.6175198 26.9203438,41.2898489 C26.9043731,41.6346656 26.4656495,41.7208697 26.1744197,41.7190738 C25.9188891,41.7190738 25.537472,41.6077268 25.5938391,41.2952367 C25.9987424,37.6836413 26.3876751,34.071148 26.8160647,30.4622466 Z" id="Shape"></path>
            <path d="M21.1764706,30.4688266 C21.3318078,30.3088084 21.5264157,30.1901432 21.7524401,30.1874463 C22.2769213,30.1703657 22.803148,30.1883453 23.328502,30.1802545 C23.5876882,30.1802545 23.8905085,30.1937392 24.0824984,30.4005042 C24.1505675,30.5083817 24.0938432,30.6396326 23.9926122,30.6980662 C23.774442,30.8562864 23.4908206,30.8113375 23.2394885,30.8410038 C23.4079159,34.2418399 23.5300913,37.6444739 23.7028821,41.0444111 C24.0432277,41.0551988 24.4987672,41.0210376 24.7055926,41.3572556 C24.7178101,41.6692012 24.3408119,41.7249379 24.1130422,41.7186451 C23.3520644,41.6602114 22.5884685,41.635939 21.8283633,41.5721115 C21.6669173,41.5361524 21.4059857,41.5055871 21.424312,41.2790445 C21.6564451,40.9419275 22.1128573,40.9320388 22.4750199,40.9572102 C22.2839028,37.5896363 22.1634728,34.2184664 22.0002815,30.8490946 C21.7044426,30.8095395 21.2864284,30.8338119 21.1764706,30.4688266 Z" id="Shape"></path>
            <path d="M62.6517355,30.5796352 C62.5949937,30.1916216 63.068133,30.1445627 63.3361289,30.1978369 C63.6154731,30.224474 63.8564076,30.3825207 64.0371084,30.5929538 C64.6350796,31.2038311 65.283682,31.7605463 65.9148254,32.3367953 C66.3914565,31.7223664 66.8986408,31.1327988 67.3778908,30.5210336 C67.6013662,30.2040522 68.0509358,30.1197014 68.401862,30.2271377 C68.6000218,30.2750845 68.7231079,30.4766385 68.6925546,30.6799683 C68.6637472,33.9945103 68.8296079,37.3055007 68.8200054,40.6200428 C68.8077841,40.8340274 68.8531775,41.0604427 68.7842144,41.2673241 C68.5729603,41.533695 68.1827514,41.5292555 67.8807104,41.4750934 C67.693899,41.4386894 67.5629563,41.2584451 67.5952555,41.0657701 C67.6109686,38.0708731 67.4843908,35.0768641 67.4643129,32.0819672 C67.2111572,32.3989485 66.9614933,32.7185936 66.7092105,33.0364629 C66.5573171,33.22825 66.3713786,33.4120459 66.133936,33.4830782 C65.833641,33.548783 65.5551697,33.3614354 65.3561369,33.1536661 C64.9013296,32.6937324 64.4063665,32.2781937 63.936719,31.836018 C64.0737723,35.0333569 64.097342,38.2351352 64.2806616,41.4306982 C64.0013174,41.8293667 63.3553338,41.7974022 63.0576576,41.4413531 C62.8472765,37.824924 62.6447519,34.2040554 62.6517355,30.5796352 Z" id="Shape"></path>
            <path d="M41.6436687,30.5278356 C41.6003986,30.20292 42.0648312,30.2020298 42.3023361,30.1797753 C43.8542912,30.1940182 45.5475953,30.490448 46.6841571,31.5470915 C47.3428245,32.13372 47.6784084,32.9811711 47.6447538,33.822391 C47.6793699,34.7704325 47.0918578,35.6214444 46.3870356,36.2632641 C45.493748,37.0528536 44.3754557,37.6127767 43.1927391,37.9305709 C43.2196627,39.0913653 43.2215858,40.2539401 43.306203,41.4120641 C43.0158124,41.8500325 42.3254135,41.7725869 41.9513674,41.4725963 C41.871558,40.3331662 41.8532884,39.1910655 41.8023258,38.0507451 C41.6850157,37.9822013 41.5744365,37.9056458 41.4705882,37.8228591 C41.5628978,37.7169277 41.673477,37.6279097 41.7927103,37.5495739 C41.7657866,35.208401 41.6052064,32.8690085 41.6436687,30.5278356 L41.6436687,30.5278356 Z M42.9917734,30.8224851 C43.0619672,32.9339916 43.1100451,35.0481686 43.1860082,37.1596751 C44.3773789,36.6825388 45.5543262,35.9427993 46.0927988,34.8069299 C46.4389598,34.0725316 46.3783816,33.1921437 45.9456804,32.4986937 C45.3543221,31.5194959 44.1831441,30.9141736 42.9917734,30.8224851 Z" id="Shape"></path>
            <path d="M48.627505,30.5257656 C48.6213994,30.1982164 49.0391976,30.2008508 49.2703385,30.1797753 C50.6920734,30.201729 52.249004,30.5073245 53.2695131,31.5839339 C53.9829972,32.3075279 54.2193715,33.399944 54.0274809,34.3817135 C53.7788954,35.46447 52.9502769,36.289051 52.0667079,36.8958512 C52.8752651,38.359724 53.8216347,39.7410508 54.634553,41.2022891 C54.733115,41.3357676 54.7470707,41.5737457 54.5630302,41.6422412 C54.1888435,41.7880138 53.6262551,41.7467408 53.4282589,41.3410365 C52.6825023,40.0203019 51.8146334,38.7733317 51.0871936,37.4429375 C50.7470239,37.5931008 50.4007486,37.7292137 50.0448788,37.8354696 C50.068429,38.9384235 50.0867458,40.0422556 50.1373351,41.1452095 C50.1547797,41.2593687 50.0928514,41.3761624 50.000395,41.4402672 C49.6846478,41.6448757 49.2459161,41.5842835 48.9624413,41.3506961 C48.9031297,41.237415 48.9083631,41.1039365 48.8978963,40.9801176 C48.8630071,39.9711256 48.8054399,38.9621335 48.7984621,37.9513852 C48.6885611,37.8741081 48.4600369,37.8126378 48.5498765,37.6291048 C48.6222716,37.5676345 48.6981556,37.5096767 48.7775286,37.4561097 C48.7557228,35.1457023 48.6126771,32.8370512 48.627505,30.5257656 L48.627505,30.5257656 Z M49.8634549,30.819067 C49.9271277,32.9020341 49.9846949,34.9850012 50.0352842,37.0679683 C50.8202912,36.7307594 51.5669201,36.265341 52.1338696,35.6146333 C52.5542845,35.1246267 52.8647983,34.5081668 52.8778818,33.8495558 C52.9180044,33.1391341 52.6266796,32.4374938 52.150442,31.9211428 C51.5651756,31.2765821 50.7252182,30.8858063 49.8634549,30.819067 Z" id="Shape"></path>
            <path d="M16.6019166,31.0781863 C17.814203,30.9983644 19.0237993,31.3687006 20.0773765,31.9738615 C20.221739,32.0379046 20.3867247,32.2541661 20.2316023,32.3943184 C19.8451412,32.5623155 19.3627373,32.593873 18.9977961,32.3497667 C18.2553604,31.9367351 17.403532,31.572896 16.5472203,31.7705943 C15.959907,31.8810454 15.4999197,32.3330598 15.1860882,32.8351948 C14.749414,33.5619448 14.5673917,34.4186373 14.5001421,35.2623355 C14.3835761,36.6350855 14.4786223,38.0681658 15.0390357,39.3360336 C15.2838243,39.9801773 15.6532488,40.7273468 16.3786479,40.8656427 C17.1668134,40.9760939 17.9047658,40.5509962 18.550362,40.1323956 C18.8453637,39.8855049 19.2506546,39.9449071 19.5985593,39.9996686 C19.6909154,40.0275135 19.8594878,40.0442204 19.8460379,40.1843727 C19.8612811,40.3551543 19.6918121,40.446114 19.5779361,40.5296485 C18.90813,40.9491772 18.267017,41.467091 17.4842315,41.6323036 C16.6942728,41.790091 15.8056812,41.766887 15.1242185,41.2731054 C14.344123,40.7561198 13.8841357,39.8669416 13.6294838,38.9684819 C13.2448161,37.7423814 13.1883264,36.4373872 13.2645426,35.1602378 C13.3533121,34.0835712 13.6492104,32.9753471 14.3512963,32.1492839 C14.9143997,31.4819362 15.7608482,31.140373 16.6019166,31.0781863 Z" id="Shape"></path>
            <path d="M34.7459516,31.4224552 C34.754697,31.1534408 35.0564114,31.1035885 35.250558,31.0763108 C36.9156717,31.0311616 38.5799108,31.1731936 40.2441499,31.1609657 C40.4715289,31.1694312 40.7338892,31.1788373 40.905298,31.3631968 C41.0259837,31.463842 40.9490247,31.6246863 40.8458296,31.6971132 C40.6464358,31.8504326 40.3884481,31.8278579 40.1566965,31.832561 C38.7163382,31.8259767 37.279478,31.6886477 35.8399943,31.6792416 C35.8347471,32.7270808 35.8391197,33.77492 35.9047098,34.8208779 C35.9405657,35.3278665 35.9073334,35.8433206 35.9939123,36.3446656 C36.6795474,36.266595 37.3713041,36.3145661 38.0595628,36.2985757 C38.3254213,36.2966945 38.6533717,36.271298 38.838773,36.5215002 C38.953337,36.7058597 38.7390761,36.8732882 38.5825344,36.8864568 C37.7281142,37.0783411 36.847458,36.987102 35.9807943,36.9965081 C36.0236465,38.44975 36.0813658,39.9227448 36.4635373,41.3261344 C36.5168839,41.5913863 36.7049089,41.8585195 36.9716419,41.8857972 C37.8968994,42.05981 38.8239059,41.8039641 39.7089348,41.5293061 C40.1986741,41.416433 40.6954097,41.1361313 41.2043888,41.2997974 C41.3521851,41.3345999 41.5332137,41.481335 41.4492584,41.6666351 C41.1685329,41.9478774 40.7732433,42.0334729 40.4173077,42.1538709 C39.0372923,42.515065 37.5855651,42.7840794 36.174941,42.4642721 C35.8067619,42.3956076 35.5513979,42.0729785 35.3756164,41.7418839 C35.0774002,41.1746963 34.9768287,40.5209725 34.9077405,39.881358 C34.7826821,38.9351046 34.7109702,37.9813264 34.6733653,37.0266076 C34.3235515,37.0068548 33.93176,37.0821036 33.6221748,36.8648227 C33.5076108,36.7961582 33.4944928,36.5986302 33.6090568,36.5233814 C33.8976532,36.271298 34.2938173,36.360656 34.6366348,36.3465468 C34.6069006,34.7051829 34.6305131,33.0600566 34.7459516,31.4224552 Z" id="Shape"></path>
            <path d="M58.3399453,32.0365158 C59.1554694,31.8634232 60.1261556,31.9343175 60.7384914,32.5622385 C61.293565,33.1487278 61.5300024,33.9580278 61.6611513,34.7360238 C61.9234489,36.6234698 61.6833173,38.5753651 60.9878589,40.3495642 C60.6405916,41.1818819 60.1076839,42.0105167 59.2727645,42.4202305 C58.5551402,42.7111734 57.6777359,42.6642174 57.0118323,42.2618692 C56.1464346,41.6486795 55.8093267,40.5668507 55.680025,39.5623612 C55.5701186,38.3516337 55.5424111,37.1280163 55.6892608,35.9182095 C55.8277983,34.8326979 56.1750657,33.7278515 56.9250155,32.9028995 C57.3138441,32.5051548 57.7941075,32.1718595 58.3399453,32.0365158 L58.3399453,32.0365158 Z M58.6936777,32.7436175 C58.309467,32.9121066 58.0009901,33.2177807 57.7756358,33.5658074 C57.2491932,34.4045699 57.0589351,35.4044559 56.9684239,36.3758 C56.8779127,37.731999 56.8326571,39.1167398 57.1660707,40.4462383 C57.296296,40.9084324 57.4902485,41.3770714 57.8421338,41.7177324 C58.0259269,41.8926664 58.3482575,41.9902611 58.5597581,41.8070408 C59.400219,41.1634677 59.7992071,40.1276743 60.0882887,39.1471231 C60.5242201,37.4364526 60.6544453,35.5895177 60.1104547,33.8880542 C59.9774587,33.4921509 59.8084429,33.0833578 59.4870359,32.8016219 C59.267223,32.6101152 58.9430452,32.6165602 58.6936777,32.7436175 Z" id="Shape"></path>
            <path d="M73.3956967,32.0246649 C74.2084215,31.864403 75.177404,31.9519023 75.7672998,32.5947921 C76.3405528,33.2137346 76.5615326,34.0675438 76.6872784,34.8799059 C76.9082582,36.806733 76.660465,38.7998755 75.8893472,40.5867037 C75.509336,41.3935395 74.9333092,42.2105069 74.0512392,42.5080046 C73.2357406,42.7216871 72.2362463,42.6111617 71.6481996,41.9526141 C71.0037523,41.2738036 70.7652051,40.3251268 70.6616497,39.4225022 C70.5673404,38.1238281 70.5340547,36.8094962 70.7467131,35.5200325 C70.9149906,34.5814872 71.2570932,33.6429418 71.9080127,32.9272895 C72.3092898,32.5036086 72.8168961,32.1508481 73.3956967,32.0246649 L73.3956967,32.0246649 Z M73.7359501,32.7255805 C73.2791969,32.9153159 72.9278483,33.2929445 72.684678,33.7147834 C72.1826194,34.6128027 72.0124927,35.651742 71.9449968,36.664892 C71.8775008,37.9911975 71.837743,39.3515817 72.2233018,40.6373612 C72.3851071,41.1061733 72.6070115,41.625643 73.0711615,41.8678779 C73.4428514,42.0612975 73.7359501,41.6541954 73.9744973,41.4303813 C74.7345198,40.5295989 75.0877176,39.3617132 75.2985268,38.223301 C75.5583399,36.6114714 75.5888517,34.8835901 74.9046465,33.3675492 C74.717877,32.9272895 74.249104,32.4566352 73.7359501,32.7255805 Z" id="Shape"></path>
            <path d="M4.41445891,35.5562135 C4.5559048,35.5384607 4.6986978,35.5215955 4.84149079,35.505618 C4.99371352,35.8003146 5.13920072,36.0976742 5.29411765,36.3923708 C5.00044903,36.3923708 4.70543332,36.3923708 4.41176471,36.3932584 C4.41176471,36.1136517 4.41176471,35.8349326 4.41445891,35.5562135 Z" id="Shape"></path>
            <path d="M0.882352941,36.5522043 C1.22047244,36.4551592 1.67438629,36.2172421 1.76470588,36.6179445 C1.53311718,36.6899457 1.2992126,36.7635122 1.0676239,36.8370787 C1.02130616,36.7650774 0.928670681,36.6242055 0.882352941,36.5522043 Z" id="Shape"></path>
            <path d="M89.1176471,36.7604668 C89.3706674,36.6363028 89.631513,36.5147806 89.8923587,36.3932584 C90.2131989,36.8978398 89.7541105,37.1250334 89.3367574,37.2808989 C89.2819798,37.1514513 89.1724247,36.8925562 89.1176471,36.7604668 Z" id="Shape"></path>
            <path d="M87.3529412,38.1685393 C87.5484845,37.8701204 87.7613666,37.577933 87.9607629,37.2808989 C88.0301182,37.2982086 88.1669021,37.3335203 88.2352941,37.3515224 C88.1707552,37.624323 88.0551631,37.8895073 87.9723221,38.1595383 C87.7652196,38.1630002 87.5571539,38.1636926 87.3529412,38.1685393 Z" id="Shape"></path>
            <path d="M83.8235294,42.1097692 C84.0470278,41.9768889 84.2728543,41.8493238 84.5010088,41.7191011 C84.5522272,41.8572966 84.654664,42.1363453 84.7058824,42.2745408 C84.4800559,42.3835027 84.2542294,42.4951221 84.030731,42.6067416 C83.9795126,42.4818341 83.8747478,42.2320191 83.8235294,42.1097692 Z" id="Shape"></path>
            <path d="M5.29841482,41.7332468 C5.45597785,41.7279422 5.61354087,41.7226375 5.77253629,41.7191011 C5.89715432,42.3114508 6.0446906,42.9020323 6.17647059,43.494382 C5.8828304,43.4917297 5.58775783,43.4908456 5.29411765,43.4890774 C5.30271199,42.9038005 5.29411765,42.3185237 5.29841482,41.7332468 Z" id="Shape"></path>
            <path d="M83.8272957,42.6102733 C83.9442457,42.6090961 84.1796075,42.6079188 84.2980193,42.6067416 C84.4266643,43.4932048 84.5743136,44.3784907 84.7058824,45.2661312 C84.4105837,45.2661312 84.1167469,45.2673084 83.824372,45.2696629 C83.8258338,44.3820225 83.8199863,43.4955593 83.8272957,42.6102733 Z" id="Shape"></path>
            <path d="M7.94117647,48.8281759 C8.05731281,48.8260074 8.2895855,48.8223932 8.40430554,48.8202247 C8.53743745,49.1173096 8.69889529,49.4100575 8.82352941,49.7078652 C8.52893967,49.7064195 8.23576622,49.7064195 7.94259277,49.7071423 C7.94259277,49.4136716 7.94117647,49.1209238 7.94117647,48.8281759 Z" id="Shape"></path>
            <path d="M84.7058824,49.5526276 C84.8540265,49.3071665 85.0021706,49.0617054 85.1568266,48.8202247 C85.3065987,48.8852387 85.4498589,48.9621941 85.5882353,49.049764 C85.4710224,49.2753229 85.3245062,49.4889404 85.1942696,49.7078652 C85.0282179,49.6561193 84.8670501,49.6043735 84.7058824,49.5526276 Z" id="Shape"></path>
            <path d="M7.94117647,49.7676863 C8.04418542,49.752731 8.24884793,49.7228205 8.35185687,49.7078652 C8.52941176,49.9990535 8.6757929,50.2963998 8.82352941,50.5937462 C8.53076715,50.5946259 8.2366495,50.5946259 7.94524261,50.5955056 C7.94659799,50.3192726 7.94659799,50.0430396 7.94117647,49.7676863 Z" id="Shape"></path>
            <path d="M82.0588235,50.0203776 C82.331095,49.8995745 82.6058416,49.7682667 82.9003898,49.7078652 C83.0885046,50.2777408 82.58604,50.4195532 82.2073352,50.5955056 C82.1702073,50.4510671 82.0959515,50.1648162 82.0588235,50.0203776 Z" id="Shape"></path>
            <path d="M7.94117647,50.9984996 C8.08935788,50.8984096 8.38347553,50.6955956 8.53165694,50.5955056 C8.63044454,50.7535425 8.72698698,50.9142133 8.82352941,51.080152 C8.6012573,51.2118494 8.38123035,51.3461808 8.15895824,51.4831461 C8.10507409,51.3619845 7.99730579,51.1196613 7.94117647,50.9984996 Z" id="Shape"></path>
            <path d="M81.2860624,51.4831461 C80.9316751,51.0254958 81.5272426,50.8293599 81.7930331,50.5955056 C81.8594807,50.7363211 81.9923759,51.0204666 82.0588235,51.1612821 C81.8004161,51.2694083 81.5420088,51.3775345 81.2860624,51.4831461 Z" id="Shape"></path>
            <path d="M7.94117647,51.7169797 C8.14791134,51.6356463 8.35890878,51.5615747 8.56777494,51.4831461 C8.63171355,51.5514081 8.75959079,51.6879321 8.82352941,51.7547417 C8.49531117,51.862218 8.07757886,52.1004088 7.94117647,51.7169797 Z" id="Shape"></path>
            <path d="M81.289708,51.608454 C81.5126432,51.3516023 82.3630996,51.5256531 81.9447521,51.8061622 C81.7080555,52.0528749 80.8768651,51.888963 81.289708,51.608454 Z" id="Shape"></path>
            <path d="M84.4948041,51.4831461 C84.5797502,51.534008 84.6466775,51.6081456 84.7058824,51.6900419 C83.876156,52.4977975 83.0773191,53.3383117 82.2475927,54.1460674 C82.2004004,54.0995159 82.1060158,54.0046886 82.0588235,53.9581371 C82.8662408,53.1279677 83.691677,52.3167637 84.4948041,51.4831461 Z" id="Shape"></path>
            <path d="M78.2422667,54.1460674 C78.3373479,54.1657615 78.432429,54.1868623 78.5294118,54.2072597 C78.447642,54.4843836 78.3478068,54.7579907 78.2584305,55.0330045 C78.0540061,55.0330045 77.8495816,55.0330045 77.6470588,55.0337079 C77.84768,54.7382966 78.0521045,54.4449955 78.2422667,54.1460674 Z" id="Shape"></path>
            <path d="M11.4705882,54.2768052 C11.5140717,54.2441207 11.6010388,54.1787519 11.6439183,54.1460674 C11.8764344,54.7404081 12.1198212,55.3270077 12.3529412,55.9213483 C12.2255103,55.918768 12.0980795,55.918768 11.9706486,55.9204882 C11.7979225,55.3760343 11.6415026,54.8221192 11.4705882,54.2768052 Z" id="Shape"></path>
            <path d="M76.7647059,58.5782804 C77.2690567,57.6960591 77.7493909,56.8052809 78.2474765,55.9213483 C78.3184824,55.9547204 78.4594501,56.0214646 78.5294118,56.0548367 C78.173338,56.8865719 77.8130874,57.7191629 77.4204664,58.5397741 C77.229377,58.6261993 76.9756352,58.5560323 76.7647059,58.5782804 Z" id="Shape"></path>
            <path d="M11.4705882,56.9116411 C11.5571828,56.8762735 11.6437773,56.8426311 11.7303719,56.8089888 C11.9400219,57.1031437 12.1496719,57.3972986 12.3529412,57.6966292 C12.1505834,57.6940413 11.9482256,57.6940413 11.7458678,57.694904 C11.6510695,57.4343914 11.5580943,57.1730162 11.4705882,56.9116411 Z" id="Shape"></path>
            <path d="M12.3529412,59.0392556 C12.505118,58.8850554 12.6611968,58.7346625 12.8153246,58.5842697 C12.9675015,58.8203293 13.4767086,59.0792335 13.0982175,59.3533673 C12.8250796,59.6998419 12.5695005,59.1915522 12.3529412,59.0392556 Z" id="Shape"></path>
            <path d="M15.8823529,59.6096793 C15.9816459,59.5625234 16.0809388,59.5172168 16.1802317,59.4719101 C16.3675342,59.7123127 16.5616067,59.9499415 16.7647059,60.1829471 C16.6631563,60.2421231 16.5627351,60.2994499 16.4611855,60.3595506 C16.263728,60.1117509 16.0504739,59.8722729 15.8823529,59.6096793 Z" id="Shape"></path>
            <path d="M15.8823529,59.5858319 C15.9411309,59.5472646 16.0005923,59.5092907 16.0600538,59.4719101 C16.288331,59.7401009 16.5569326,59.9821847 16.7647059,60.2640224 C16.704561,60.2954696 16.6450996,60.3269167 16.5849547,60.3595506 C16.3566775,60.0972932 16.1174648,59.8427492 15.8823529,59.5858319 Z" id="Shape"></path>
            <path d="M73.6604278,59.4719101 C73.8112299,59.5351249 73.9620321,59.5996566 74.1176471,59.6668223 C73.9780749,59.8972927 73.8368984,60.1277631 73.6989305,60.3595506 C73.5433155,60.2950188 73.3877005,60.2291701 73.2352941,60.1659554 C73.3748663,59.931534 73.5192513,59.7023806 73.6604278,59.4719101 Z" id="Shape"></path>
            <path d="M73.7403004,61.3102604 C73.8394243,61.1471635 73.9948686,61.3472878 74.1176471,61.38696 C73.3370463,62.2280108 72.5463079,63.0628903 71.7780976,63.9101124 C71.6744681,63.8589793 71.571965,63.8078462 71.4705882,63.7567132 C72.2185232,62.9368209 72.9833542,62.124863 73.7403004,61.3102604 Z" id="Shape"></path>
            <path d="M16.7647059,61.4892748 C16.8348493,61.4070358 16.9041373,61.3271134 16.9734253,61.247191 C17.4918023,62.0568396 18.0281429,62.8467971 18.5294118,63.6761367 C18.4797981,63.7340514 18.3805708,63.8521976 18.3309572,63.9101124 C17.8083032,63.1039387 17.2873599,62.2954484 16.7647059,61.4892748 Z" id="Shape"></path>
            <path d="M74.3103016,63.9101124 C74.6717155,63.9950992 74.573148,64.4318372 74.4252969,64.7977528 C74.3491312,64.7694239 74.1953062,64.712766 74.1176471,64.684437 C74.1803718,64.424755 74.2430965,64.1627122 74.3103016,63.9101124 Z" id="Shape"></path>
            <path d="M16.7647059,65.541165 C16.9381599,65.1084804 17.1191554,64.5929981 17.6470588,64.8814545 C17.5414781,65.1485438 17.4333836,65.4156331 17.3252891,65.6853933 C17.1870287,65.6506717 16.9054801,65.5785575 16.7647059,65.541165 Z" id="Shape"></path>
        </g>
    </g>
</svg>