<?xml version="1.0" encoding="UTF-8" standalone="no"?>
<svg width="130px" height="17px" viewBox="0 0 130 17" version="1.1" xmlns="http://www.w3.org/2000/svg" xmlns:xlink="http://www.w3.org/1999/xlink">
    <!-- Generator: Sketch 41.2 (35397) - http://www.bohemiancoding.com/sketch -->
    <title>Gazeta</title>
    <desc>Created with Sketch.</desc>
    <defs></defs>
    <g id="Page-1" stroke="none" stroke-width="1" fill="none" fill-rule="evenodd">
        <g id="Gazeta" fill="#FFFFFF">
            <polygon id="Shape" points="10.9189189 5.31935484 10.9189189 1.59032258 5.21621622 1.59032258 5.21621622 15.1080645 7.78378378 15.1080645 7.78378378 16.3145161 0 16.3145161 0 15.1080645 2.56756757 15.1080645 2.56756757 1.59032258 0 1.59032258 0 0.383870968 12.8108108 0.383870968 12.8108108 5.31935484"></polygon>
            <path d="M29.3783784,15.2725806 L29.3783784,16.4790323 L24.2702703,16.4790323 L24.2702703,15.0258065 C23.1351351,16.2322581 21.1351351,16.8629032 19.4594595,16.8629032 C15.6756757,16.8629032 13.7297297,14.066129 13.7297297,11.5709677 C13.7297297,8.66451613 15.9189189,5.75806452 19.7027027,5.75806452 C21.5675676,5.75806452 23.2432432,6.38870968 24.2972973,7.73225806 L24.2972973,5.23709677 C24.2972973,2.08387097 22.3783784,1.28870968 20.7567568,1.28870968 C18.4324324,1.28870968 16.6756757,2.76935484 16.3783784,3.04354839 L15.4054054,1.72741935 C16.972973,0.548387097 18.4864865,0.137096774 20.6486486,0.137096774 C26.6756757,0.137096774 26.7567568,3.81129032 26.7567568,7.73225806 L26.7567568,15.2451613 L29.3783784,15.2451613 L29.3783784,15.2725806 Z M24.2702703,9.98064516 C23.8378378,8.74677419 22.7567568,7.21129032 20.8648649,7.21129032 C18.5405405,7.21129032 16.4594595,8.77419355 16.4594595,11.5983871 C16.4594595,13.9564516 18.4864865,15.3822581 20.4324324,15.3822581 C21.7837838,15.3822581 23.5405405,14.5596774 24.2702703,12.75 L24.2702703,9.98064516 L24.2702703,9.98064516 Z" id="Shape"></path>
            <path d="M30.7027027,5.31935484 L30.7027027,0.520967742 L31.8918919,0.520967742 L31.8918919,1.72741935 L31.8108108,2.19354839 L32.027027,2.19354839 L32.1891892,1.7 C33,0.877419355 34.2162162,0.109677419 36.4594595,0.109677419 C40.4054054,0.109677419 41.8108108,2.49516129 41.8108108,4.22258065 C41.8108108,5.26451613 41.5945946,7.51290323 38.2162162,7.97903226 L38.2162162,8.1983871 C40.6486486,8.22580645 42.8378378,9.78870968 42.8378378,12.283871 C42.8378378,14.8064516 40.4324324,16.8629032 35.6756757,16.8629032 C33.0540541,16.8629032 30.7297297,16.15 29.2702703,13.4903226 L30.7297297,12.2564516 C31.3513514,14.5048387 33.4054054,15.766129 36.027027,15.766129 C38.6216216,15.766129 39.8918919,13.9016129 39.8918919,12.3387097 C39.8918919,8.96612903 37,8.82903226 35.4054054,8.82903226 L34.2972973,8.82903226 L34.2972973,7.73225806 L35.3513514,7.73225806 C37.4054054,7.73225806 39.2162162,6.8 39.2162162,4.41451613 C39.2162162,2.71451613 38.1351351,1.3983871 36.4324324,1.3983871 C33.5405405,1.3983871 31.8648649,2.96129032 31.9189189,5.29193548 L30.7027027,5.29193548 L30.7027027,5.31935484 Z" id="Shape"></path>
            <path d="M47.6216216,8.82903226 C47.6216216,10.6112903 48.1081081,15.5193548 53,15.5193548 C55.1621622,15.5193548 56.8648649,14.7516129 58.6486486,12.9419355 L59.5135135,13.8741935 C57.9189189,15.766129 55.1621622,16.8354839 52.7837838,16.8354839 C48.8378378,16.8354839 44.5945946,14.3403226 44.5945946,8.41774194 C44.5945946,2.76935484 48.5405405,0.137096774 52.1081081,0.137096774 C55.9459459,0.137096774 59.7837838,2.76935484 59.5135135,8.82903226 L47.6216216,8.82903226 Z M56.5675676,7.73225806 C56.5675676,3.61935484 54.5945946,1.20645161 52.027027,1.20645161 C49.3783784,1.20645161 47.4864865,4.11290323 47.6216216,7.73225806 L56.5675676,7.73225806 Z" id="Shape"></path>
            <polygon id="Shape" points="64.6216216 15.2725806 67.1621622 15.2725806 67.1621622 1.75483871 62.8108108 1.75483871 62.8108108 5.34677419 60.9459459 5.34677419 60.9459459 0.548387097 76.0540541 0.548387097 76.0540541 5.34677419 74.1621622 5.34677419 74.1621622 1.75483871 69.8378378 1.75483871 69.8378378 15.2725806 72.3783784 15.2725806 72.3783784 16.4790323 64.6216216 16.4790323"></polygon>
            <path d="M92.8648649,15.2725806 L92.8648649,16.4790323 L87.7567568,16.4790323 L87.7567568,15.0258065 C86.6216216,16.2322581 84.6216216,16.8629032 82.9459459,16.8629032 C79.1621622,16.8629032 77.2162162,14.066129 77.2162162,11.5709677 C77.2162162,8.66451613 79.4054054,5.75806452 83.1621622,5.75806452 C85.027027,5.75806452 86.7027027,6.38870968 87.7567568,7.73225806 L87.7567568,5.23709677 C87.7567568,2.08387097 85.8378378,1.28870968 84.2162162,1.28870968 C81.8918919,1.28870968 80.1351351,2.76935484 79.8378378,3.04354839 L78.8918919,1.7 C80.4864865,0.520967742 82,0.109677419 84.1351351,0.109677419 C90.1621622,0.109677419 90.2432432,3.75645161 90.2432432,7.70483871 L90.2432432,15.2177419 L92.8648649,15.2177419 L92.8648649,15.2725806 Z M87.7297297,9.98064516 C87.2972973,8.74677419 86.2162162,7.21129032 84.3243243,7.21129032 C82,7.21129032 79.9189189,8.77419355 79.9189189,11.5983871 C79.9189189,13.9564516 81.9459459,15.3822581 83.8918919,15.3822581 C85.2432432,15.3822581 87,14.5596774 87.7297297,12.75 L87.7297297,9.98064516 L87.7297297,9.98064516 Z" id="Shape"></path>
            <path d="M96.0810811,12.6129032 C97.1621622,12.6129032 97.7297297,13.5725806 97.7297297,14.7516129 C97.7297297,15.9032258 97.1621622,16.8629032 96.0810811,16.8629032 C95.0810811,16.8629032 94.4324324,16.0129032 94.4324324,14.7516129 C94.4324324,13.7096774 94.9189189,12.6129032 96.0810811,12.6129032" id="Shape"></path>
            <path d="M104.675676,0.575806452 L104.675676,3.0983871 L104.837838,3.0983871 C105.621622,1.20645161 106.72973,0.191935484 108.459459,0.191935484 C108.891892,0.191935484 110.216216,0.301612903 111,1.34354839 L109.648649,3.56451613 C108.972973,2.52258065 108.162162,2.27580645 107.486486,2.27580645 C105.945946,2.27580645 104.648649,4.44193548 104.648649,6.85483871 L104.648649,15.3 L107.216216,15.3 L107.216216,16.5064516 L99.4594595,16.5064516 L99.4594595,15.3 L102.027027,15.3 L102.027027,1.78225806 L99.4594595,1.78225806 L99.4594595,0.575806452 L104.675676,0.575806452 Z" id="Shape"></path>
            <path d="M117.297297,0.466129032 L117.297297,11.1596774 C117.297297,11.9822581 117.297297,15.3822581 120.72973,15.3822581 C122.891892,15.3822581 124.756757,14.0387097 124.756757,10.8032258 L124.756757,1.67258065 L122.189189,1.67258065 L122.189189,0.466129032 L127.405405,0.466129032 L127.405405,15.1903226 L129.972973,15.1903226 L129.972973,16.3967742 L124.756757,16.3967742 L124.756757,15.1080645 L124.918919,14.3129032 L124.72973,14.3129032 L124.324324,15.0806452 C122.837838,16.6709677 121,16.8354839 119.72973,16.8354839 C114.621622,16.8354839 114.621622,12.283871 114.621622,10.9951613 L114.621622,1.67258065 L112.054054,1.67258065 L112.054054,0.466129032 L117.297297,0.466129032 Z" id="Shape"></path>
        </g>
    </g>
</svg>