<?xml version="1.0" encoding="UTF-8" standalone="no"?>
<svg width="113px" height="98px" viewBox="0 0 113 98" version="1.1" xmlns="http://www.w3.org/2000/svg" xmlns:xlink="http://www.w3.org/1999/xlink">
    <!-- Generator: Sketch 41.2 (35397) - http://www.bohemiancoding.com/sketch -->
    <title>Gazprombank</title>
    <desc>Created with Sketch.</desc>
    <defs></defs>
    <g id="Page-1" stroke="none" stroke-width="1" fill="none" fill-rule="evenodd">
        <g id="Gazprombank" fill="#FFFFFF">
            <g id="logo" transform="translate(20.000000, 0.000000)">
                <path d="M1.42520561,36.6228037 C1.42520561,17.3344299 17.0970093,1.64829907 36.3785607,1.64829907 C55.6171308,1.64829907 71.2889346,17.3337477 71.2889346,36.6228037 C71.2889346,55.872972 55.6171308,71.5502336 36.3785607,71.5502336 C17.0970093,71.5502336 1.42520561,55.872972 1.42520561,36.6228037 M0.190345794,36.6228037 C0.190345794,56.5531682 16.4168131,72.7830467 36.3785607,72.7830467 C56.2932336,72.7830467 72.516972,56.5531682 72.516972,36.6228037 C72.516972,16.6480935 56.2939159,0.420943925 36.3785607,0.420943925 C16.4168131,0.420943925 0.190345794,16.6480935 0.190345794,36.6228037" id="Shape"></path>
                <path d="M59.3981215,32.925729 C59.1006636,33.1802056 58.8038879,33.3903364 58.5091589,33.650271 C56.5095047,35.1737196 53.3234299,36.4099439 48.9516168,37.5608879 C39.8648224,40.0217383 33.2743551,40.3567196 25.7976542,42.1926355 C24.3137757,42.5719626 22.7848692,43.0386168 21.3869533,43.6335327 C22.7848692,44.3580748 24.3137757,44.9939252 25.8433645,45.5908879 C28.8991308,44.7005607 30.3495794,44.3164579 34.7602804,43.5939626 C36.4597477,43.2903645 41.6420654,42.3577383 45.3793925,41.6004486 C52.1370093,40.1493178 62.0322617,37.0041776 59.3981215,32.925729 L59.3981215,32.925729 Z M55.0256262,24.4249813 C53.5751776,23.7911776 51.7917944,23.1498692 49.8862897,22.6443271 C49.0300748,23.3245234 48.0599252,23.916028 46.6087944,24.474785 C48.9939159,24.8923178 50.7779813,25.572514 52.8103832,26.1285421 C53.1508224,26.299785 54.7643271,24.817271 55.0256262,24.4249813 L55.0256262,24.4249813 Z M21.9361589,33.4783458 C30.7718879,30.8844579 40.031972,30.0800935 49.4189533,27.574215 C45.7662243,26.5979252 43.7208598,26.1694766 39.8648224,26.6395421 C34.2547383,27.3197383 28.0531495,28.5034299 22.7466636,30.0794112 C20.6610467,30.7186729 9.74788785,33.8181028 12.8950748,38.1517103 C12.8943925,38.1960561 14.7569159,35.5639626 21.9361589,33.4783458 L21.9361589,33.4783458 Z M15.8621495,48.348514 C15.8191682,49.1590187 16.332215,49.8801495 17.3944673,50.7738879 C17.5193178,50.344757 17.7349065,50.0104579 18.0323645,49.5847383 C17.3071402,49.1972243 16.5839626,48.8185794 15.8621495,48.348514 L15.8621495,48.348514 Z M19.9849439,47.9719159 C20.6610467,47.5434673 21.4654112,47.1593645 22.357785,46.820972 C21.1283832,46.2656262 19.8123364,45.720514 18.5372243,45.1235514 C17.9423084,45.5056075 17.393785,45.8869813 16.9694299,46.2656262 C17.985972,46.863271 18.9663551,47.4138411 19.9849439,47.9719159 L19.9849439,47.9719159 Z M53.9156168,29.1897664 C52.1376916,30.0391589 49.589514,30.8851402 45.9361028,31.7809252 C42.9205888,32.5436729 35.6144486,33.6059252 27.7591028,35.304028 C25.2948411,35.8573271 18.5379065,37.4271682 15.2249346,40.2318692 C16.1596075,41.003486 16.7538411,41.169271 17.7731121,41.7641869 C19.1321402,40.8704486 21.001486,40.0217383 23.7659346,39.2944673 C28.5593738,38.0254953 32.1738972,37.4749252 36.5088692,36.7558411 C40.7967664,36.1083925 48.9059065,34.4130187 53.3664112,32.7954206 C54.8557477,32.2891963 56.2120467,31.609 57.186972,30.7957664 C56.8881495,30.4614673 54.0008972,29.0594579 53.9156168,29.1897664 L53.9156168,29.1897664 Z M56.5095047,27.6131028 C57.3984673,28.0395047 58.2117009,28.3376449 58.9730841,28.8909439 C59.5222897,27.8259626 59.1818505,27.1457664 58.0411402,26.1701589 C57.571757,26.7255047 57.0587103,27.1901121 56.5095047,27.6131028 L56.5095047,27.6131028 Z M15.4398411,43.5475701 C14.6293364,43.1273084 14.1210654,42.7868692 13.4401869,42.3584206 C13.0997477,43.1273084 13.7860841,43.9705607 14.4621869,44.3580748 C14.7569159,44.0592523 15.1430654,43.8047757 15.4398411,43.5475701 L15.4398411,43.5475701 Z M52.9809439,19.1621589 C52.8103832,19.7570748 52.1806729,20.4788879 51.7515421,20.9489533 C53.0696355,21.2893925 54.4286636,21.7922056 55.6996822,22.262271 C55.5318505,21.0731215 54.1728224,19.9255888 52.9809439,19.1621589 L52.9809439,19.1621589 Z M11.4439439,26.6757009 C20.704028,20.6446729 30.9417664,17.0772243 48.2686916,20.0968318 C49.2033645,19.5408037 49.7532523,18.9881869 50.0138692,17.8843178 C45.6775327,16.3137944 40.9666449,15.7604953 34.8953645,15.8430467 C29.4544766,16.0142897 19.6424579,18.0501028 14.3816822,21.1584019 L15.989729,19.1614766 C19.6424579,16.9878505 29.197271,14.1449439 36.379243,14.0153178 C41.4298879,13.8911495 44.0210467,14.184514 50.0541215,15.7993832 C49.4987757,14.7869346 48.2693738,14.2725234 46.4423271,13.4238131 C40.6268879,10.8299252 29.7949159,10.5727196 20.9202991,14.524271 C22.020757,13.7608411 23.1259907,13.0779159 24.5737103,12.4502523 C27.498486,11.0871308 32.3014766,9.7676729 38.2874766,9.89525234 C43.0911495,9.98053271 48.7824206,11.6377009 52.2625421,15.0802991 C52.8540467,15.7993832 53.197215,16.5211963 53.3241121,17.0772243 C56.0858318,18.4792336 57.6966075,19.7952804 58.5882991,21.3248692 C58.9737664,22.1326449 59.1013458,22.9813551 58.9287383,23.9576449 C60.0749065,24.6351121 60.6309346,25.232757 61.2285794,26.0043738 C61.6044953,26.6402243 61.9019533,27.3565794 61.9906449,28.004028 C62.1148131,28.8472804 62.1994112,29.8262991 61.3077196,30.974514 C62.2423925,31.4445794 63.0044579,32.7551682 63.0958785,33.3139252 C63.560486,35.3879439 62.2000935,37.4285327 60.4617383,39.0051963 C58.419785,40.7858505 53.9176636,42.9130841 50.2642523,43.850486 C43.0488505,45.6734393 36.6323551,46.4423271 31.5407757,47.377 C33.8317477,47.9275701 36.9318598,48.6541589 41.9872804,48.6541589 C52.8124299,48.6541589 62.3692897,43.5496168 62.3692897,43.5496168 C62.3692897,43.5496168 62.1605234,44.1936542 61.9449346,44.7885701 C55.064514,48.9502523 44.1534019,50.6892897 39.4773084,50.4771121 C34.7623271,50.2615234 30.7732523,49.5424393 26.8653645,48.3505607 C25.6748505,48.6930467 24.4857009,49.0771495 23.3422617,49.5424393 C29.2893738,52.2604953 33.7887664,52.8574579 38.8441869,53.236785 C44.0224112,53.6236168 52.6063925,52.3853458 59.8211121,49.7573458 C59.4813551,50.100514 59.3121589,50.6067383 58.9751308,50.9055607 C55.2766916,52.8574579 47.4670561,54.8134486 43.5161869,54.9819626 C39.6048879,55.1532056 34.8510187,54.9819626 30.6872897,54.2158037 C27.1198411,53.4967196 24.185514,52.3853458 21.1297477,51.0331402 C20.5812243,51.4506729 20.3267477,51.9678131 20.1950748,52.5620467 C32.1350093,58.8066168 43.2576168,58.933514 55.9616636,54.9819626 L54.8086729,56.0878785 C40.8363364,61.7825607 29.9224953,59.5700467 21.4674579,55.4936449 C21.172729,55.3640187 20.832972,55.2337103 20.5812243,55.0651963 C21.389,56.4283178 27.8389252,61.1432991 35.059785,61.7375327 C40.0333364,62.1632523 46.1046168,61.3118131 49.7150467,59.8715981 L47.5939533,60.9720561 C45.8487757,61.8234953 41.222486,63.7815327 34.7623271,63.3551308 C26.1428692,62.7581682 21.2975794,58.933514 19.1335047,56.94 C18.1115047,55.9991869 17.6496262,54.9403458 17.3494393,53.6242991 C15.3954953,52.6036636 14.1640467,51.5386822 13.1475047,49.9238131 C12.5525888,49.033486 12.6774393,47.9746449 12.8050187,47.0754486 L13.0663178,46.3181589 C12.1289159,45.6325047 11.1512617,44.9106916 10.7698879,44.1943364 C9.91708411,42.6627009 10.4321776,41.340514 11.0243645,40.3226075 C10.5113178,39.7283738 10.0439813,39.1334579 9.83794393,38.5392243 C9.58346729,37.859028 9.54048598,37.1726916 9.61962617,36.4126729 C9.78950467,35.1402897 10.4724299,33.9518224 11.3648037,32.9284579 C13.2300561,30.7630187 16.2100935,29.0621869 21.2580093,27.4057009 C26.2315607,25.746486 28.228486,25.4892804 31.9658131,24.6371589 C36.3383084,23.6226636 41.5629252,23.2849533 45.9381495,21.7553645 C33.7437383,19.6315421 21.0922243,21.5841215 10.7705701,28.6746729 L11.4439439,26.6757009 L11.4439439,26.6757009 Z" id="Shape"></path>
            </g>
            <g id="text" transform="translate(0.000000, 83.000000)">
                <path d="M11.4216213,4.71489796 L12.0543597,9.06183673 L10.7876512,9.06183673 L11.4216213,4.71489796 L11.4216213,4.71489796 Z M6.49611444,14.6479592 L9.84978202,14.6479592 L10.2716076,12.1873469 L12.5910327,12.1873469 L12.9937684,14.6479592 L16.347436,14.6479592 L13.509812,0.424285714 L9.33219891,0.424285714 L6.49611444,14.6479592 L6.49611444,14.6479592 Z" id="Shape"></path>
                <path d="M19.5289864,5.93602041 C20.0644278,5.93602041 21.0435559,5.5922449 21.0435559,4.54377551 C21.0435559,3.3055102 19.9129401,3.22714286 19.5853324,3.22714286 C19.2035341,3.22714286 18.475346,3.28530612 17.7656322,3.62908163 L17.7274523,0.538163265 C18.8580681,0.25255102 19.6632316,0.175714286 20.6204986,0.175714286 C23.3445068,0.175714286 24.5517902,2.06418367 24.5517902,3.91193878 C24.5517902,5.70612245 23.5153924,6.79071429 22.5005477,7.21132653 L22.5005477,7.34418367 C23.4784441,7.65183673 24.7805613,8.58397959 24.7805613,10.7577551 C24.7805613,13.4476531 22.9029755,14.9332653 20.487485,14.9332653 C19.2032262,14.9158163 18.3595749,14.7446939 17.3434986,14.1912245 L17.4010763,11.2343878 C18.3407929,11.6363265 18.9729155,11.6736735 19.6059619,11.6736735 C20.6799237,11.6736735 21.0999019,10.8906122 21.0999019,10.3209184 C21.0999019,9.5194898 20.5838583,8.98591837 19.4523188,8.98591837 L18.1107902,8.98591837 L18.1107902,5.93602041 L19.5289864,5.93602041 L19.5289864,5.93602041 Z" id="Shape"></path>
                <polygon id="Shape" points="26.3333106 0.423979592 35.3803924 0.423979592 35.3803924 14.6479592 32.0639809 14.6479592 32.0639809 3.85622449 29.6494142 3.85622449 29.6494142 14.6479592 26.3333106 14.6479592"></polygon>
                <path d="M40.5937875,3.55102041 L41.3801689,3.55102041 C42.1289864,3.55102041 42.6080817,4.00897959 42.6080817,5.19153061 C42.6080817,6.71663265 41.8019946,6.82959184 41.3801689,6.82959184 L40.5937875,6.82959184 L40.5937875,3.55102041 L40.5937875,3.55102041 Z M37.2779918,14.6479592 L40.5937875,14.6479592 L40.5937875,9.95877551 L41.7068529,9.95877551 C44.9832371,9.95877551 46.0002371,7.02183673 46.0002371,5.1505102 C46.0002371,3.32142857 44.8292861,0.424285714 41.7068529,0.424285714 L37.2779918,0.424285714 L37.2779918,14.6479592 L37.2779918,14.6479592 Z" id="Shape"></path>
                <path d="M52.1330272,11.3684694 C50.9623842,11.3684694 50.3705967,10.0160204 50.3705967,7.51806122 C50.3705967,5.01887755 50.9623842,3.66642857 52.1330272,3.66642857 C53.3039782,3.66642857 53.8954578,5.01887755 53.8954578,7.51806122 C53.8954578,10.0160204 53.3039782,11.3684694 52.1330272,11.3684694 M52.1330272,14.8203061 C56.0633951,14.8203061 57.3836785,11.1584694 57.3836785,7.51806122 C57.3836785,3.87765306 56.0633951,0.215816327 52.1330272,0.215816327 C48.2041989,0.215816327 46.882376,3.87765306 46.882376,7.51806122 C46.882376,11.1584694 48.2045068,14.8203061 52.1330272,14.8203061" id="Shape"></path>
                <path d="M75.0775695,11.7878571 L75.0775695,8.56653061 L75.5569728,8.56653061 C75.9587847,8.56653061 76.9948747,8.5855102 76.9948747,10.0530612 C76.9948747,11.5420408 75.9587847,11.7878571 75.5569728,11.7878571 L75.0775695,11.7878571 L75.0775695,11.7878571 Z M71.8375177,14.6479592 L75.7863597,14.6479592 C76.6475613,14.6479592 80.233079,14.2842857 80.251861,9.97469388 C80.251861,6.35663265 77.4736621,5.72632653 75.6715123,5.72632653 L75.0772616,5.72632653 L75.0772616,3.83785714 L79.4667112,3.83785714 L79.4667112,0.425510204 L71.8375177,0.425510204 L71.8375177,14.6479592 L71.8375177,14.6479592 Z" id="Shape"></path>
                <polygon id="Shape" points="92.1759782 0.423979592 95.4147984 0.423979592 95.4147984 5.55367347 97.7348392 5.55367347 97.7348392 0.423979592 100.972428 0.423979592 100.972428 14.6479592 97.7348392 14.6479592 97.7348392 8.94765306 95.4147984 8.94765306 95.4147984 14.6479592 92.1759782 14.6479592"></polygon>
                <polygon id="Shape" points="103.156376 0.423979592 106.416134 0.423979592 106.396428 5.53377551 107.105218 5.53377551 108.964946 0.423979592 112.491962 0.423979592 109.9607 7.1755102 112.85621 14.6479592 109.040997 14.6479592 107.164027 8.92744898 106.396428 8.92744898 106.416134 14.6479592 103.156376 14.6479592"></polygon>
                <polygon id="Shape" points="0.0754359673 0.423979592 6.8766812 0.423979592 6.8766812 3.97040816 3.44757766 3.97040816 3.44757766 14.6479592 0.0754359673 14.6479592"></polygon>
                <polygon id="Shape" points="58.9776866 0.423979592 61.7956049 0.423979592 64.284376 3.78061224 66.7977793 0.423979592 69.5959918 0.423979592 69.5959918 14.6479592 66.2774251 14.6479592 66.2774251 5.97183673 64.284376 8.45081633 62.2925586 5.97183673 62.2925586 14.6479592 58.9776866 14.6479592"></polygon>
                <path d="M85.8307357,4.75193878 L86.4434605,9.08020408 L85.1967657,9.08020408 L85.8307357,4.75193878 L85.8307357,4.75193878 Z M80.8858311,14.6663265 L84.2595123,14.6663265 L84.6628638,12.2072449 L86.9801335,12.2072449 L87.383485,14.6663265 L90.7568583,14.6663265 L87.920158,0.445102041 L83.7403896,0.445102041 L80.8858311,14.6663265 L80.8858311,14.6663265 Z" id="Shape"></path>
            </g>
        </g>
    </g>
</svg>