<?xml version="1.0" encoding="UTF-8" standalone="no"?>
<svg width="93px" height="42px" viewBox="0 0 93 42" version="1.1" xmlns="http://www.w3.org/2000/svg" xmlns:xlink="http://www.w3.org/1999/xlink">
    <!-- Generator: Sketch 41.2 (35397) - http://www.bohemiancoding.com/sketch -->
    <title>HELLO</title>
    <desc>Created with Sketch.</desc>
    <defs></defs>
    <g id="Page-1" stroke="none" stroke-width="1" fill="none" fill-rule="evenodd">
        <g id="HELLO" fill="#FFFFFF">
            <path d="M85.0433333,0.310272537 L92.7416667,0.310272537 L92.7416667,19.4437456 L85.0433333,19.4437456 L85.0433333,0.310272537 Z M18.3416667,28.907058 L10.6433333,28.907058 L10.6433333,18.2543676 L7.75,18.2543676 L7.75,28.907058 L0,28.907058 L0,0.413696716 L7.75,0.413696716 L7.75,10.4458421 L10.695,10.4458421 L10.695,0.413696716 L18.3416667,0.413696716 L18.3416667,28.907058 Z M34.3066667,7.23969252 L27.8483333,7.23969252 L27.8483333,10.6526904 L33.7383333,10.6526904 L33.7383333,17.7372467 L27.8483333,17.7372467 L27.8483333,21.408805 L34.3066667,21.408805 L34.3066667,28.907058 L20.2016667,28.907058 L20.2016667,0.361984626 L34.3066667,0.361984626 L34.3066667,7.23969252 Z M48.1533333,28.9587701 L35.7533333,28.9587701 L35.7533333,0.361984626 L43.555,0.361984626 L43.555,21.4605171 L48.1533333,21.4605171 L48.1533333,28.9587701 Z M62.5683333,28.9587701 L50.1166667,28.9587701 L50.1166667,0.361984626 L57.97,0.361984626 L57.97,21.4605171 L62.5683333,21.4605171 L62.5683333,28.9587701 Z M88.9183333,29.3207547 C86.6966667,29.3207547 84.8366667,27.5108316 84.8366667,25.3389238 C84.8366667,23.115304 86.645,21.3570929 88.9183333,21.3570929 C91.14,21.3570929 93,23.1670161 93,25.3389238 C93,27.5108316 91.1916667,29.3207547 88.9183333,29.3207547 L88.9183333,29.3207547 Z M73.4183333,6.77428372 C72.6433333,6.77428372 71.8683333,7.3431167 71.8683333,8.58420685 L71.8683333,19.7023061 C71.8683333,20.9951083 72.6433333,21.6673655 73.4183333,21.6673655 C74.1933333,21.6673655 74.9683333,21.0468204 74.9683333,19.7023061 L74.9683333,8.58420685 C74.9683333,7.3431167 74.1416667,6.77428372 73.4183333,6.77428372 L73.4183333,6.77428372 Z M82.6666667,20.4779874 C82.6666667,26.0628931 79.825,29.2690426 73.315,29.2690426 C66.9083333,29.2690426 63.9633333,26.011181 63.9633333,20.4779874 L63.9633333,7.8602376 C64.015,3.46470999 66.8566667,0 73.3666667,0 C79.8766667,0 82.6666667,3.56813417 82.6666667,7.91194969 L82.6666667,20.4779874 Z" id="Shape"></path>
            <polygon id="Shape" points="0 32.8867925 93 32.8867925 93 32.490566 0 32.490566"></polygon>
            <path d="M0,35.7602139 L1.75569128,35.7602139 C2.11715713,35.7602139 2.42698501,35.8101322 2.73681288,35.9099688 C2.99500278,36.0098054 3.20155469,36.109642 3.35646863,36.2593968 C3.51138257,36.4091517 3.6662965,36.5589066 3.71793448,36.7585797 C3.82121044,36.9582529 3.82121044,37.157926 3.82121044,37.4075175 C3.82121044,37.6071906 3.76957246,37.8068638 3.71793448,38.0065369 C3.6662965,38.2062101 3.51138257,38.4058832 3.35646863,38.5556381 C3.20155469,38.705393 2.99500278,38.8551478 2.6851749,38.9549844 C2.37534703,39.054821 2.06551916,39.1047393 1.65241532,39.1047393 L0.516379789,39.1047393 L0.516379789,42 L0,42 L0,35.7602139 Z M0.516379789,36.1595602 L0.516379789,38.6554747 L1.7040533,38.6554747 C2.01388118,38.6554747 2.27207107,38.6055564 2.47862299,38.5556381 C2.6851749,38.5057198 2.84008884,38.4058832 2.99500278,38.3060466 C3.09827873,38.1562918 3.14991671,38.0065369 3.20155469,37.8567821 C3.25319267,37.7070272 3.30483065,37.5572723 3.30483065,37.3575992 C3.30483065,37.2078443 3.25319267,37.0081711 3.20155469,36.8584163 C3.14991671,36.7086614 3.04664076,36.5589066 2.9433648,36.45907 C2.84008884,36.3592334 2.63353692,36.2593968 2.47862299,36.2094785 C2.27207107,36.1595602 2.06551916,36.109642 1.75569128,36.109642 L0.516379789,36.109642 L0.516379789,36.1595602 Z M22.6690727,38.8551478 C22.6690727,39.3044124 22.5657968,39.7037587 22.4108828,40.103105 C22.2559689,40.5024513 21.997779,40.8019611 21.6879511,41.1014708 C21.3781233,41.4009805 21.0166574,41.6006537 20.6035536,41.7504086 C20.1904498,41.9001634 19.7257079,42 19.2609661,42 C18.9511383,42 18.6413104,41.9500817 18.3314825,41.9001634 C18.0216546,41.8502451 17.7634647,41.7004903 17.5052748,41.6006537 C17.247085,41.5008171 17.040533,41.301144 16.8339811,41.1014708 C16.6274292,40.9017977 16.4725153,40.7021245 16.3176013,40.4525331 C16.1626874,40.2029416 16.0594114,39.9533502 15.9561355,39.7037587 C15.8528595,39.4541673 15.8528595,39.1546576 15.8528595,38.8551478 C15.8528595,38.5556381 15.9044975,38.2561284 15.9561355,38.0065369 C16.0594114,37.7569455 16.1626874,37.4574357 16.3176013,37.2577626 C16.4725153,37.0081711 16.6274292,36.808498 16.8339811,36.6088248 C17.040533,36.4091517 17.247085,36.2593968 17.5052748,36.109642 C17.7634647,35.9598871 18.0216546,35.8600505 18.3314825,35.8101322 C18.6413104,35.7602139 18.8995003,35.7102956 19.2609661,35.7102956 C19.570794,35.7102956 19.8806219,35.7602139 20.1904498,35.8101322 C20.5002776,35.8600505 20.7584675,36.0098054 21.0166574,36.109642 C21.2748473,36.2593968 21.4813992,36.4091517 21.6879511,36.6088248 C21.8945031,36.808498 22.049417,37.0081711 22.2043309,37.2577626 C22.3592449,37.507354 22.4625208,37.7569455 22.5657968,38.0065369 C22.6174348,38.2561284 22.6690727,38.5556381 22.6690727,38.8551478 Z M22.1526929,38.8551478 C22.1526929,38.4558015 22.101055,38.1063735 21.946141,37.7569455 C21.7912271,37.4075175 21.5846752,37.157926 21.3264853,36.9083346 C21.0682954,36.6587431 20.7584675,36.45907 20.4486396,36.3093151 C20.0871738,36.1595602 19.7257079,36.109642 19.3126041,36.109642 C18.8995003,36.109642 18.5380344,36.1595602 18.1765686,36.3093151 C17.8151027,36.45907 17.5052748,36.6587431 17.247085,36.9083346 C16.9888951,37.157926 16.7823431,37.4574357 16.6274292,37.7569455 C16.4725153,38.1063735 16.4208773,38.4558015 16.4208773,38.8551478 C16.4208773,39.2544941 16.4725153,39.6039222 16.6274292,39.9533502 C16.7823431,40.3027782 16.9888951,40.5523696 17.247085,40.8019611 C17.5052748,41.0515525 17.8151027,41.2512257 18.1765686,41.4009805 C18.5380344,41.5507354 18.8995003,41.6006537 19.3126041,41.6006537 C19.7257079,41.6006537 20.0871738,41.5507354 20.4486396,41.4009805 C20.8101055,41.2512257 21.1199334,41.0515525 21.3264853,40.8019611 C21.5846752,40.5523696 21.7912271,40.2528599 21.946141,39.9533502 C22.049417,39.5540039 22.1526929,39.2045758 22.1526929,38.8551478 Z M40.6390894,41.4009805 C40.2776235,41.6006537 39.9161577,41.7504086 39.5030539,41.8502451 C39.141588,41.9500817 38.7284842,42 38.3670183,42 C37.9022765,42 37.4375347,41.9001634 37.0244309,41.7504086 C36.611327,41.6006537 36.2498612,41.3510622 35.9400333,41.1014708 C35.6302054,40.8019611 35.4236535,40.5024513 35.2171016,40.103105 C35.0621877,39.7037587 34.9589117,39.3044124 34.9589117,38.8551478 C34.9589117,38.5556381 35.0105497,38.2561284 35.0621877,37.9566186 C35.1654636,37.6571089 35.2687396,37.4075175 35.4236535,37.2078443 C35.5785675,37.0081711 35.7334814,36.7585797 35.9400333,36.5589066 C36.1465852,36.3592334 36.3531371,36.2094785 36.611327,36.0597237 C36.8695169,35.9099688 37.1277068,35.8101322 37.3858967,35.7602139 C37.6440866,35.7102956 37.9539145,35.6603774 38.2637424,35.6603774 C38.6252082,35.6603774 38.9866741,35.7102956 39.3481399,35.8101322 C39.7096058,35.9099688 40.1227096,36.0098054 40.4841755,36.2094785 L40.4841755,36.7086614 C40.0710716,36.5089883 39.7096058,36.3592334 39.3481399,36.2593968 C38.9866741,36.1595602 38.6252082,36.109642 38.2121044,36.109642 C37.7990006,36.109642 37.4375347,36.1595602 37.1277068,36.3093151 C36.766241,36.45907 36.5080511,36.6587431 36.2498612,36.8584163 C35.9916713,37.1080077 35.7851194,37.4075175 35.6818434,37.7070272 C35.5269295,38.0564552 35.4752915,38.4058832 35.4752915,38.8052295 C35.4752915,39.2045758 35.5269295,39.5540039 35.6818434,39.9034319 C35.8367574,40.2528599 36.0433093,40.5024513 36.2498612,40.7520428 C36.5080511,41.0016342 36.817879,41.2013074 37.1793448,41.301144 C37.5408107,41.4508988 37.9022765,41.5008171 38.3153803,41.5008171 C38.4702943,41.5008171 38.6768462,41.5008171 38.8317601,41.4508988 C38.9866741,41.4508988 39.193226,41.4009805 39.3997779,41.3510622 C39.6063298,41.301144 39.7612438,41.2512257 39.9677957,41.1513891 L40.5874514,40.8518794 L40.5874514,41.4009805 L40.6390894,41.4009805 Z M58.4025541,41.4009805 C58.0410883,41.6006537 57.6796224,41.7504086 57.2665186,41.8502451 C56.9050527,41.9500817 56.4919489,42 56.1304831,42 C55.6657413,42 55.2009994,41.9001634 54.7878956,41.7504086 C54.3747918,41.6006537 54.0133259,41.3510622 53.7034981,41.1014708 C53.3936702,40.8019611 53.1871183,40.5024513 52.9805664,40.103105 C52.8256524,39.7037587 52.7223765,39.3044124 52.7223765,38.8551478 C52.7223765,38.5556381 52.7740144,38.2561284 52.8256524,37.9566186 C52.9289284,37.6571089 53.0322043,37.4075175 53.1871183,37.2078443 C53.3420322,36.9582529 53.4969461,36.7585797 53.7034981,36.5589066 C53.91005,36.3592334 54.1166019,36.2094785 54.3747918,36.0597237 C54.6329817,35.9099688 54.8911716,35.8101322 55.1493615,35.7602139 C55.4075514,35.7102956 55.7173792,35.6603774 56.0272071,35.6603774 C56.388673,35.6603774 56.7501388,35.7102956 57.1116047,35.8101322 C57.4730705,35.9099688 57.8861743,36.0098054 58.2476402,36.2094785 L58.2476402,36.7086614 C57.8345364,36.5089883 57.4730705,36.3592334 57.1116047,36.2593968 C56.7501388,36.1595602 56.388673,36.109642 55.9755691,36.109642 C55.5624653,36.109642 55.2009994,36.1595602 54.8911716,36.3093151 C54.5297057,36.45907 54.2715158,36.6587431 54.0133259,36.8584163 C53.755136,37.1080077 53.5485841,37.4075175 53.4453082,37.7070272 C53.2903942,38.0564552 53.2387562,38.4058832 53.2387562,38.8052295 C53.2387562,39.2045758 53.2903942,39.5540039 53.4453082,39.9034319 C53.6002221,40.2528599 53.806774,40.5024513 54.0133259,40.7520428 C54.2198778,41.0016342 54.5813437,41.2013074 54.9428096,41.301144 C55.3042754,41.4508988 55.6657413,41.5008171 56.0788451,41.5008171 C56.233759,41.5008171 56.4403109,41.5008171 56.5952249,41.4508988 C56.7501388,41.4508988 56.9566907,41.4009805 57.1632426,41.3510622 C57.3697946,41.301144 57.5247085,41.2512257 57.7312604,41.1513891 L58.3509162,40.8518794 L58.3509162,41.4009805 L58.4025541,41.4009805 Z M75.959467,35.7602139 L75.959467,41.9500817 L75.4430872,41.9500817 L75.4430872,36.6088248 L71.053859,41.9500817 L70.7440311,41.9500817 L70.7440311,35.7602139 L71.2604109,35.7602139 L71.2604109,41.1513891 L75.7012771,35.7602139 L75.959467,35.7602139 Z M92.948362,41.9001634 L92.4319822,41.9001634 L92.4319822,39.1546576 L91.1410328,39.1546576 C90.9861188,39.1546576 90.8312049,39.2045758 90.6762909,39.2544941 C90.521377,39.3044124 90.4181011,39.404249 90.2631871,39.5540039 C90.1082732,39.7037587 89.9533592,39.9034319 89.7984453,40.1530233 L88.6624098,41.8502451 L88.094392,41.8502451 L89.4369795,39.8535136 C89.5918934,39.6538404 89.7468073,39.4541673 89.9017213,39.3044124 C90.0566352,39.1546576 90.2115491,39.054821 90.3664631,39.0049027 C90.1599112,38.9549844 89.9533592,38.9050661 89.7984453,38.8052295 C89.6435314,38.705393 89.4886174,38.5556381 89.3853415,38.4058832 C89.2820655,38.2561284 89.1787896,38.1063735 89.1271516,37.9067003 C89.0755136,37.7070272 89.0238756,37.5572723 89.0238756,37.3575992 C89.0238756,37.157926 89.0755136,36.9582529 89.1787896,36.7585797 C89.2820655,36.5589066 89.3853415,36.3592334 89.5918934,36.2094785 C89.7984453,36.0597237 90.0049972,35.9099688 90.3148251,35.8101322 C90.573015,35.7102956 90.9344808,35.6603774 91.3475847,35.6603774 L93,35.6603774 L93,41.9001634 L92.948362,41.9001634 Z M92.4319822,38.8052295 L92.4319822,36.1595602 L91.3992227,36.1595602 C91.0893948,36.1595602 90.8312049,36.2094785 90.624653,36.2593968 C90.4181011,36.3093151 90.2115491,36.4091517 90.0566352,36.5589066 C89.9017213,36.6587431 89.7984453,36.808498 89.6951694,36.9582529 C89.5918934,37.1080077 89.5918934,37.3076809 89.5918934,37.4574357 C89.5918934,37.6571089 89.6435314,37.8068638 89.6951694,37.9566186 C89.7468073,38.1063735 89.8500833,38.2561284 90.0049972,38.3559649 C90.1082732,38.4558015 90.3148251,38.5556381 90.469739,38.6554747 C90.6762909,38.705393 90.8828429,38.7553112 91.1410328,38.7553112 L92.4319822,38.7553112 L92.4319822,38.8052295 Z" id="Shape"></path>
        </g>
    </g>
</svg>