<?xml version="1.0" encoding="UTF-8" standalone="no"?>
<svg width="134px" height="32px" viewBox="0 0 134 32" version="1.1" xmlns="http://www.w3.org/2000/svg" xmlns:xlink="http://www.w3.org/1999/xlink">
    <!-- Generator: Sketch 41.2 (35397) - http://www.bohemiancoding.com/sketch -->
    <title>THR</title>
    <desc>Created with Sketch.</desc>
    <defs></defs>
    <g id="Page-1" stroke="none" stroke-width="1" fill="none" fill-rule="evenodd">
        <g id="THR" fill="#FFFFFF">
            <polygon id="path5623" transform="translate(76.084746, 27.906977) scale(1, -1) translate(-76.084746, -27.906977) " points="78.2085043 27.2562667 78.6468034 28.6153605 75.2307265 28.6153605 75.6477748 29.8791673 79.8049757 29.8791673 80.2485876 31.255814 74.0858361 31.255814 71.920904 24.5581395 78.0836555 24.5581395 78.5272673 25.9322787 74.3567846 25.9322787 74.789771 27.2562667"></polygon>
            <path d="M69.4253059,31.255814 L65.7304279,31.255814 L63.5932203,24.5581395 L65.5678428,24.5581395 L66.2994758,26.8600733 L67.678827,26.8600733 L68.7015398,24.5581395 L70.7941677,24.5581395 L69.5485559,27.0330945 C70.7312315,27.2462365 71.4602422,27.8229737 71.7565667,28.7708288 L71.8090135,28.9313122 C72.2574337,30.3430646 71.3369922,31.255814 69.4253059,31.255814 M69.8107899,29.0842729 L69.7950559,29.0240917 C69.5747793,28.3520674 69.0660452,28.1238801 68.263609,28.1238801 L66.700694,28.1238801 L67.30121,29.9970223 L69.0162207,29.9970223 C69.7530984,29.9970223 70.0022208,29.678563 69.8107899,29.0842729" id="path5635" transform="translate(67.757062, 27.906977) scale(1, -1) translate(-67.757062, -27.906977) "></path>
            <path d="M101.221916,31.255814 L97.5270381,31.255814 L95.3898305,24.5581395 L97.364453,24.5581395 L98.096086,26.8600733 L99.4754372,26.8600733 L100.49815,24.5581395 L102.590778,24.5581395 L101.345166,27.0330945 C102.527842,27.2462365 103.256852,27.8229737 103.553177,28.7708288 L103.605624,28.9313122 C104.054044,30.3430646 103.133602,31.255814 101.221916,31.255814 M101.6074,29.0842729 L101.591666,29.0240917 C101.371389,28.3520674 100.862655,28.1238801 100.060219,28.1238801 L98.4973041,28.1238801 L99.0978201,29.9970223 L100.812831,29.9970223 C101.549709,29.9970223 101.798831,29.678563 101.6074,29.0842729" id="path5639" transform="translate(99.553672, 27.906977) scale(1, -1) translate(-99.553672, -27.906977) "></path>
            <polygon id="path5643" transform="translate(113.937853, 27.906977) scale(1, -1) translate(-113.937853, -27.906977) " points="116.061612 27.2562667 116.499911 28.6153605 113.083834 28.6153605 113.500882 29.8791673 117.658083 29.8791673 118.101695 31.255814 111.938943 31.255814 109.774011 24.5581395 115.936763 24.5581395 116.380375 25.9322787 112.209892 25.9322787 112.642878 27.2562667"></polygon>
            <path d="M85.1617225,31.255814 L81.6594636,31.255814 L79.4915254,24.5581395 L81.4970014,24.5581395 L82.1761467,26.6644842 L84.2402156,26.6644842 C86.2057419,26.6644842 87.1805151,27.2838498 87.619962,28.6354209 L87.6971982,28.8736385 C88.1339818,30.2151794 87.4228767,31.255814 85.1617225,31.255814 M85.6437825,28.9739406 L85.5958428,28.825995 C85.3907676,28.191584 84.8820745,27.9257834 84.0324771,27.9257834 L82.5862972,27.9257834 L83.2574525,29.9970223 L84.8128283,29.9970223 C85.6597624,29.9970223 85.8834808,29.7136688 85.6437825,28.9739406" id="path5647" transform="translate(83.655367, 27.906977) scale(1, -1) translate(-83.655367, -27.906977) "></path>
            <polygon id="path5651" transform="translate(107.124294, 27.906977) scale(1, -1) translate(-107.124294, -27.906977) " points="110.118953 29.8816748 110.531073 31.255814 104.132102 31.255814 103.717514 29.8816748 106.032298 29.8816748 104.430705 24.5581395 106.298819 24.5581395 107.897945 29.8816748"></polygon>
            <path d="M123.176718,31.255814 L119.48184,31.255814 L117.344633,24.5581395 L119.319255,24.5581395 L120.050888,26.8600733 L121.404016,26.8600733 L122.452952,24.5581395 L124.54558,24.5581395 L123.302591,27.0330945 C124.482644,27.2462365 125.211655,27.8229737 125.507979,28.7708288 L125.560426,28.9313122 C126.008846,30.3430646 125.088405,31.255814 123.176718,31.255814 M123.562202,29.0842729 L123.546468,29.0240917 C123.326192,28.3520674 122.817458,28.1238801 122.015021,28.1238801 L120.452106,28.1238801 L121.052622,29.9970223 L122.767633,29.9970223 C123.504511,29.9970223 123.753633,29.678563 123.562202,29.0842729" id="path5655" transform="translate(121.508475, 27.906977) scale(1, -1) translate(-121.508475, -27.906977) "></path>
            <path d="M92.410937,31.255814 C90.0529845,31.255814 88.8020881,30.4354901 88.20361,28.5566045 L88.0186725,27.9745184 C87.2840599,25.6756466 88.6608164,24.5581395 90.80044,24.5581395 C93.1583925,24.5581395 94.4092889,25.3760074 95.0103356,27.2548929 L95.1901359,27.836979 C95.9247485,30.1383069 94.5505605,31.255814 92.410937,31.255814 M93.4075443,28.2569652 L93.1198639,27.3654156 C92.8167719,26.4173766 92.2696653,25.9433571 91.1549034,25.9433571 C89.9322614,25.9433571 89.493035,26.5671963 89.8038326,27.5545322 L90.0915131,28.4485379 C90.394605,29.3965769 90.9442802,29.8705964 92.0539049,29.8705964 C93.2816841,29.8705964 93.718342,29.2443012 93.4075443,28.2569652" id="path5659" transform="translate(91.604520, 27.906977) scale(1, -1) translate(-91.604520, -27.906977) "></path>
            <polygon id="path5663" transform="translate(68.892655, 3.348837) scale(1, -1) translate(-68.892655, -3.348837) " points="71.5557014 4.82708432 71.920904 5.95348837 67.5358081 5.95348837 65.8644068 0.744186047 70.246837 0.744186047 70.6093738 1.8705901 67.7997135 1.8705901 68.0982733 2.78690081 70.3241426 2.78690081 70.6786823 3.89811739 68.4581443 3.89811739 68.7620355 4.82708432"></polygon>
            <polygon id="path5667" transform="translate(58.672316, 3.348837) scale(1, -1) translate(-58.672316, -3.348837) " points="60.960588 4.82708432 61.3220339 5.95348837 56.3813871 5.95348837 56.0225989 4.82708432 57.7873054 4.82708432 56.4797217 0.744186047 58.0504168 0.744186047 59.3580006 4.82708432"></polygon>
            <polygon id="path5671" transform="translate(62.836158, 3.348837) scale(1, -1) translate(-62.836158, -3.348837) " points="64.4243495 5.95348837 63.841527 3.96296254 62.1901966 3.96296254 62.7730191 5.95348837 61.3329618 5.95348837 59.8079096 0.744186047 61.2479669 0.744186047 61.8647874 2.85120575 63.5185462 2.85120575 62.8992973 0.744186047 64.3393546 0.744186047 65.8644068 5.95348837"></polygon>
            <path d="M96.2419363,23.0697674 C91.7064237,23.0697674 87.819209,18.3456494 87.819209,13.4955207 C87.819209,9.92607276 90.3120688,7.44186047 93.0210278,7.44186047 C97.5565404,7.44186047 101.446328,12.1685501 101.446328,17.0186789 C101.446328,20.5881268 98.9483227,23.0697674 96.2419363,23.0697674 M95.0096558,8.80997738 C94.3896567,8.19021013 93.6924792,7.7787464 92.7714846,7.7787464 C91.4543079,7.7787464 90.5050146,8.58624398 90.5050146,11.057598 C90.5050146,13.9146993 92.002274,19.4463149 94.2558809,21.7016505 C94.8707348,22.3214178 95.5704849,22.7328815 96.4914796,22.7328815 C97.8086562,22.7328815 98.7579495,21.9253839 98.7579495,19.4540299 C98.7579495,16.5969286 97.2632628,11.0678846 95.0096558,8.80997738" id="path5675" transform="translate(94.632768, 15.255814) scale(1, -1) translate(-94.632768, -15.255814) "></path>
            <path d="M30.3775295,23.0697674 C25.842017,23.0697674 21.9548023,18.3456494 21.9548023,13.4955207 C21.9548023,9.92607276 24.447662,7.44186047 27.156621,7.44186047 C31.6921336,7.44186047 35.5819209,12.1685501 35.5819209,17.0186789 C35.5819209,20.5881268 33.083916,23.0697674 30.3775295,23.0697674 M29.145249,8.80997738 C28.5252499,8.19021013 27.8280724,7.7787464 26.9070778,7.7787464 C25.5899011,7.7787464 24.6406078,8.58624398 24.6406078,11.057598 C24.6406078,13.9146993 26.1378672,19.4463149 28.3914741,21.7016505 C29.0063281,22.3214178 29.7060782,22.7328815 30.6270728,22.7328815 C31.9442494,22.7328815 32.8935428,21.9253839 32.8935428,19.4540299 C32.8935428,16.5969286 31.398856,11.0678846 29.145249,8.80997738" id="path5679" transform="translate(28.768362, 15.255814) scale(1, -1) translate(-28.768362, -15.255814) "></path>
            <path d="M110.626117,23.0697674 C106.090605,23.0697674 102.20339,18.3456494 102.20339,13.4955207 C102.20339,9.92607276 104.69625,7.44186047 107.405209,7.44186047 C111.940721,7.44186047 115.830508,12.1685501 115.830508,17.0186789 C115.830508,20.5881268 113.332504,23.0697674 110.626117,23.0697674 M109.393837,8.80997738 C108.773837,8.19021013 108.07666,7.7787464 107.155665,7.7787464 C105.838489,7.7787464 104.889195,8.58624398 104.889195,11.057598 C104.889195,13.9146993 106.386455,19.4463149 108.640062,21.7016505 C109.254916,22.3214178 109.954666,22.7328815 110.87566,22.7328815 C112.192837,22.7328815 113.14213,21.9253839 113.14213,19.4540299 C113.14213,16.5969286 111.647444,11.0678846 109.393837,8.80997738" id="path5683" transform="translate(109.016949, 15.255814) scale(1, -1) translate(-109.016949, -15.255814) "></path>
            <path d="M85.0104575,23.0697674 C84.0100049,23.0697674 83.3218764,22.244796 83.3218764,21.3551717 C83.3218764,20.4293417 84.1039561,19.687126 84.9774476,19.687126 C85.7620665,19.687126 86.3714792,20.2327967 86.5517638,20.8250176 C86.6152442,20.4707195 86.6431757,20.1009048 86.6431757,19.7129872 C86.6431757,14.574372 82.3315808,8.00563404 79.1702524,8.00563404 C78.1190155,8.00563404 77.3877202,8.67285231 78.3780159,11.5770621 L81.7627956,22.7697778 L78.680183,22.7697778 L76.4913757,15.5053743 C74.8916674,10.3098646 72.5174971,8.00563404 71.1234655,8.00563404 C70.1509444,8.00563404 69.5643847,8.72457466 70.3159937,11.2098334 L73.754097,22.7697778 L73.6753812,22.8680503 C73.1116744,22.8215002 71.8090548,22.7697778 70.249974,22.7697778 L68.4166574,22.7697778 L68.2135198,22.575819 L68.3201671,22.4490993 L70.562298,22.4490993 L67.7209112,12.9683932 C66.631586,9.36334564 68.2795396,7.44186047 70.7171904,7.44186047 C72.4438597,7.44186047 74.2949508,9.38920681 75.6178842,12.347725 C75.0160891,9.33748446 76.4507482,7.44186047 78.5862319,7.44186047 C83.0451015,7.44186047 87.0621469,14.88212 87.0621469,19.8474653 C87.0621469,22.2473821 86.1835769,23.0697674 85.0104575,23.0697674" id="path5687" transform="translate(77.220339, 15.255814) scale(1, -1) translate(-77.220339, -15.255814) "></path>
            <polygon id="path5691" transform="translate(14.005650, 11.534884) scale(1, -1) translate(-14.005650, -11.534884) " points="21.4182594 1.05590335 18.4631181 1.05590335 25.0900354 22.0138641 27.8028239 22.0138641 28.0112994 22.2024028 27.9018498 22.3255814 19.0676973 22.3255814 18.8592217 22.1345289 18.9686714 22.0138641 21.6970955 22.0138641 18.4579062 11.7774702 9.70453801 11.7774702 12.9437273 22.0138641 15.4271925 22.0138641 15.6356681 22.2024028 15.5262184 22.3255814 6.69206595 22.3255814 6.48359038 22.1345289 6.59304006 22.0138641 9.54818133 22.0138641 2.92126399 1.05590335 0.208475575 1.05590335 0 0.867364657 0.109449677 0.744186047 8.94360216 0.744186047 9.15468368 0.932724736 9.04262806 1.05590335 6.31680992 1.05590335 9.60811806 11.4657529 18.3614863 11.4657529 15.0701781 1.05590335 12.5841069 1.05590335 12.3756313 0.867364657 12.485081 0.744186047 21.3192335 0.744186047 21.530315 0.932724736"></polygon>
            <path d="M43.5402489,6.33449126 L43.3762381,6.22502718 C41.5059849,2.08575747 40.4663675,1.43151866 39.7918066,1.43151866 C39.1251817,1.43151866 38.7627705,1.88719472 39.4373314,4.07393068 L45.4237288,22.9755774 L45.3417234,23.0697674 C44.7544586,23.0264909 43.4000461,22.9755774 41.7758092,22.9755774 L39.8632307,22.9755774 L39.6516037,22.7846517 L39.7627079,22.6599136 L42.1011857,22.6599136 L36.6332743,5.40786508 C35.7417958,2.24868076 36.9665868,0.744186047 39.0828563,0.744186047 C40.4002341,0.744186047 41.7387745,1.59444194 43.6830971,6.13083716 L43.5402489,6.33449126 Z" id="path5695" transform="translate(40.881356, 11.906977) scale(1, -1) translate(-40.881356, -11.906977) "></path>
            <path d="M51.1108704,6.33449126 L50.9468595,6.22502718 C49.0766063,2.08575747 48.0369889,1.43151866 47.362428,1.43151866 C46.6958031,1.43151866 46.333392,1.88719472 47.0079529,4.07393068 L52.9943503,22.9755774 L52.9123448,23.0697674 C52.32508,23.0264909 50.9706676,22.9755774 49.3464307,22.9755774 L47.4338521,22.9755774 L47.2222252,22.7846517 L47.3333293,22.6599136 L49.6718071,22.6599136 L44.2038958,5.40786508 C43.3124172,2.24868076 44.5372082,0.744186047 46.6534777,0.744186047 C47.9708555,0.744186047 49.309396,1.59444194 51.2537186,6.13083716 L51.1108704,6.33449126 Z" id="path5699" transform="translate(48.451977, 11.906977) scale(1, -1) translate(-48.451977, -11.906977) "></path>
            <path d="M61.540701,25.5844498 C59.6791241,19.5547974 57.2853007,17.4120494 55.8094096,17.4120494 C54.811769,17.4120494 54.2975212,18.1965389 54.8786212,20.1793425 L58.4526432,31.9060644 L58.375506,32 C57.8072622,31.9568404 56.4856454,31.9060644 54.9069048,31.9060644 L53.0504704,31.9060644 L52.8447713,31.7156543 L52.9553345,31.591253 L55.2257384,31.591253 L52.3408084,22.3043189 C51.2403182,18.6839887 52.9424783,16.856052 55.3877265,16.856052 C57.0641742,16.856052 58.8691838,18.450419 60.2987926,21.5147518 L57.9281104,13.9288144 C56.6399198,9.69155551 55.1126039,8.51101304 53.4721535,8.51101304 C51.7314248,8.51101304 50.4483767,9.11270888 49.8929891,10.0495265 C50.1475417,9.82103436 50.5435125,9.6560123 50.9909081,9.6560123 C51.9962624,9.68901671 52.7444929,10.4455794 52.7444929,11.4128626 C52.7444929,12.3572966 51.9782638,13.1595577 51.001193,13.1595577 C50.0421209,13.1595577 49.2090395,12.3826846 49.2090395,11.2402241 C49.2090395,9.50876184 50.9497682,8.18604651 53.4284425,8.18604651 C56.57821,8.18604651 59.7742599,9.72709873 61.4198528,15.0687361 L66.6214689,31.9060644 L63.499985,31.9060644 L61.540701,25.5844498 Z" id="path5703" transform="translate(57.915254, 20.093023) scale(1, -1) translate(-57.915254, -20.093023) "></path>
            <path d="M134,22.9755774 L133.92069,23.0697674 C133.355285,23.0264909 132.042829,22.9755774 130.471975,22.9755774 L128.622256,22.9755774 L128.420143,22.7846517 L128.527595,22.6599136 L130.789216,22.6599136 L127.890555,13.1798149 C127.816362,15.0407043 126.680435,16.2142611 125.043063,16.2142611 C120.964983,16.2142611 116.587571,11.102543 116.587571,6.24793827 C116.587571,2.43960648 118.72383,0.744186047 120.683559,0.744186047 C122.384891,0.744186047 124.1553,2.07048341 125.421705,4.68998435 C124.925377,1.97374771 126.097121,0.744186047 127.86753,0.744186047 C129.144168,0.744186047 130.436157,1.59444194 132.319135,6.13083716 L132.178423,6.33449126 L132.019803,6.22502718 C130.211019,2.08575747 129.20557,1.43151866 128.553179,1.43151866 C127.908464,1.43151866 127.557964,1.88719472 128.210354,4.07393068 L134,22.9755774 Z M127.286774,11.1661849 L126.301793,7.98154385 C124.595344,2.41414972 122.226271,1.07766965 120.913815,1.07766965 C119.739512,1.07766965 119.284118,1.91519716 119.284118,3.86518522 C119.284118,9.3205696 122.842844,15.8324096 125.516366,15.8324096 C126.869756,15.8324096 128.148953,14.0249794 127.286774,11.1661849 L127.286774,11.1661849 Z" id="path5707" transform="translate(125.293785, 11.906977) scale(1, -1) translate(-125.293785, -11.906977) "></path>
            <path d="M77.3264969,0.791616216 C77.3930969,0.791616216 77.4940149,0.790280169 77.6292538,0.787608033 C77.7644927,0.784935897 77.8667698,0.78359985 77.9360882,0.78359985 C78.2092844,0.78359985 78.4162172,0.83871182 78.5568928,0.948937414 C78.6975684,1.05916301 78.7679052,1.21047042 78.7679052,1.40286418 C78.7679052,1.61663503 78.7016459,1.80802387 78.5691254,1.97703645 C78.4366049,2.14604903 78.2507391,2.27865177 78.0115226,2.37484865 C77.7723061,2.47104553 77.4997936,2.51914325 77.193977,2.51914325 L77.0696122,2.51914325 L76.8718518,3.25063672 C76.8446682,3.35485001 76.8310765,3.42365647 76.8310765,3.45705816 C76.8310765,3.50782874 76.8518038,3.54423604 76.8932589,3.56628116 C76.934714,3.58832628 77.0098079,3.60068472 77.1185427,3.60335685 L77.1022325,3.68552461 C76.9717508,3.67750821 76.7991369,3.67350006 76.5843857,3.67350006 C76.3397324,3.67350006 76.158284,3.67750821 76.0400349,3.68552461 L76.0583838,3.60335685 C76.1589635,3.59934865 76.2340573,3.58866027 76.2836676,3.57129139 C76.3332778,3.55392251 76.3730334,3.52185736 76.4029354,3.47509499 C76.4328375,3.42833261 76.46138,3.35351394 76.4885637,3.25063672 L77.0390307,1.21447956 C77.0634961,1.12763516 77.0757285,1.06216881 77.0757285,1.01807858 C77.0757285,0.961963729 77.0550013,0.922216308 77.0135462,0.898835122 C76.972091,0.875453935 76.8983564,0.863095493 76.7923399,0.861759425 L76.8127276,0.779591666 C76.9268991,0.787608073 77.0981538,0.791616216 77.3264969,0.791616216 Z M78.0828794,2.13736378 C78.2582143,1.93762165 78.3458804,1.67141413 78.3458804,1.33873325 C78.3458804,1.17573297 78.3037463,1.05548868 78.2194768,0.977996743 C78.1352074,0.900504811 78.0006501,0.861759425 77.815801,0.861759425 C77.7315315,0.861759425 77.6659518,0.871779784 77.61906,0.891820801 C77.5721681,0.911861818 77.5341115,0.94659906 77.504889,0.996033569 C77.4756665,1.04546808 77.4481435,1.11828268 77.4223189,1.21447956 L77.0920387,2.43697549 L77.2347524,2.43697549 C77.6248384,2.43697549 77.9075446,2.33710592 78.0828794,2.13736378 Z M79.083914,1.81771116 C79.2320652,1.50106309 79.438998,1.23919773 79.7047186,1.03210722 C79.9704392,0.825016709 80.2697952,0.721473007 80.6027955,0.721473007 C80.8080324,0.721473007 80.984384,0.760218393 81.1318555,0.837710325 C81.2793271,0.915202258 81.3921377,1.02809829 81.4702908,1.17640182 C81.5484439,1.32470535 81.5875199,1.50306772 81.5875199,1.7114943 C81.5875199,2.02012596 81.5127659,2.33242713 81.3632556,2.64840716 C81.2137452,2.9643872 81.0057931,3.22591855 80.7393929,3.43300906 C80.4729926,3.64009957 80.1739765,3.74364327 79.8423354,3.74364327 C79.6370985,3.74364327 79.4610867,3.70489789 79.3142947,3.62740595 C79.1675028,3.54991402 79.0553717,3.437352 78.9778982,3.2897165 C78.9004246,3.14208101 78.8616884,2.96472067 78.8616884,2.75763016 C78.8616884,2.44766243 78.9357629,2.13435923 79.083914,1.81771116 Z M79.9575257,1.09122792 C79.7624827,1.28829792 79.6048196,1.54314904 79.4845318,1.8557889 C79.3642439,2.16842877 79.3041009,2.48707616 79.3041009,2.81174064 C79.3041009,2.98810159 79.3282261,3.14074504 79.3764771,3.26967559 C79.4247282,3.39860613 79.4923466,3.49747367 79.5793344,3.56628116 C79.6663223,3.63508865 79.7662208,3.66949188 79.8790332,3.66949188 C80.0897068,3.66949188 80.2925621,3.57095836 80.4876051,3.37388836 C80.6826481,3.17681835 80.8403112,2.92196724 80.9605991,2.60932738 C81.0808869,2.29668751 81.14103,1.97804012 81.14103,1.65337564 C81.14103,1.47701469 81.116565,1.32437123 81.0676343,1.19544069 C81.0187037,1.06651015 80.9507455,0.967642614 80.8637576,0.898835122 C80.7767698,0.83002763 80.6768712,0.7956244 80.5640589,0.7956244 C80.3547444,0.7956244 80.1525687,0.894157922 79.9575257,1.09122792 Z M84.3847083,1.72351885 L84.2929637,1.72351885 C84.309274,1.61663343 84.3174289,1.52311008 84.3174289,1.44294601 C84.3174289,1.31468351 84.2956823,1.20579561 84.2521884,1.11627907 C84.2005394,1.01473792 84.1254455,0.935911098 84.0269046,0.879796251 C83.9283637,0.823681403 83.82065,0.7956244 83.7037601,0.7956244 C83.4726987,0.7956244 83.2494559,0.902508221 83.0340251,1.11627907 C82.8185943,1.33004992 82.6439417,1.59892953 82.510062,1.92292597 C82.3761823,2.24692242 82.3092434,2.56055963 82.3092434,2.86384702 C82.3092434,3.12838845 82.3619111,3.32879561 82.4672479,3.46507453 C82.5725847,3.60135344 82.7190347,3.66949188 82.9066022,3.66949188 C83.0289288,3.66949188 83.1583892,3.64143488 83.2949873,3.58532003 C83.4315854,3.52920518 83.5501725,3.45037836 83.6507521,3.34883721 C83.7214297,3.27802562 83.7836115,3.19519065 83.8372993,3.10032984 C83.8909871,3.00546903 83.9538485,2.87186425 84.0258853,2.6995115 L84.1176298,2.6995115 C83.9912256,3.15377456 83.9089961,3.48244231 83.870939,3.68552461 L83.7791945,3.68552461 C83.7873496,3.62673763 83.7914271,3.57997596 83.7914271,3.54523819 C83.7914271,3.47576267 83.7751171,3.44102543 83.7424966,3.44102543 C83.7207497,3.44102543 83.6915277,3.45304986 83.6548297,3.47709908 C83.5556092,3.53989426 83.4723604,3.58866001 83.4050807,3.62339777 C83.3378011,3.65813553 83.2599889,3.68686056 83.1716419,3.70957371 C83.0832949,3.73228687 82.9813575,3.74364327 82.8658268,3.74364327 C82.5559327,3.74364327 82.3160402,3.66147633 82.1461421,3.49713999 C81.976244,3.33280365 81.8912962,3.09298308 81.8912962,2.77767108 C81.8912962,2.46235908 81.9714869,2.14471372 82.1318707,1.82472548 C82.2922545,1.50473724 82.5120994,1.24086781 82.7914118,1.03310926 C83.0707243,0.825350721 83.3775557,0.721473007 83.7119151,0.721473007 C83.8247275,0.721473007 83.9191894,0.733497437 83.9953038,0.757546658 C84.0714181,0.781595878 84.1329203,0.811322941 84.1798122,0.846728738 C84.226704,0.882134535 84.2786921,0.929230218 84.3357778,0.988017202 C84.3602432,1.01206642 84.3813102,1.02409085 84.3989796,1.02409085 C84.4479103,1.02409085 84.5029564,0.942591939 84.5641197,0.779591666 L84.6517867,0.779591666 C84.5593622,1.01607567 84.4703369,1.33071492 84.3847083,1.72351885 Z M87.1818966,1.72351885 L87.0901521,1.72351885 C87.1064623,1.61663343 87.1146173,1.52311008 87.1146173,1.44294601 C87.1146173,1.31468351 87.0928706,1.20579561 87.0493767,1.11627907 C86.9977277,1.01473792 86.9226339,0.935911098 86.824093,0.879796251 C86.7255521,0.823681403 86.6178383,0.7956244 86.5009484,0.7956244 C86.269887,0.7956244 86.0466442,0.902508221 85.8312134,1.11627907 C85.6157827,1.33004992 85.44113,1.59892953 85.3072503,1.92292597 C85.1733706,2.24692242 85.1064318,2.56055963 85.1064318,2.86384702 C85.1064318,3.12838845 85.1590994,3.32879561 85.2644362,3.46507453 C85.369773,3.60135344 85.516223,3.66949188 85.7037905,3.66949188 C85.8261171,3.66949188 85.9555775,3.64143488 86.0921756,3.58532003 C86.2287737,3.52920518 86.3473608,3.45037836 86.4479405,3.34883721 C86.5186181,3.27802562 86.5807998,3.19519065 86.6344876,3.10032984 C86.6881754,3.00546903 86.7510368,2.87186425 86.8230736,2.6995115 L86.9148181,2.6995115 C86.7884139,3.15377456 86.7061845,3.48244231 86.6681273,3.68552461 L86.5763828,3.68552461 C86.5845379,3.62673763 86.5886154,3.57997596 86.5886154,3.54523819 C86.5886154,3.47576267 86.5723054,3.44102543 86.539685,3.44102543 C86.517938,3.44102543 86.488716,3.45304986 86.452018,3.47709908 C86.3527975,3.53989426 86.2695487,3.58866001 86.202269,3.62339777 C86.1349894,3.65813553 86.0571772,3.68686056 85.9688302,3.70957371 C85.8804832,3.73228687 85.7785459,3.74364327 85.6630152,3.74364327 C85.353121,3.74364327 85.1132285,3.66147633 84.9433304,3.49713999 C84.7734323,3.33280365 84.6884845,3.09298308 84.6884845,2.77767108 C84.6884845,2.46235908 84.7686752,2.14471372 84.929059,1.82472548 C85.0894428,1.50473724 85.3092877,1.24086781 85.5886002,1.03310926 C85.8679126,0.825350721 86.174744,0.721473007 86.5091035,0.721473007 C86.6219158,0.721473007 86.7163777,0.733497437 86.7924921,0.757546658 C86.8686064,0.781595878 86.9301086,0.811322941 86.9770005,0.846728738 C87.0238924,0.882134535 87.0758804,0.929230218 87.1329662,0.988017202 C87.1574315,1.01206642 87.1784985,1.02409085 87.1961679,1.02409085 C87.2450986,1.02409085 87.3001448,0.942591939 87.3613081,0.779591666 L87.4489751,0.779591666 C87.3565505,1.01607567 87.2675252,1.33071492 87.1818966,1.72351885 Z M90.2726674,0.791616216 C90.5118839,0.791616216 90.690614,0.787608073 90.8088631,0.779591666 L90.7864366,0.861759425 C90.6844978,0.865767629 90.6087244,0.876456011 90.5591141,0.893824892 C90.5095039,0.911193774 90.4697483,0.94325892 90.4398463,0.990021293 C90.4099442,1.03678367 90.3807221,1.11160234 90.3521793,1.21447956 L89.7976346,3.25063672 C89.7731693,3.33748112 89.7609368,3.40428351 89.7609368,3.45104589 C89.7609368,3.49112792 89.7701112,3.52152301 89.7884602,3.54223206 C89.8068092,3.56294111 89.8353516,3.57763763 89.8740884,3.58632207 C89.9128252,3.59500651 89.9682111,3.60068472 90.0402479,3.60335685 L90.0198602,3.68552461 C89.9016112,3.67750821 89.7228811,3.67350006 89.4836645,3.67350006 C89.2607582,3.67350006 89.0840668,3.67750821 88.9535851,3.68552461 L88.9760115,3.60335685 C89.0779504,3.59934865 89.1537238,3.58866027 89.2033341,3.57129139 C89.2529443,3.55392251 89.2926999,3.52185736 89.3226019,3.47509499 C89.352504,3.42833261 89.381726,3.35351394 89.4102689,3.25063672 L89.9281157,1.34674961 L87.9607056,3.28069809 C87.941677,3.35551789 87.9321628,3.41229992 87.9321628,3.45104589 C87.9321628,3.49112792 87.9413372,3.52152301 87.9596862,3.54223206 C87.9780352,3.56294111 88.0065776,3.57763763 88.0453144,3.58632207 C88.0840512,3.59500651 88.1394371,3.60068472 88.2114739,3.60335685 L88.1910862,3.68552461 C88.0606045,3.67750821 87.8832336,3.67350006 87.6589681,3.67350006 C87.4238291,3.67350006 87.2471377,3.67750821 87.1288886,3.68552461 L87.1513151,3.60335685 C87.2518948,3.59934865 87.3266488,3.58866027 87.3755794,3.57129139 C87.4245101,3.55392251 87.4639259,3.52185736 87.4938279,3.47509499 C87.52373,3.42833261 87.552952,3.35351394 87.5814949,3.25063672 L88.1360395,1.21447956 C88.1605049,1.12897122 88.1727373,1.06216883 88.1727373,1.01407039 C88.1727373,0.97398836 88.163563,0.943593273 88.145214,0.922884222 C88.126865,0.902175171 88.0983225,0.887478646 88.0595858,0.878794205 C88.020849,0.870109764 87.9654631,0.864431561 87.8934263,0.861759425 L87.9138139,0.779591666 C88.032063,0.787608073 88.2101135,0.791616216 88.4479709,0.791616216 C88.6722364,0.791616216 88.8496073,0.787608073 88.9800891,0.779591666 L88.9576626,0.861759425 C88.8557238,0.865767629 88.7799504,0.876456011 88.7303401,0.893824892 C88.6807299,0.911193774 88.6409743,0.94325892 88.6110722,0.990021293 C88.5811702,1.03678367 88.5519481,1.11160234 88.5234053,1.21447956 L88.0035197,3.12237485 L89.9729686,1.1824141 C89.9919972,1.10893037 90.0015113,1.05281636 90.0015113,1.01407039 C90.0015113,0.97398836 89.992337,0.943593273 89.973988,0.922884222 C89.955639,0.902175171 89.9270965,0.887478646 89.8883598,0.878794205 C89.849623,0.870109764 89.7942371,0.864431561 89.7222003,0.861759425 L89.7425879,0.779591666 C89.8730697,0.787608073 90.049761,0.791616216 90.2726674,0.791616216 Z M93.5245007,0.791616216 C93.7637172,0.791616216 93.9424474,0.787608073 94.0606964,0.779591666 L94.03827,0.861759425 C93.9363311,0.865767629 93.8605577,0.876456011 93.8109475,0.893824892 C93.7613372,0.911193774 93.7215817,0.94325892 93.6916796,0.990021293 C93.6617776,1.03678367 93.6325555,1.11160234 93.6040126,1.21447956 L93.049468,3.25063672 C93.0250027,3.33748112 93.0127702,3.40428351 93.0127702,3.45104589 C93.0127702,3.49112792 93.0219446,3.52152301 93.0402936,3.54223206 C93.0586426,3.56294111 93.087185,3.57763763 93.1259218,3.58632207 C93.1646585,3.59500651 93.2200445,3.60068472 93.2920813,3.60335685 L93.2716936,3.68552461 C93.1534445,3.67750821 92.9747144,3.67350006 92.7354979,3.67350006 C92.5125916,3.67350006 92.3359002,3.67750821 92.2054185,3.68552461 L92.2278449,3.60335685 C92.3297838,3.59934865 92.4055572,3.58866027 92.4551674,3.57129139 C92.5047777,3.55392251 92.5445332,3.52185736 92.5744353,3.47509499 C92.6043374,3.42833261 92.6335594,3.35351394 92.6621023,3.25063672 L93.1799491,1.34674961 L91.2125389,3.28069809 C91.1935104,3.35551789 91.1839962,3.41229992 91.1839962,3.45104589 C91.1839962,3.49112792 91.1931706,3.52152301 91.2115196,3.54223206 C91.2298686,3.56294111 91.258411,3.57763763 91.2971478,3.58632207 C91.3358845,3.59500651 91.3912705,3.60068472 91.4633073,3.60335685 L91.4429196,3.68552461 C91.3124379,3.67750821 91.1350669,3.67350006 90.9108014,3.67350006 C90.6756625,3.67350006 90.4989711,3.67750821 90.380722,3.68552461 L90.4031484,3.60335685 C90.5037281,3.59934865 90.5784822,3.58866027 90.6274128,3.57129139 C90.6763435,3.55392251 90.7157592,3.52185736 90.7456613,3.47509499 C90.7755634,3.42833261 90.8047854,3.35351394 90.8333283,3.25063672 L91.3878729,1.21447956 C91.4123382,1.12897122 91.4245707,1.06216883 91.4245707,1.01407039 C91.4245707,0.97398836 91.4153964,0.943593273 91.3970474,0.922884222 C91.3786984,0.902175171 91.3501559,0.887478646 91.3114191,0.878794205 C91.2726824,0.870109764 91.2172964,0.864431561 91.1452596,0.861759425 L91.1656473,0.779591666 C91.2838964,0.787608073 91.4619469,0.791616216 91.6998043,0.791616216 C91.9240697,0.791616216 92.1014407,0.787608073 92.2319224,0.779591666 L92.209496,0.861759425 C92.1075571,0.865767629 92.0317837,0.876456011 91.9821735,0.893824892 C91.9325632,0.911193774 91.8928077,0.94325892 91.8629056,0.990021293 C91.8330036,1.03678367 91.8037815,1.11160234 91.7752386,1.21447956 L91.2553531,3.12237485 L93.224802,1.1824141 C93.2438306,1.10893037 93.2533447,1.05281636 93.2533447,1.01407039 C93.2533447,0.97398836 93.2441704,0.943593273 93.2258214,0.922884222 C93.2074724,0.902175171 93.1789299,0.887478646 93.1401931,0.878794205 C93.1014564,0.870109764 93.0460704,0.864431561 92.9740336,0.861759425 L92.9944213,0.779591666 C93.124903,0.787608073 93.3015944,0.791616216 93.5245007,0.791616216 Z M93.1330575,0.463947226 C92.9359757,0.540771124 92.7307418,0.579182498 92.5173498,0.579182498 C92.3637619,0.579182498 92.2251272,0.554799626 92.1014414,0.506033151 C91.9777555,0.457266676 91.9159136,0.376101774 91.9159136,0.262536011 C91.9159136,0.213101502 91.9284858,0.168343902 91.9536307,0.128261868 C91.9787757,0.0881798338 92.0127548,0.0567827114 92.0555691,0.0340695587 C92.0983834,0.011356406 92.1449348,0 92.1952246,0 C92.2509512,0 92.2947843,0.0146965254 92.3267251,0.0440900171 C92.358666,0.0734835088 92.3746361,0.116237037 92.3746361,0.172351885 C92.3746361,0.229802801 92.356967,0.280238604 92.3216282,0.323660807 C92.2862894,0.367083011 92.2387186,0.398814146 92.1789145,0.418855163 C92.2088166,0.440232248 92.2580863,0.45793488 92.3267251,0.471963592 C92.3953639,0.485992304 92.468419,0.493006555 92.5458926,0.493006555 C92.9482113,0.493006555 93.301594,0.352053516 93.6060514,0.0701432091 L93.6651756,0.11824141 C93.5075102,0.271889207 93.3301393,0.387123327 93.1330575,0.463947226 Z M96.4827516,1.72351885 L96.3910071,1.72351885 C96.4073173,1.61663343 96.4154723,1.52311008 96.4154723,1.44294601 C96.4154723,1.31468351 96.3937257,1.20579561 96.3502318,1.11627907 C96.2985828,1.01473792 96.2234889,0.935911098 96.124948,0.879796251 C96.0264071,0.823681403 95.9186934,0.7956244 95.8018035,0.7956244 C95.5707421,0.7956244 95.3474993,0.902508221 95.1320685,1.11627907 C94.9166377,1.33004992 94.7419851,1.59892953 94.6081054,1.92292597 C94.4742257,2.24692242 94.4072868,2.56055963 94.4072868,2.86384702 C94.4072868,3.12838845 94.4599545,3.32879561 94.5652913,3.46507453 C94.6706281,3.60135344 94.8170781,3.66949188 95.0046456,3.66949188 C95.1269722,3.66949188 95.2564326,3.64143488 95.3930307,3.58532003 C95.5296288,3.52920518 95.6482158,3.45037836 95.7487955,3.34883721 C95.8194731,3.27802562 95.8816549,3.19519065 95.9353427,3.10032984 C95.9890305,3.00546903 96.0518919,2.87186425 96.1239287,2.6995115 L96.2156732,2.6995115 C96.089269,3.15377456 96.0070395,3.48244231 95.9689824,3.68552461 L95.8772378,3.68552461 C95.885393,3.62673763 95.8894704,3.57997596 95.8894704,3.54523819 C95.8894704,3.47576267 95.8731605,3.44102543 95.84054,3.44102543 C95.8187931,3.44102543 95.789571,3.45304986 95.7528731,3.47709908 C95.6536526,3.53989426 95.5704037,3.58866001 95.5031241,3.62339777 C95.4358445,3.65813553 95.3580323,3.68686056 95.2696853,3.70957371 C95.1813383,3.73228687 95.0794009,3.74364327 94.9638702,3.74364327 C94.6539761,3.74364327 94.4140836,3.66147633 94.2441855,3.49713999 C94.0742874,3.33280365 93.9893396,3.09298308 93.9893396,2.77767108 C93.9893396,2.46235908 94.0695303,2.14471372 94.2299141,1.82472548 C94.3902979,1.50473724 94.6101428,1.24086781 94.8894552,1.03310926 C95.1687677,0.825350721 95.4755991,0.721473007 95.8099585,0.721473007 C95.9227709,0.721473007 96.0172328,0.733497437 96.0933471,0.757546658 C96.1694615,0.781595878 96.2309637,0.811322941 96.2778556,0.846728738 C96.3247474,0.882134535 96.3767355,0.929230218 96.4338212,0.988017202 C96.4582866,1.01206642 96.4793536,1.02409085 96.497023,1.02409085 C96.5459537,1.02409085 96.6009998,0.942591939 96.6621631,0.779591666 L96.7498301,0.779591666 C96.6574056,1.01607567 96.5683803,1.33071492 96.4827516,1.72351885 Z M98.1891996,2.64540103 C98.1891996,2.52381886 98.1769671,2.4326336 98.1525018,2.37184251 C98.1280365,2.31105143 98.0893003,2.25861155 98.0362921,2.21452131 C97.9384308,2.2399066 97.8582401,2.25259906 97.7957176,2.25259906 C97.710089,2.25259906 97.6672753,2.22521008 97.6672753,2.1704313 C97.6672753,2.11565252 97.7087298,2.08826354 97.7916401,2.08826354 C97.8487258,2.08826354 97.9336736,2.10229204 98.0464859,2.13034946 C98.2476453,2.10630024 98.3964738,2.0268054 98.4929759,1.89186255 C98.589478,1.7569197 98.6825808,1.56118871 98.772287,1.30466369 C98.8619932,1.04813867 98.9483001,0.885140843 99.0312104,0.815665317 C99.1141207,0.75287013 99.1977093,0.721473007 99.2819787,0.721473007 C99.3676074,0.721473007 99.4301289,0.741847736 99.4695453,0.782597804 C99.5089617,0.823347872 99.5286695,0.876455771 99.5286695,0.941923093 C99.5286695,0.977996924 99.5201748,1.01841237 99.503185,1.06317064 C99.4861951,1.10792891 99.4596914,1.14634028 99.423673,1.17840591 C99.3876546,1.21047154 99.3417829,1.22650411 99.2860563,1.22650411 C99.2316889,1.22650411 99.1909139,1.21047154 99.1637303,1.17840591 C99.1365466,1.14634028 99.1229549,1.1075949 99.1229549,1.06216859 C99.1229549,1.02342263 99.135867,0.980335087 99.1616915,0.93290468 C99.187516,0.885474273 99.2194564,0.843722781 99.2575135,0.80764895 L99.2452809,0.80764895 C99.1895544,0.810321086 99.1392653,0.829693778 99.0944122,0.865767609 C99.0223754,0.929898864 98.9421847,1.08521442 98.8538377,1.33171893 C98.7654907,1.57822344 98.6723879,1.77328641 98.5745266,1.9169137 C98.4766653,2.06054099 98.3244389,2.14437799 98.1178428,2.16842721 C98.2184225,2.19114036 98.2986132,2.21953137 98.3584173,2.2536011 C98.4182214,2.28767083 98.4657922,2.3454549 98.501131,2.42695503 C98.5364698,2.50845517 98.5541389,2.6240233 98.5541389,2.7736629 L98.5521002,2.8438061 L98.53579,3.30875538 L98.5337512,3.35685358 C98.5337512,3.41029629 98.5425858,3.45037772 98.5602552,3.47709908 C98.5779246,3.50382043 98.6112242,3.51718091 98.6601548,3.51718091 C98.7308324,3.51718091 98.7899561,3.491796 98.8375275,3.44102543 C98.885099,3.39025485 98.9292718,3.30875594 98.9700474,3.19652624 L99.0393655,2.98810071 L99.1229549,2.98810071 L99.0149003,3.30474719 C98.9632512,3.45438679 98.8956328,3.56494474 98.8120429,3.63642437 C98.7284531,3.70790399 98.626176,3.74364327 98.5052085,3.74364327 C98.2700695,3.74364327 98.1525018,3.60803442 98.1525018,3.33681266 C98.1525018,3.3060831 98.1531814,3.28270226 98.1545406,3.26666945 L98.1830833,2.80372427 C98.1871609,2.74627335 98.1891996,2.69349947 98.1891996,2.64540103 Z M97.2350567,3.44904179 C97.2350567,3.48912383 97.244231,3.51985293 97.26258,3.54123001 C97.280929,3.5626071 97.3098113,3.57763763 97.3492276,3.58632207 C97.388644,3.59500651 97.4443697,3.60068472 97.5164065,3.60335685 L97.5000964,3.68552461 C97.3696146,3.67750821 97.1929233,3.67350006 96.970017,3.67350006 C96.7375964,3.67350006 96.5602254,3.67750821 96.4378988,3.68552461 L96.4603252,3.60335685 C96.5581865,3.59934865 96.6315814,3.58866027 96.680512,3.57129139 C96.7294427,3.55392251 96.7685187,3.52152335 96.7977411,3.47409294 C96.8269636,3.42666253 96.8551663,3.35217787 96.88235,3.25063672 L97.4328171,1.21447956 C97.4559232,1.12763516 97.4674761,1.06216881 97.4674761,1.01807858 C97.4674761,0.976660475 97.457962,0.945263353 97.4389334,0.923886268 C97.4199048,0.902509183 97.3910225,0.887478646 97.3522858,0.878794205 C97.313549,0.870109764 97.2581631,0.864431561 97.1861263,0.861759425 L97.2065139,0.779591666 C97.3206855,0.787608073 97.4973768,0.791616216 97.7365934,0.791616216 C97.9594997,0.791616216 98.1375502,0.787608073 98.2707503,0.779591666 L98.2503626,0.861759425 C98.1484238,0.865767629 98.0726504,0.876456011 98.0230401,0.893824892 C97.9734299,0.911193774 97.9340141,0.94325892 97.9047916,0.990021293 C97.8755692,1.03678367 97.8473665,1.11160234 97.8201828,1.21447956 L97.2697157,3.25063672 C97.2466096,3.33881719 97.2350567,3.40495156 97.2350567,3.44904179 Z M99.8406009,1.81771116 C99.988752,1.50106309 100.195685,1.23919773 100.461405,1.03210722 C100.727126,0.825016709 101.026482,0.721473007 101.359482,0.721473007 C101.564719,0.721473007 101.741071,0.760218393 101.888542,0.837710325 C102.036014,0.915202258 102.148825,1.02809829 102.226978,1.17640182 C102.305131,1.32470535 102.344207,1.50306772 102.344207,1.7114943 C102.344207,2.02012596 102.269453,2.33242713 102.119942,2.64840716 C101.970432,2.9643872 101.76248,3.22591855 101.49608,3.43300906 C101.229679,3.64009957 100.930663,3.74364327 100.599022,3.74364327 C100.393785,3.74364327 100.217774,3.70489789 100.070982,3.62740595 C99.9241896,3.54991402 99.8120585,3.437352 99.734585,3.2897165 C99.6571115,3.14208101 99.6183753,2.96472067 99.6183753,2.75763016 C99.6183753,2.44766243 99.6924498,2.13435923 99.8406009,1.81771116 Z M100.714213,1.09122792 C100.51917,1.28829792 100.361506,1.54314904 100.241219,1.8557889 C100.120931,2.16842877 100.060788,2.48707616 100.060788,2.81174064 C100.060788,2.98810159 100.084913,3.14074504 100.133164,3.26967559 C100.181415,3.39860613 100.249033,3.49747367 100.336021,3.56628116 C100.423009,3.63508865 100.522908,3.66949188 100.63572,3.66949188 C100.846394,3.66949188 101.049249,3.57095836 101.244292,3.37388836 C101.439335,3.17681835 101.596998,2.92196724 101.717286,2.60932738 C101.837574,2.29668751 101.897717,1.97804012 101.897717,1.65337564 C101.897717,1.47701469 101.873252,1.32437123 101.824321,1.19544069 C101.775391,1.06651015 101.707432,0.967642614 101.620444,0.898835122 C101.533457,0.83002763 101.433558,0.7956244 101.320746,0.7956244 C101.111431,0.7956244 100.909256,0.894157922 100.714213,1.09122792 Z M104.287152,0.791616216 C104.677238,0.791616216 104.954507,0.787608073 105.118969,0.779591666 C105.045573,0.977329701 104.992565,1.13899148 104.959945,1.26458185 C104.928684,1.37146728 104.908976,1.45630631 104.900821,1.5191015 L104.804999,1.5191015 C104.829464,1.37213404 104.841696,1.2619101 104.841696,1.18842637 C104.841696,1.10959837 104.828784,1.04780616 104.80296,1.00304789 C104.777135,0.958289618 104.733982,0.925556448 104.673498,0.904847397 C104.613014,0.884138346 104.529086,0.873783976 104.42171,0.873783976 L104.115895,0.873783976 C104.016675,0.873783976 103.942261,0.881800262 103.89265,0.897833076 C103.84304,0.91386589 103.803285,0.944929 103.773382,0.991023339 C103.74348,1.03711768 103.714258,1.11160234 103.685715,1.21447956 L103.422715,2.18245585 L103.697948,2.18245585 C103.836585,2.18245585 103.940561,2.14170639 104.009879,2.06020625 C104.079198,1.97870612 104.130846,1.89520313 104.164826,1.80969479 C104.198805,1.72418645 104.221911,1.66807245 104.234144,1.64135109 L104.329966,1.64135109 C104.27288,1.81370384 104.231765,1.94797664 104.20662,2.04417352 C104.181476,2.1403704 104.165505,2.20049255 104.158709,2.22454177 C104.122011,2.35280428 104.077159,2.54719923 104.024151,2.80773245 L103.928329,2.80773245 C103.931047,2.7890275 103.937163,2.7496141 103.946678,2.68949104 C103.956192,2.62936799 103.960949,2.57592608 103.960949,2.52916371 C103.960949,2.44499144 103.939882,2.37985911 103.897747,2.33376477 C103.855613,2.28767043 103.780858,2.26462361 103.673483,2.26462361 L103.400288,2.26462361 L103.131171,3.25063672 C103.106706,3.33614506 103.094473,3.40227942 103.094473,3.44904179 C103.094473,3.48912383 103.103987,3.5191849 103.123016,3.53922592 C103.142044,3.55926694 103.171266,3.57296143 103.210683,3.5803098 C103.250099,3.58765817 103.305825,3.5913323 103.377862,3.5913323 L103.681638,3.5913323 C103.855614,3.5913323 103.993909,3.56861949 104.096527,3.52319319 C104.199145,3.47776688 104.284433,3.40495228 104.352392,3.30474719 C104.420352,3.20454211 104.490348,3.05757685 104.562385,2.86384702 L104.660246,2.86384702 C104.633062,2.93065041 104.601802,3.02951795 104.566463,3.16045259 C104.525687,3.30742005 104.48831,3.48244231 104.454331,3.68552461 C104.265404,3.67750821 103.94668,3.67350006 103.498149,3.67350006 C102.963989,3.67350006 102.561677,3.67750821 102.291199,3.68552461 L102.313625,3.60335685 C102.414205,3.59934865 102.488959,3.58866027 102.53789,3.57129139 C102.58682,3.55392251 102.626236,3.52185736 102.656138,3.47509499 C102.68604,3.42833261 102.715262,3.35351394 102.743805,3.25063672 L103.29835,1.21447956 C103.322815,1.12763516 103.335048,1.06083277 103.335048,1.01407039 C103.335048,0.97398836 103.325873,0.943593273 103.307524,0.922884222 C103.289175,0.902175171 103.260633,0.887478646 103.221896,0.878794205 C103.183159,0.870109764 103.127773,0.864431561 103.055736,0.861759425 L103.076124,0.779591666 C103.34932,0.787608073 103.752992,0.791616216 104.287152,0.791616216 Z M109.037479,0.791616216 C109.276695,0.791616216 109.455425,0.787608073 109.573675,0.779591666 L109.551248,0.861759425 C109.449309,0.865767629 109.373536,0.876456011 109.323926,0.893824892 C109.274315,0.911193774 109.23456,0.94325892 109.204658,0.990021293 C109.174756,1.03678367 109.145534,1.11160234 109.116991,1.21447956 L108.562446,3.25063672 C108.537981,3.33748112 108.525748,3.40428351 108.525748,3.45104589 C108.525748,3.49112792 108.534923,3.52152301 108.553272,3.54223206 C108.571621,3.56294111 108.600163,3.57763763 108.6389,3.58632207 C108.677637,3.59500651 108.733023,3.60068472 108.805059,3.60335685 L108.784672,3.68552461 C108.666423,3.67750821 108.487693,3.67350006 108.248476,3.67350006 C108.02557,3.67350006 107.848878,3.67750821 107.718397,3.68552461 L107.740823,3.60335685 C107.842762,3.59934865 107.918535,3.58866027 107.968146,3.57129139 C108.017756,3.55392251 108.057511,3.52185736 108.087413,3.47509499 C108.117315,3.42833261 108.146538,3.35351394 108.17508,3.25063672 L108.692927,1.34674961 L106.725517,3.28069809 C106.706488,3.35551789 106.696974,3.41229992 106.696974,3.45104589 C106.696974,3.49112792 106.706149,3.52152301 106.724498,3.54223206 C106.742847,3.56294111 106.771389,3.57763763 106.810126,3.58632207 C106.848863,3.59500651 106.904249,3.60068472 106.976285,3.60335685 L106.955898,3.68552461 C106.825416,3.67750821 106.648045,3.67350006 106.42378,3.67350006 C106.188641,3.67350006 106.011949,3.67750821 105.8937,3.68552461 L105.916127,3.60335685 C106.016706,3.59934865 106.09146,3.58866027 106.140391,3.57129139 C106.189322,3.55392251 106.228737,3.52185736 106.258639,3.47509499 C106.288541,3.42833261 106.317764,3.35351394 106.346306,3.25063672 L106.900851,1.21447956 C106.925316,1.12897122 106.937549,1.06216883 106.937549,1.01407039 C106.937549,0.97398836 106.928374,0.943593273 106.910025,0.922884222 C106.891676,0.902175171 106.863134,0.887478646 106.824397,0.878794205 C106.78566,0.870109764 106.730275,0.864431561 106.658238,0.861759425 L106.678625,0.779591666 C106.796875,0.787608073 106.974925,0.791616216 107.212782,0.791616216 C107.437048,0.791616216 107.614419,0.787608073 107.744901,0.779591666 L107.722474,0.861759425 C107.620535,0.865767629 107.544762,0.876456011 107.495152,0.893824892 C107.445541,0.911193774 107.405786,0.94325892 107.375884,0.990021293 C107.345982,1.03678367 107.31676,1.11160234 107.288217,1.21447956 L106.768331,3.12237485 L108.73778,1.1824141 C108.756809,1.10893037 108.766323,1.05281636 108.766323,1.01407039 C108.766323,0.97398836 108.757148,0.943593273 108.738799,0.922884222 C108.72045,0.902175171 108.691908,0.887478646 108.653171,0.878794205 C108.614434,0.870109764 108.559049,0.864431561 108.487012,0.861759425 L108.507399,0.779591666 C108.637881,0.787608073 108.814573,0.791616216 109.037479,0.791616216 Z M110.056862,0.905849443 C110.056862,0.98066924 110.07657,1.01807858 110.115987,1.01807858 C110.133656,1.01807858 110.158121,1.00805822 110.189382,0.988017202 C110.287244,0.925222015 110.369473,0.87612226 110.436073,0.840716463 C110.502673,0.805310666 110.576408,0.776585639 110.657279,0.75454052 C110.738151,0.732495401 110.828875,0.721473007 110.929455,0.721473007 C111.127896,0.721473007 111.287258,0.764560548 111.407545,0.850736921 C111.527833,0.936913295 111.587976,1.05949568 111.587976,1.21848775 C111.587976,1.38148802 111.524775,1.52778525 111.398371,1.65738383 C111.271967,1.7869824 111.117702,1.89253018 110.935571,1.97403031 C110.75344,2.05553045 110.577428,2.1129805 110.40753,2.1463822 C110.550245,2.1463822 110.691938,2.17310315 110.832613,2.22654586 C110.973289,2.27998858 111.089837,2.36048545 111.182262,2.46803891 C111.274686,2.57559237 111.320898,2.70619104 111.320898,2.85983884 C111.320898,3.04020799 111.257357,3.19752762 111.130273,3.33180243 C111.003189,3.46607724 110.837711,3.5682849 110.633833,3.63842846 C110.429956,3.70857202 110.216567,3.74364327 109.993661,3.74364327 C109.72862,3.74364327 109.53222,3.6942095 109.404457,3.59534049 C109.324265,3.5325453 109.28417,3.45839465 109.28417,3.37288631 C109.28417,3.3234518 109.297082,3.27669013 109.322906,3.23259989 C109.348731,3.18850965 109.383729,3.15310439 109.427903,3.12638303 C109.472076,3.09966168 109.519987,3.0863012 109.571636,3.0863012 C109.623285,3.0863012 109.664739,3.09999569 109.696001,3.12738508 C109.727262,3.15477447 109.742892,3.19452189 109.742892,3.24662853 C109.742892,3.30675158 109.721146,3.36253158 109.677652,3.41397019 C109.634158,3.4654088 109.576393,3.49981203 109.504356,3.51718091 C109.51523,3.54390227 109.545471,3.56928717 109.595082,3.5933364 C109.644692,3.61738562 109.704835,3.63675831 109.775513,3.65145505 C109.84619,3.6661518 109.917546,3.67350006 109.989583,3.67350006 C110.148608,3.67350006 110.299815,3.63842881 110.443209,3.56828525 C110.586603,3.49814169 110.702132,3.40127823 110.789799,3.27769195 C110.877467,3.15410568 110.9213,3.01615875 110.9213,2.86384702 C110.9213,2.75562553 110.897854,2.65174782 110.850962,2.55221076 C110.80407,2.45267371 110.735772,2.36950474 110.646066,2.30270135 C110.55636,2.23589796 110.450345,2.19581653 110.328018,2.18245585 C110.243749,2.22253788 110.179189,2.2425786 110.134335,2.2425786 C110.07725,2.2425786 110.048707,2.22320591 110.048707,2.18445994 C110.048707,2.13368936 110.087443,2.10830445 110.164917,2.10830445 C110.207052,2.10830445 110.253263,2.11565272 110.303553,2.13034946 C110.453063,2.10229204 110.595436,2.04617803 110.730675,1.96200576 C110.865914,1.87783349 110.975326,1.77428979 111.058916,1.65137155 C111.142506,1.52845331 111.1843,1.39818866 111.1843,1.26057367 C111.1843,1.12696689 111.144885,1.02843337 111.066052,0.964970147 C110.987219,0.901506927 110.881884,0.869775792 110.750043,0.869775792 C110.524418,0.869775792 110.337533,0.944260455 110.189382,1.09323202 C110.041231,1.24220358 109.921625,1.45229709 109.830559,1.72351885 L109.738815,1.72351885 C109.866578,1.32002637 109.947448,1.00538713 109.981428,0.779591666 L110.069095,0.779591666 C110.06094,0.839714718 110.056862,0.881800222 110.056862,0.905849443 Z M113.117052,0.791616216 C113.138799,0.791616216 113.18569,0.789612145 113.257727,0.785603941 C113.329763,0.781595738 113.406556,0.779591666 113.488107,0.779591666 C113.614511,0.779591666 113.732419,0.781595738 113.841833,0.785603941 C113.951248,0.789612145 114.021584,0.791616216 114.052846,0.791616216 C114.290703,0.791616216 114.470113,0.787608073 114.59108,0.779591666 L114.570692,0.861759425 C114.468754,0.865767629 114.39298,0.876456011 114.34337,0.893824892 C114.29376,0.911193774 114.254344,0.94325892 114.225121,0.990021293 C114.195899,1.03678367 114.167696,1.11160234 114.140513,1.21447956 L113.590046,3.25063672 C113.566939,3.33748112 113.555387,3.40428351 113.555387,3.45104589 C113.555387,3.49246399 113.564561,3.52386111 113.58291,3.54523819 C113.601259,3.56661528 113.630141,3.58164582 113.669557,3.59033026 C113.708974,3.5990147 113.76402,3.60335685 113.834698,3.60335685 L113.965179,3.60335685 C113.902656,3.76368499 113.841494,3.96609623 113.78169,4.21059663 C113.765379,4.27339182 113.747031,4.35823085 113.726643,4.46511628 L113.634898,4.46511628 C113.653927,4.35422265 113.663441,4.252015 113.663441,4.15849025 C113.663441,3.83516184 113.537039,3.67350006 113.284231,3.67350006 C113.210835,3.67350006 113.097344,3.67550413 112.943756,3.67951234 C112.790169,3.68352054 112.614157,3.68552461 112.415716,3.68552461 L111.932528,3.68552461 C111.77894,3.68552461 111.634189,3.74497874 111.498271,3.86388877 C111.362352,3.98279881 111.23527,4.18320597 111.117021,4.46511628 L111.025277,4.46511628 C111.034791,4.44106706 111.049402,4.40332371 111.06911,4.3518851 C111.088818,4.30044649 111.106148,4.2533508 111.121099,4.21059663 C111.204009,3.96743229 111.261094,3.76502106 111.292355,3.60335685 L111.594093,3.60335685 C111.697391,3.60335685 111.793212,3.56795159 111.881559,3.49713999 C111.983498,3.41296772 112.097328,3.26667049 112.223052,3.05824391 C112.348777,2.84981734 112.475859,2.58761796 112.604302,2.27163793 C112.732745,1.95565789 112.849293,1.60327529 112.95395,1.21447956 C112.978416,1.13030729 112.990648,1.06417293 112.990648,1.01607449 C112.990648,0.975992451 112.981134,0.945263353 112.962105,0.923886268 C112.943077,0.902509183 112.913855,0.887478646 112.874438,0.878794205 C112.835022,0.870109764 112.779296,0.864431561 112.707259,0.861759425 L112.729686,0.779591666 C112.816674,0.787608073 112.945794,0.791616216 113.117052,0.791616216 Z M113.787806,1.01407039 C113.787806,0.953947342 113.767079,0.913531898 113.725624,0.892822847 C113.684168,0.872113796 113.611113,0.861759425 113.506456,0.861759425 L113.447332,0.861759425 C113.353548,0.861759425 113.282872,0.870777748 113.2353,0.888814663 C113.187729,0.906851579 113.149672,0.939918761 113.121129,0.988017202 C113.092586,1.03611564 113.064723,1.11160234 113.03754,1.21447956 C112.95327,1.52979156 112.850653,1.84576686 112.729686,2.16241493 C112.608718,2.479063 112.479258,2.76197111 112.341301,3.01114776 C112.203344,3.26032441 112.069806,3.43835277 111.940683,3.54523819 C111.91214,3.56795135 111.884277,3.58732404 111.857094,3.60335685 L112.790849,3.60335685 C112.884633,3.60335685 112.955649,3.59400452 113.0039,3.57529957 C113.052151,3.55659462 113.089868,3.52352744 113.117052,3.47609703 C113.144235,3.42866662 113.172098,3.35351394 113.200641,3.25063672 L113.751108,1.21447956 C113.775573,1.12897122 113.787806,1.06216883 113.787806,1.01407039 Z M116.518734,3.53722183 C116.55883,3.57863993 116.604023,3.60068472 116.654312,3.60335685 L116.635963,3.68552461 C116.52451,3.67750821 116.372963,3.67350006 116.181318,3.67350006 C115.957053,3.67350006 115.789876,3.67750821 115.679782,3.68552461 L115.698131,3.60335685 C115.793274,3.59934865 115.866668,3.58765823 115.918317,3.56828525 C115.969967,3.54891227 116.007004,3.51551107 116.02943,3.46808066 C116.051857,3.42065026 116.061031,3.35084176 116.056954,3.25865308 L116.018217,2.58527828 L114.992717,2.58527828 L114.678747,3.02016617 C114.548265,3.20187139 114.483026,3.33814827 114.483026,3.42900088 C114.483026,3.54123057 114.585642,3.59934865 114.790879,3.60335685 L114.770492,3.68552461 C114.615545,3.67750821 114.456522,3.67350006 114.29342,3.67350006 C114.172453,3.67350006 114.068477,3.67750821 113.981489,3.68552461 L114.001876,3.60335685 C114.12964,3.5766355 114.268954,3.45772725 114.419824,3.24662853 L116.220055,0.759550749 L116.281218,0.759550749 L116.448397,3.34082084 C116.455193,3.43033739 116.478638,3.49580373 116.518734,3.53722183 Z M115.944821,1.26257776 L115.051842,2.50311052 L116.01414,2.50311052 L115.944821,1.26257776 Z M119.855177,0.791616216 C120.093034,0.791616216 120.272444,0.787608073 120.393411,0.779591666 L120.373023,0.861759425 C120.271085,0.865767629 120.195311,0.876456011 120.145701,0.893824892 C120.096091,0.911193774 120.056675,0.94325892 120.027452,0.990021293 C119.99823,1.03678367 119.970027,1.11160234 119.942844,1.21447956 L119.392376,3.25063672 C119.367911,3.34416146 119.355679,3.41096385 119.355679,3.45104589 C119.355679,3.49112792 119.364853,3.52152301 119.383202,3.54223206 C119.401551,3.56294111 119.430433,3.57763763 119.46985,3.58632207 C119.509266,3.59500651 119.565671,3.60068472 119.639067,3.60335685 L119.620718,3.68552461 C119.503828,3.67750821 119.325778,3.67350006 119.086561,3.67350006 C118.863655,3.67350006 118.686964,3.67750821 118.556482,3.68552461 L118.572792,3.60335685 C118.673372,3.59934865 118.748805,3.58866027 118.799095,3.57129139 C118.849385,3.55392251 118.889141,3.52185736 118.918363,3.47509499 C118.947586,3.42833261 118.975788,3.35351394 119.002972,3.25063672 L119.27005,2.26462361 L117.930581,2.26462361 L117.663502,3.25063672 C117.640396,3.33881719 117.628843,3.40495156 117.628843,3.44904179 C117.628843,3.48912383 117.638017,3.51985293 117.656366,3.54123001 C117.674715,3.5626071 117.703598,3.57763763 117.743014,3.58632207 C117.78243,3.59500651 117.838156,3.60068472 117.910193,3.60335685 L117.893883,3.68552461 C117.763401,3.67750821 117.58671,3.67350006 117.363803,3.67350006 C117.131383,3.67350006 116.954012,3.67750821 116.831685,3.68552461 L116.854112,3.60335685 C116.951973,3.59934865 117.025368,3.58866027 117.074298,3.57129139 C117.123229,3.55392251 117.162305,3.52152335 117.191527,3.47409294 C117.22075,3.42666253 117.248953,3.35217787 117.276136,3.25063672 L117.826603,1.21447956 C117.84971,1.12763516 117.861262,1.06216881 117.861262,1.01807858 C117.861262,0.976660475 117.851748,0.945263353 117.83272,0.923886268 C117.813691,0.902509183 117.784809,0.887478646 117.746072,0.878794205 C117.707335,0.870109764 117.651949,0.864431561 117.579913,0.861759425 L117.6003,0.779591666 C117.714472,0.787608073 117.891163,0.791616216 118.13038,0.791616216 C118.353286,0.791616216 118.531337,0.787608073 118.664537,0.779591666 L118.644149,0.861759425 C118.54221,0.865767629 118.466437,0.876456011 118.416826,0.893824892 C118.367216,0.911193774 118.3278,0.94325892 118.298578,0.990021293 C118.269355,1.03678367 118.241153,1.11160234 118.213969,1.21447956 L117.953007,2.18245585 L119.292477,2.18245585 L119.555478,1.21447956 C119.579943,1.13030729 119.592176,1.06484095 119.592176,1.01807858 C119.592176,0.976660475 119.582661,0.945263353 119.563633,0.923886268 C119.544604,0.902509183 119.515382,0.887478646 119.475966,0.878794205 C119.43655,0.870109764 119.380824,0.864431561 119.308787,0.861759425 L119.329175,0.779591666 C119.455579,0.787608073 119.630911,0.791616216 119.855177,0.791616216 Z M123.119243,0.791616216 C123.358459,0.791616216 123.537189,0.787608073 123.655438,0.779591666 L123.633012,0.861759425 C123.531073,0.865767629 123.4553,0.876456011 123.405689,0.893824892 C123.356079,0.911193774 123.316323,0.94325892 123.286421,0.990021293 C123.256519,1.03678367 123.227297,1.11160234 123.198754,1.21447956 L122.64421,3.25063672 C122.619744,3.33748112 122.607512,3.40428351 122.607512,3.45104589 C122.607512,3.49112792 122.616686,3.52152301 122.635035,3.54223206 C122.653384,3.56294111 122.681927,3.57763763 122.720664,3.58632207 C122.7594,3.59500651 122.814786,3.60068472 122.886823,3.60335685 L122.866435,3.68552461 C122.748186,3.67750821 122.569456,3.67350006 122.33024,3.67350006 C122.107333,3.67350006 121.930642,3.67750821 121.80016,3.68552461 L121.822587,3.60335685 C121.924526,3.59934865 122.000299,3.58866027 122.049909,3.57129139 C122.099519,3.55392251 122.139275,3.52185736 122.169177,3.47509499 C122.199079,3.42833261 122.228301,3.35351394 122.256844,3.25063672 L122.774691,1.34674961 L120.807281,3.28069809 C120.788252,3.35551789 120.778738,3.41229992 120.778738,3.45104589 C120.778738,3.49112792 120.787912,3.52152301 120.806261,3.54223206 C120.82461,3.56294111 120.853153,3.57763763 120.89189,3.58632207 C120.930626,3.59500651 120.986012,3.60068472 121.058049,3.60335685 L121.037661,3.68552461 C120.90718,3.67750821 120.729809,3.67350006 120.505543,3.67350006 C120.270404,3.67350006 120.093713,3.67750821 119.975464,3.68552461 L119.99789,3.60335685 C120.09847,3.59934865 120.173224,3.58866027 120.222155,3.57129139 C120.271085,3.55392251 120.310501,3.52185736 120.340403,3.47509499 C120.370305,3.42833261 120.399527,3.35351394 120.42807,3.25063672 L120.982615,1.21447956 C121.00708,1.12897122 121.019313,1.06216883 121.019313,1.01407039 C121.019313,0.97398836 121.010138,0.943593273 120.991789,0.922884222 C120.97344,0.902175171 120.944898,0.887478646 120.906161,0.878794205 C120.867424,0.870109764 120.812038,0.864431561 120.740001,0.861759425 L120.760389,0.779591666 C120.878638,0.787608073 121.056689,0.791616216 121.294546,0.791616216 C121.518812,0.791616216 121.696183,0.787608073 121.826664,0.779591666 L121.804238,0.861759425 C121.702299,0.865767629 121.626526,0.876456011 121.576915,0.893824892 C121.527305,0.911193774 121.487549,0.94325892 121.457647,0.990021293 C121.427745,1.03678367 121.398523,1.11160234 121.36998,1.21447956 L120.850095,3.12237485 L122.819544,1.1824141 C122.838572,1.10893037 122.848087,1.05281636 122.848087,1.01407039 C122.848087,0.97398836 122.838912,0.943593273 122.820563,0.922884222 C122.802214,0.902175171 122.773672,0.887478646 122.734935,0.878794205 C122.696198,0.870109764 122.640812,0.864431561 122.568775,0.861759425 L122.589163,0.779591666 C122.719645,0.787608073 122.896336,0.791616216 123.119243,0.791616216 Z M125.22325,0.791616216 C125.613336,0.791616216 125.890606,0.787608073 126.055067,0.779591666 C125.981671,0.977329701 125.928664,1.13899148 125.896043,1.26458185 C125.864782,1.37146728 125.845074,1.45630631 125.836919,1.5191015 L125.741097,1.5191015 C125.765562,1.37213404 125.777795,1.2619101 125.777795,1.18842637 C125.777795,1.10959837 125.764883,1.04780616 125.739058,1.00304789 C125.713234,0.958289618 125.67008,0.925556448 125.609596,0.904847397 C125.549113,0.884138346 125.465184,0.873783976 125.357809,0.873783976 L125.051994,0.873783976 C124.952773,0.873783976 124.878359,0.881800262 124.828749,0.897833076 C124.779138,0.91386589 124.739383,0.944929 124.709481,0.991023339 C124.679579,1.03711768 124.650357,1.11160234 124.621814,1.21447956 L124.358813,2.18245585 L124.634046,2.18245585 C124.772683,2.18245585 124.876659,2.14170639 124.945978,2.06020625 C125.015296,1.97870612 125.066944,1.89520313 125.100924,1.80969479 C125.134904,1.72418645 125.158009,1.66807245 125.170242,1.64135109 L125.266064,1.64135109 C125.208978,1.81370384 125.167864,1.94797664 125.142719,2.04417352 C125.117574,2.1403704 125.101604,2.20049255 125.094808,2.22454177 C125.05811,2.35280428 125.013257,2.54719923 124.960249,2.80773245 L124.864427,2.80773245 C124.867145,2.7890275 124.873262,2.7496141 124.882776,2.68949104 C124.89229,2.62936799 124.897047,2.57592608 124.897047,2.52916371 C124.897047,2.44499144 124.87598,2.37985911 124.833846,2.33376477 C124.791711,2.28767043 124.716957,2.26462361 124.609581,2.26462361 L124.336386,2.26462361 L124.067269,3.25063672 C124.042804,3.33614506 124.030571,3.40227942 124.030571,3.44904179 C124.030571,3.48912383 124.040086,3.5191849 124.059114,3.53922592 C124.078143,3.55926694 124.107365,3.57296143 124.146781,3.5803098 C124.186197,3.58765817 124.241923,3.5913323 124.31396,3.5913323 L124.617736,3.5913323 C124.791712,3.5913323 124.930007,3.56861949 125.032625,3.52319319 C125.135244,3.47776688 125.220531,3.40495228 125.288491,3.30474719 C125.35645,3.20454211 125.426447,3.05757685 125.498484,2.86384702 L125.596344,2.86384702 C125.569161,2.93065041 125.5379,3.02951795 125.502561,3.16045259 C125.461786,3.30742005 125.424409,3.48244231 125.390429,3.68552461 C125.201502,3.67750821 124.882778,3.67350006 124.434247,3.67350006 C123.900088,3.67350006 123.497775,3.67750821 123.227297,3.68552461 L123.249724,3.60335685 C123.350303,3.59934865 123.425057,3.58866027 123.473988,3.57129139 C123.522919,3.55392251 123.562334,3.52185736 123.592236,3.47509499 C123.622139,3.42833261 123.651361,3.35351394 123.679903,3.25063672 L124.234448,1.21447956 C124.258913,1.12763516 124.271146,1.06083277 124.271146,1.01407039 C124.271146,0.97398836 124.261972,0.943593273 124.243623,0.922884222 C124.225274,0.902175171 124.196731,0.887478646 124.157994,0.878794205 C124.119258,0.870109764 124.063872,0.864431561 123.991835,0.861759425 L124.012222,0.779591666 C124.285419,0.787608073 124.68909,0.791616216 125.22325,0.791616216 Z" id="-"></path>
        </g>
    </g>
</svg>