<?xml version="1.0" encoding="UTF-8" standalone="no"?>
<svg width="97px" height="46px" viewBox="0 0 97 46" version="1.1" xmlns="http://www.w3.org/2000/svg" xmlns:xlink="http://www.w3.org/1999/xlink">
    <!-- Generator: Sketch 41.2 (35397) - http://www.bohemiancoding.com/sketch -->
    <title>KINOAFISHA</title>
    <desc>Created with Sketch.</desc>
    <defs></defs>
    <g id="Page-1" stroke="none" stroke-width="1" fill="none" fill-rule="evenodd">
        <g id="KINOAFISHA" fill="#FFFFFF">
            <path d="M69.7536249,1.28971874 C71.4597538,0.0386516584 73.7091502,-0.238605714 75.7363008,0.185234449 C77.3077353,0.510216451 78.7253938,1.45220974 79.6772342,2.75441035 C80.8187692,4.24750947 81.03877,6.225809 80.9938719,8.05525314 C80.9635656,9.64607413 81.0724436,11.2437129 80.8973409,12.8277161 C80.7705037,14.3594495 80.1722361,15.8786835 79.0857013,16.9729411 C78.4481479,17.6479037 77.6613081,18.1581027 76.8217131,18.5342182 C74.9449712,19.1523658 72.8426162,19.194409 71.0017929,18.4228608 C69.8422987,17.9410693 68.8691317,17.067254 68.1563739,16.0343567 C67.1293291,14.4230823 66.9676958,12.4345561 67.0047368,10.5664777 C67.0361655,8.28819478 66.8083075,5.8985544 67.7152497,3.74867346 C68.1563739,2.75895555 68.9196421,1.95672725 69.7536249,1.28971874 L69.7536249,1.28971874 Z M72.3498593,4.79747901 C72.0928175,5.03382956 71.9424087,5.35994786 71.8481226,5.69402027 C71.4788355,7.05417222 71.527101,8.4768207 71.5214887,9.87447057 C71.5495501,10.9903179 71.5203663,12.1220734 71.8021021,13.2106494 C71.923327,13.6447163 72.175879,14.0231044 72.4430229,14.3787666 C72.5272069,14.2662728 72.6125133,14.1526427 72.69333,14.0378764 C72.6585339,14.096964 72.5878194,14.2174119 72.5530233,14.2764995 L72.5866969,14.4423994 C73.4554757,15.0446388 74.7519093,15.0310032 75.5533409,14.3117248 C76.1538534,13.7208485 76.3255887,12.8470332 76.3929359,12.0345782 C76.4647729,10.6721537 76.5298752,9.30632022 76.4355892,7.94389567 C76.4187524,7.07689823 76.3457929,6.19171998 76.0337509,5.37585607 C75.4612997,3.962298 73.3443529,3.72253855 72.3498593,4.79747901 Z" id="Shape"></path>
            <path d="M16.0019649,0.00261844646 C17.6666069,-0.00317131995 19.3300085,0.00261844646 20.9934101,0.00146049318 C21.0058143,6.33546495 20.9971314,12.6636796 20.995891,18.9976841 C19.3349702,18.9907364 17.6740495,18.9803148 16.0118883,19 C15.9883203,12.6671535 16.008167,6.33546495 16.0019649,0.00261844646 Z" id="Shape"></path>
            <path d="M25.9656541,0.0398401296 C27.7786172,-0.0296152457 29.5962052,0.0109003899 31.4114807,0.0201611066 C30.820649,1.033052 30.1604437,2.00311207 29.5326127,2.99285117 C28.2942942,4.96422624 27.0363198,6.92402541 25.7910639,8.88961253 C26.0246216,9.07251169 26.1437129,9.35033319 26.2951786,9.59689977 C27.5138413,11.6122632 28.7695032,13.6067901 29.9846973,15.6256263 C30.6587773,16.7438579 31.3860437,17.8343073 32,18.9861089 C30.1743184,19.0046304 28.3474806,18.9664299 26.5206428,19 C24.7065234,15.8258893 22.9421218,12.6239965 21.1222214,9.45220107 C20.8840387,9.10145143 21.0308795,8.68008882 21.2482501,8.36406686 C22.6195347,6.05004527 23.8994774,3.68508974 25.2580435,1.36296503 C25.500851,0.925396165 25.7690956,0.500560786 25.9656541,0.0398401296 Z" id="Shape"></path>
            <path d="M33,0.00423349516 C34.5584637,0.00191746087 36.1169274,-0.00271460771 37.6753911,0.00423349516 C37.7208851,0.417645616 37.7127195,0.833373771 37.6928888,1.24794391 C37.6882227,4.23215409 37.6928888,7.21752229 37.6963883,10.2005745 C37.7850435,10.1229873 37.8631999,10.034978 37.9320243,9.9400206 C39.8882695,6.61882743 41.901674,3.33121675 43.8625852,0.0134976323 C45.2402391,-0.00734667629 46.6190596,-0.000398573424 47.99788,0.0100235809 C48.002546,6.33858728 47.99788,12.665993 47.9990465,18.9945567 C46.4265846,18.9910826 44.8529563,18.9864505 43.2804944,18.9980307 C43.3003251,15.8621203 43.2781614,12.7262099 43.290993,9.59029942 C43.2956591,9.27995083 43.2641632,8.96960223 43.2315008,8.66156967 C43.1790076,8.80747983 43.1311805,8.95686404 43.0588566,9.09466808 C41.1527715,12.265319 39.2606846,15.4452341 37.3580991,18.6182011 C37.2461136,18.7768494 37.1574585,19.0455094 36.9078244,18.9933986 C35.6059939,18.9980307 34.30533,18.9806605 33.0046661,18.9991887 C33.0116651,12.667151 33.0186642,6.33627124 33,0.00423349516 Z" id="Shape"></path>
            <path d="M51,0.0105944233 C52.521515,-0.0137242447 54.0430299,0.0129104869 55.5645449,0.00248820064 C55.5588803,2.41119436 55.5702095,4.82105855 55.5622791,7.22976471 C57.1880229,7.24597716 58.8148997,7.24481912 60.4406435,7.23439684 C60.433846,4.82337461 60.4497069,2.41351042 60.433846,0.00248820064 C61.9530951,-0.000985894778 63.4712113,0.00133016884 64.9904604,0.00133016884 C64.9927263,6.33344809 65.0165176,12.665566 64.9791312,18.9965259 C63.4632808,18.9837876 61.9485634,18.9942098 60.433846,18.9918938 C60.4497069,16.4835969 60.4372447,13.9753 60.4372447,11.4670031 C59.3643671,11.4808995 58.2926224,11.3998372 57.2208777,11.463529 C56.6668785,11.4797414 56.1128794,11.391731 55.5622791,11.4751093 C55.5622791,13.9810901 55.5713424,16.488229 55.5577474,18.9953679 C54.0430299,18.9930518 52.5271796,18.9837876 51.0124621,19 C50.9875379,12.6701981 51.0135951,6.34039628 51,0.0105944233 Z" id="Shape"></path>
            <path d="M23.7288551,27.9734039 C23.7266265,27.3159864 23.7232836,26.6574175 23.7288551,26 C25.2242233,26.0115134 26.7195916,26.0057567 28.2160742,26.0011513 C28.2294456,26.1715503 28.2372456,26.3431006 28.2417027,26.5146509 C28.2160742,26.9947614 28.2238742,27.4748719 28.2171885,27.9561338 C29.6334426,28.0770249 31.0797824,28.2762075 32.367894,28.9382304 C33.8365195,29.6347936 34.998717,30.9680502 35.5313445,32.5442404 C35.8801152,33.600023 36.0305434,34.723735 35.9948864,35.8382361 C36.0127149,37.8738127 35.5536301,40.065972 34.1240046,41.5581141 C32.6286363,43.1872661 30.3655268,43.6834955 28.2762455,43.7974786 C28.2450455,44.5308848 28.1982456,45.2642911 28.2283313,46 C26.7285059,45.9861839 25.2275662,45.9942433 23.7288551,45.996546 C23.7266265,45.2642911 23.7221694,44.5343388 23.7321979,43.8032353 C21.8657733,43.6961603 19.9157774,43.2989465 18.4148377,42.076219 C16.9985835,40.9133613 16.2564708,39.0677566 16.0770712,37.2428761 C15.8731573,35.1232514 16.013557,32.8078982 17.2414973,31.0129526 C18.1942096,29.5334753 19.8166062,28.6653618 21.4601741,28.2865696 C22.2022868,28.0931437 22.9677995,28.0321225 23.7288551,27.9734039 L23.7288551,27.9734039 Z M28.18376,31.9685683 C28.1715028,34.6005411 28.1781885,37.232514 28.1804171,39.8644868 C29.1186437,39.8287951 30.114813,39.5259916 30.7443831,38.7672558 C31.3828675,37.9428933 31.4775816,36.8468137 31.4965244,35.8301767 C31.4519531,34.834264 31.3661533,33.7427897 30.6942404,32.961027 C30.0568703,32.2494963 29.0785295,32.0526164 28.18376,31.9685683 L28.18376,31.9685683 Z M21.6774594,32.6259858 C21.0244893,33.0876749 20.7002329,33.8867077 20.5977188,34.6730758 C20.4328049,35.8785332 20.4339191,37.1818548 20.9587466,38.29981 C21.3420601,39.1218698 22.1777726,39.5778021 23.0067994,39.7712279 C23.2753417,39.8103736 23.543884,39.8575787 23.811312,39.9093892 C23.8101977,37.2636003 23.8079692,34.61666 23.8124263,31.970871 C23.0725422,32.0468597 22.2981152,32.1689022 21.6774594,32.6259858 Z" id="Shape"></path>
            <path d="M6.72242063,27 C7.89960317,27.0081048 9.07566138,27.0011578 10.2528439,27.0046313 C11.8190476,31.3928093 13.3650132,35.7879342 14.9255952,40.17727 C15.6080688,42.1189519 16.2815476,44.0641073 17,45.9907374 C15.4023148,45.993053 13.8035053,45.9837904 12.2058201,45.9965265 C11.910119,45.0366849 11.6312831,44.0722121 11.3513228,43.1077392 C9.46243386,43.1042657 7.57242063,43.0996344 5.68353175,43.1100548 C5.38670635,44.0756856 5.09437831,45.0436319 4.76607143,46 C3.17738095,45.9780012 1.58869048,45.9953687 0,45.9907374 C1.49312169,41.7716027 2.98624339,37.552468 4.48048942,33.3344912 C5.20906085,31.216819 5.98710317,29.1165143 6.72242063,27 L6.72242063,27 Z M6.98101852,39.2174284 C8.02328042,39.2232176 9.06554233,39.2151127 10.1089286,39.2209019 C9.68280423,37.5362584 9.08240741,35.9037172 8.62592593,34.2283364 C8.04351852,35.8794028 7.50720899,37.5466789 6.98101852,39.2174284 Z" id="Shape"></path>
            <path d="M39.003499,27.0069487 C40.5663634,26.9953675 42.1303942,27.0081068 43.6932587,27 C43.7025892,30.1546995 43.6932587,33.309399 43.6967576,36.4652566 C43.697924,36.7432037 43.7247492,37.0188346 43.7434103,37.2979398 C44.5178446,35.8908326 45.3774201,34.5312081 46.1891766,33.1461051 C47.4173081,31.0985615 48.6326102,29.0440692 49.8700723,27.0023162 C51.2463261,27.0092649 52.6237462,26.9907351 54,27.010423 C53.9871705,33.340668 53.9930021,39.669755 53.9976674,46 C52.4266387,45.9861026 50.85561,45.9942094 49.2845813,45.9965257 C49.2764171,42.583567 49.3137392,39.1682921 49.2659202,35.7553334 C47.2062048,39.1601853 45.174481,42.5812508 43.1334266,45.9976838 C41.7560065,45.9907351 40.3774201,45.9942094 39,45.9953675 C39.0058316,39.6662806 38.9976674,33.3360356 39.003499,27.0069487 Z" id="Shape"></path>
            <path d="M56,27.0054413 C57.5315306,26.9961756 59.0641965,27.0008084 60.5957271,27.0042831 C60.5855093,31.9509758 60.5798328,36.8976685 60.599133,41.8443612 C61.9705852,41.8362537 63.3409021,41.8316209 64.7123542,41.8478358 C64.7259779,36.8988267 64.7271132,31.9509758 64.7123542,27.0019666 C66.2461554,27.0019666 67.7788213,26.9961756 69.3126226,27.0054413 C69.2638043,30.5449151 69.3046754,34.0855472 69.2910517,37.6250211 C69.306946,39.0333981 69.2581278,40.4440916 69.3182991,41.8513104 C70.6829394,41.8246717 72.0475797,41.8420448 73.4133554,41.8420448 C73.4247084,36.8953521 73.4213025,31.9486594 73.4144907,27.0019666 C74.9426153,27.0019666 76.4718753,26.998492 78,27.0019666 C77.9954588,33.3350305 78.0022706,39.6669361 77.9965941,46 C70.6659098,45.9861015 63.3340902,45.9988418 56.0022706,45.9930508 C56.0011353,39.6646197 56.0045412,33.3350305 56,27.0054413 Z" id="Shape"></path>
            <path d="M86.7259549,27.0014473 C87.9086516,26.9991316 89.0913484,27.0002895 90.2740451,27.0002895 C92.5134044,33.3312107 94.7538889,39.6609741 97,45.9884219 C95.4099424,45.9907375 93.8187595,45.9768437 92.2287019,45.9942109 C91.9158668,45.0401731 91.6469186,44.0710836 91.3644668,43.1066254 C89.4750778,43.0962051 87.5845634,43.1008364 85.6940491,43.1054676 C85.3789634,44.0676102 85.1122658,45.0471199 84.7690475,46 C83.1801152,45.9698969 81.5889323,45.9976844 80,45.981475 C82.249487,39.6586585 84.4832197,33.3277372 86.7259549,27.0014473 L86.7259549,27.0014473 Z M88.5939631,34.2435673 C88.0875753,35.9061867 87.5001655,37.5433342 86.9881512,39.2047958 C88.0369365,39.2302677 89.0868472,39.209427 90.1367578,39.2152161 C89.6461243,37.5514389 89.1543655,35.8841882 88.5939631,34.2435673 Z" id="Shape"></path>
        </g>
    </g>
</svg>