<?xml version="1.0" encoding="UTF-8" standalone="no"?>
<svg width="122px" height="19px" viewBox="0 0 122 19" version="1.1" xmlns="http://www.w3.org/2000/svg" xmlns:xlink="http://www.w3.org/1999/xlink">
    <!-- Generator: Sketch 41.2 (35397) - http://www.bohemiancoding.com/sketch -->
    <title>Kinopoisk</title>
    <desc>Created with Sketch.</desc>
    <defs></defs>
    <g id="Page-1" stroke="none" stroke-width="1" fill="none" fill-rule="evenodd">
        <g id="Kinopoisk" fill="#FFFFFF">
            <path d="M25.8008369,5.35886364 C25.8008369,5.35886364 23.6757872,5.40636364 22.8165957,6.61545455 C21.956539,7.82540909 19.6991064,11.6185 19.6991064,11.6185 L19.6991064,5.35886364 L15.4152624,5.35886364 L15.4126667,17.9126818 L17.2331489,17.9126818 C17.2331489,17.9126818 19.2535035,17.9316818 20.2026809,16.6535 C21.1518582,15.3796364 23.3452624,11.6375 23.3452624,11.6375 L23.3452624,17.9126818 L27.6291064,17.9126818 L27.6291064,5.35886364 L25.8008369,5.35886364 Z" id="SVGID_1_"></path>
            <polygon id="SVGID_4_" points="36.7808369 5.3485 36.7808369 9.74959091 33.1095887 9.74959091 33.1095887 5.3485 28.8395887 5.3485 28.8395887 17.9126818 33.1095887 17.9126818 33.1095887 13.5236818 36.7808369 13.5236818 36.7808369 17.9126818 41.0491064 17.9126818 41.0491064 5.3485"></polygon>
            <polygon id="SVGID_7_" points="55.7003546 0.327318182 55.7003546 17.9126818 60.5794894 17.9126818 60.5794894 4.08931818 65.4551631 4.08931818 65.4551631 17.9126818 70.3403546 17.9126818 70.3403546 0.327318182"></polygon>
            <path d="M11.4143546,0.325590909 C10.2324255,0.325590909 9.36285106,0.917181818 9.02280851,1.54677273 C8.68363121,2.17636364 6.27651064,7.21740909 6.27651064,7.21740909 L5.66564539,7.21740909 L5.66564539,0.325590909 L0.776992908,0.325590909 L0.776992908,17.9195909 L5.66478014,17.9195909 L5.66478014,11.0044545 L6.27564539,11.0044545 C6.27564539,11.0044545 8.8791773,16.0377273 9.16124823,16.5775 C9.44504965,17.1172727 10.2393475,17.9204545 11.4299291,17.9204545 L15.7250213,17.9204545 L10.6079433,8.55 L15.378922,0.325590909 L11.4143546,0.325590909 L11.4143546,0.325590909 Z" id="SVGID_10_"></path>
            <path d="M118.468057,5.35368182 C117.337177,5.35368182 116.402709,5.84163636 115.989121,6.60077273 C115.573801,7.36077273 114.093362,10.3731364 114.093362,10.3731364 L113.66939,10.3731364 L113.66939,5.35368182 L109.390738,5.35368182 L109.390738,17.9195909 L113.66939,17.9195909 L113.66939,12.8897727 L114.093362,12.8897727 C114.093362,12.8897727 115.520156,15.8287273 115.976142,16.6604091 C116.426936,17.4912273 117.328525,17.9195909 118.449021,17.9195909 L121.555262,17.9195909 L117.890936,11.4785909 L121.576028,5.35368182 L118.468057,5.35368182 L118.468057,5.35368182 Z" id="SVGID_13_"></path>
            <path d="M45.3208369,11.6634091 C45.3208369,9.91627273 46.6887943,8.49904545 48.3742979,8.49904545 C50.0606667,8.49904545 51.4286241,9.91540909 51.4286241,11.6634091 C51.4286241,13.4114091 50.0225957,14.7880455 48.336227,14.7880455 C46.6507234,14.7889091 45.3208369,13.4114091 45.3208369,11.6634091 M41.6625674,11.6392273 C41.6625674,15.4565 44.6675745,18.5517727 48.3742979,18.5517727 C52.080156,18.5517727 55.0877589,15.4565 55.0877589,11.6392273 C55.0877589,7.82195455 52.080156,4.72754545 48.3742979,4.72754545 C44.6675745,4.72754545 41.6625674,7.82195455 41.6625674,11.6392273" id="SVGID_16_"></path>
            <path d="M97.8033333,11.6392273 C97.8033333,15.4565 100.797092,18.5517727 104.489972,18.5517727 C105.847546,18.5517727 107.110809,18.1337727 108.166411,17.4169545 L108.160355,12.9761364 L106.297475,14.2301364 C105.793035,14.6179091 105.164865,14.8467727 104.485645,14.8467727 C102.807064,14.8467727 101.444298,13.4399091 101.444298,11.7031364 C101.444298,9.96636364 102.806199,8.55863636 104.485645,8.55863636 C105.183035,8.55863636 105.822454,8.79959091 106.335546,9.2055 L108.170738,10.3670909 L108.181121,5.84681818 C107.131574,5.1395 105.838028,4.72668182 104.489972,4.72668182 C100.797092,4.72754545 97.8033333,7.82195455 97.8033333,11.6392273" id="SVGID_19_"></path>
            <path d="M74.6112199,11.6634091 C74.6112199,9.91627273 75.9774468,8.49904545 77.6620851,8.49904545 C79.3510496,8.49904545 80.7164113,9.91540909 80.7164113,11.6634091 C80.7164113,13.4114091 79.3129787,14.7880455 77.6266099,14.7880455 C75.9385106,14.7889091 74.6112199,13.4114091 74.6112199,11.6634091 M70.9503546,11.6392273 C70.9503546,15.4565 73.956227,18.5517727 77.6629504,18.5517727 C81.3714043,18.5517727 84.3772766,15.4565 84.3772766,11.6392273 C84.3772766,7.82195455 81.3714043,4.72754545 77.6629504,4.72754545 C73.956227,4.72754545 70.9503546,7.82195455 70.9503546,11.6392273" id="SVGID_22_"></path>
            <path d="M95.3616028,5.35886364 C95.3616028,5.35886364 93.2374184,5.40636364 92.378227,6.61545455 C91.5190355,7.82540909 89.2616028,11.6185 89.2616028,11.6185 L89.2616028,5.35886364 L84.9768936,5.35886364 L84.9768936,17.9126818 L86.7947801,17.9126818 C86.7947801,17.9126818 88.816,17.9316818 89.7651773,16.6535 C90.7160851,15.3796364 92.9094894,11.6375 92.9094894,11.6375 L92.9094894,17.9126818 L97.1916028,17.9126818 L97.1916028,5.35886364 L95.3616028,5.35886364 Z" id="SVGID_25_"></path>
        </g>
    </g>
</svg>