<?xml version="1.0" encoding="UTF-8" standalone="no"?>
<svg width="145px" height="100px" viewBox="0 0 145 100" version="1.1" xmlns="http://www.w3.org/2000/svg" xmlns:xlink="http://www.w3.org/1999/xlink">
    <!-- Generator: Sketch 41.2 (35397) - http://www.bohemiancoding.com/sketch -->
    <title>NPK</title>
    <desc>Created with Sketch.</desc>
    <defs></defs>
    <g id="Page-1" stroke="none" stroke-width="1" fill="none" fill-rule="evenodd">
        <g id="NPK" fill="#FFFFFF">
            <path d="M51.9488562,3.54028436 C54.4602941,1.65876777 57.4029412,0.0616113744 60.6156863,0.0568720379 C64.0369281,-0.018957346 67.4676471,1.66824645 69.3251634,4.57345972 C69.7611111,5.29383886 70.130719,6.0521327 70.4671569,6.82938389 C70.9694444,8.20853081 71.2584967,9.6492891 71.5238562,11.0900474 C72.4099673,11.0805687 73.2960784,11.0758294 74.1821895,11.0758294 C74.1395425,11.8625592 74.1158497,12.6492891 74.1063725,13.436019 C73.2344771,13.4454976 72.3625817,13.4597156 71.4906863,13.4834123 C71.4954248,18.8104265 71.4906863,24.1374408 71.4954248,29.464455 C71.4954248,30.3222749 71.4954248,31.1848341 71.5001634,32.042654 C71.5001634,33.1848341 71.5001634,34.3270142 71.504902,35.4739336 C70.670915,35.4739336 69.8416667,35.4739336 69.0124183,35.478673 C69.0076797,34.3270142 69.0029412,33.1753555 69.0076797,32.0236967 C63.5962418,31.9905213 58.1800654,32.1279621 52.7686275,31.9336493 C51.9820261,31.8909953 51.1954248,31.8293839 50.4088235,31.7582938 C48.954085,31.6208531 47.4946078,31.450237 46.0919935,31.0331754 C45.3243464,30.7298578 44.5661765,30.4075829 43.8364379,30.0189573 C40.8795752,28.1943128 38.8656863,24.7914692 38.8088235,21.2985782 C39.0362745,18.3649289 40.6947712,15.8246445 42.3153595,13.4597156 C45.0021242,9.69668246 48.2622549,6.33175355 51.9488562,3.54028436 L51.9488562,3.54028436 Z M57.5735294,3.21800948 C53.422549,5.01421801 50.0866013,8.25118483 47.0870915,11.5592417 C44.8220588,14.2180095 42.5665033,17.0616114 41.5050654,20.4407583 C40.9269608,23.0805687 42.580719,25.507109 44.2866013,27.3412322 C45.0210784,27.7251185 45.7555556,28.1090047 46.4995098,28.4739336 L46.4852941,28.5308057 C47.9068627,28.8530806 49.3379085,29.1042654 50.7831699,29.2796209 C52.4653595,20.3222749 60.0186275,12.9526066 68.9839869,11.3933649 C68.7281046,9.95734597 68.3821895,8.54028436 67.8846405,7.17061611 C67.4439542,6.44075829 66.9985294,5.71563981 66.5578431,4.99052133 C64.2122549,2.73459716 60.596732,1.8957346 57.5735294,3.21800948 L57.5735294,3.21800948 Z M53.1856209,29.4265403 C58.4501634,29.521327 63.7194444,29.4454976 68.9887255,29.4739336 C68.9934641,24.2511848 68.9982026,19.0236967 68.9887255,13.8009479 C61.2601307,15.3459716 54.7683007,21.6777251 53.1856209,29.4265403 Z" id="Shape"></path>
            <path d="M99.3818627,39.0947867 C100.092647,39.4976303 100.803431,39.9052133 101.518954,40.3033175 L101.504739,40.3601896 C99.6235294,48.1563981 94.4537582,55.0947867 87.4501634,59.0236967 C84.8060458,60.5876777 81.8681373,61.5450237 78.9112745,62.3127962 C78.4895425,61.5734597 78.0630719,60.8388626 77.6413399,60.1042654 C81.4511438,59.3507109 85.1472222,57.9194313 88.3315359,55.6682464 C93.9609477,51.8104265 97.8939542,45.7345972 99.3818627,39.0947867 Z" id="Shape"></path>
            <path d="M70.5808824,60.4028436 C72.0830065,60.464455 73.5898693,60.4739336 75.0919935,60.4454976 C75.4,61.2180095 75.7648693,61.9620853 76.1534314,62.6966825 C73.95,62.9099526 71.7276144,62.9004739 69.524183,62.6587678 C69.9174837,61.92891 70.2681373,61.1753555 70.5808824,60.4028436 Z" id="Shape"></path>
            <path d="M76.3287582,4.55450237 C78.6696078,0.867298578 83.5218954,-0.72985782 87.6728758,0.407582938 C91.1888889,1.35545024 94.1031046,3.70616114 96.770915,6.09004739 C100.500163,9.5450237 103.921405,13.4976303 106.053758,18.1516588 C108.072386,22.3507109 105.722059,27.4549763 102.049673,29.8767773 C101.329412,30.2890995 100.566503,30.6350711 99.8035948,30.957346 C98.4104575,31.3791469 96.9604575,31.5734597 95.5199346,31.7819905 C95.5199346,33.1137441 95.5104575,34.4454976 95.4820261,35.7772512 C94.6954248,35.7109005 93.904085,35.6682464 93.1222222,35.6255924 C93.1506536,34.3981043 93.1648693,33.1753555 93.1696078,31.9478673 C87.6728758,32.0995261 82.1714052,32.0047393 76.6699346,32.0236967 C75.8169935,32.0236967 74.9640523,32.0189573 74.1111111,32.0236967 C73.2392157,32.0236967 72.3673203,32.0331754 71.5001634,32.042654 C71.4954248,31.1848341 71.4954248,30.3222749 71.4954248,29.464455 C72.3625817,29.4691943 73.2344771,29.4739336 74.1063725,29.4739336 C74.1111111,24.1279621 74.1063725,18.7819905 74.1063725,13.436019 C74.1158497,12.6492891 74.1395425,11.8625592 74.1821895,11.0758294 C74.3527778,9.61611374 74.6986928,8.18009479 75.2009804,6.80094787 C75.5374183,6.03317536 75.897549,5.27488152 76.3287582,4.55450237 L76.3287582,4.55450237 Z M79.1576797,4.9478673 C78.6885621,5.68246445 78.2194444,6.41706161 77.7455882,7.14691943 C77.304902,8.52606635 76.9447712,9.93364929 76.6746732,11.3554502 C85.7679739,12.7962085 93.4112745,20.2369668 95.169281,29.2654028 C96.6003268,29.0521327 98.026634,28.7867299 99.4339869,28.450237 C100.158987,28 100.883987,27.549763 101.613725,27.1042654 C102.694118,25.7962085 103.783987,24.3886256 104.129902,22.6777251 C104.670098,20.6066351 103.518627,18.6255924 102.528268,16.8862559 C99.7372549,12.3933649 96.0648693,8.44549763 91.804902,5.32227488 C89.520915,3.68720379 86.7867647,2.2464455 83.8867647,2.65402844 C82.0813725,2.82464455 80.5034314,3.79146919 79.1576797,4.9478673 L79.1576797,4.9478673 Z M76.6746732,13.7488152 C76.6604575,18.9905213 76.6699346,24.2322275 76.6651961,29.4691943 C82.0292484,29.4549763 87.3933007,29.521327 92.7526144,29.4218009 C91.1320261,21.5876777 84.521732,15.2037915 76.6746732,13.7488152 Z" id="Shape"></path>
            <path d="M43.8364379,30.0189573 C44.5661765,30.4075829 45.3243464,30.7298578 46.0919935,31.0331754 C46.0446078,32.8436019 46.0493464,34.6540284 46.129902,36.464455 C45.3669935,36.7582938 44.6183007,37.0947867 43.8933007,37.4691943 C43.6326797,34.9952607 43.6611111,32.4976303 43.8364379,30.0189573 Z" id="Shape"></path>
            <path d="M44.3245098,40.1753555 C45.0637255,39.7819905 45.8029412,39.3886256 46.5421569,38.9905213 C47.4140523,42.7914692 48.9588235,46.464455 51.3186275,49.5876777 C55.3179739,55.0189573 61.4117647,58.7867299 68.0267974,60.056872 C67.6003268,60.7914692 67.1738562,61.5260664 66.7568627,62.2654028 C60.0281046,60.6682464 53.8205882,56.8578199 49.645915,51.3127962 C47.0776144,48.0379147 45.4333333,44.1611374 44.3245098,40.1753555 Z" id="Shape"></path>
            <path d="M69.3251634,4.57345972 C71.6517974,4.34597156 73.9973856,4.31279621 76.3287582,4.55450237 C75.897549,5.27488152 75.5374183,6.03317536 75.2009804,6.80094787 C73.6230392,6.75829384 72.045098,6.76303318 70.4671569,6.82938389 C70.130719,6.0521327 69.7611111,5.29383886 69.3251634,4.57345972 Z" id="Shape"></path>
            <path d="M49.3995098,16.2322275 C53.5362745,10.5687204 59.7769608,6.66350711 66.5578431,4.99052133 C66.9985294,5.71563981 67.4439542,6.44075829 67.8846405,7.17061611 C61.2080065,8.51184834 55.0763072,12.3744076 51.1006536,17.9241706 C48.8166667,21.0521327 47.3145425,24.6966825 46.4995098,28.4739336 C45.7555556,28.1090047 45.0210784,27.7251185 44.2866013,27.3412322 C45.2911765,23.3649289 46.9165033,19.5165877 49.3995098,16.2322275 Z" id="Shape"></path>
            <path d="M74.1111111,32.0236967 C74.9640523,32.0189573 75.8169935,32.0236967 76.6699346,32.0236967 C76.6651961,33.1753555 76.6651961,34.3270142 76.6651961,35.478673 C82.1477124,35.5450237 87.6397059,35.3317536 93.1222222,35.6255924 C93.904085,35.6682464 94.6954248,35.7109005 95.4820261,35.7772512 C96.9272876,35.9052133 98.3678105,36.1421801 99.7609477,36.563981 C100.533333,36.8767773 101.296242,37.2227488 102.021242,37.6350711 C105.660458,40.0331754 108.039216,45.0331754 106.120098,49.2369668 C104.025654,53.9052133 100.604412,57.8530806 96.9035948,61.3364929 C94.1173203,63.8104265 91.0846405,66.2890995 87.3838235,67.1943128 C83.1901961,68.2606635 78.3947712,66.4407583 76.1534314,62.6966825 C75.7648693,61.9620853 75.4,61.2180095 75.0919935,60.4454976 C74.6086601,59.0379147 74.3385621,57.5687204 74.0921569,56.1042654 C73.2202614,56.1090047 72.348366,56.1042654 71.4764706,56.0995261 C71.504902,55.3127962 71.5096405,54.5308057 71.5096405,53.7440758 C72.3767974,53.7535545 73.2439542,53.7630332 74.1111111,53.7677725 C74.1063725,48.5402844 74.101634,43.3127962 74.1158497,38.0805687 L74.1158497,35.4881517 C74.1111111,34.3317536 74.1063725,33.1753555 74.1111111,32.0236967 L74.1111111,32.0236967 Z M76.6651961,38.0805687 C76.6746732,43.2085308 76.6604575,48.3364929 76.6699346,53.4691943 C84.4222222,52.042654 90.9045752,45.8151659 92.7004902,38.1469194 C87.3553922,38.0189573 82.0102941,38.1090047 76.6651961,38.0805687 L76.6651961,38.0805687 Z M76.6130719,55.8720379 C76.8784314,57.2985782 77.2101307,58.7156398 77.6413399,60.1042654 C78.0630719,60.8388626 78.4895425,61.5734597 78.9112745,62.3127962 C81.3611111,64.9810427 85.5120915,65.6682464 88.7248366,64.0331754 C92.6957516,62.0900474 95.9179739,58.92891 98.8369281,55.6682464 C100.865033,53.2511848 102.836275,50.6777251 103.959314,47.7014218 C104.95915,45.0094787 103.324346,42.2559242 101.504739,40.3601896 L101.518954,40.3033175 C100.803431,39.9052133 100.092647,39.4976303 99.3818627,39.0947867 C97.9839869,38.6872038 96.5387255,38.464455 95.0982026,38.2511848 C93.2454248,47.1706161 85.625817,54.4691943 76.6130719,55.8720379 Z" id="Shape"></path>
            <path d="M77.7455882,7.14691943 C78.2194444,6.41706161 78.6885621,5.68246445 79.1576797,4.9478673 C83.2660131,6.01421801 87.2653595,7.67772512 90.6439542,10.2890995 C96.1359477,14.3933649 99.9599673,20.478673 101.613725,27.1042654 C100.883987,27.549763 100.158987,28 99.4339869,28.450237 C97.3916667,17.8056872 88.45,8.95260664 77.7455882,7.14691943 Z" id="Shape"></path>
            <path d="M99.8035948,30.957346 C100.566503,30.6350711 101.329412,30.2890995 102.049673,29.8767773 C102.315033,32.4549763 102.286601,35.056872 102.021242,37.6350711 C101.296242,37.2227488 100.533333,36.8767773 99.7609477,36.563981 C99.8651961,34.6966825 99.8746732,32.8246445 99.8035948,30.957346 Z" id="Shape"></path>
            <path d="M50.4088235,31.7582938 C51.1954248,31.8293839 51.9820261,31.8909953 52.7686275,31.9336493 C52.773366,33.1137441 52.7401961,34.2938389 52.8776144,35.464455 C58.2511438,35.535545 63.6341503,35.450237 69.0124183,35.478673 C69.8416667,35.4739336 70.670915,35.4739336 71.504902,35.4739336 C72.3720588,35.4739336 73.2439542,35.478673 74.1158497,35.4881517 L74.1158497,38.0805687 C73.2392157,38.0900474 72.3673203,38.0947867 71.4954248,38.1042654 C71.504902,43.3175355 71.4764706,48.5308057 71.5096405,53.7440758 C71.5096405,54.5308057 71.504902,55.3127962 71.4764706,56.0995261 C71.3769608,57.5687204 71.0594771,59.014218 70.5808824,60.4028436 C70.2681373,61.1753555 69.9174837,61.92891 69.524183,62.6587678 C67.1785948,66.6729858 61.895098,68.4312796 57.5356209,67 C53.5978758,65.7298578 50.4135621,62.9194313 47.470915,60.1184834 C44.3197712,56.9146919 41.3676471,53.3791469 39.5385621,49.2417062 C37.5673203,44.9478673 40.0929739,39.8009479 43.8933007,37.4691943 C44.6183007,37.0947867 45.3669935,36.7582938 46.129902,36.464455 C47.546732,36.0995261 49.0014706,35.8957346 50.4562092,35.7156398 C50.4135621,34.3981043 50.404085,33.0805687 50.4088235,31.7582938 L50.4088235,31.7582938 Z M53.2093137,38.1516588 C55.0194444,45.7298578 61.3501634,51.8720379 68.9887255,53.4407583 C69.0076797,48.3222749 68.9792484,43.1990521 69.0029412,38.0805687 C63.7383987,38.1090047 58.4738562,38.014218 53.2093137,38.1516588 L53.2093137,38.1516588 Z M46.5421569,38.9905213 C45.8029412,39.3886256 45.0637255,39.7819905 44.3245098,40.1753555 C42.9598039,41.6587678 41.628268,43.3744076 41.4197712,45.450237 C41.1970588,47.3601896 42.244281,49.0758294 43.1446078,50.6635071 C45.8076797,54.971564 49.3189542,58.7488152 53.3325163,61.8246445 C55.5833333,63.4881517 58.1895425,65.0900474 61.0990196,64.8909953 C63.2834967,64.9194313 65.2594771,63.7772512 66.7568627,62.2654028 C67.1738562,61.5260664 67.6003268,60.7914692 68.0267974,60.056872 C68.4580065,58.6729858 68.7660131,57.2559242 69.0361111,55.8388626 C60.1418301,54.2938389 52.6406863,47.0758294 50.825817,38.2227488 C49.3900327,38.436019 47.9542484,38.6445498 46.5421569,38.9905213 Z" id="Shape"></path>
            <path d="M0,75.9763033 C0.49754902,75.985782 0.995098039,75.9952607 1.49264706,76.0094787 C1.44526144,77.1374408 1.38839869,78.2654028 1.34575163,79.3933649 C2.11813725,79.3981043 2.89526144,79.4075829 3.66764706,79.4170616 C3.6629085,78.2654028 3.6629085,77.1184834 3.6629085,75.971564 C4.12254902,75.9668246 4.58218954,75.9668246 5.0370915,75.971564 C5.02761438,78.7014218 5.02761438,81.4312796 5.04183007,84.1611374 C4.58218954,84.1658768 4.12254902,84.1658768 3.6629085,84.1706161 C3.66764706,82.9905213 3.67238562,81.8104265 3.66764706,80.6303318 C2.90473856,80.6445498 2.1370915,80.6587678 1.36944444,80.6729858 C1.37418301,81.8388626 1.38366013,83 1.39313725,84.1611374 C1.04248366,84.1611374 0.345915033,84.1563981 0,84.1516588 L0,75.9763033 Z" id="Shape"></path>
            <path d="M8.18349673,75.9668246 C8.50571895,75.971564 9.1501634,75.9810427 9.47712418,75.9810427 C10.2210784,78.7582938 11.0645425,81.507109 11.7326797,84.2985782 C10.3727124,84.5545024 10.2968954,83.2417062 9.70931373,82.4407583 C9.24019608,82.4218009 8.29722222,82.3838863 7.82336601,82.3696682 C7.51062092,83.4075829 7.23578431,84.5876777 5.82369281,84.2654028 C6.58186275,81.492891 7.40637255,78.7345972 8.18349673,75.9668246 L8.18349673,75.9668246 Z M8.86111111,78.2654028 C8.54836601,79.2322275 8.26879085,80.2037915 7.98447712,81.1800948 C8.53415033,81.1800948 9.07908497,81.1848341 9.62401961,81.1895735 C9.34444444,80.2227488 9.09803922,79.2464455 8.86111111,78.2654028 Z" id="Shape"></path>
            <path d="M23.3563725,75.985782 C23.8254902,75.9763033 24.2898693,75.9668246 24.7589869,75.9620853 C24.7732026,78.6966825 24.7495098,81.4312796 24.7637255,84.1706161 C24.4130719,84.1658768 23.7212418,84.1611374 23.3753268,84.1611374 C23.3800654,82.3507109 23.4037582,80.5402844 23.3800654,78.7298578 C22.475,80.5308057 21.6173203,82.3507109 20.7169935,84.1516588 C20.2526144,84.1611374 19.7882353,84.1658768 19.3238562,84.1706161 C19.3191176,81.436019 19.3238562,78.7014218 19.3191176,75.9668246 C19.6697712,75.9668246 20.3663399,75.971564 20.7169935,75.9763033 C20.7075163,77.7725118 20.6838235,79.5734597 20.7122549,81.3744076 C21.6078431,79.5876777 22.4655229,77.7772512 23.3563725,75.985782 Z" id="Shape"></path>
            <path d="M27.2514706,76.1753555 C28.7820261,75.3554502 30.980719,76.4075829 31.023366,78.2132701 C31.0281046,79.7630332 31.2555556,81.3791469 30.8101307,82.8862559 C29.8671569,85.1184834 25.9436275,84.5402844 25.9673203,81.9905213 C26.0147059,80.0663507 25.2375817,77.3649289 27.2514706,76.1753555 L27.2514706,76.1753555 Z M27.355719,82 C27.4125817,83.4739336 30.0756536,83.0616114 29.5875817,81.5734597 C29.4691176,80.0189573 30.2509804,77.7819905 28.4361111,76.9905213 C26.5738562,77.9241706 27.4173203,80.3317536 27.355719,82 Z" id="Shape"></path>
            <path d="M32.2648693,75.957346 C32.7387255,75.971564 33.2125817,75.985782 33.6864379,76.0047393 C33.6248366,77.1327014 33.5916667,78.2606635 33.5869281,79.3933649 C34.3498366,79.4028436 35.1174837,79.4075829 35.8803922,79.4123223 C35.8803922,78.2654028 35.8803922,77.1137441 35.8756536,75.9668246 C36.3352941,75.9668246 36.7949346,75.971564 37.2545752,75.971564 C37.2403595,78.7061611 37.2356209,81.436019 37.2545752,84.1658768 L35.8756536,84.1658768 C35.8803922,82.9905213 35.8851307,81.8151659 35.8803922,80.6350711 C35.1127451,80.6445498 34.3498366,80.6540284 33.5821895,80.6729858 C33.6153595,81.8293839 33.6769608,82.9905213 33.7006536,84.1516588 C33.3357843,84.1516588 32.6060458,84.1469194 32.2411765,84.1469194 C32.2933007,81.4170616 32.2648693,78.6872038 32.2648693,75.957346 Z" id="Shape"></path>
            <path d="M40.4199346,75.9668246 C40.7421569,75.971564 41.3866013,75.9763033 41.7088235,75.9810427 C42.4480392,78.7582938 43.3199346,81.4976303 43.9406863,84.3080569 C42.9977124,84.3364929 42.4480392,83.8815166 42.2964052,82.9478673 C42.0168301,82.0236967 40.7421569,82.5687204 40.0598039,82.3554502 C39.7470588,83.4028436 39.4816993,84.5876777 38.0601307,84.2654028 C38.8135621,81.4881517 39.6428105,78.7345972 40.4199346,75.9668246 L40.4199346,75.9668246 Z M40.220915,81.1800948 C40.7705882,81.1800948 41.3155229,81.1848341 41.8651961,81.1895735 C41.5856209,80.2274882 41.3344771,79.2606635 41.0928105,78.2890995 C40.7800654,79.2464455 40.5004902,80.2132701 40.220915,81.1800948 Z" id="Shape"></path>
            <path d="M45.6133987,75.971564 C47.0823529,75.9668246 48.5465686,75.9668246 50.0155229,75.971564 C50.0013072,78.7014218 50.0013072,81.436019 50.0155229,84.1706161 C49.570098,84.1658768 49.1246732,84.1658768 48.6792484,84.1658768 C48.6839869,81.8436019 48.6934641,79.521327 48.6745098,77.1990521 L46.7980392,77.1990521 C46.5089869,79.5260664 47.7931373,83.0947867 44.9405229,84.2132701 C44.7415033,84.0331754 44.3482026,83.6635071 44.149183,83.4834123 C44.7415033,82.971564 45.523366,82.5023697 45.5660131,81.6208531 C45.7081699,79.7440758 45.599183,77.8530806 45.6133987,75.971564 Z" id="Shape"></path>
            <path d="M51.5034314,75.9668246 C51.9772876,75.9668246 52.4511438,75.971564 52.925,75.971564 C52.9155229,76.9905213 52.9060458,78.0047393 52.8965686,79.0236967 C53.9769608,79.1658768 55.4080065,78.971564 56.095098,80.028436 C56.8769608,81.2417062 56.7537582,83.1753555 55.3843137,83.9194313 C54.1380719,84.3175355 52.7970588,84.1327014 51.5081699,84.1848341 C51.5081699,81.4454976 51.5129085,78.7061611 51.5034314,75.9668246 L51.5034314,75.9668246 Z M52.9155229,80.3317536 C52.9060458,81.2037915 52.9107843,82.0758294 52.9202614,82.9478673 C53.8348039,82.8767773 55.3890523,82.9620853 55.1995098,81.6113744 C55.2848039,80.3554502 53.7826797,80.3981043 52.9155229,80.3317536 Z" id="Shape"></path>
            <path d="M61.0753268,76.0094787 C61.549183,75.9905213 62.0183007,75.971564 62.4921569,75.9526066 C62.4874183,78.6919431 62.4779412,81.4312796 62.501634,84.1706161 C62.0230392,84.1611374 61.5444444,84.1516588 61.0658497,84.1421801 C61.0753268,82.985782 61.1037582,81.8293839 61.1748366,80.6777251 C60.6014706,80.6682464 59.45,80.6445498 58.876634,80.6350711 C58.876634,81.8104265 58.8813725,82.9905213 58.8861111,84.1658768 L57.4882353,84.1658768 C57.5071895,81.4312796 57.502451,78.7014218 57.4882353,75.971564 L58.8861111,75.971564 C58.8813725,77.1137441 58.876634,78.2606635 58.8624183,79.4075829 C59.6063725,79.4075829 60.3503268,79.4075829 61.094281,79.4028436 C61.0848039,78.2701422 61.0800654,77.1421801 61.0753268,76.0094787 Z" id="Shape"></path>
            <path d="M65.6812092,75.957346 C66.1029412,75.9620853 66.5246732,75.971564 66.9511438,75.9763033 C67.7235294,78.6919431 68.4485294,81.4218009 69.2303922,84.1327014 C68.9129085,84.1469194 68.2826797,84.1753555 67.9651961,84.1895735 C67.7803922,83.6018957 67.6003268,83.0094787 67.4202614,82.4265403 C66.6905229,82.4123223 65.9607843,82.4028436 65.2310458,82.3933649 C65.055719,82.9905213 64.8851307,83.5829384 64.7098039,84.1800948 C64.3591503,84.1753555 63.648366,84.1658768 63.2977124,84.1658768 C64.1222222,81.436019 64.8756536,78.6919431 65.6812092,75.957346 L65.6812092,75.957346 Z M65.4821895,81.1753555 C66.0271242,81.1848341 66.5720588,81.1895735 67.1169935,81.1990521 C66.8326797,80.1990521 66.5625817,79.1990521 66.2924837,78.1990521 C66.0034314,79.1848341 65.7428105,80.1800948 65.4821895,81.1753555 Z" id="Shape"></path>
            <path d="M79.1671569,75.9763033 C80.8114379,75.9668246 82.455719,75.9668246 84.1047386,75.9763033 C84.0857843,78.7061611 84.0905229,81.436019 84.1,84.1658768 C83.7588235,84.1658768 83.071732,84.1658768 82.725817,84.1706161 C82.7352941,81.8293839 82.7447712,79.492891 82.725817,77.1516588 C82.2519608,77.1753555 81.3042484,77.2132701 80.8303922,77.2369668 C80.2759804,77.5023697 80.5982026,78.2132701 80.4939542,78.6824645 C80.5081699,80.492891 80.5081699,82.3033175 80.4986928,84.1184834 C80.1669935,84.1421801 79.5083333,84.1848341 79.176634,84.2085308 C79.1813725,81.464455 79.1955882,78.7203791 79.1671569,75.9763033 Z" id="Shape"></path>
            <path d="M85.5452614,75.9668246 C86.7156863,75.985782 87.9050654,75.8815166 89.0612745,76.0947867 C90.852451,76.6255924 91.0325163,79.1895735 89.8810458,80.4123223 C89.1323529,81.2085308 87.9240196,80.8909953 86.9573529,81.0331754 C86.9526144,82.0758294 86.9526144,83.1232227 86.9620915,84.1658768 C86.6066993,84.1658768 85.9006536,84.1706161 85.5452614,84.1706161 C85.5547386,81.436019 85.5547386,78.7014218 85.5452614,75.9668246 L85.5452614,75.9668246 Z M86.9715686,77.0947867 C86.9526144,78.0094787 86.9526144,78.9241706 86.9573529,79.8436019 C87.8339869,79.7867299 89.2602941,79.8151659 89.2366013,78.5876777 C89.4498366,77.2322275 87.9050654,77.2701422 86.9715686,77.0947867 Z" id="Shape"></path>
            <path d="M92.6388889,76.1611374 C94.0083333,75.4881517 95.8421569,76.1611374 96.2970588,77.6540284 C96.4344771,79.2796209 96.4297386,80.9241706 96.2923203,82.549763 C95.7521242,84.6872038 92.3356209,84.9052133 91.5300654,82.8625592 C91.0751634,81.5260664 91.3215686,80.0616114 91.2883987,78.6777251 C91.2078431,77.6635071 91.7243464,76.6303318 92.6388889,76.1611374 L92.6388889,76.1611374 Z M93.0843137,77.4976303 C92.2550654,78.6919431 92.7478758,80.5450237 92.724183,81.9905213 C92.7289216,83.0758294 94.2642157,83.1800948 94.8470588,82.478673 C95.0555556,80.9099526 95.0887255,79.2890995 94.8281046,77.7298578 C94.401634,77.2464455 93.6055556,77.0853081 93.0843137,77.4976303 Z" id="Shape"></path>
            <path d="M104.106209,75.9810427 C104.575327,75.9810427 105.049183,75.9810427 105.527778,75.985782 C105.996895,77.4881517 106.432843,79 106.982516,80.478673 C107.390033,78.985782 107.740686,77.4834123 108.176634,76 C108.522549,75.9952607 109.209641,75.9905213 109.550817,75.985782 C108.778431,78.3886256 108.148203,80.8436019 107.224183,83.1895735 C106.864052,84.0995261 105.840523,84.2037915 105.016013,84.3933649 C104.95915,84.1327014 104.850163,83.6161137 104.798039,83.3554502 C105.32402,83.0379147 106.285948,82.9194313 106.219608,82.0947867 C105.608333,80.028436 104.760131,78.0331754 104.106209,75.9810427 Z" id="Shape"></path>
            <path d="M123.358987,76.0047393 C124.718954,75.6824645 126.325327,76.6824645 126.415359,78.1279621 C126.481699,79.5924171 126.524346,81.0663507 126.367974,82.5260664 C125.998366,84.7819905 122.278595,84.985782 121.572549,82.8578199 C121.236111,81.3412322 121.345098,79.7582938 121.401961,78.2132701 C121.444608,77.1374408 122.330719,76.2274882 123.358987,76.0047393 L123.358987,76.0047393 Z M123.340033,77.4170616 C123.226307,77.521327 122.994118,77.7298578 122.875654,77.8341232 C122.69085,79.3649289 122.719281,80.92891 122.866176,82.4597156 C123.358987,83.2606635 124.572059,83.2085308 124.960621,82.3554502 C125.098039,80.9763033 125.079085,79.5781991 124.979575,78.1990521 C124.93219,77.4265403 123.965523,77.1327014 123.340033,77.4170616 Z" id="Shape"></path>
            <path d="M127.742157,75.957346 C128.98366,76.014218 130.291503,75.7914692 131.490359,76.1800948 C132.90719,76.8862559 132.902451,78.8672986 131.855229,79.9004739 C133.210458,80.985782 133.049346,83.4265403 131.333987,84.0473934 C130.154085,84.2843602 128.945752,84.1943128 127.751634,84.2085308 C127.73268,81.4597156 127.751634,78.7061611 127.742157,75.957346 L127.742157,75.957346 Z M129.163725,77.0758294 C129.144771,77.8625592 129.130556,78.6540284 129.135294,79.4454976 C129.997712,79.3127962 131.348203,79.4691943 131.315033,78.2132701 C131.267647,77.0805687 129.950327,77.3080569 129.163725,77.0758294 L129.163725,77.0758294 Z M129.168464,80.4123223 C129.144771,81.2464455 129.130556,82.0853081 129.130556,82.9241706 C130.035621,82.9099526 131.594608,82.971564 131.386111,81.6350711 C131.566176,80.4075829 129.955065,80.5924171 129.168464,80.4123223 Z" id="Shape"></path>
            <path d="M135.750327,75.9668246 C136.06781,75.9668246 136.698039,75.971564 137.015523,75.971564 C137.806863,78.6872038 138.517647,81.4265403 139.308987,84.1421801 C138.982026,84.1516588 138.318627,84.1611374 137.991667,84.1658768 C137.840033,83.6161137 137.697876,83.0663507 137.555719,82.521327 C136.816503,82.450237 136.082026,82.4028436 135.347549,82.3649289 C135.086928,83.450237 134.807353,84.5971564 133.376307,84.2511848 C134.143954,81.4834123 134.94951,78.7251185 135.750327,75.9668246 L135.750327,75.9668246 Z M136.390033,78.1658768 C136.096242,79.1658768 135.821405,80.1706161 135.565523,81.1800948 C136.096242,81.1848341 136.636438,81.1895735 137.171895,81.1990521 C136.89232,80.1895735 136.631699,79.1800948 136.390033,78.1658768 Z" id="Shape"></path>
            <path d="M140.384641,76.9478673 C141.422386,75.4597156 143.474183,76.1137441 145,75.9620853 L145,84.1374408 C144.658824,84.1469194 143.971732,84.1658768 143.630556,84.1753555 C143.635294,82.9526066 143.640033,81.7345972 143.625817,80.5165877 C141.57402,80.549763 141.412908,82.6635071 141.062255,84.1990521 C140.721078,84.1895735 140.043464,84.1658768 139.702288,84.1563981 C140.019771,82.9052133 140.299346,81.6445498 140.702124,80.4170616 C140.138235,79.3744076 139.574346,78.0331754 140.384641,76.9478673 L140.384641,76.9478673 Z M141.393954,78.6350711 C141.512418,79.7488152 142.881863,79.3175355 143.654248,79.492891 C143.512092,78.7440758 143.943301,77.7393365 143.31781,77.1753555 C142.389052,77.0473934 141.057516,77.4454976 141.393954,78.6350711 Z" id="Shape"></path>
            <path d="M12.6519608,75.9620853 C13.0026144,75.9668246 13.7086601,75.971564 14.0640523,75.9763033 C14.0593137,78.2701422 14.0640523,80.563981 14.0593137,82.8578199 C14.8127451,82.8578199 15.5614379,82.8578199 16.3148693,82.8625592 C16.3053922,80.563981 16.3196078,78.2701422 16.3006536,75.971564 C16.6465686,75.971564 17.3336601,75.9668246 17.6795752,75.9668246 C17.6653595,78.1800948 17.6937908,80.3981043 17.6511438,82.6113744 C18.9968954,83.1232227 18.2102941,84.8009479 18.4235294,85.8862559 C18.0349673,85.8909953 17.6416667,85.8909953 17.2531046,85.8957346 C17.2578431,85.3175355 17.2625817,84.7393365 17.2673203,84.1611374 C15.7320261,84.1611374 14.196732,84.1658768 12.6566993,84.1658768 C12.6661765,81.4312796 12.6661765,78.6966825 12.6519608,75.9620853 Z" id="Shape"></path>
            <path d="M70.5666667,76.7582938 C71.6944444,75.4976303 73.5756536,76.1184834 75.054085,75.9620853 C75.0446078,78.6966825 75.0446078,81.4312796 75.054085,84.1658768 L73.6419935,84.1658768 C73.6514706,82.9620853 73.6562092,81.7535545 73.6135621,80.549763 C71.5665033,80.507109 71.5380719,82.6492891 71.1495098,84.0947867 C70.8083333,84.1279621 70.1259804,84.1990521 69.7848039,84.2369668 C70.0596405,82.9146919 70.2633987,81.5592417 70.9125817,80.3554502 C69.9553922,79.4028436 69.6663399,77.8530806 70.5666667,76.7582938 L70.5666667,76.7582938 Z M71.3816993,77.5781991 C71.4575163,78.1563981 71.3722222,78.8151659 71.7844771,79.2938389 C72.3910131,79.4312796 73.0165033,79.4597156 73.6372549,79.5260664 C73.646732,78.7156398 73.646732,77.9004739 73.6372549,77.0900474 C72.879085,77.2180095 72.1256536,77.3791469 71.3816993,77.5781991 Z" id="Shape"></path>
            <path d="M98.4720588,75.971564 C100.012092,75.9668246 101.552124,75.9668246 103.092157,75.9668246 C103.077941,78.1611374 103.101634,80.3507109 103.092157,82.5402844 C104.091993,83.3696682 103.561275,84.7725118 103.693954,85.8909953 C103.400163,85.8909953 102.812582,85.8909953 102.518791,85.8957346 C102.518791,85.3175355 102.523529,84.7393365 102.528268,84.1611374 C101.083007,84.1658768 99.6377451,84.1611374 98.1924837,84.1658768 C98.1972222,84.7393365 98.2066993,85.3127962 98.2161765,85.8909953 L97.0078431,85.8909953 C97.0031046,85.028436 97.0031046,84.1706161 97.0031046,83.3080569 C97.4769608,82.8625592 98.1830065,82.5023697 98.2019608,81.7582938 C98.4767974,79.8436019 98.4388889,77.9004739 98.4720588,75.971564 L98.4720588,75.971564 Z M99.7562092,77.1895735 C99.7419935,79.1279621 99.6946078,81.0805687 99.2397059,82.9763033 C100.059477,82.971564 100.879248,82.9763033 101.69902,82.9810427 C101.717974,81.0521327 101.713235,79.1232227 101.703758,77.1943128 C101.215686,77.1943128 100.244281,77.1895735 99.7562092,77.1895735 Z" id="Shape"></path>
            <path d="M110.327941,75.9763033 C110.683333,75.9763033 111.389379,75.971564 111.744771,75.971564 C111.735294,77.1611374 111.730556,78.3507109 111.74951,79.5402844 C113.716013,79.5687204 113.910294,77.5308057 114.327288,76.0758294 C114.630556,76.0236967 115.237092,75.9241706 115.540359,75.8767773 C115.289216,77.2796209 114.981209,78.7061611 114.208824,79.9241706 C115.057026,81.1943128 115.346078,82.7061611 115.701471,84.1658768 C115.365033,84.1706161 114.696895,84.1848341 114.360458,84.1895735 C114.005065,82.6350711 113.896078,80.3791469 111.74951,80.4739336 C111.730556,81.7014218 111.735294,82.9336493 111.74951,84.1658768 C111.270915,84.1611374 110.79232,84.1611374 110.318464,84.1611374 C110.327941,81.4312796 110.318464,78.7061611 110.327941,75.9763033 Z" id="Shape"></path>
            <path d="M115.853105,75.9810427 C117.573203,75.9763033 119.288562,75.9526066 121.003922,76.0094787 C121.454085,77.6635071 119.876144,77.042654 119.070588,77.2417062 C119.061111,79.5545024 119.06585,81.8625592 119.070588,84.1706161 C118.724673,84.1706161 118.037582,84.1658768 117.691667,84.1611374 C117.705882,81.8388626 117.701144,79.5165877 117.696405,77.1943128 L115.90049,77.1943128 L115.853105,75.9810427 Z" id="Shape"></path>
            <path d="M42.1210784,90.1563981 C42.4764706,90.1469194 43.1872549,90.1184834 43.5426471,90.1090047 C43.5379085,91.2938389 43.5284314,92.4834123 43.5426471,93.6729858 C45.5707516,93.6777251 45.7413399,91.5734597 46.1583333,90.0853081 C46.4663399,90.1090047 47.0776144,90.1516588 47.3856209,90.1706161 C47.0586601,91.507109 46.7411765,92.8720379 45.9972222,94.0521327 C46.8833333,95.3080569 47.1392157,96.8436019 47.5183007,98.3033175 C47.1723856,98.3033175 46.4852941,98.3127962 46.1393791,98.3127962 C45.8503268,97.2369668 45.826634,96.028436 45.1632353,95.0900474 C44.6325163,94.8815166 44.0923203,94.7156398 43.5379085,94.5876777 C43.5236928,95.8246445 43.5379085,97.0616114 43.5568627,98.3033175 C43.196732,98.2985782 42.4812092,98.2938389 42.1210784,98.2938389 C42.125817,95.5781991 42.125817,92.8672986 42.1210784,90.1563981 Z" id="Shape"></path>
            <path d="M49.4184641,90.2654028 C50.8305556,89.3507109 52.9392157,90.2511848 53.2472222,91.9052133 C53.3277778,93.4881517 53.4272876,95.0995261 53.1571895,96.6682464 C52.5696078,98.7061611 49.2857843,98.8862559 48.4565359,96.957346 C48.001634,95.6729858 48.2006536,94.2606635 48.1580065,92.9241706 C48.0869281,91.8957346 48.4707516,90.7772512 49.4184641,90.2654028 L49.4184641,90.2654028 Z M49.9017974,91.6113744 C49.1957516,92.7914692 49.6222222,94.3886256 49.5748366,95.7345972 C49.4279412,97.0094787 51.2759804,97.4976303 51.7877451,96.3317536 C51.9156863,95.0236967 51.9062092,93.7061611 51.8256536,92.3981043 C51.972549,91.4123223 50.4514706,90.7630332 49.9017974,91.6113744 Z" id="Shape"></path>
            <path d="M60.3503268,90.1232227 L65.2831699,90.1232227 C65.2736928,92.8483412 65.2642157,95.5734597 65.2926471,98.2985782 L63.8995098,98.2985782 C63.9089869,95.9810427 63.8947712,93.6587678 63.9137255,91.3412322 C63.1934641,91.3364929 62.4684641,91.3364929 61.7482026,91.3317536 C61.7624183,93.6587678 61.7482026,95.985782 61.7576797,98.3080569 C61.2838235,98.3033175 60.8147059,98.3033175 60.3408497,98.2985782 C60.3645425,95.5734597 60.3550654,92.8483412 60.3503268,90.1232227 Z" id="Shape"></path>
            <path d="M67.5861111,90.3791469 C68.9982026,89.3033175 71.3058824,90.1706161 71.6186275,91.92891 C71.7039216,93.478673 71.8129085,95.07109 71.5333333,96.6066351 C71.0594771,98.5165877 68.2163399,98.8815166 67.0838235,97.3886256 C66.4251634,96.4976303 66.5910131,95.3222749 66.5246732,94.2890995 C66.5341503,92.9478673 66.3161765,91.2559242 67.5861111,90.3791469 L67.5861111,90.3791469 Z M68.1073529,91.7867299 C67.7377451,93.1706161 67.9272876,94.7251185 67.998366,96.1658768 C68.2400327,97.2417062 69.8321895,97.2606635 70.1875817,96.2464455 C70.2918301,94.8199052 70.3060458,93.3791469 70.173366,91.957346 C69.8084967,91.1421801 68.5527778,90.9099526 68.1073529,91.7867299 Z" id="Shape"></path>
            <path d="M77.6223856,98.3175355 C78.4563725,95.6303318 79.1102941,92.8862559 80.0153595,90.2227488 C80.3138889,90.1658768 80.9062092,90.0616114 81.2,90.0047393 C82.076634,92.7819905 82.801634,95.6066351 83.5740196,98.4170616 C82.228268,98.6729858 81.9818627,97.549763 81.7165033,96.5450237 C80.972549,96.5450237 80.2333333,96.549763 79.4941176,96.549763 C79.3661765,97.1232227 79.2334967,97.6966825 79.1055556,98.2701422 C78.7312092,98.2843602 77.9919935,98.3033175 77.6223856,98.3175355 L77.6223856,98.3175355 Z M79.8068627,95.3459716 C80.3470588,95.3412322 80.8825163,95.3364929 81.427451,95.3317536 C81.1668301,94.3364929 80.8919935,93.3459716 80.5839869,92.3649289 C80.3091503,93.3554502 80.0674837,94.3507109 79.8068627,95.3459716 Z" id="Shape"></path>
            <path d="M84.4743464,90.1327014 C84.9482026,90.1327014 85.4220588,90.1279621 85.895915,90.1279621 C85.895915,92.4265403 85.8911765,94.7251185 85.895915,97.0236967 C86.6588235,97.014218 87.421732,97.0094787 88.1846405,97 C88.0661765,94.7251185 88.0993464,92.4454976 88.0946078,90.1658768 C88.4405229,90.1563981 89.1276144,90.1279621 89.4687908,90.1184834 C89.4877451,91.9905213 89.445098,93.8672986 89.4830065,95.7440758 C89.3787582,96.4454976 89.7957516,97.0047393 90.2127451,97.5165877 C90.2316993,98.3412322 90.2411765,99.1706161 90.2506536,100 L89.2176471,100 C89.1228758,99.436019 89.0328431,98.8720379 88.9570261,98.3080569 C87.4643791,98.3270142 85.971732,98.3222749 84.4838235,98.3222749 C84.5075163,95.5924171 84.4743464,92.8625592 84.4743464,90.1327014 Z" id="Shape"></path>
            <path d="M92.5488562,95.5118483 C93.4349673,93.7203791 94.2879085,91.9052133 95.1929739,90.1232227 C95.5388889,90.1232227 96.2354575,90.1232227 96.5861111,90.1279621 C96.6003268,92.8530806 96.5624183,95.5781991 96.5908497,98.3033175 C96.1075163,98.2985782 95.6289216,98.2985782 95.1503268,98.2985782 C95.1503268,96.5165877 95.1834967,94.7345972 95.126634,92.9526066 C94.2452614,94.7014218 93.5202614,96.535545 92.5062092,98.2132701 C92.1792484,98.2606635 91.5205882,98.3554502 91.1936275,98.4028436 C91.155719,95.6445498 91.1888889,92.8815166 91.1746732,90.1232227 L92.5346405,90.1232227 C92.5346405,91.9194313 92.5014706,93.7156398 92.5488562,95.5118483 Z" id="Shape"></path>
            <path d="M98.9174837,90.3791469 C100.168464,89.9004739 101.561601,90.1800948 102.874183,90.1374408 C102.869444,92.8483412 102.864706,95.5545024 102.874183,98.2654028 C102.405065,98.2796209 101.940686,98.2938389 101.471569,98.3127962 C101.471569,97.1090047 101.481046,95.9052133 101.46683,94.7061611 C99.3771242,94.5545024 99.2444444,96.8056872 98.9316993,98.3033175 C98.5905229,98.3033175 97.9129085,98.2938389 97.571732,98.2938389 C97.8560458,97 98.0550654,95.6635071 98.675817,94.478673 C97.5053922,93.3886256 97.4627451,91.2417062 98.9174837,90.3791469 L98.9174837,90.3791469 Z M99.2254902,92.3933649 C99.0075163,93.7772512 100.585458,93.5165877 101.46683,93.6161137 C101.471569,92.8293839 101.476307,92.0473934 101.476307,91.2606635 C100.680229,91.3554502 99.1117647,91.1990521 99.2254902,92.3933649 Z" id="Shape"></path>
            <path d="M54.4223856,90.1327014 C55.7160131,90.1706161 57.0617647,89.943128 58.3080065,90.3601896 C59.7295752,91.1327014 59.8243464,93.2227488 58.876634,94.4028436 C58.1374183,95.3412322 56.8295752,95.056872 55.7965686,95.1800948 C55.8013072,96.2180095 55.8060458,97.2606635 55.8202614,98.3033175 C55.3511438,98.2985782 54.8867647,98.2985782 54.4176471,98.2938389 C54.4271242,95.5734597 54.4271242,92.8530806 54.4223856,90.1327014 L54.4223856,90.1327014 Z M55.8107843,91.2322275 C55.8013072,92.1279621 55.8013072,93.028436 55.8060458,93.92891 C56.5215686,93.8957346 57.275,93.8909953 57.9147059,93.5165877 C58.0568627,92.92891 58.0568627,92.3270142 58.075817,91.7298578 C57.3366013,91.507109 56.5784314,91.3507109 55.8107843,91.2322275 Z" id="Shape"></path>
            <path d="M72.8364379,90.1184834 C74.1300654,90.1895735 75.4947712,89.9194313 76.7362745,90.3886256 C78.4042484,91.3270142 78.2194444,94.1184834 76.5514706,94.957346 C75.7838235,95.1658768 74.978268,95.1184834 74.1916667,95.1800948 C74.2011438,96.2180095 74.2058824,97.2606635 74.2153595,98.2985782 C73.755719,98.3033175 73.2913399,98.3033175 72.8316993,98.3080569 C72.8411765,95.5781991 72.8364379,92.8483412 72.8364379,90.1184834 L72.8364379,90.1184834 Z M74.2058824,91.2511848 C74.2011438,92.1658768 74.2011438,93.0805687 74.220098,94 C74.9640523,93.8767773 75.7080065,93.7298578 76.4424837,93.549763 C76.4424837,92.9810427 76.470915,92.4123223 76.3856209,91.8530806 C75.7980392,91.2938389 74.9498366,91.3601896 74.2058824,91.2511848 Z" id="Shape"></path>
        </g>
    </g>
</svg>