<?xml version="1.0" encoding="UTF-8" standalone="no"?>
<svg width="110px" height="25px" viewBox="0 0 110 25" version="1.1" xmlns="http://www.w3.org/2000/svg" xmlns:xlink="http://www.w3.org/1999/xlink">
    <!-- Generator: Sketch 41.2 (35397) - http://www.bohemiancoding.com/sketch -->
    <title>Russia 24</title>
    <desc>Created with Sketch.</desc>
    <defs></defs>
    <g id="Page-1" stroke="none" stroke-width="1" fill="none" fill-rule="evenodd">
        <g id="Russia-24" fill="#FFFFFF">
            <path d="M0,0 L81.973002,0 C81.9823083,2.8640625 81.9755871,5.728125 81.9859275,8.59270833 C81.9771382,13.10625 82.002472,17.6203125 81.9921317,22.134375 C81.9931657,23.0380208 82.002472,23.9416667 81.9993699,24.8453125 C82.0009209,24.90625 81.9786892,24.9578125 81.9331918,25 L0,25 L0,0 L0,0 Z M22.6939322,5.56145833 C22.5067722,5.60885417 22.3123739,5.61875 22.1252138,5.66979167 C20.8910949,5.965625 19.7572772,6.7375 19.0923937,7.83489583 C18.823028,8.26041667 18.6508614,8.73854167 18.51592,9.221875 C18.3809787,9.765625 18.3127325,10.3265625 18.3173856,10.8875 C18.3148005,11.9109375 18.3158346,12.9348958 18.3168686,13.9583333 C18.3075623,14.9395833 18.4905862,15.9385417 18.9424588,16.8145833 C19.3943315,17.6890625 20.1460738,18.3869792 21.017247,18.825 C21.6847156,19.1635417 22.4292196,19.3333333 23.1726897,19.3697917 C23.584235,19.4348958 23.9957803,19.3463542 24.4078427,19.3322917 C25.7076227,19.1604167 26.9644904,18.5078125 27.7617302,17.4447917 C28.4245456,16.5708333 28.7114899,15.4645833 28.7704298,14.3807292 C28.7880084,13.5635417 28.7745659,12.7458333 28.7792191,11.9286458 C28.7709468,11.1994792 28.8154103,10.4645833 28.684605,9.74322917 C28.5326021,8.81614583 28.1681053,7.90572917 27.5357939,7.2046875 C26.8202427,6.38697917 25.8249855,5.83125 24.7635502,5.63072917 C24.6611809,5.6015625 24.5551924,5.59375 24.450755,5.58177083 C24.264112,5.521875 24.0645436,5.55885417 23.8737644,5.5265625 C23.4808317,5.4640625 23.0873819,5.55052083 22.6939322,5.56145833 L22.6939322,5.56145833 Z M35.6839775,5.5296875 C35.4921643,5.5578125 35.2941469,5.5234375 35.1064698,5.5796875 C33.7746347,5.72864583 32.4774397,6.38958333 31.6646894,7.47864583 C31.0525416,8.29114583 30.7702505,9.3078125 30.6875278,10.3125 C30.6601259,11.1625 30.6771875,12.0130208 30.6725343,12.8630208 C30.6771875,13.50625 30.6575409,14.1505208 30.7025213,14.7927083 C30.7681824,15.228125 30.8379797,15.665625 30.9801593,16.084375 C31.2546952,16.9385417 31.7794672,17.7119792 32.4882971,18.259375 C33.3046665,18.9151042 34.3335298,19.2614583 35.3660122,19.3484375 C35.608493,19.3473958 35.8468377,19.4067708 36.0898356,19.3916667 C37.3756562,19.3682292 38.66613,19.175 39.8893915,18.7640625 C39.6815508,17.971875 39.5471265,17.1598958 39.3217072,16.3723958 C38.2075361,16.7786458 37.0101254,16.9401042 35.8282251,16.9015625 C35.0909593,16.8703125 34.3454212,16.490625 33.9845435,15.825 C33.6464146,15.228125 33.5823045,14.5270833 33.5430112,13.8552083 C33.5388751,13.1078125 33.5424942,12.3604167 33.5414602,11.6130208 C33.535256,11.0359375 33.5580047,10.453125 33.690878,9.88958333 C33.8351257,9.26614583 34.1686014,8.6484375 34.7347348,8.32135417 C35.3582569,7.94739583 36.1151694,7.9734375 36.814176,8.01979167 C37.3715201,8.0609375 37.9242109,8.15104167 38.4691466,8.27291667 C38.7679822,8.33072917 39.0523414,8.45833333 39.3568643,8.48020833 C39.5202416,7.69375 39.7110208,6.91302083 39.8914596,6.13072917 C39.471125,6.00052083 39.0487223,5.86927083 38.6144283,5.79427083 L38.5803052,5.771875 C38.2985311,5.72864583 38.0203761,5.66302083 37.7365339,5.63489583 C37.586082,5.5875 37.4263238,5.60260417 37.2722529,5.58333333 C37.0535548,5.5203125 36.8229653,5.5578125 36.5996141,5.53645833 C36.2956083,5.50364583 35.9874663,5.48489583 35.6839775,5.5296875 L35.6839775,5.5296875 Z M46.5914794,5.5328125 C46.2941947,5.54479167 45.9948421,5.56458333 45.7047957,5.634375 C45.6349984,5.64739583 45.5646841,5.6578125 45.4954039,5.66770833 C44.8636095,5.8203125 44.2468085,6.0609375 43.7091111,6.4328125 C42.871027,6.99270833 42.2263071,7.84010417 41.9238523,8.8078125 C41.7025692,9.44166667 41.636391,10.1145833 41.5976148,10.7802083 C41.5976148,11.8921875 41.5970978,13.0036458 41.5981318,14.115625 C41.633806,14.7625 41.697399,15.415625 41.9062738,16.0328125 C42.1663332,16.8885417 42.6817989,17.6640625 43.3787374,18.2208333 C44.2509446,18.9333333 45.3666667,19.303125 46.4808378,19.3578125 C46.8360283,19.4067708 47.198457,19.4046875 47.5546815,19.3661458 C48.6631654,19.3213542 49.7669961,19.115625 50.8211932,18.7661458 C50.7353684,18.3786458 50.6495436,17.9916667 50.5585487,17.6057292 C50.4675538,17.1942708 50.3755248,16.7833333 50.2710874,16.3760417 C49.7794045,16.5557292 49.268075,16.6770833 48.7531263,16.7682292 C48.0892768,16.8838542 47.413536,16.9276042 46.7403802,16.9 C46.0899731,16.8583333 45.4312938,16.5671875 45.0466334,16.021875 C44.6474965,15.4536458 44.5435761,14.7421875 44.4944595,14.0645833 C44.4815341,13.1953125 44.4913574,12.3255208 44.4882553,11.45625 C44.4929085,11.1442708 44.478949,10.8302083 44.5280656,10.5213542 C44.5947608,9.83125 44.7958803,9.10677083 45.3035907,8.61041667 C45.7440889,8.1640625 46.3882918,7.99427083 46.9978545,7.99635417 C48.0866917,7.98333333 49.1677737,8.1796875 50.2111135,8.4828125 C50.2240389,8.4953125 50.2498897,8.5203125 50.2628151,8.5328125 C50.3465718,8.28020833 50.3894842,8.01666667 50.4551454,7.75885417 C50.5264937,7.4328125 50.6118014,7.10989583 50.6702243,6.78125 L50.5890527,6.75677083 C50.6500607,6.71822917 50.689871,6.77552083 50.721409,6.82395833 C50.6671222,6.590625 50.8098188,6.36354167 50.8201592,6.12864583 C50.2142156,5.928125 49.5896594,5.78802083 48.9640691,5.66822917 C48.49772,5.6109375 48.032405,5.53645833 47.5619198,5.53854167 C47.2398183,5.50260417 46.9130638,5.484375 46.5914794,5.5328125 L46.5914794,5.5328125 Z M7.88398807,5.9359375 C7.88657315,10.328125 7.8912263,14.7203125 7.88450508,19.1130208 C8.06390989,19.1395833 8.24538276,19.1286458 8.4258216,19.1291667 C9.20755089,19.1296875 9.98928018,19.1296875 10.7710095,19.1296875 C10.7896221,17.5020833 10.7730775,15.8739583 10.7808328,14.2463542 C11.3914295,14.2484375 12.0015093,14.2473958 12.612106,14.2473958 C13.475524,14.2567708 14.3570375,14.0557292 15.0886162,13.5807292 C16.104554,12.921875 16.8097648,11.7916667 16.9338489,10.578125 C16.9447062,10.4015625 16.9410871,10.2244792 16.9664209,10.0494792 C16.9286787,9.80885417 16.9565976,9.5625 16.9100661,9.32291667 C16.6815447,7.80833333 15.5632375,6.45104167 14.1047333,5.99375 C13.5251576,5.80729167 12.9099077,5.75416667 12.3039641,5.765625 C10.8547662,5.76666667 9.4055683,5.76354167 7.95637041,5.7671875 C7.8571032,5.7515625 7.89226034,5.87916667 7.88398807,5.9359375 L7.88398807,5.9359375 Z M52.8747836,5.76666667 C52.8665114,10.20625 52.8732326,14.646875 52.8747836,19.0864583 C52.886158,19.096875 52.9078727,19.1177083 52.9192471,19.128125 C53.6849489,19.125 54.4532357,19.1432292 55.2173864,19.11875 C55.6733952,18.4458333 56.0859745,17.740625 56.5249217,17.0552083 C57.7197474,15.159375 58.8980285,13.2526042 60.1021605,11.3630208 C60.0354653,11.8953125 60.0628672,12.4328125 60.0116825,12.9661458 C60.0111655,14.8765625 60.0127166,16.7869792 60.0127166,18.6973958 C60.0168527,18.84375 59.9884168,18.9979167 60.0499418,19.1359375 C60.9376595,19.121875 61.8258942,19.1322917 62.713612,19.1307292 C62.7720348,19.1203125 62.9100783,19.1609375 62.8987039,19.0557292 C62.8981869,14.6255208 62.9043911,10.1953125 62.8976699,5.76510417 C62.127315,5.76510417 61.356443,5.76770833 60.5860881,5.7640625 C60.1600663,6.403125 59.7702357,7.06666667 59.3581734,7.71510417 C58.6813985,8.803125 58.0030726,9.89010417 57.3257806,10.9776042 C56.7901513,11.85 56.2302222,12.7078125 55.7111374,13.5901042 C55.7033822,13.346875 55.7157906,13.1041667 55.7230288,12.8614583 C55.7700773,12.2729167 55.7530158,11.68125 55.7587029,11.090625 C55.7587029,9.34010417 55.760771,7.5890625 55.75922,5.83854167 C55.7716284,5.7328125 55.6397891,5.77395833 55.5803322,5.7640625 C54.678655,5.76770833 53.7764608,5.76354167 52.8747836,5.76666667 L52.8747836,5.76666667 Z M67.3083396,6.13333333 C65.8953329,6.759375 64.878878,8.23385417 64.8426868,9.7953125 C64.7765087,10.1052083 64.878361,10.4203125 64.8731908,10.7333333 C65.0081322,11.5182292 65.3271315,12.2791667 65.8493184,12.8833333 C66.2019238,13.2994792 66.6625857,13.60625 67.1480644,13.84375 C66.6998109,14.753125 66.2908507,15.6822917 65.8534545,16.5973958 C65.4713792,17.4447917 65.0562147,18.2776042 64.6865478,19.1296875 C65.7531533,19.1286458 66.8192418,19.13125 67.8858473,19.128125 C68.5951942,17.5036458 69.3004051,15.8765625 70.0030308,14.2489583 C70.3623574,14.24375 70.721684,14.253125 71.0815277,14.2432292 C71.123406,14.440625 71.0985892,14.6432292 71.1042764,14.8432292 C71.1084125,16.271875 71.0975552,17.7010417 71.1104806,19.1302083 C72.0623084,19.1296875 73.0146532,19.128125 73.966481,19.13125 C73.9757873,14.6755208 73.9737192,10.2192708 73.9690661,5.76354167 C72.7328791,5.76822917 71.4972091,5.7640625 70.2610221,5.765625 C69.269384,5.759375 68.2363846,5.71927083 67.3083396,6.13333333 Z" id="Shape"></path>
            <path d="M23.0519761,8.03073251 C23.7227512,7.94132947 24.4623518,8.03651741 25.0031233,8.45513398 C25.4575898,8.80643533 25.7023026,9.34390535 25.841046,9.87611637 C26.0797501,10.8753268 25.9420992,11.9050394 26,12.918975 C25.9726883,13.6173705 26.0218494,14.3257581 25.864534,15.0152133 C25.7465475,15.5511056 25.5236841,16.0943605 25.0927056,16.4688015 C24.6655508,16.8605971 24.0565001,17.0104787 23.4791309,16.9994348 C22.8777275,17.0099528 22.2462812,16.8285172 21.8256812,16.3978049 C21.3023892,15.8803191 21.1237707,15.1409034 21.047298,14.4446115 C21.0505754,14.110139 20.9883047,13.7788219 21.0019606,13.4443493 C21.0019606,12.7433243 21.0041455,12.0428253 21.0014144,11.3418003 C21.040197,10.6917876 21.0593151,10.0259979 21.3094902,9.41069468 C21.4919323,8.93265138 21.8311435,8.4961542 22.3047282,8.254766 C22.5357851,8.13433485 22.7936075,8.06859733 23.0519761,8.03073251 Z" id="Shape"></path>
            <path d="M11,8 C11.5470563,8.00115959 12.0945883,7.99884041 12.6421203,8.00115959 C13.0188755,8.00289897 13.3927766,8.21220467 13.6282487,8.57399623 C13.9212806,9.00130454 14.0159451,9.58051892 13.9978684,10.1255254 C13.9807432,10.6711118 13.8261403,11.2404696 13.4774514,11.6045804 C13.277657,11.8353385 13.0098372,11.9489781 12.7410661,11.9889839 C12.1621378,12.0115959 11.5822582,11.9907233 11.0033299,12 C10.9980972,10.6664734 11.0061841,9.3335266 11,8 Z" id="Shape"></path>
            <path d="M69.0134477,8.06681665 C69.2030062,7.98288558 69.4064011,8.00314481 69.6047226,8.00025063 C70.069164,8.00372364 70.5345278,7.99504112 70.9994304,8.00488131 C70.9957407,9.1729702 70.998508,10.3416379 70.9980468,11.5097268 C70.9948183,11.6735371 71.0164953,11.8437146 70.9662231,12 C70.4007761,11.9739524 69.8339454,12.013892 69.2694208,11.9791619 C68.8059019,11.9450107 68.3838921,11.5739775 68.1777299,11.0570779 C67.9909387,10.6084808 67.9794083,10.0857929 68.017689,9.59262552 C68.0864097,8.90670613 68.4719837,8.25435916 69.0134477,8.06681665 Z" id="Shape"></path>
            <path d="M84.0044169,0 L110,0 L110,25 L84.03673,25 C83.9742228,24.871875 84.0123628,24.7208333 84.0038872,24.5833333 C84.0054764,16.3890625 84.0044169,8.19427083 84.0044169,0 L84.0044169,0 Z M91.5836809,5.75677083 C91.5794432,6.67708333 91.5889782,7.596875 91.5789134,8.5171875 C91.8538392,8.57395833 92.1383,8.66927083 92.3168164,8.89739583 C92.6489521,9.27135417 92.6447143,9.80104167 92.5896232,10.2661458 C92.4111069,11.0354167 91.8559581,11.6489583 91.2700855,12.1583333 C89.7969282,13.415625 88.253318,14.590625 86.7128861,15.7671875 C86.7139455,16.5927083 86.7049403,17.4182292 86.7176536,18.2442708 C87.4767454,18.2432292 88.2363669,18.2390625 88.9959884,18.2463542 C89.1994017,18.1041667 89.3763289,17.9296875 89.5691477,17.7734375 C91.0634938,16.5005208 92.5573102,15.2270833 94.0527157,13.9546875 C94.8059806,13.2723958 95.466544,12.4729167 95.8966784,11.553125 C96.3315803,10.6458333 96.4248114,9.5875 96.1551828,8.6203125 C95.9125701,7.70677083 95.2885574,6.90104167 94.460072,6.42447917 C93.5976844,5.91927083 92.5763802,5.74427083 91.5836809,5.75677083 L91.5836809,5.75677083 Z M102.373591,6.35885417 C100.597962,8.33072917 98.8318686,10.3104167 97.0472348,12.2744792 C97.0424673,12.2979167 97.0329323,12.3447917 97.0281648,12.3682292 C98.240169,12.3588542 99.452703,12.3677083 100.665237,12.3640625 C102.646398,10.184375 104.596834,7.9765625 106.582763,5.80104167 C106.584882,5.77864583 106.589649,5.73333333 106.592298,5.71041667 C106.297242,5.759375 106.001657,5.70260417 105.706602,5.7234375 C105.61602,5.73385417 105.525967,5.74010417 105.438033,5.74583333 L105.399893,5.71666667 L105.223496,5.71666667 L105.185885,5.74375 C104.917846,5.72083333 104.650866,5.7359375 104.383886,5.73697917 C103.921439,5.68072917 103.451045,5.75885417 102.992306,5.709375 C102.751812,5.8921875 102.58548,6.14791667 102.373591,6.35885417 L102.373591,6.35885417 Z M88.0419589,7.15885417 C87.3019371,7.915625 86.8633272,8.92604167 86.7255994,9.95989583 C87.7982867,9.9640625 88.870974,9.95677083 89.9436613,9.96354167 C90.0342438,9.6859375 90.1131724,9.39895833 90.2837429,9.15520833 C90.4797401,8.87395833 90.7610225,8.615625 91.1169958,8.5625 C91.1683788,8.4203125 91.1493088,8.26875 91.1519574,8.121875 C91.1514277,7.34583333 91.1514277,6.56979167 91.1519574,5.79427083 C89.9934552,5.84739583 88.842369,6.32447917 88.0419589,7.15885417 L88.0419589,7.15885417 Z M105.674289,7.46302083 C104.913608,8.303125 104.168289,9.15625 103.401781,9.99114583 C103.397014,12.7963542 103.397014,15.6015625 103.401781,18.4067708 C104.461226,18.4052083 105.52067,18.4046875 106.580644,18.4072917 C106.579584,14.4203125 106.593357,10.4322917 106.573757,6.44583333 C106.286118,6.7953125 105.970934,7.12135417 105.674289,7.46302083 L105.674289,7.46302083 Z M96.9841979,15.5541667 C98.9680072,15.553125 100.951287,15.55625 102.935096,15.5526042 C102.930858,14.63125 102.933507,13.7104167 102.934037,12.7890625 C100.951287,12.7875 98.968537,12.7911458 96.9857871,12.7875 C96.9836682,13.709375 96.9868465,14.6317708 96.9841979,15.5541667 L96.9841979,15.5541667 Z M90.0962212,17.878125 C89.9637907,17.9947917 89.810701,18.09375 89.711643,18.2421875 C91.8125209,18.2447917 93.9139285,18.2411458 96.0153362,18.24375 C96.0778434,18.2421875 96.1403506,18.2307292 96.2023281,18.2088542 C96.1874958,17.2359375 96.2007389,16.2625 96.1954417,15.2890625 C95.1762563,15.2864583 94.1576007,15.290625 93.1384154,15.2875 C92.1261164,16.1526042 91.1101094,17.0140625 90.0962212,17.878125 Z" id="Shape"></path>
        </g>
    </g>
</svg>