<?xml version="1.0" encoding="UTF-8" standalone="no"?>
<svg width="72px" height="90px" viewBox="0 0 72 90" version="1.1" xmlns="http://www.w3.org/2000/svg" xmlns:xlink="http://www.w3.org/1999/xlink">
    <!-- Generator: Sketch 41.2 (35397) - http://www.bohemiancoding.com/sketch -->
    <title>Smart</title>
    <desc>Created with Sketch.</desc>
    <defs></defs>
    <g id="Page-1" stroke="none" stroke-width="1" fill="none" fill-rule="evenodd">
        <g id="Smart" fill="#FFFFFF">
            <path d="M54.6943715,79.8223054 L54.6943715,89.3699264 L57.9801046,89.3699264 L57.9801046,80.0095575 C57.9801046,78.6971493 59.0568886,77.6461272 60.3539574,77.6461272 L61.8717237,77.6461272 L61.8717237,74.5262933 L60.1894665,74.5217284 C57.221015,74.5524045 54.814677,76.8747507 54.6943715,79.8223054 Z M69.2397658,86.2397302 C67.93687,86.2397302 66.873392,85.1696725 66.8717402,83.8763 L66.8717402,77.6303783 L70.5043493,77.6303783 L70.5043493,74.5084902 L66.8717402,74.5084902 L66.8717402,71.5712979 L63.5697646,71.5712979 L63.5697646,84.0561113 C63.69007,87.0081852 66.1180648,89.3260121 69.0723844,89.3612075 L70.7571192,89.3570991 L70.7571192,86.2397302 L69.2397658,86.2397302 Z M29.7545332,74.2308988 C28.1210498,74.2308988 26.5699723,74.9749315 25.5506339,76.2169033 C24.5354708,74.9749315 22.9694355,74.2308988 21.3317767,74.2308988 C18.4657362,74.2308988 16.0906446,76.4596646 15.9361562,79.3081609 L15.9349174,89.3699264 L19.2444179,89.3699264 L19.2444179,79.7170845 C19.2444179,78.3669702 20.2624716,77.3246671 21.5637157,77.3246671 C22.6375632,77.3246671 23.9025596,78.048386 23.9025596,80.100262 L23.9025596,89.3699264 L27.1970563,89.3699264 L27.1970563,80.0911322 C27.1970563,78.1884371 28.4004318,77.3246671 29.5209424,77.3246671 C30.9062902,77.3246671 31.8535922,78.3023313 31.8535922,79.7170845 L31.8535922,89.3699264 L35.1485019,89.3699264 L35.1485019,79.3168799 C34.9811204,76.4596646 32.6205737,74.2308988 29.7545332,74.2308988 Z M44.8317123,74.2661398 C40.5661921,74.2661398 37.2196181,77.6229375 37.2196181,81.9296905 C37.2196181,86.4252934 40.4470796,89.6797917 44.8920486,89.6797917 C46.6180323,89.6797917 48.1649344,89.0426689 49.1417851,87.973022 L49.1417851,89.3686939 L52.4349971,89.3686939 L52.4349971,81.9897189 C52.4349971,77.5061218 49.2267147,74.2661398 44.8317123,74.2661398 Z M44.8758519,86.5305142 C42.4049564,86.5305142 40.4058766,84.474119 40.4058766,81.9764807 C40.4058766,79.4759666 42.4049564,77.4257339 44.8758519,77.4257339 C47.32922,77.4257339 49.326648,79.4759666 49.326648,81.9764807 C49.326648,84.6497306 47.499538,86.5305142 44.8758519,86.5305142 Z M8.25537501,80.4888261 C5.06333522,80.1205758 4.42707458,79.5522003 4.42707458,78.6855545 C4.42707458,77.3159481 6.51319457,77.1378258 7.43425146,77.1378258 C9.01157401,77.1378258 10.5717822,77.7530371 11.6852268,78.7029467 L13.7842399,76.6175187 C12.9456349,75.9277626 10.934442,74.2615749 6.94334842,74.2615749 C3.00511214,74.2615749 0.883983365,76.6378325 0.883983365,78.8827124 C0.883983365,81.5382049 2.95514547,83.0523359 7.22396932,83.5125689 C9.01905295,83.70854 10.3735673,83.9566878 10.3735673,85.1990705 C10.3735673,87.4879103 4.60363267,87.2583872 2.28681257,84.7110829 L0,87.0023878 C0.215696346,87.2463816 2.90224228,89.7075463 6.93169412,89.7075463 C11.7410206,89.7075463 13.9208338,87.3636081 13.9208338,85.1729592 C13.9208338,82.422243 12.1245114,80.932945 8.25537501,80.4888261 Z M71.0110362,71.6413234 C70.9290431,71.4776718 70.793688,71.1868878 70.6587918,71.0978267 C70.8203461,71.0551449 70.9964912,70.8753336 70.9964912,70.6255423 C70.9964912,70.5642358 70.9610695,70.1317573 70.4530979,70.1317573 L69.4674836,70.1317573 L69.4674836,70.3960193 L69.716904,70.3960193 L69.716904,71.6413234 L69.4674836,71.6413234 L69.4674836,71.9085069 L70.2811282,71.9085069 L70.2811282,71.6413234 L70.009225,71.6413234 L70.009225,71.1533358 L70.2707127,71.1533358 C70.4984763,71.2378321 70.6396126,71.5095805 70.8157578,71.9085069 L71.2346703,71.9085069 L71.2346703,71.6413234 L71.0110362,71.6413234 Z M70.009225,70.3960193 L70.4414436,70.3960193 C70.6733367,70.3960193 70.6995818,70.5526409 70.6995818,70.6313398 C70.6995818,70.7937132 70.5542701,70.8902608 70.3385738,70.8902608 L70.009225,70.8902608 L70.009225,70.3960193 Z M70.3077862,69.3367347 C69.3733774,69.3367347 68.6138748,70.0907189 68.6138748,71.0215929 C68.6138748,71.9511887 69.3733774,72.7051729 70.3077862,72.7051729 C71.2417363,72.7051729 72,71.9511887 72,71.0215929 C72,70.0907189 71.2417363,69.3367347 70.3077862,69.3367347 Z M70.3077862,72.3865887 C69.5495225,72.3865887 68.9340928,71.7755314 68.9340928,71.0215929 C68.9340928,70.2659653 69.5495225,69.6536756 70.3077862,69.6536756 C71.06683,69.6536756 71.6810208,70.2659653 71.6810208,71.0215929 C71.6810208,71.7755314 71.06683,72.3865887 70.3077862,72.3865887 Z" id="smart"></path>
            <path d="M50.9239727,5.94397205 C58.268921,10.6792765 68.8505985,25.4520465 71.6927123,33.6083415 C68.8505985,41.7869267 58.268921,56.5227632 50.9239727,61.2684806 L50.9239727,5.94397205 Z" id="_91331920"></path>
            <path d="M35.2057538,16.4347279 C39.0436459,16.4347279 43.944203,17.9511186 47.788146,20.6856658 L47.788146,4.0377452 C43.9605567,1.66781516 39.294512,0.277031005 33.834494,0.277031005 C15.3156998,0.277031005 0.342556574,15.2003012 0.342556574,33.6083415 C0.342556574,52.032652 15.3156998,66.8984881 33.834494,66.8984881 C39.294512,66.8984881 43.9605567,65.5607451 47.788146,63.1791004 L47.788146,46.4852976 C43.944203,49.2198448 39.0436459,50.7821178 35.2057538,50.7821178 C24.7872864,50.7821178 17.127856,43.2087871 17.127856,33.6083415 C17.127856,23.9621763 24.7872864,16.4347279 35.2057538,16.4347279 Z" id="_93038808-path"></path>
        </g>
    </g>
</svg>