<?xml version="1.0" encoding="UTF-8" standalone="no"?>
<svg width="126px" height="20px" viewBox="0 0 126 20" version="1.1" xmlns="http://www.w3.org/2000/svg" xmlns:xlink="http://www.w3.org/1999/xlink">
    <!-- Generator: Sketch 41.2 (35397) - http://www.bohemiancoding.com/sketch -->
    <title>Spletnik</title>
    <desc>Created with Sketch.</desc>
    <defs></defs>
    <g id="Page-1" stroke="none" stroke-width="1" fill="none" fill-rule="evenodd">
        <g id="Spletnik" fill="#FFFFFF">
            <path d="M29.8928571,13.8 C30.0214286,14 30.2142857,14.2 30.4714286,14.4666667 C30.7285714,14.6666667 31.05,14.8666667 31.3071429,15.0666667 C31.5642857,15.2666667 31.95,15.4 32.2714286,15.5333333 C32.5285714,15.6666667 32.9785714,15.7333333 33.3642857,15.7333333 C34.2,15.7333333 34.7142857,15.5333333 35.1642857,15.1333333 C35.55,14.8 35.7428571,14.2666667 35.7428571,13.8 C35.7428571,13.5333333 35.6785714,13.2 35.6142857,13 C35.4857143,12.8 35.3571429,12.6 35.0357143,12.3333333 C34.8428571,12.1333333 34.4571429,12 34.0714286,11.8666667 C33.6857143,11.7333333 33.1714286,11.6 32.5928571,11.4666667 C31.95,11.3333333 31.4357143,11.1333333 30.9214286,10.8666667 C30.4714286,10.6 30.0857143,10.2666667 29.8285714,9.93333333 C29.5071429,9.6 29.25,9.13333333 29.1214286,8.73333333 C28.9928571,8.33333333 28.8642857,7.8 28.8642857,7.4 C28.8642857,6.93333333 28.9285714,6.33333333 29.1214286,5.93333333 C29.3142857,5.46666667 29.5714286,5 29.9571429,4.66666667 C30.3428571,4.33333333 30.8571429,4 31.3714286,3.73333333 C32.0142857,3.53333333 32.6571429,3.4 33.4285714,3.4 C34.1357143,3.4 34.7142857,3.46666667 35.2928571,3.66666667 C35.7428571,3.8 36.2571429,4 36.5785714,4.26666667 C36.9,4.46666667 37.2214286,4.66666667 37.4142857,4.93333333 C37.6071429,5.2 37.7357143,5.26666667 37.8,5.4 L36.0642857,7.06666667 C36,7 35.8714286,6.93333333 35.7428571,6.8 C35.6142857,6.66666667 35.4214286,6.53333333 35.1642857,6.4 C34.9714286,6.26666667 34.7142857,6.13333333 34.3285714,6.06666667 C34.1357143,5.93333333 33.75,5.86666667 33.3642857,5.86666667 C33.0428571,5.86666667 32.6571429,5.93333333 32.4642857,6 C32.2071429,6.06666667 32.0142857,6.2 31.7571429,6.33333333 C31.6285714,6.46666667 31.5,6.66666667 31.4357143,6.93333333 C31.3714286,7.06666667 31.3071429,7.26666667 31.3071429,7.4 C31.3071429,7.66666667 31.3714286,7.86666667 31.4357143,8.06666667 C31.5,8.26666667 31.6285714,8.46666667 31.8214286,8.66666667 C32.0142857,8.8 32.2714286,8.93333333 32.7214286,9.06666667 C33.0428571,9.2 33.5571429,9.33333333 34.0714286,9.4 C34.65,9.53333333 35.1,9.66666667 35.55,9.86666667 C36,10.0666667 36.45,10.3333333 36.8357143,10.7333333 C37.1571429,11.0666667 37.5428571,11.5333333 37.7357143,12 C37.9285714,12.4666667 38.0571429,13.1333333 38.0571429,13.8666667 C38.0571429,14.5333333 37.9285714,15.0666667 37.7357143,15.6 C37.4785714,16.0666667 37.1571429,16.6 36.7071429,16.9333333 C36.3214286,17.3333333 35.7428571,17.6666667 35.2285714,17.8666667 C34.5857143,18.0666667 34.0071429,18.2 33.3,18.2 C32.5928571,18.2 32.0142857,18.1333333 31.4357143,17.9333333 C30.8571429,17.8 30.4071429,17.6 29.9571429,17.2666667 C29.5714286,17 29.1214286,16.6666667 28.8,16.4 C28.4785714,16.1333333 28.1571429,15.8 27.9642857,15.5333333 L29.8928571,13.8 Z" id="Shape"></path>
            <path d="M41.9785714,3.73333333 L46.2857143,3.73333333 C47.25,3.73333333 48.0214286,3.86666667 48.6,4.13333333 C49.2428571,4.4 49.6928571,4.8 50.0142857,5.26666667 C50.3357143,5.66666667 50.6571429,6.2 50.7857143,6.66666667 C50.9142857,7.13333333 50.9785714,7.66666667 50.9785714,8.06666667 C50.9785714,8.86666667 50.85,9.53333333 50.5928571,10.0666667 C50.3357143,10.6666667 49.95,11.0666667 49.5642857,11.4 C49.1785714,11.7333333 48.6642857,12.0666667 48.15,12.2 C47.5714286,12.3333333 47.0571429,12.4666667 46.5428571,12.4666667 L44.4857143,12.4666667 L44.4857143,17.6666667 L42.0428571,17.6666667 L41.9785714,3.73333333 L41.9785714,3.73333333 Z M46.2857143,10.3333333 C46.9285714,10.3333333 47.4428571,10.1333333 47.8928571,9.73333333 C48.2142857,9.33333333 48.4714286,8.8 48.4714286,8.2 C48.4714286,7.6 48.2785714,7 47.8285714,6.53333333 C47.4428571,6.13333333 46.9285714,5.86666667 46.35,5.86666667 L44.4857143,5.86666667 L44.4857143,10.2 L46.2857143,10.3333333 L46.2857143,10.3333333 Z" id="Shape"></path>
            <polygon id="Shape" points="54.3214286 3.73333333 56.8285714 3.73333333 56.8285714 15.4 63.5142857 15.4 63.5142857 17.7333333 54.3214286 17.7333333"></polygon>
            <polygon id="Shape" points="66.5357143 3.73333333 75.3428571 3.73333333 75.3428571 6.06666667 69.1714286 6.06666667 69.1714286 9.33333333 73.8 9.33333333 73.8 11.6666667 69.1714286 11.6666667 69.1714286 15.3333333 75.8571429 15.3333333 75.8571429 17.6666667 66.6 17.6666667"></polygon>
            <polygon id="Shape" points="82.7357143 6.06666667 78.1071429 6.06666667 78.1071429 3.73333333 89.8071429 3.73333333 89.8071429 6.06666667 85.1785714 6.06666667 85.1785714 17.7333333 82.6714286 17.7333333"></polygon>
            <polygon id="Shape" points="92.7642857 3.73333333 95.4 3.73333333 101.892857 13.6666667 101.892857 3.73333333 104.335714 3.73333333 104.335714 17.7333333 101.828571 17.7333333 95.2714286 7.73333333 95.2714286 17.8666667 92.8285714 17.8666667 92.8285714 3.73333333"></polygon>
            <polygon id="Shape" points="108.257143 3.73333333 110.764286 3.73333333 110.764286 17.7333333 108.257143 17.7333333"></polygon>
            <polygon id="Shape" points="114.621429 3.73333333 117.128571 3.73333333 117.128571 9.46666667 122.142857 3.73333333 125.035714 3.73333333 120.021429 9.46666667 125.55 17.7333333 122.464286 17.7333333 118.35 11.3333333 117.128571 12.7333333 117.128571 17.6666667 114.621429 17.6666667"></polygon>
            <rect id="Rectangle-path" transform="translate(6.279429, 4.072960) rotate(-29.643965) translate(-6.279429, -4.072960) " x="5.95800579" y="0.273028458" width="0.385707337" height="7.59986308"></rect>
            <rect id="Rectangle-path" transform="translate(2.664411, 4.185693) rotate(-60.356035) translate(-2.664411, -4.185693) " x="-0.999808273" y="3.85236601" width="7.3284394" height="0.399992794"></rect>
            <rect id="Rectangle-path" x="0.707142857" y="7.2" width="7.32857143" height="0.4"></rect>
            <ellipse id="Oval" cx="4.37142857" cy="0.8" rx="0.771428571" ry="0.8"></ellipse>
            <rect id="Rectangle-path" transform="translate(13.541162, 4.063440) rotate(-29.643965) translate(-13.541162, -4.063440) " x="13.2197394" y="0.263508458" width="0.385707337" height="7.59986308"></rect>
            <rect id="Rectangle-path" transform="translate(9.887374, 4.226880) rotate(-60.356035) translate(-9.887374, -4.226880) " x="6.22315458" y="3.89355267" width="7.3284394" height="0.399992794"></rect>
            <rect id="Rectangle-path" x="7.97142857" y="7.2" width="7.32857143" height="0.4"></rect>
            <ellipse id="Oval" cx="11.6357143" cy="0.8" rx="0.771428571" ry="0.8"></ellipse>
            <rect id="Rectangle-path" transform="translate(20.745225, 4.079960) rotate(-29.643965) translate(-20.745225, -4.079960) " x="20.4238022" y="0.280028458" width="0.385707337" height="7.59986308"></rect>
            <rect id="Rectangle-path" transform="translate(17.135319, 4.197993) rotate(-60.356035) translate(-17.135319, -4.197993) " x="13.4710989" y="3.86466601" width="7.3284394" height="0.399992794"></rect>
            <rect id="Rectangle-path" x="15.1714286" y="7.2" width="7.32857143" height="0.4"></rect>
            <ellipse id="Oval" cx="18.8357143" cy="0.8" rx="0.771428571" ry="0.8"></ellipse>
            <ellipse id="Oval" cx="11.6357143" cy="19.2" rx="0.771428571" ry="0.8"></ellipse>
            <rect id="Rectangle-path" transform="translate(6.138489, 13.142893) rotate(-43.281966) translate(-6.138489, -13.142893) " x="5.81705496" y="4.97609861" width="0.385720334" height="16.3335894"></rect>
            <rect id="Rectangle-path" transform="translate(9.894822, 13.266790) rotate(-17.837007) translate(-9.894822, -13.266790) " x="9.57340393" y="7.03366455" width="0.385701422" height="12.4662509"></rect>
            <ellipse id="Oval" cx="0.771428571" cy="7.46666667" rx="0.771428571" ry="0.8"></ellipse>
            <ellipse id="Oval" cx="7.97142857" cy="7.46666667" rx="0.771428571" ry="0.8"></ellipse>
            <rect id="Rectangle-path" transform="translate(17.266693, 13.297067) rotate(-46.718034) translate(-17.266693, -13.297067) " x="9.39156938" y="12.9637281" width="15.750247" height="0.400006272"></rect>
            <rect id="Rectangle-path" transform="translate(13.541705, 13.301883) rotate(-72.162993) translate(-13.541705, -13.301883) " x="7.53119153" y="12.9685611" width="12.0210277" height="0.39998666"></rect>
            <ellipse id="Oval" cx="22.4357143" cy="7.46666667" rx="0.771428571" ry="0.8"></ellipse>
            <ellipse id="Oval" cx="15.2357143" cy="7.46666667" rx="0.771428571" ry="0.8"></ellipse>
            <rect id="Rectangle-path" x="4.30714286" y="0.666666667" width="14.5928571" height="0.4"></rect>
        </g>
    </g>
</svg>