<?xml version="1.0" encoding="UTF-8" standalone="no"?>
<svg width="79px" height="79px" viewBox="0 0 79 79" version="1.1" xmlns="http://www.w3.org/2000/svg" xmlns:xlink="http://www.w3.org/1999/xlink">
    <!-- Generator: Sketch 41.2 (35397) - http://www.bohemiancoding.com/sketch -->
    <title>Tass</title>
    <desc>Created with Sketch.</desc>
    <defs></defs>
    <g id="Page-1" stroke="none" stroke-width="1" fill="none" fill-rule="evenodd">
        <g id="Tass">
            <polygon id="Fill-1" fill="#FFFFFF" points="0 79 79 79 79 0 0 0"></polygon>
            <polyline id="Fill-35" fill="#1A1918" points="4.9375 50.0760839 22.8120845 50.0760839 20.3686479 54.333986 15.6776056 54.333986 15.6776056 68.3714685 11.2024225 68.3714685 11.2024225 54.333986 4.9375 54.333986 4.9375 50.0760839"></polyline>
            <path d="M47.5758028,54.333986 C47.0684225,54.333986 46.7051338,54.6506294 46.7051338,55.1848951 L46.7051338,63.2872727 C46.7051338,63.8226573 47.0684225,64.1141259 47.5758028,64.1141259 L56.8399437,64.1141259 L56.8399437,68.3714685 L47.5758028,68.3714685 C44.3351338,68.3714685 42.2316197,66.4016783 42.2316197,63.2872727 L42.2316197,55.1848951 C42.2316197,52.0956643 44.3351338,50.0760839 47.5758028,50.0760839 L57.9526197,50.0760839 L55.5086268,54.333986 L47.5758028,54.333986" id="Fill-36" fill="#1A1918"></path>
            <path d="M35.0114648,64.2461538 L28.5468169,64.2461538 C27.6238521,64.2461538 26.9506831,63.5681119 26.9506831,62.6388811 C26.9506831,61.685035 27.6238521,61.0064336 28.5468169,61.0064336 L35.0114648,61.0064336 L35.0114648,64.2461538 Z M34.164162,50.0760839 L25.7962817,50.0760839 L23.3522887,54.333986 L34.164162,54.333986 C34.6965775,54.333986 35.0114648,54.6506294 35.0114648,55.1854545 L35.0114648,57.1317483 L27.9965986,57.1317483 C24.7798521,57.1317483 22.4092958,59.5160839 22.4092958,62.7513287 C22.4092958,65.9876923 24.7798521,68.3714685 27.9965986,68.3714685 L39.4860915,68.3714685 L39.4860915,55.1854545 C39.4860915,52.0956643 37.3809085,50.0760839 34.164162,50.0760839 L34.164162,50.0760839 Z" id="Fill-37" fill="#1A1918"></path>
            <path d="M64.1808239,54.333986 C63.6734437,54.333986 63.3095986,54.6506294 63.3095986,55.1848951 L63.3095986,63.2872727 C63.3095986,63.8226573 63.6734437,64.1141259 64.1808239,64.1141259 L73.4444085,64.1141259 L73.4444085,68.3714685 L64.1808239,68.3714685 C60.9395986,68.3714685 58.8360845,66.4016783 58.8360845,63.2872727 L58.8360845,55.1848951 C58.8360845,52.0956643 60.9395986,50.0760839 64.1808239,50.0760839 L74.5581972,50.0760839 L72.1142042,54.333986 L64.1808239,54.333986" id="Fill-38" fill="#1A1918"></path>
        </g>
    </g>
</svg>