<?xml version="1.0" encoding="UTF-8" standalone="no"?>
<svg width="32px" height="45px" viewBox="0 0 32 45" version="1.1" xmlns="http://www.w3.org/2000/svg" xmlns:xlink="http://www.w3.org/1999/xlink">
    <!-- Generator: Sketch 41.2 (35397) - http://www.bohemiancoding.com/sketch -->
    <title>Kvartira</title>
    <desc>Created with Sketch.</desc>
    <defs></defs>
    <g id="Web-design-v2" stroke="none" stroke-width="1" fill="none" fill-rule="evenodd">
        <g id="04-Map" transform="translate(-703.000000, -452.000000)">
            <g id="Kvartira" transform="translate(703.000000, 452.000000)">
                <path d="M14.8965517,42.8139535 C14.8965517,43.9075104 14.3448276,45 16,45 C17.6551724,45 17.1034483,44.0945733 17.1034483,42.8139535 C17.1034483,34.0697674 32,24.6000061 32,15.8488372 C32,7.09576612 24.836556,0 16,0 C7.163444,0 0,7.09576612 0,15.8488372 C0,24.6019083 14.8965517,34.0697674 14.8965517,42.8139535 Z" id="Pin" fill="#D9222A"></path>
                <path d="M7,11.345602 C7,13.7430268 8.92352645,15.691204 11.2906161,15.691204 C11.9295742,15.691204 12.5451169,15.5560973 13.1088617,15.2869619 L11.0023577,12.6818465 C10.790909,13.1974797 10.492628,13.6819414 10.1708429,13.4566438 C9.60993633,13.0642595 10.8146793,11.8316806 11.0467051,11.6038677 L17.3099976,18.4872115 C17.6177209,18.5116457 17.6123105,18.5283543 17.3099976,18.5545852 L17.3099976,22.9400024 C16.130396,22.8196981 14.354955,23.4980162 14.354955,24.6406737 C14.354955,24.8393812 14.5138963,25 14.7097346,25 L21.2244457,25 C21.4317257,25 21.5903122,24.8393812 21.5903122,24.6406737 C21.5903122,24.6051004 21.5777175,24.5723119 21.5681385,24.5396132 C21.4084876,23.4587598 19.7587273,22.8114336 18.6099854,22.9400024 L18.6099854,18.5545852 C18.3218698,18.5283543 18.3164594,18.512005 18.6099854,18.4872115 L24.9207358,11.5701809 C25.0083664,11.4627424 25.0236219,11.3138016 24.9650833,11.1883968 C24.9065446,11.0626326 24.7808639,10.9862757 24.6435642,10.9862757 L15.5590585,10.9862757 C15.3774114,8.73617467 13.5420476,7 11.2906161,7 C8.92352645,7 7,8.94817717 7,11.345602 Z M12.057792,9.20087336 C12.6692572,9.13438072 12.5328032,10.4067176 12.4458322,10.9862757 L12.3127899,10.9862757 C12.2262236,10.9808858 12.1412539,11.0048709 12.0688789,11.0648784 C12.0605848,11.0717997 12.0542187,11.0798396 12.0467051,11.0873362 C11.8462546,10.5627199 11.4301868,9.26914535 12.057792,9.20087336 L12.057792,9.20087336 Z M14.00908,10.3462258 C14.15694,10.3458272 14.2786238,10.403718 14.3527727,10.5483468 C14.4418224,10.7219014 14.3730838,10.8633862 14.2308172,10.9862757 L13.2440864,10.9862757 L12.9558279,10.9862757 L12.7673513,10.9862757 C13.1141182,10.7112467 13.6328064,10.3472402 14.00908,10.3462258 L14.00908,10.3462258 Z M10.4945443,10.716781 C10.9486779,10.7020893 11.6488418,11.0406465 11.9690971,11.2108546 C11.9218479,11.3290133 11.927832,11.4646964 12.0134445,11.5701809 C11.6529884,11.5996457 9.9051666,11.7158877 10.0843303,11.0087336 C10.1349973,10.8088584 10.2881198,10.7234591 10.4945443,10.716781 L10.4945443,10.716781 Z M13.5,12 L22.5,12 L21.6993243,13 L14.3006757,13 L13.5,12 L13.5,12 Z" id="Shape" fill="#FFFFFF"></path>
            </g>
        </g>
    </g>
</svg>