<?xml version="1.0" encoding="UTF-8" standalone="no"?>
<svg width="32px" height="45px" viewBox="0 0 32 45" version="1.1" xmlns="http://www.w3.org/2000/svg" xmlns:xlink="http://www.w3.org/1999/xlink">
    <!-- Generator: Sketch 41.2 (35397) - http://www.bohemiancoding.com/sketch -->
    <title>Theater</title>
    <desc>Created with Sketch.</desc>
    <defs></defs>
    <g id="Page-1" stroke="none" stroke-width="1" fill="none" fill-rule="evenodd">
        <g id="Theater">
            <path d="M14.8965517,42.8139535 C14.8965517,43.9075104 14.3448276,45 16,45 C17.6551724,45 17.1034483,44.0945733 17.1034483,42.8139535 C17.1034483,34.0697674 32,24.6000061 32,15.8488372 C32,7.09576612 24.836556,0 16,0 C7.163444,0 0,7.09576612 0,15.8488372 C0,24.6019083 14.8965517,34.0697674 14.8965517,42.8139535 Z" id="Pin" fill="#85030C"></path>
            <path d="M16,24.2999878 C20.9705627,24.2999878 25,20.2705505 25,15.2999878 C25,10.329425 20.9705627,6.29998779 16,6.29998779 C11.0294373,6.29998779 7,10.329425 7,15.2999878 C7,20.2705505 11.0294373,24.2999878 16,24.2999878 Z M16.001917,8 C17.1080319,8 18.3716617,8.20484055 18.3716617,9.83315734 C18.3716617,11.1369461 16.667552,12.3167899 16.001917,12.3167899 C15.336282,12.3167899 13.6321723,11.1369461 13.6321723,9.83315734 C13.6321723,8.20484055 14.895334,8 16.001917,8 Z M11.0283788,11.3706441 C11.2380865,11.3706441 11.4573903,11.4094361 11.7012692,11.4889124 C12.1918356,11.6507033 12.6112512,12.0796621 12.9300257,12.7159451 C13.2141611,13.2826864 13.4366245,14.1171869 13.2957271,14.5491024 C13.1253395,15.0860401 11.8601884,16.1457233 10.7358177,16.1457233 C10.5570044,16.1457233 10.397149,16.1238437 10.2384639,16.0718057 C9.60653196,15.8650729 9.21379798,15.4862598 9.06821959,14.9630412 C8.9437056,14.5159873 8.98524927,13.9807054 9.22912818,13.218585 C9.50390154,12.3618501 9.96673315,11.3706441 11.0283788,11.3706441 Z M20.9754552,11.3706441 C22.0375689,11.3706441 22.4862406,12.3618501 22.7600778,13.218585 C23.0044248,13.9807054 23.0605965,14.5159873 22.9356144,14.9630412 C22.790036,15.4862598 22.397302,15.8650729 21.7653701,16.0718057 C21.606685,16.1238437 21.4322016,16.1457233 21.2533882,16.1457233 C20.1290175,16.1457233 18.8648026,15.0893516 18.6934789,14.5491024 C18.5535176,14.1233369 18.7759811,13.2822133 19.0591802,12.7159451 C19.3784228,12.0777698 19.8119984,11.6507033 20.3025648,11.4889124 C20.547848,11.408963 20.7652794,11.3706441 20.9754552,11.3706441 Z M16.001917,14.3864836 C16.5201012,14.3864836 16.9381124,14.8103569 16.9381124,15.3326294 C16.9381124,15.8549018 16.5201012,16.2787751 16.001917,16.2787751 C15.4842009,16.2787751 15.0657216,15.8549018 15.0657216,15.3326294 C15.0657216,14.8103569 15.4842009,14.3864836 16.001917,14.3864836 Z M18.9275277,17.4762408 C19.4017107,17.4762408 20.562359,17.5560718 21.1217358,18.3484688 C22.0546545,19.6792228 21.1305126,20.5988765 20.2294245,21.2460401 C19.5614491,21.7252629 19.0624569,21.9408659 18.5910825,21.9408659 C18.0733664,21.9408659 17.6179073,21.6733432 17.2453016,21.1425554 C16.9096755,20.6666441 16.8302159,19.9557339 17.0258808,19.1467793 C17.1569481,18.6055839 17.4366365,17.9588933 17.7572834,17.7275607 C18.0681003,17.5028511 18.6808402,17.4762408 18.9275277,17.4762408 Z M13.1933307,17.5501584 C13.510701,17.5501584 13.932457,17.5877677 14.1880384,17.7571278 C14.5681337,18.0059641 14.9200262,18.8032101 15.0510935,19.4276663 C15.1952676,20.1192988 15.1248189,20.7106399 14.8463008,21.1425554 C14.4774398,21.7107159 14.0156614,22 13.4712637,22 C13.0153366,22 12.5203232,21.8119535 11.8621778,21.3790919 C10.9367486,20.7678817 9.98931887,19.888321 10.8674702,18.5258712 C11.4497837,17.6208828 12.7945115,17.5501584 13.1933307,17.5501584 Z" id="Combined-Shape" fill="#FFFFFF"></path>
            <path d="M7.8999939,15 C7.8999939,15 9.84823608,22.7543116 9.84823608,26" id="Path-437" stroke="#FFFFFF" stroke-width="1.5"></path>
        </g>
    </g>
</svg>