<?xml version="1.0" encoding="UTF-8" standalone="no"?>
<svg width="32px" height="45px" viewBox="0 0 32 45" version="1.1" xmlns="http://www.w3.org/2000/svg" xmlns:xlink="http://www.w3.org/1999/xlink">
    <!-- Generator: Sketch 41.2 (35397) - http://www.bohemiancoding.com/sketch -->
    <title>Restorant</title>
    <desc>Created with Sketch.</desc>
    <defs></defs>
    <g id="Web-design-v2" stroke="none" stroke-width="1" fill="none" fill-rule="evenodd">
        <g id="04-Map" transform="translate(-649.000000, -330.000000)">
            <g id="Restorant" transform="translate(649.000000, 330.000000)">
                <path d="M14.8965517,42.8139535 C14.8965517,43.9075104 14.3448276,45 16,45 C17.6551724,45 17.1034483,44.0945733 17.1034483,42.8139535 C17.1034483,34.0697674 32,24.6000061 32,15.8488372 C32,7.09576612 24.836556,0 16,0 C7.163444,0 0,7.09576612 0,15.8488372 C0,24.6019083 14.8965517,34.0697674 14.8965517,42.8139535 Z" id="Pin" fill="#0FC885"></path>
                <path d="M12.9613245,7.00430233 L12.9613245,11.3232698 C12.9613245,11.5219423 12.7973993,11.6831837 12.5954201,11.6831837 C12.3934409,11.6831837 12.2295157,11.5219423 12.2295157,11.3232698 L12.2295157,7.06053888 C11.3334159,7.16383419 10.9888255,7.37699323 10.9145469,7.43170015 L10.7887673,7.53292595 L10.7658983,7.67914099 C10.7508962,7.7979126 10.3999939,10.6034419 10.3999939,12.4030116 C10.4003598,13.8160338 11.2265719,14.4205993 11.7721353,14.8211835 C12.0183889,15.0018603 12.2295157,15.1585129 12.2295157,15.2823233 C12.2295157,15.5770928 12.1703307,16.2613792 12.1037361,17.0481511 C11.9954284,18.3229663 11.8625136,19.9046982 11.8636114,21.0409465 C11.8636114,23.9997991 12.2339066,24.9985603 13.3272288,25 L13.3386633,25 C13.6976155,25 14.1402683,24.9165899 14.4249419,24.2464302 C14.6744887,23.6604902 14.7915781,22.6396843 14.7908463,21.0409465 C14.7908463,19.9068576 14.6579315,18.3204469 14.5507215,17.0481511 C14.483761,16.2577801 14.4249419,15.5785324 14.4249419,15.2823233 C14.4249419,15.1613922 14.6393619,15.0084287 14.8823224,14.8324308 C15.4304471,14.4358056 16.2544638,13.8379886 16.2544638,12.4030116 C16.2544638,11.2160154 15.9035615,7.83399397 15.8885594,7.6903883 L15.8656904,7.51043133 L15.7170417,7.42045284 C15.6650833,7.38986015 15.2862808,7.1801203 14.4249419,7.0717862 L14.4249419,11.3232698 C14.4249419,11.5219423 14.2610168,11.6831837 14.0590376,11.6831837 C13.8570583,11.6831837 13.6931332,11.5219423 13.6931332,11.3232698 L13.6931332,7.01554964 C13.5577486,7.01051085 13.4215407,7.00430233 13.2700563,7.00430233 C13.163944,7.00430233 13.058655,7.00142302 12.9613245,7.00430233 L12.9613245,7.00430233 Z M20.6110126,7.00430233 C20.5813974,7.00892497 20.5590542,7.0261671 20.530971,7.03804426 C17.5865386,8.27902757 17.3529087,11.1981997 17.3521768,12.0655923 C17.3532746,13.2763428 17.9487839,14.3294511 18.472759,15.2598286 C18.8525677,15.9343074 19.2049336,16.5772937 19.2045677,17.081893 C19.2045677,17.3349125 19.1068712,17.6368803 18.9758775,18.0266672 C18.7658484,18.6511179 18.4731249,19.512392 18.472759,20.6810326 C18.4720272,24.2362626 19.4676529,24.9880329 20.3022808,24.9887527 C21.2960771,24.987313 21.3999939,24.1102927 21.3999939,22.1206884 C21.3999939,21.2824488 21.2758608,19.4485972 21.1598692,17.8354629 C21.0797361,16.7132512 20.9994201,15.6610427 20.999786,15.3385598 C21.0001519,14.8188441 21.0234783,13.3261909 21.0340895,12.3130331 C21.0395781,11.7954769 21.0340895,11.397772 21.0340895,11.3232698 L21.0340895,7.36421628 C21.0340895,7.24328519 20.9764596,7.12712297 20.8740064,7.06053888 C20.796892,7.01033089 20.6998586,6.9904344 20.6110126,7.00430233 L20.6110126,7.00430233 Z" id="Shape" fill="#FFFFFF"></path>
            </g>
        </g>
    </g>
</svg>