<?xml version="1.0" encoding="UTF-8" standalone="no"?>
<svg width="150px" height="193px" viewBox="0 0 150 193" version="1.1" xmlns="http://www.w3.org/2000/svg" xmlns:xlink="http://www.w3.org/1999/xlink">
    <!-- Generator: Sketch 41.2 (35397) - http://www.bohemiancoding.com/sketch -->
    <title>Group</title>
    <desc>Created with Sketch.</desc>
    <defs></defs>
    <g id="Page-1" stroke="none" stroke-width="1" fill="none" fill-rule="evenodd">
        <g id="Group">
            <g id="ko-logo-ru">
                <path d="M107.206418,59.2328182 C96.9359579,57.9144034 86.1168229,57.1783115 74.2934379,57.1783115 C62.5316633,57.1783115 51.6830922,57.9144034 41.4129747,59.2328182 C42.1663335,44.6809529 35.5360237,31.3764791 24.94074,21.3842465 C25.2152487,21.107738 26.1003853,21.8448642 27.5947807,22.3671964 C31.9605647,23.9086798 38.7561958,21.4763011 42.3884733,21.4763011 C48.9157568,21.4763011 54.1245769,26.5151693 54.1245769,32.5990467 C54.1245769,36.6542755 51.0200955,39.7882688 47.7263331,39.7882688 C46.5057619,39.7882688 45.3163382,39.3583359 44.3404973,38.4053813 L46.8720017,33.9505598 L41.7477248,30.9703356 C41.0159297,32.2915086 40.313913,33.9808999 40.313913,35.6402959 C40.313913,37.913734 41.5646049,40.5257398 43.0901477,42.2768456 C47.8173796,47.6846218 55.9311318,44.1203508 59.8967903,48.2372941 C61.4213063,42.2151311 71.7006653,41.5086897 71.7006653,32.6600717 C71.7006653,28.7272376 70.4807787,26.0545516 67.1254059,24.0572773 L64.1667358,29.1885449 L68.5284124,31.7074618 C67.8575432,34.2884381 65.6005476,35.5478965 63.160432,35.5478965 C58.3099792,35.5478965 55.9684404,31.4619829 55.9684404,26.760993 C55.9684404,23.3508359 56.9987038,20.2168426 59.2868469,18.0044295 C55.870206,13.15036 59.7136703,6.26798661 66.789629,6.54449515 C67.3085258,2.08932887 70.8162133,0 74.2934379,0 C77.8014677,0 81.3704233,2.08932887 81.8277097,6.54449515 C88.9040106,6.26798661 92.7775957,13.15036 89.3311763,18.0044295 C91.5885142,20.2168426 92.6488983,23.3198063 92.6488983,26.6996233 C92.6488983,31.5847224 90.5206,35.5478965 85.4575913,35.5478965 C83.0171334,35.5478965 80.7601377,34.2884381 80.0889263,31.7074618 L84.4509452,29.1885449 L81.4919328,24.0572773 C78.289217,25.962497 76.9166733,28.5427837 76.9166733,32.6600717 C76.9166733,41.5086897 87.1960324,42.2151311 88.721233,48.2372941 C93.2656872,43.5366489 103.301001,48.8827105 107.357705,39.3583359 C107.846139,38.2523018 108.303768,36.9921537 108.303768,35.6402959 C108.303768,33.9808999 107.602094,32.2915086 106.869956,30.9703356 L101.745337,33.9505598 L104.277184,38.4053813 C103.301001,39.3583359 102.111577,39.7882688 100.89169,39.7882688 C97.5975855,39.7882688 94.4927618,36.6542755 94.4927618,32.5990467 C94.4927618,26.5458542 99.7015819,21.4763011 106.260013,21.4763011 C109.826915,21.4763011 116.670465,23.9041978 121.0229,22.3671964 C122.517296,21.8448642 123.40209,21.107738 123.676599,21.3842465 C113.104932,31.3547583 106.452374,44.6502681 107.206418,59.2328182 Z M107.803012,64.500961 C96.9407498,63.0642888 85.4100143,62.4012889 74.2934379,62.4012889 C63.4479474,62.4012889 51.890514,63.0342935 40.8215145,64.4702761 C40.8903129,64.0768893 40.9546615,63.6814338 41.0131915,63.2842544 C51.1032696,61.977562 62.6374278,61.2645699 74.2934379,61.2645699 C85.98128,61.2645699 97.4596466,61.9779067 107.606543,63.284944 C107.6661,63.6921218 107.73216,64.0975757 107.803012,64.500961 Z M100.403599,19.8479347 L97.5058544,14.7476968 L92.4120404,17.666896 L95.3703682,22.7978188 L100.403599,19.8479347 Z M56.2056405,17.666896 L51.1121688,14.7476968 L48.1839617,19.8789643 L53.2774334,22.7978188 L56.2056405,17.666896 Z M136.18249,133.651196 C130.570122,139.51959 125.171336,140.072607 119.833477,140.072607 C113.305851,140.072607 107.235854,138.044648 102.202966,134.603461 L108.059722,128.612328 C110.927003,125.724503 112.421057,122.43674 112.879027,117.79781 C113.916136,116.291838 119.467237,113.710862 126.666074,113.710862 C130.99763,113.710862 135.907982,114.694156 140.726945,117.428902 C140.757408,117.920549 140.757408,118.381167 140.757408,118.873159 C140.757408,125.017717 139.141161,130.547887 136.18249,133.651196 Z M97.688632,130.88611 L104.155332,124.341615 C106.412328,122.068177 107.602094,119.395146 107.602094,113.89566 L107.602094,92.1428509 C107.602094,89.3774207 108.456083,88.2100168 109.462386,87.1346675 C110.286255,86.3047971 110.927003,85.936234 111.872381,85.8134945 L111.872381,114.448678 C111.872381,120.593235 110.499838,124.40333 107.205391,127.783147 L101.226782,133.927704 C99.9456277,133.005779 98.8174721,132.176599 97.688632,130.88611 Z M113.061805,107.842813 C113.885331,106.675754 119.467237,104.063403 126.666074,104.063403 C130.356539,104.063403 134.474512,104.739849 138.622606,106.675754 C139.720983,109.717348 140.361047,112.881681 140.63624,116.015329 C135.816251,113.434353 130.936362,112.482088 126.574343,112.482088 C120.352031,112.482088 115.258217,114.417648 113.061805,116.015329 L113.061805,107.842813 Z M113.061805,85.6900655 L113.793942,85.6900655 C118.24735,85.6900655 126.696195,90.2990009 131.637694,95.2761546 C134.383123,98.0419296 136.54873,101.482772 137.9822,105.108067 C134.047689,103.449016 130.08203,102.8036 126.482954,102.8036 C120.290763,102.8036 115.258217,104.678135 113.061805,106.306501 L113.061805,85.6900655 Z M140.818676,84.3078676 C134.809947,78.2857047 126.086594,74.3528706 119.924865,74.9676022 L100.403599,94.5697132 C98.8174721,96.1673947 97.2008827,99.3627578 97.2008827,103.326277 L97.2008827,126.953276 C97.2008827,127.936226 96.9260317,129.165689 96.7432541,129.902816 C91.4967832,124.218876 88.3245302,116.660401 88.3245302,108.30343 C88.3245302,98.3798078 92.2898464,92.5727837 95.0958595,88.732349 L95.8584598,87.6876846 C95.8889227,87.6263149 95.9501909,87.5335707 95.9501909,87.4728905 C95.9501909,87.3494615 95.767071,87.4415161 95.7369503,87.4728905 C94.9435448,88.0252181 93.9067781,89.0702273 93.1133726,89.8073535 C87.7758551,94.8772514 77.9537824,104.125117 77.9537824,117.428902 C77.9537824,135.340932 90.6735993,149.136364 108.456083,149.136364 C117.667527,149.136364 124.835902,147.262174 137.128211,134.849629 C145.363815,126.553684 150,116.230123 150,106.245131 C150,98.3184381 147.102598,90.6368792 140.818676,84.3078676 Z M94.8213508,79.0235205 L99.0615179,74.783493 L94.8213508,70.5434656 L90.5818682,74.783493 L94.8213508,79.0235205 Z M111.231633,74.783493 L107.053076,70.5434656 L102.843714,74.783493 L107.053076,79.0235205 L111.231633,74.783493 Z M8.74438305,147.630737 C6.66982274,147.630737 4.47409524,146.340593 4.47409524,143.944071 C4.47409524,142.070226 5.66351894,140.441515 7.52415413,140.441515 C9.75102913,140.441515 12.3438017,142.960776 15.027963,145.019076 C13.3501055,146.555732 11.5195909,147.630737 8.74438305,147.630737 Z M75.5136668,74.7221233 C70.8771392,78.8694066 66.8204342,78.3474192 63.7091072,76.5959686 C61.4825744,75.3668502 59.9881791,74.2611608 58.6457561,74.2611608 C57.5172583,74.2611608 56.5109545,75.1210265 55.2599203,77.3027547 L37.5992887,107.904527 L37.5992887,74.5373246 C35.0677843,76.718708 32.8409093,77.4254942 30.7974965,77.4254942 C27.3811978,77.4254942 24.5139166,75.4592496 21.6161724,75.4592496 C20.0909718,75.4592496 18.5661135,75.9815818 16.9491818,77.6102929 L6.97513668,87.6569997 C4.90091865,89.7463286 3.52837504,91.6818884 3.52837504,95.307529 C3.52837504,99.8854348 7.12710909,102.74292 10.4523613,102.74292 C13.5944935,102.74292 15.6683693,100.530162 16.9190611,99.2089887 C17.7117821,98.4101479 18.3829936,97.427198 18.3829936,96.2901342 C18.3829936,94.4780034 16.979987,92.6034686 15.3021295,91.4057246 L11.0927675,95.7681468 C12.7096992,97.02795 13.5027624,98.3798078 13.5027624,99.4854972 C13.5027624,100.714271 12.4961164,101.574826 10.4523613,101.574826 C7.61588522,101.574826 4.71814102,99.1786486 4.71814102,95.307529 C4.71814102,91.3743502 6.94467374,87.6876846 11.1235727,87.6876846 C14.2653627,87.6876846 17.6207356,89.715299 21.0065713,89.715299 C22.8668642,89.715299 24.7274994,89.1005674 26.5576717,87.2267221 L36.409865,77.2410402 L36.409865,125.447994 C36.409865,130.486518 35.0065162,133.344347 32.2922342,136.385941 C31.8951891,136.723475 31.4379028,136.877244 30.9498112,136.877244 C29.7607298,136.877244 28.357381,136.017378 26.7709122,134.879969 C31.4074398,129.749047 32.35316,126.646428 32.35316,122.283316 L32.35316,91.2209259 C32.35316,88.5172102 32.9326404,86.7657596 33.420732,85.7824649 C33.5121208,85.5676709 33.9389442,84.8912248 34.0306753,84.799515 C34.1220641,84.6764307 34.18299,84.615061 34.1525271,84.5536913 C34.0611383,84.4612919 33.7561666,84.6764307 33.6952407,84.7378005 C33.5121208,84.8608847 33.268075,85.0760235 32.9935663,85.352532 L26.0391171,92.2345607 C22.0734587,96.1673947 22.0734587,99.5165269 22.0734587,107.904527 L22.0734587,131.531182 C20.7320626,130.640632 19.1760568,129.810761 17.5290045,129.810761 C15.8511469,129.810761 14.3266309,130.701656 12.4961164,132.545162 L4.83999277,140.257405 C3.8333467,141.27104 3.28467153,142.25399 3.28467153,143.944071 C3.28467153,147.108404 6.09102692,148.82917 8.74438305,148.82917 C11.9779041,148.82917 14.1123635,147.476968 16.0038039,145.756547 C17.5899303,146.89361 19.1760568,147.723136 20.8231091,147.723136 C22.0433381,147.723136 23.233104,147.262174 24.4529907,146.033055 L32.8713723,137.553345 C32.8713723,137.553345 37.5992887,133.497772 37.5992887,125.447994 L37.5992887,109.501864 L39.6430438,110.577213 C47.1773156,114.540732 51.3257517,116.844855 51.3257517,139.734728 L54.3453476,142.776667 C57.5477212,146.033055 60.2626878,147.446628 62.1839066,147.446628 C63.038238,147.446628 63.7395701,147.170119 64.8988731,146.00237 L72.7990425,138.044648 C73.4699117,137.369236 73.8970774,136.877244 74.1411232,136.539365 C74.2321697,136.416281 74.5374837,135.955319 74.5374837,135.740525 C74.5374837,135.67881 74.5066784,135.648125 74.4765578,135.648125 C74.4156319,135.648125 74.385169,135.67881 74.354706,135.70984 C74.2020491,135.863264 74.0189292,136.017378 73.8361515,136.140117 C73.4093281,136.416281 72.7073114,136.723475 71.7619335,136.723475 C70.4195105,136.723475 68.5284124,136.078403 66.2108332,133.743595 L61.8789349,129.380484 C61.8789349,104.678135 56.8155839,103.233877 45.3163382,96.9355506 L49.9528658,88.9778279 C50.5624668,87.9335083 51.1121688,87.5646004 51.7525751,87.5646004 C53.3387016,87.5646004 55.1688738,89.9921523 58.2189327,89.9921523 C60.0799102,89.9921523 62.3365635,89.0702273 65.2952336,86.0900031 L74.2321697,77.0262462 C75.7573703,75.4899344 76.3676559,74.5990391 76.7034328,73.9846523 C76.8249423,73.7691687 76.6421646,73.6464292 76.4895077,73.8001983 C76.1848783,74.0767069 75.8491014,74.44527 75.5136668,74.7221233 L75.5136668,74.7221233 Z" id="Fill-1" fill="#D9222A"></path>
                <path d="M2.80502446,175.84329 L2.80502446,164.644268 C2.80502446,163.899473 2.68767665,163.097464 2.36445548,162.295455 L0,162.295455 L0,163.827871 L1.07191393,163.827871 L1.07191393,175.84329 L2.80502446,175.84329 Z M8.91465939,164.142719 L8.91465939,162.295455 L7.19630312,162.295455 L7.19630312,163.856311 L3.28985621,168.754357 L8.60619248,175.84329 L10.5448332,175.84329 L10.5448332,174.310873 L9.69286067,174.310873 L5.36059904,168.611153 L8.91465939,164.142719 Z M60.5518143,166.319889 L58.8629665,166.319889 L58.8629665,172.764069 C58.2463758,173.322832 56.4103286,174.354035 55.9697596,174.354035 C55.676047,174.354035 54.6332984,174.067292 54.6332984,172.778456 L54.6332984,166.319889 L52.9444507,166.319889 L52.9444507,172.864446 C52.9444507,174.597281 53.8695083,176.000881 55.7347209,176.000881 C56.4545914,176.000881 57.9379089,174.984066 58.9659032,174.210496 C59.0393313,174.712045 59.0980053,175.270474 59.333044,175.84329 L61.6240713,175.84329 L61.6240713,174.310873 L60.6842595,174.310873 C60.6842595,174.310873 60.5518143,173.952863 60.5518143,173.236843 L60.5518143,166.319889 Z M39.4329824,166.319889 L37.7441346,166.319889 L37.7441346,172.764069 C37.1272008,173.322832 35.2914967,174.354035 34.8505846,174.354035 C34.556872,174.354035 33.5144666,174.067292 33.5144666,172.778456 L33.5144666,166.319889 L31.8252757,166.319889 L31.8252757,172.864446 C31.8252757,174.597281 32.7506764,176.000881 34.615889,176.000881 C35.3354164,176.000881 36.8187339,174.984066 37.8467282,174.210496 C37.9201564,174.712045 37.9791734,175.270474 38.213869,175.84329 L40.5048963,175.84329 L40.5048963,174.310873 L39.5650845,174.310873 C39.5650845,174.310873 39.4329824,173.952863 39.4329824,173.236843 L39.4329824,166.319889 Z M76.5601832,191.395981 C76.1926993,191.395981 75.2676417,191.181175 75.2676417,189.978329 C75.2676417,188.961513 75.9580037,188.388363 77.1036889,188.388363 C77.7202796,188.388363 78.4398069,188.546288 78.9390498,188.775482 L78.9390498,190.064318 C78.3224591,190.622747 76.8686501,191.395981 76.5601832,191.395981 Z M95.3293139,174.511626 C94.962173,174.511626 94.0367723,174.296486 94.0367723,173.093639 C94.0367723,172.076824 94.7271343,171.504008 95.8728195,171.504008 C96.4897533,171.504008 97.2092807,171.661599 97.7085236,171.890458 L97.7085236,173.194016 C97.0919329,173.752444 95.6377808,174.511626 95.3293139,174.511626 Z M134.688868,174.511626 C134.321727,174.511626 133.396327,174.296486 133.396327,173.093639 C133.396327,172.076824 134.086689,171.504008 135.232374,171.504008 C135.848964,171.504008 136.568835,171.661599 137.068078,171.890458 L137.068078,173.194016 C136.451144,173.752444 135.012089,174.511626 134.688868,174.511626 Z M14.4217716,174.511626 C14.0549739,174.511626 13.1295732,174.296486 13.1295732,173.093639 C13.1295732,172.105264 13.7756724,171.504008 14.8626837,171.504008 C15.5822111,171.504008 16.2430646,171.647212 16.8009814,171.890458 L16.8009814,173.194016 C16.1843907,173.752444 14.7305817,174.511626 14.4217716,174.511626 Z M145.571334,167.723154 C146.246941,167.723154 147.216262,167.837584 147.216262,167.837584 L147.216262,170.959632 C146.849121,171.016846 146.144005,171.117223 145.380558,171.117223 C144.293889,171.117223 143.427163,170.444365 143.427163,169.527592 C143.427163,168.253143 144.264381,167.723154 145.571334,167.723154 Z M105.418824,187.844321 C106.446818,187.844321 107.401384,188.37431 107.401384,189.634371 C107.401384,190.52237 106.696611,191.166788 105.653863,191.166788 L103.494937,191.166788 L103.494937,188.259546 C103.994523,188.159169 104.846153,187.844321 105.418824,187.844321 Z M124.173543,168.682755 C124.173543,167.923573 124.055852,167.121563 123.732631,166.319889 L121.412439,166.319889 L121.412439,167.851971 L122.484696,167.851971 L122.484696,175.84329 L124.173543,175.84329 L124.173543,168.682755 Z M105.947575,167.851971 L108.444133,167.851971 L108.444133,174.32526 L104.699296,174.32526 C105.31623,172.463608 105.77121,169.45599 105.947575,167.851971 Z M129.328269,168.138379 L129.328269,166.319889 L127.610256,166.319889 L127.610256,167.866358 L124.481667,171.045621 L128.505805,175.84329 L130.341852,175.84329 L130.341852,174.310873 L129.445617,174.310873 L126.567164,170.931192 L129.328269,168.138379 Z M78.630926,168.825959 L80.2168371,168.825959 C80.2168371,168.825959 80.1286547,167.293542 79.9087133,166.319889 L74.4156691,166.319889 L74.4156691,175.84329 L76.10486,175.84329 L76.10486,167.851971 L78.4398069,167.851971 L78.630926,168.825959 Z M84.2118096,173.852486 L84.2118096,168.65398 C84.2852377,168.596766 84.0646101,169.01199 84.1383814,168.954776 C84.8870742,168.367572 86.0327594,167.708767 86.4438199,167.708767 C88.3680495,167.708767 88.7499446,169.599194 88.7499446,171.117223 C88.7499446,172.936048 87.9714002,174.511626 86.2386328,174.540066 C85.5774362,174.540066 84.6523786,174.296486 84.2118096,173.852486 Z M60.1112453,188.001912 C60.0968341,189.791963 59.4208833,191.395981 57.5707681,191.395981 C55.7933948,191.395981 54.985685,189.791963 54.9712739,188.001912 C54.9712739,186.340679 55.7199666,184.622231 57.629442,184.622231 C59.5824939,184.622231 60.1112453,186.569872 60.1112453,188.001912 Z M91.7604993,183.218631 C91.7604993,183.218631 91.5402148,184.421478 91.4520323,185.56711 L92.9061845,185.56711 L93.1261258,184.751048 L94.7710539,184.751048 L94.7710539,192.727979 L96.4897533,192.727979 L96.4897533,184.751048 L98.1343383,184.751048 L98.3546228,185.56711 L99.8087749,185.56711 C99.7205925,184.421478 99.500308,183.218631 99.500308,183.218631 L91.7604993,183.218631 Z M49.625086,187.915923 C49.625086,189.734748 48.9055586,191.381594 47.0551002,191.381594 C45.2193962,191.381594 44.4995257,189.734748 44.4995257,187.915923 C44.4995257,186.111486 45.2193962,184.46464 47.0551002,184.46464 C48.9055586,184.46464 49.625086,186.111486 49.625086,187.915923 Z M120.443118,174.296486 L119.899613,173.050477 C119.238759,173.451649 117.564322,174.468464 116.830041,174.468464 C114.920909,174.468464 114.524602,172.64964 114.524602,171.102836 C114.524602,169.169582 115.317558,167.651552 117.06508,167.637165 C117.461729,167.637165 117.814115,167.69438 118.166845,167.794756 L118.166845,168.65398 L119.826184,168.65398 L119.826184,166.706339 C118.901127,166.276727 117.99048,166.105083 117.06508,166.105083 C114.113199,166.105083 112.761983,168.425121 112.761983,171.102836 C112.761983,173.594853 113.687384,176.043709 116.654019,176.043709 C117.858378,176.043709 119.664574,175.012506 120.443118,174.296486 Z M90.9675437,191.166788 L90.4240381,189.921114 C89.7631846,190.321951 88.088748,191.338767 87.3544663,191.338767 C85.4453341,191.338767 85.0490279,189.519942 85.0490279,187.973472 C85.0490279,186.039884 85.8419834,184.521854 87.5895051,184.507467 C87.9861544,184.507467 88.338541,184.565016 88.6909275,184.665058 L88.6909275,185.524282 L90.3506099,185.524282 L90.3506099,183.576641 C89.4252092,183.147029 88.5149058,182.975385 87.5895051,182.975385 C84.6376243,182.975385 83.2864088,185.295424 83.2864088,187.973472 C83.2864088,190.465155 84.2118096,192.914011 87.1784446,192.914011 C88.3828037,192.914011 90.1893424,191.882808 90.9675437,191.166788 Z M63.0044522,191.195563 L63.0044522,192.727979 C63.0044522,192.727979 63.43061,192.785194 63.8416705,192.785194 C65.3397423,192.785194 65.7508027,192.054787 66.1326978,190.737511 C66.6466949,188.961513 67.0433443,186.125873 67.2344634,184.73666 L69.5841646,184.73666 L69.5841646,192.727979 L71.2730123,192.727979 L71.2730123,183.204244 L64.3704219,183.204244 L64.3704219,184.73666 L65.6039464,184.73666 C65.3689076,186.297517 64.8109909,190.021156 64.1206289,191.195563 L63.0044522,191.195563 Z M20.6930171,174.310873 L20.6930171,175.84329 C20.6930171,175.84329 21.119175,175.900505 21.5302355,175.900505 C23.0283072,175.900505 23.4393677,175.170097 23.8212628,173.852486 C24.3352599,172.076824 24.7319092,169.241184 24.9226852,167.851971 L27.2727296,167.851971 L27.2727296,175.84329 L28.9615773,175.84329 L28.9615773,166.319889 L22.0589869,166.319889 L22.0589869,167.851971 L23.2925114,167.851971 C23.0574726,169.413162 22.4995558,173.136466 21.8091938,174.310873 L20.6930171,174.310873 Z M65.6626203,168.682755 C65.6626203,167.780369 65.5452725,166.964307 65.2220513,166.319889 L62.9018586,166.319889 L62.9018586,167.851971 L63.9737725,167.851971 L63.9737725,175.84329 L65.6626203,175.84329 L65.6626203,171.818856 L69.8192033,171.818856 L69.8192033,175.84329 L71.5080511,175.84329 L71.5080511,166.319889 L69.8192033,166.319889 L69.8192033,170.315214 L65.6626203,170.315214 L65.6626203,168.682755 Z M44.3235039,168.682755 C44.3235039,167.780369 44.205813,166.964307 43.882935,166.319889 L41.5623991,166.319889 L41.5623991,167.851971 L42.6346562,167.851971 L42.6346562,175.84329 L44.3235039,175.84329 L44.3235039,171.818856 L48.4797439,171.818856 L48.4797439,175.84329 L50.1685916,175.84329 L50.1685916,166.319889 L48.4797439,166.319889 L48.4797439,170.315214 L44.3235039,170.315214 L44.3235039,168.682755 Z M103.494937,185.581497 C103.494937,184.82265 103.377246,184.02064 103.054368,183.218631 L100.733833,183.218631 L100.733833,184.751048 L101.80609,184.751048 L101.80609,192.713592 L105.697782,192.713592 C107.621669,192.713592 109.090232,191.324379 109.090232,189.577491 C109.090232,187.457536 107.842296,186.412281 105.551269,186.412281 C105.095946,186.412281 103.979426,186.841893 103.494937,186.985097 L103.494937,185.581497 Z M80.6282407,190.608359 L80.6282407,185.624659 C80.6282407,183.648243 79.0862493,183.06104 77.2797106,183.06104 C76.2225509,183.06104 74.9447636,183.376222 74.1219564,183.605081 L74.1219564,185.45268 L75.7963931,185.45268 L75.7963931,184.7651 C76.2664706,184.665058 76.7657134,184.607844 77.2797106,184.607844 C78.1464374,184.607844 78.9390498,184.851424 78.9390498,185.796303 L78.9390498,187.357494 C78.2195225,187.142688 77.7055253,186.985097 76.8538959,186.985097 C74.783153,186.985097 73.5348743,188.188278 73.5348743,190.006769 C73.5348743,191.653949 74.4304234,193 76.2074535,193 C76.5896917,193 78.1903571,192.126389 79.1740886,191.496358 C79.2770253,191.983185 79.3943731,192.470346 79.4681444,192.727979 L81.7004978,192.727979 L81.7004978,191.195563 L80.6577492,191.195563 L80.6282407,190.608359 Z M138.756926,168.73997 C138.756926,166.763553 137.214934,166.17635 135.408395,166.17635 C134.350893,166.17635 133.073448,166.491533 132.250984,166.720726 L132.250984,168.567991 L133.925078,168.567991 L133.925078,167.880745 C134.395155,167.780369 134.894398,167.723154 135.408395,167.723154 C136.274779,167.723154 137.068078,167.966735 137.068078,168.911948 L137.068078,170.472805 C136.34855,170.257999 135.834553,170.100408 134.982581,170.100408 C132.911838,170.100408 131.663559,171.303254 131.663559,173.122414 C131.663559,174.76926 132.559108,176.115311 134.336138,176.115311 C134.718033,176.115311 136.319042,175.256086 137.303117,174.611668 C137.40571,175.098495 137.523401,175.599709 137.596829,175.84329 L139.82884,175.84329 L139.82884,174.310873 L138.786434,174.310873 C138.786434,174.310873 138.756926,173.981303 138.756926,173.72367 L138.756926,168.73997 Z M99.3973714,173.72367 L99.3973714,168.73997 C99.3973714,166.763553 97.8553799,166.17635 96.0488412,166.17635 C94.9916816,166.17635 93.7135511,166.491533 92.8914302,166.720726 L92.8914302,168.567991 L94.5655237,168.567991 L94.5655237,167.880745 C95.0356012,167.780369 95.5351872,167.723154 96.0488412,167.723154 C96.9152249,167.723154 97.7085236,167.966735 97.7085236,168.911948 L97.7085236,170.472805 C96.9889962,170.257999 96.4749991,170.100408 95.6230265,170.100408 C93.5522837,170.100408 92.3040049,171.303254 92.3040049,173.122414 C92.3040049,174.76926 93.1998971,176.115311 94.9769273,176.115311 C95.3584792,176.115311 96.9594877,175.256086 97.9435623,174.611668 C98.046499,175.098495 98.1638468,175.599709 98.237275,175.84329 L100.469628,175.84329 L100.469628,174.310873 L99.4268799,174.310873 L99.3973714,173.72367 Z M18.4901722,168.73997 C18.4901722,166.763553 16.9481808,166.17635 15.1416421,166.17635 C14.0841393,166.17635 12.806352,166.491533 11.9842311,166.720726 L11.9842311,168.567991 L13.6583246,168.567991 L13.6583246,167.880745 C14.1284021,167.780369 14.627645,167.723154 15.1416421,167.723154 C16.0080258,167.723154 16.8009814,167.966735 16.8009814,168.911948 L16.8009814,170.472805 C16.081454,170.257999 15.5674569,170.100408 14.7158274,170.100408 C12.6450846,170.100408 11.3968058,171.303254 11.3968058,173.122414 C11.3968058,174.76926 12.292698,176.115311 14.0693851,176.115311 C14.4512801,176.115311 16.0522886,175.256086 17.0360201,174.611668 C17.1097914,175.12727 17.2418935,175.599709 17.3297328,175.84329 L19.5620862,175.84329 L19.5620862,174.310873 L18.6075201,174.310873 C18.6075201,174.310873 18.4901722,173.924423 18.4901722,173.394434 L18.4901722,168.73997 Z M148.905109,175.84329 L148.905109,166.319889 C148.905109,166.319889 146.232187,166.190737 145.51266,166.190737 C143.236387,166.190737 141.650132,167.336369 141.650132,169.527592 C141.650132,170.959632 142.57519,171.904845 143.69171,172.320404 L142.267066,174.310873 L141.297746,174.310873 L141.297746,175.828903 C141.297746,175.828903 141.796989,175.914892 142.149718,175.914892 C143.08953,175.914892 143.662201,175.284861 144.131936,174.582894 C144.381729,174.224884 144.749213,173.580466 145.527414,172.477996 C145.879801,172.420446 146.423306,172.334457 147.216262,172.191253 L147.216262,175.84329 L148.905109,175.84329 Z M42.7372497,187.915923 C42.7372497,190.622747 44.0297913,192.914011 47.0551002,192.914011 C50.0804092,192.914011 51.3729507,190.622747 51.3729507,187.915923 C51.3729507,185.223487 50.0804092,182.932223 47.0551002,182.932223 C44.0297913,182.932223 42.7372497,185.223487 42.7372497,187.915923 Z M101.732661,174.32526 L101.732661,178.034177 L103.18647,178.034177 L103.304161,175.84329 L109.868776,175.84329 L109.986467,178.034177 L111.455031,178.034177 L111.455031,174.32526 L110.133324,174.32526 L110.133324,166.319889 L103.289407,166.319889 L103.289407,167.851971 L104.39083,167.851971 C104.052854,170.41559 103.465429,173.322832 102.892758,174.32526 L101.732661,174.32526 Z M84.2118096,175.599709 C84.7549721,175.886117 85.5482708,176.058096 86.2386328,176.072483 C89.2200221,176.072483 90.5269747,173.60924 90.5269747,171.117223 C90.5269747,168.224368 89.3373699,166.133523 86.6057736,166.133523 C85.9154116,166.133523 84.6966413,166.907092 83.8885884,167.537123 C83.8741773,167.479908 84.0944618,167.493961 84.0797075,167.436746 C83.9915251,167.035909 83.859423,166.634737 83.6830582,166.319889 L81.465459,166.319889 L81.465459,167.851971 L82.5226187,167.851971 L82.5226187,179.06538 L84.2118096,179.06538 L84.2118096,175.599709 Z M57.5707681,192.914011 C60.5518143,192.914011 61.8591101,190.679961 61.8738643,188.001912 C61.8738643,185.352304 60.5813228,183.104202 57.6586074,183.104202 C56.3955743,183.104202 55.2502323,183.820222 54.7067266,184.879864 C54.794909,184.163844 55.0591132,183.261458 55.5144364,182.5886 C56.0284335,181.858193 56.8217322,181.528623 58.2463758,181.528623 C59.52382,181.528623 60.4783861,181.528623 61.3156044,180.82699 L61.3156044,179.137317 L59.6854306,179.137317 L59.6854306,179.896164 C59.2887812,179.924939 58.5105799,179.924939 58.1578503,179.924939 C56.7774694,179.924939 55.5000253,180.13941 54.35434,181.586172 C53.3115915,182.903448 53.1060613,185.295424 53.1060613,186.64114 C53.1060613,189.820737 53.9137711,192.914011 57.5707681,192.914011 L57.5707681,192.914011 Z" id="Fill-2" fill="#1A1918"></path>
            </g>
        </g>
    </g>
</svg>