<?xml version="1.0" encoding="UTF-8" standalone="no"?>
<svg width="95px" height="67px" viewBox="0 0 95 67" version="1.1" xmlns="http://www.w3.org/2000/svg" xmlns:xlink="http://www.w3.org/1999/xlink">
    <!-- Generator: Sketch 41.2 (35397) - http://www.bohemiancoding.com/sketch -->
    <title>LOGO</title>
    <desc>Created with Sketch.</desc>
    <defs></defs>
    <g id="Page-1" stroke="none" stroke-width="1" fill="none" fill-rule="evenodd">
        <g id="LOGO">
            <path d="M81.1869816,0.641675073 C84.4312911,-0.529411478 88.2752596,0.203256193 90.8418479,2.5135228 C91.6165554,1.74422175 92.3687905,0.950104528 93.1671532,0.206801359 C93.6828363,-0.222163745 94.4800163,0.541228699 94.073147,1.07418534 C93.3291912,1.88248323 92.523732,2.63642189 91.75139,3.41872189 C93.1375842,4.98686705 93.9879883,7.0099752 94.1452953,9.09571462 C94.3227093,11.3149886 93.6934812,13.5898036 92.4101871,15.4096555 C91.1931275,17.1479687 89.3976985,18.4844963 87.3680831,19.1178993 C85.3041676,19.7749368 83.0214417,19.7158507 80.9965573,18.9512765 C79.8894944,18.5542179 78.8900625,17.9101794 77.9911653,17.1609676 C77.2436612,17.9219966 76.4937917,18.6818439 75.7261807,19.4204202 C75.3689873,19.7702099 74.7125558,19.4877783 74.6747075,19.0068175 C74.6250316,18.7326579 74.8154559,18.5104942 74.9976008,18.3344176 C75.70016,17.6383833 76.3979882,16.9388039 77.0958163,16.2392244 C74.4913798,13.3759119 73.9248379,8.89364015 75.7143531,5.46546448 C76.8225988,3.23082808 78.8332901,1.46888051 81.1869816,0.641675073 M78.2348138,4.07339591 C76.7610953,5.63326901 75.9189705,7.77691281 75.9627326,9.9252835 C75.9615499,11.8987593 76.723247,13.8391469 77.9970791,15.3399339 C81.9806133,11.3681661 85.9487716,7.38103592 89.9405851,3.41872189 C88.1782734,1.91793489 85.8009266,1.15336072 83.4945455,1.42988368 C81.4980474,1.63668504 79.5973528,2.6045154 78.2348138,4.07339591 M78.9089867,16.2439513 C80.7954882,17.8770912 83.4247627,18.6109406 85.8837198,18.1607045 C87.8991421,17.8109147 89.7714505,16.700096 91.0393687,15.0953175 C92.2871801,13.5519885 92.9483427,11.5525148 92.8856564,9.57076688 C92.8300667,7.65519544 92.0884765,5.77389394 90.8394824,4.32155754 C86.8736896,8.30514257 82.8948864,12.2780921 78.9089867,16.2439513 M60.4744962,0.152442144 C60.9133,-0.0909925979 61.4656487,0.348608005 61.3994142,0.827205435 C61.4017797,6.81499106 61.3982314,12.8027767 61.400597,18.791744 C61.434897,19.1226262 61.2350106,19.4830514 60.8955586,19.5574999 C60.5076135,19.6685818 60.0818201,19.3164286 60.1125718,18.9170066 C60.1102063,12.8854972 60.1149373,6.85280617 60.1102063,0.820115103 C60.0830028,0.548319031 60.2119236,0.261160573 60.4744962,0.152442144 M71.1808357,0.320246676 C71.4493222,-0.0118172205 72.0040364,0.0248161631 72.2192986,0.397058609 C72.4369264,0.691307399 72.2819849,1.08127568 72.0276916,1.29516737 C69.1701445,4.13366373 66.3374354,6.99815798 63.4716089,9.82720057 C66.3173284,12.6645152 69.1583169,15.5077385 72.0028536,18.3474165 C72.2157504,18.5435824 72.4120884,18.8354678 72.2855332,19.1344434 C72.1518813,19.5846795 71.5060946,19.7335765 71.2033082,19.3636975 C68.1825403,16.3597601 65.1735999,13.3416419 62.1575631,10.3317959 C61.8701525,10.093088 61.8358525,9.62630782 62.1220803,9.3734193 C65.1381172,6.35175602 68.1612506,3.33718307 71.1808357,0.320246676 M60.9121173,23.0813951 C62.7264704,23.0802134 64.5396408,23.0825768 66.3528112,23.0802134 C68.178992,23.0754865 69.9803348,23.9558694 71.1039564,25.3916617 C72.1625262,26.7069183 72.6297162,28.4795014 72.3505849,30.1445478 C72.0087674,32.4264531 70.2523695,34.4188364 68.0252332,35.0345136 C66.9465565,35.377213 64.6933996,35.2791301 64.6933996,35.2791301 C64.6933996,35.2791301 63.1593605,35.2791294 62.6933532,35.2791301 C62.29898,35.2791306 61.9822884,35.0345139 61.9822884,34.637455 C61.9822885,34.2403961 62.2977201,33.9957798 62.6933532,33.9957799 C63.1593605,33.9957801 63.1593604,33.9957799 63.1593604,33.9957799 C63.1593604,33.9957799 66.7111874,34.2155802 68.090285,33.6566257 C69.2694963,33.1969358 70.2488212,32.2515582 70.746763,31.0887437 C71.277822,29.8869324 71.2766393,28.4653207 70.7443975,27.2646911 C69.9874314,25.4708371 68.060716,24.2548451 66.1115283,24.3682904 C64.5739409,24.3718356 63.0363534,24.3671087 61.498766,24.3706538 C61.4904867,29.9542905 61.5023143,35.5367455 61.4975832,41.1192005 C61.4762936,41.5540742 61.6477937,42.1177556 61.2468382,42.4309119 C60.8707207,42.7606124 60.2107408,42.4439109 60.224934,41.9487693 C60.2178374,35.8794449 60.2213857,29.8101204 60.2237512,23.7396143 C60.1870857,23.3661901 60.544279,23.0376714 60.9121173,23.0813951 Z M83.8079768,23.1333909 C85.7027576,22.9348615 87.6602247,23.2799244 89.3492053,24.1721245 C91.2972103,25.1765883 92.8856564,26.8629056 93.7727261,28.8659245 C94.7011923,30.9150306 94.8608649,33.2926553 94.2529265,35.4563884 C93.6485363,37.5858515 92.3037387,39.501423 90.4858373,40.7717742 C87.5147452,42.9272352 83.2982074,43.1470355 80.1154015,41.3212749 C78.1437413,40.2246369 76.5730366,38.4225107 75.7687601,36.3143186 C74.9159904,34.1304962 74.9006146,31.6335176 75.7238152,29.4402414 C76.9503369,26.0416088 80.2041084,23.4879075 83.8079768,23.1333909 M84.2444151,24.3871979 C81.9628719,24.5396401 79.7735839,25.6859105 78.3306173,27.4549484 C76.9325955,29.1353571 76.226488,31.3794473 76.4358365,33.5561793 C76.5813159,35.3464882 77.338282,37.0765293 78.5305036,38.4177838 C79.7014356,39.7424943 81.2922472,40.6855085 83.0190762,41.0695681 C85.1622365,41.5694366 87.4875418,41.1546521 89.3468398,39.9871107 C90.6561546,39.1634505 91.7466589,37.9840919 92.4338423,36.5955684 C93.4604775,34.5854592 93.6095053,32.154657 92.8560874,30.028739 C92.2280421,28.243157 90.9873273,26.6726484 89.375226,25.6729115 C87.8660248,24.6979908 86.0339303,24.2548451 84.2444151,24.3871979 M60.2675133,47.1518915 C60.2237512,46.7914663 60.539548,46.4345862 60.9050207,46.4464035 C61.2799555,46.4251325 61.6040316,46.7938297 61.5555385,47.162527 C61.5531729,50.4796208 61.5590867,53.7967146 61.5519902,57.1138084 C64.7643651,56.0372596 67.9826539,54.9796184 71.1926633,53.8983427 C71.184384,51.6483439 71.1867495,49.3971634 71.1902978,47.1459829 C71.1701909,46.8044652 71.4327635,46.4558572 71.7875914,46.4475852 C72.1719883,46.401498 72.5209023,46.763105 72.4771402,47.1436195 C72.4724092,53.2093987 72.4842368,59.275178 72.4712264,65.3409573 C72.4641299,65.8585516 71.7367327,66.1268025 71.3901842,65.7439245 C71.179653,65.554849 71.1855668,65.2523282 71.1855668,64.9947128 C71.1962116,61.7473406 71.1772875,58.4999684 71.1950289,55.2537779 C67.8490021,56.3823225 64.4935132,57.4860508 61.1439381,58.6063234 C60.751262,58.7883085 60.2663305,58.450336 60.2698788,58.0272795 C60.2651478,54.402938 60.2698788,50.7774148 60.2675133,47.1518915 M76.6629263,47.1471646 C76.6179814,46.7678319 76.9550679,46.4085884 77.3394648,46.4523121 C81.5666474,46.4523121 85.7938301,46.4511303 90.0210128,46.4523121 C90.5709959,46.380227 90.9234583,47.1495281 90.5154062,47.5217705 C87.8530145,50.2125516 85.1539572,52.8702445 82.4891999,55.5598439 C84.4064531,55.5480267 86.3237064,55.5539353 88.2397769,55.555117 C88.5271874,55.5291191 88.7767497,55.7583732 88.8559946,56.0207155 C88.9707223,56.3988666 88.6407323,56.8455575 88.2385941,56.8171962 C84.8109569,56.8207413 81.3821369,56.8219231 77.9544997,56.8160144 C77.9095549,59.4193481 77.953317,62.0238635 77.9320273,64.6271972 C81.9640546,64.644923 85.996082,64.6189251 90.0281093,64.6390144 C90.3604647,64.623652 90.6774443,64.8989933 90.6904547,65.2334206 C90.728303,65.6021179 90.3923993,65.9578162 90.0174645,65.9211828 C85.7926473,65.9235463 81.5666474,65.9223646 77.3406475,65.9211828 C76.9657127,65.9566345 76.6227125,65.6139351 76.6629263,65.2393292 L76.6629263,47.1471646 M77.9544997,47.7202998 C77.9071894,49.0237392 77.9462204,50.3295421 77.9332101,51.6341633 C77.9462204,52.9411478 77.9048238,54.2493142 77.958048,55.5562987 C78.8569453,55.533846 79.7617563,55.589387 80.6582881,55.5291191 C83.3029385,52.957692 85.8872681,50.3189066 88.504715,47.7179364 C84.9883708,47.7273902 81.4708439,47.723845 77.9544997,47.7202998" id="Text" fill="#FFFFFF"></path>
            <path d="M34.9706519,4.14075406 C35.353866,2.53952069 36.7921016,1.23608126 38.4420512,1.07773051 C39.5550279,0.938287308 40.7886461,1.22899093 41.5692674,2.07510392 C42.2422576,2.80068126 42.5273027,3.79569122 42.5959027,4.76352158 C42.6207407,5.22557491 42.4551544,5.66753895 42.2907508,6.09177717 C41.9725885,6.98161387 42.102692,7.93999045 42.1878507,8.85818849 C42.6976201,13.4692679 43.2085722,18.0803474 43.7242554,22.6902451 C43.8082313,23.1227554 43.3386757,23.5363581 42.9211616,23.3969149 C42.66332,23.3295567 42.5000992,23.0932123 42.4385957,22.8474141 C40.951867,18.030715 39.4675037,13.2128342 37.9784094,8.39613517 C37.6980954,8.73528939 37.5135849,9.14416522 37.4603607,9.58140238 C36.9884397,12.5569785 36.8193051,15.569188 36.4621117,18.5589448 C35.9759975,22.7386957 35.5549351,26.9290821 34.9375346,31.0934706 C34.5436757,33.3292887 33.4780093,35.390212 32.1533186,37.2124274 C30.9149693,38.9046533 29.4708199,40.4326199 28.0302188,41.9523145 C25.7865239,44.3263941 23.5499256,46.7063823 21.3026824,49.0769167 C23.292084,54.3923025 25.2613786,59.7147786 27.2425009,65.0337096 C28.299888,65.0396182 29.3560922,65.0301644 30.4134793,65.0372547 C30.778952,65.0029848 31.1207695,65.3385939 31.0912005,65.7049277 C31.0900178,66.0594443 30.749383,66.3477845 30.4028344,66.3217866 C26.4583313,66.3241501 22.5138282,66.3253318 18.5693251,66.3206049 C18.0820281,66.3655103 17.7130071,65.7581052 17.9885901,65.3515928 C18.3020214,64.8434523 18.9738288,65.0880688 19.4611258,65.0407999 C17.4965621,59.8223153 15.5733951,54.5884684 13.6206591,49.3664386 C13.4728141,49.0650995 13.4408796,48.6739495 13.7223764,48.4399686 C16.1080024,45.8980844 18.5030905,43.3656541 20.8981786,40.8332237 C14.2084906,40.8438592 7.51998527,40.832042 0.83029721,40.8391323 C0.529876282,40.8734023 0.202251884,40.7623204 0.0697828139,40.4727985 C-0.126555273,40.1147367 0.13365183,39.7495846 0.411600326,39.5345112 C4.37857589,35.925532 8.52651366,32.490266 13.0079896,29.5324158 C17.6089243,26.4930266 22.9455354,24.6270875 28.402788,23.910964 C28.9042781,23.8306069 29.4909268,23.8518779 29.8717754,23.4607279 C30.2739137,23.0234907 30.2360654,22.3865425 30.3874586,21.8476773 C31.8895632,15.9378853 33.4484403,10.0446374 34.9706519,4.14075406 Z M14.8791152,49.0745533 C16.8708823,54.3899391 18.8342632,59.7171421 20.8212993,65.0348913 C22.5079144,65.0372547 24.1945295,65.0337096 25.8811447,65.036073 C23.9035707,59.7797733 21.9662105,54.5081113 20.0004641,49.2470847 C19.8715433,48.9835607 19.9105744,48.6656775 20.1246539,48.4600578 C22.519742,45.9158103 24.9183784,43.3751078 27.3181975,40.8367689 C25.7699653,40.8332237 24.221733,40.8462227 22.6735007,40.8296786 C20.0643331,43.5677285 17.4871001,46.3353216 14.8791152,49.0745533 Z M37.5384229,2.68723594 C38.9612826,7.10569469 40.272963,11.5596051 41.674533,15.9839724 C41.5077639,14.2031173 41.2735776,12.4258074 41.0926153,10.6449522 C40.9542325,9.23515782 40.6963909,7.81472792 40.8820841,6.39666146 C40.9435876,5.85897792 41.2629327,5.38747083 41.3114259,4.84860557 C41.26175,4.05921524 41.0275636,3.18237748 40.3356492,2.7120521 C39.5100831,2.16845996 38.3911925,2.23109123 37.5384229,2.68723594 Z" id="001" fill="#FFFFFF"></path>
            <path d="M37.8021782,20.781764 C37.8837887,20.169632 38.7696756,19.9250155 39.0499896,20.5217851 C40.6100494,24.0846771 42.0175333,27.7302896 43.9383348,31.1218319 C44.3854179,31.933675 45.103353,32.6048931 45.3091532,33.5384535 C45.511405,34.35266 45.4108705,35.2897656 44.8372321,35.9373493 C44.4682111,36.3864036 43.9466142,36.66529 43.4179206,36.8815452 C42.569882,37.2372435 41.8507642,37.8233777 41.1600326,38.4166021 C40.4551079,39.0476417 39.7596453,39.7046792 39.2226725,40.4893426 C38.7696756,41.1711962 38.457427,41.9393156 38.2267889,42.7227973 C39.5798659,42.8409695 40.9069221,43.2793884 42.0364575,44.0380539 C43.3505033,44.9125282 44.5900354,45.8945393 45.8378467,46.8600062 C47.9076759,48.484874 49.9573982,50.134558 51.9870136,51.8078764 C52.339476,52.1080338 52.7818281,52.3526503 52.9320385,52.8217939 C52.8421488,53.1290416 52.6576383,53.4977389 52.2838863,53.48474 C49.4168771,53.5001024 46.5498679,53.4835583 43.6828588,53.493012 C44.4895008,54.5896501 45.2523807,55.7181947 46.0483779,56.8231048 C46.2352539,57.0547223 46.2884781,57.3714238 46.1725676,57.6514919 C45.3351739,60.1106555 44.478856,62.5650922 43.6367311,65.0230741 C43.986828,65.0431634 44.4291801,64.942717 44.6692802,65.2759626 C45.0276564,65.6860202 44.6633664,66.3950534 44.1133833,66.3300587 C41.079605,66.3336038 38.0458267,66.3336038 35.0120484,66.3300587 C34.4738929,66.3903265 34.123796,65.6872019 34.4644308,65.2865981 C34.6311999,65.0136203 34.9718346,65.0230741 35.2509659,65.0254375 C36.1735183,65.0348913 37.0960708,65.0195289 38.0174405,65.0384365 C38.9305309,62.5166416 39.7643764,59.9676672 40.6561771,57.4376002 C39.136331,55.4901223 37.6259471,53.5343723 36.1628735,51.5455341 C35.0463485,49.9360287 33.996058,48.2308038 33.4862886,46.3235044 C33.1030745,44.9302541 33.3550023,43.4483746 33.8718682,42.1248459 C34.5708791,40.3546263 35.6625662,38.7687553 36.8677982,37.3069651 C37.7619644,36.2363249 38.7661273,35.2590408 39.8483523,34.3798396 C40.0636145,34.2179437 40.2031802,33.9591466 40.1333973,33.684987 C39.8649109,31.7599618 39.6602935,29.8243011 39.3314864,27.9075479 C38.8796722,25.5204694 38.3356028,23.1511167 37.8021782,20.781764 M41.2771258,32.6037114 C41.8010883,32.3413691 42.323868,32.0754816 42.8714857,31.8639534 C41.9879643,30.3974363 41.3137914,28.8198374 40.5390839,27.2977794 C40.8489669,29.0561818 41.0914326,30.8275831 41.2771258,32.6037114 M41.5042157,34.0194144 C41.3587362,34.3172083 41.3137914,34.6658163 41.0973464,34.9293404 C40.7200461,35.4150281 40.1996319,35.7577275 39.751366,36.1713302 C38.1510923,37.6343021 36.7790912,39.3513443 35.7181559,41.2409178 C34.9067828,42.7346145 34.2621789,44.5154696 34.8015172,46.2112408 C35.4484867,48.2898899 36.6998463,50.113287 37.9973336,51.8386012 C38.1250716,51.9638637 38.2054993,52.2120253 38.423127,52.1895726 C39.3421312,52.1942995 40.2599526,52.1907543 41.1789568,52.1883909 C40.4397321,51.1283862 39.6863142,50.0778353 38.944724,49.0201941 C38.5402202,48.4364234 38.4385029,47.587947 38.8713929,46.9911773 C39.2226725,46.4936723 39.874373,46.329413 40.4551079,46.3636829 C41.4024983,46.3991346 42.343975,46.5243971 43.2937309,46.5397595 C42.59472,46.0138932 41.8921608,45.491572 41.1588499,45.0165198 C40.0636145,44.3488468 38.7779549,43.9636054 37.488747,44.033327 C37.0806949,44.0711421 36.8003809,43.6173609 36.8595189,43.2486636 C36.9636017,42.0007651 37.4662745,40.8119527 38.142813,39.7696739 C39.0866551,38.4118752 40.3593044,37.3152372 41.6887262,36.3485885 C42.3002128,35.8853535 43.0690066,35.7021866 43.6887726,35.2602225 C44.3783214,34.6740884 44.1110177,33.612902 43.6237208,32.9818624 C42.8892271,33.2607488 42.1405403,33.5502707 41.5042157,34.0194144 M39.2404139,53.4906486 C40.1085594,54.6144663 40.9838015,55.7347388 41.8460332,56.864465 C42.0151678,57.055904 42.0837678,57.3253366 41.9808678,57.5675897 C41.1269154,60.0551146 40.2670492,62.5402761 39.4142795,65.027801 C40.3581217,65.0301644 41.3031465,65.027801 42.2493542,65.0301644 C43.1447032,62.5036427 43.9962901,59.9605768 44.882177,57.4305099 C43.9537107,56.1187984 43.0287927,54.8047235 42.1015092,53.493012 C41.148205,53.4871034 40.1937181,53.4941938 39.2404139,53.4906486" id="002" fill="#D9222A"></path>
        </g>
    </g>
</svg>