<?xml version="1.0" encoding="UTF-8" standalone="no"?>
<svg width="23px" height="30px" viewBox="0 0 23 30" version="1.1" xmlns="http://www.w3.org/2000/svg" xmlns:xlink="http://www.w3.org/1999/xlink">
    <!-- Generator: Sketch 41.2 (35397) - http://www.bohemiancoding.com/sketch -->
    <title>Cup</title>
    <desc>Created with Sketch.</desc>
    <defs></defs>
    <g id="Page-1" stroke="none" stroke-width="1" fill="none" fill-rule="evenodd">
        <g id="Cup" fill="#D9222A">
            <g>
                <path d="M19.497903,0 L19.529198,0.677320588 C19.5476069,1.07086849 19.4529854,1.36882981 19.2357612,1.59248749 C18.9467424,1.89492943 18.472899,2.04577701 18.0767408,2.11522664 C18.0940451,1.76723172 18.1080359,1.41886342 18.1172403,1.05219924 L4.88386425,1.05219924 C4.89675044,1.41886342 4.91037298,1.76723172 4.92436369,2.11522664 C4.52673283,2.04577701 4.05767568,1.89492943 3.76902513,1.59248749 C3.55180086,1.36882981 3.45239315,1.06638787 3.47080198,0.677320588 L3.50209701,0 L0,0 L0.0136225388,0.658651333 C0.207651673,12.0155328 4.9464543,14.7621537 7.11280615,15.4252856 L6.75677925,15.9386902 L7.80350568,16.6839668 L8.15953258,16.1672019 C8.87342725,17.516989 9.49638226,18.3783885 9.76220586,19.0650437 L9.279158,19.0650437 L9.279158,20.0903592 L9.87081799,20.0903592 C9.63150312,21.6828467 6.4633424,23.5176611 6.4633424,23.5176611 L6.4633424,24.488089 L5.68685769,24.488089 L5.68685769,30 L17.3131423,30 L17.3131423,24.488089 L16.5366576,24.488089 L16.5366576,23.5176611 C16.5366576,23.5176611 13.372915,21.6828467 13.1336001,20.0903592 L13.7252601,20.0903592 L13.7252601,19.0650437 L13.2422123,19.0650437 C13.5047223,18.3783885 14.1273091,17.516989 14.8404674,16.1672019 L15.1961261,16.6839668 L16.2443253,15.9386902 L15.8871939,15.4252856 C18.058332,14.7621537 22.7967664,12.0155328 22.9907956,0.658651333 L23,0 L19.497903,0 Z M1.30445014,1.29489956 L2.23888266,1.29489956 C2.32908596,1.76237772 2.53600128,2.17384811 2.85705138,2.50392054 C3.49731071,3.16257188 4.41370258,3.36419984 4.99578998,3.42394145 C5.33893069,8.42170114 6.24611814,11.7590173 7.19012326,14.0885669 C5.33451257,13.3981779 1.62881383,10.8296617 1.30445014,1.29489956 L1.30445014,1.29489956 Z M15.8109813,14.0885669 C16.7538819,11.7590173 17.6607011,8.42170114 18.0038418,3.42394145 C18.5907155,3.36419984 19.5071074,3.16257188 20.143685,2.50392054 C20.4639987,2.17384811 20.6716504,1.76237772 20.7618537,1.29489956 L21.6955499,1.29489956 C21.370818,10.8296617 17.6699056,13.3981779 15.8109813,14.0885669 L15.8109813,14.0885669 Z"></path>
            </g>
        </g>
    </g>
</svg>