<?xml version="1.0" encoding="UTF-8" standalone="no"?>
<svg width="69px" height="47px" viewBox="0 0 69 47" version="1.1" xmlns="http://www.w3.org/2000/svg" xmlns:xlink="http://www.w3.org/1999/xlink">
    <!-- Generator: Sketch 41.2 (35397) - http://www.bohemiancoding.com/sketch -->
    <title>Group</title>
    <desc>Created with Sketch.</desc>
    <defs></defs>
    <g id="Page-1" stroke="none" stroke-width="1" fill="none" fill-rule="evenodd">
        <g id="Group">
            <g id="1st-Cup">
                <g>
                    <path d="M45.9752521,4 L46.0201537,4.97082618 C46.0465664,5.53491151 45.9108052,5.9619894 45.5991356,6.2825654 C45.1844565,6.71606552 44.5045942,6.93228039 43.9361934,7.03182486 C43.9610213,6.53303214 43.9810949,6.03370423 43.9943013,5.50815224 L25.0072835,5.50815224 C25.0257724,6.03370423 25.0453178,6.53303214 25.0653914,7.03182486 C24.4948775,6.93228039 23.8218825,6.71606552 23.4077317,6.2825654 C23.0960621,5.9619894 22.9534336,5.52848928 22.9798463,4.97082618 L23.0247479,4 L18,4 L18.0195454,4.94406691 C18.297935,21.2222637 25.0970866,25.1590869 28.2053306,26.1095761 L27.6945094,26.8454559 L29.1963342,27.9136858 L29.7071554,27.1729893 C30.7314391,29.1076843 31.6252441,30.3423568 32.0066432,31.3265626 L31.3135745,31.3265626 L31.3135745,32.7961815 L32.162478,32.7961815 C31.8191132,35.0787469 27.2734913,37.7086476 27.2734913,37.7086476 L27.2734913,39.0995943 L26.1594045,39.0995943 L26.1594045,47 L42.8405955,47 L42.8405955,39.0995943 L41.7265087,39.0995943 L41.7265087,37.7086476 C41.7265087,37.7086476 37.1872259,35.0787469 36.8438611,32.7961815 L37.6927645,32.7961815 L37.6927645,31.3265626 L36.9996959,31.3265626 C37.3763406,30.3423568 38.2696174,29.1076843 39.2928446,27.1729893 L39.8031375,27.9136858 L41.3070754,26.8454559 L40.7946694,26.1095761 C43.9097807,25.1590869 50.708404,21.2222637 50.9867937,4.94406691 L51,4 L45.9752521,4 Z M19.8716024,5.8560227 L21.2123099,5.8560227 C21.341732,6.52607473 21.6386105,7.11584895 22.0992476,7.58895278 C23.0178806,8.53301969 24.3327037,8.82201976 25.1678726,8.90764942 C25.6602049,16.071105 26.9618217,20.8545914 28.3162638,24.1936126 C25.6538659,23.204055 20.3369938,19.5225151 19.8716024,5.8560227 Z M40.685321,24.1936126 C42.0381783,20.8545914 43.3392668,16.071105 43.8315992,8.90764942 C44.6736353,8.82201976 45.9884585,8.53301969 46.9018089,7.58895278 C47.3613895,7.11584895 47.6593245,6.52607473 47.7887466,5.8560227 L49.1283976,5.8560227 C48.662478,19.5225151 43.3524732,23.204055 40.685321,24.1936126 Z M34.5,10 L35.9834461,12.5143918 L39,13.055896 L36.8997864,15.1513463 L37.2810609,18 L34.5,16.7803157 L31.7189391,18 L32.1002136,15.1513463 L30,13.055896 L33.0165539,12.5143918 L34.5,10 Z" id="Combined-Shape" fill="#D9222A"></path>
                    <path d="M17.4055608,35.37455 C16.3327834,35.9596505 14.3394305,35.8009467 14.3394305,35.8009467 C14.3394305,35.8009467 16.3041433,35.4118358 17.0479683,35.0294172 C17.5274859,34.7818011 18.1174725,34.2005248 18.2557634,34.059986 C18.1632967,33.8582602 17.7631532,32.9815655 17.5348505,32.4318388 C17.2754527,31.8065843 16.3606052,30.4690752 16.3606052,30.4690752 C16.3606052,30.4690752 17.6976901,31.8304855 18.3318643,33.0351041 C18.5192526,33.3926655 18.6771824,33.6727872 18.8056539,33.8917218 C18.636268,33.5532813 18.4546077,33.1479176 18.4145115,32.8869169 C18.3343192,32.3696957 18.636268,31.4203415 17.8858966,30.5025369 C17.2091713,29.6746006 15.8197159,29.519721 14.87541,28.7979059 C14.87541,28.7979059 15.3778397,30.0159092 15.4866722,30.7692738 C15.5922315,31.4958692 15.5644097,32.4930257 16.1265745,32.8916971 C16.6036372,33.2301376 17.2566321,33.586743 17.8318895,33.8764251 C16.464528,33.3897974 15.582412,33.587699 15.1438089,33.7875127 C14.6045562,34.0351288 14.0080233,35.1326702 13.4286744,35.6785728 C12.9237899,36.1537279 11.9442975,36.7330921 11.9442975,36.7330921 C13.523596,37.0361589 14.1544971,37.8832161 15.4711247,37.5266107 C16.8875836,37.141324 16.9448638,36.1881456 17.5201213,35.498836 C17.6927803,35.29233 17.940722,35.1087691 18.1911185,34.9567577 C17.9734536,35.0695711 17.7124193,35.2072418 17.4055608,35.37455" id="Fill-1" fill="#85030C" transform="translate(15.374976, 33.205309) rotate(-7.000000) translate(-15.374976, -33.205309) "></path>
                    <path d="M12.7752675,33.5224048 C11.6689403,33.7489879 9.8719768,33.0262167 9.8719768,33.0262167 C9.8719768,33.0262167 11.7564972,33.237503 12.5191429,33.1017444 C13.0109348,33.0137881 13.6737492,32.6504904 13.8300425,32.5625341 C13.7874914,32.3493357 13.6033763,31.430575 13.5084548,30.8598152 C13.4012589,30.2106596 12.8415489,28.718271 12.8415489,28.718271 C12.8415489,28.718271 13.7842183,30.3540666 14.1139889,31.6428173 C14.2113653,32.025236 14.2972857,32.3283027 14.3701135,32.5663583 C14.2850114,32.2068848 14.2040007,31.7824001 14.2211848,31.5309599 C14.2563713,31.0338157 14.7309791,30.2498575 14.2342774,29.190558 C13.7866732,28.2354675 12.5436916,27.690521 11.8276884,26.7555075 C11.8276884,26.7555075 12.0338973,28.0184449 11.9774354,28.7412161 C11.9217917,29.4391301 11.6877609,30.3454622 12.120636,30.8741559 C12.4880479,31.3225418 13.0125714,31.8378508 13.4798146,32.2709399 C12.3268449,31.4286629 11.475824,31.3550473 11.0314928,31.4124101 C10.4840573,31.4822015 9.70913722,32.3177862 9.06187032,32.6504904 C8.50052382,32.9401725 7.47929868,33.1887446 7.47929868,33.1887446 C8.86629917,33.9239444 9.26726096,34.8838151 10.5503387,34.9363976 C11.9307929,34.9947165 12.182826,34.1361867 12.8546416,33.669636 C13.0559407,33.5290972 13.3218848,33.4325365 13.5837374,33.3665692 C13.3603444,33.4067232 13.0919455,33.4573937 12.7752675,33.5224048" id="Fill-3" fill="#85030C" transform="translate(10.969405, 30.847365) rotate(-7.000000) translate(-10.969405, -30.847365) "></path>
                    <path d="M8.88158221,30.5683396 C7.81862432,30.4564822 6.32115477,29.2728966 6.32115477,29.2728966 C6.32115477,29.2728966 8.00601258,30.0128766 8.73429012,30.1084812 C9.20398822,30.1696682 9.88807814,30.0291294 10.0500994,29.9927996 C10.0550092,29.7843814 10.0779213,28.8876098 10.1106528,28.336927 C10.1482942,27.7107165 9.94617668,26.17913 9.94617668,26.17913 C9.94617668,26.17913 10.4690636,27.9525963 10.5026135,29.2308305 C10.5124329,29.610381 10.5279804,29.9134477 10.5443462,30.1524594 C10.5418913,29.7977661 10.5558023,29.384754 10.6245386,29.159127 C10.7603746,28.7126533 11.3601807,28.131377 11.1253317,27.0156707 C10.914213,26.0089537 9.88725985,25.1494679 9.42574464,24.084432 C9.42574464,24.084432 9.3520986,25.3033913 9.14834455,25.9506349 C8.9519551,26.5739772 8.54690186,27.3388144 8.83412143,27.9487721 C9.07715337,28.4669493 9.45111161,29.0922038 9.78906513,29.6237656 C8.90776747,28.5176198 8.14184862,28.2030805 7.72206617,28.1265968 C7.20572558,28.0338602 6.3186999,28.5749826 5.65588551,28.6944884 C5.07980979,28.7967854 4.09213452,28.7298621 4.09213452,28.7298621 C5.21073609,29.8054145 5.37848541,30.801615 6.54372948,31.2222754 C7.79816708,31.6744854 8.20894835,30.9593626 8.92413326,30.7251312 C9.13770679,30.6562959 9.40119596,30.6438673 9.65568396,30.659164 C9.44211043,30.6314387 9.18598586,30.5998891 8.88158221,30.5683396" id="Fill-5" fill="#85030C" transform="translate(7.635706, 27.726768) rotate(-7.000000) translate(-7.635706, -27.726768) "></path>
                    <path d="M5.87303161,26.8170327 C4.92136107,26.4068888 3.79457661,24.8877308 3.79457661,24.8877308 C3.79457661,24.8877308 5.18566854,26.0541076 5.83375372,26.3523941 C6.25189959,26.5445595 6.90980424,26.6133948 7.06609751,26.6267795 C7.11437659,26.4374823 7.32304038,25.6210185 7.46705931,25.1248304 C7.63235376,24.5607629 7.76655322,23.0970557 7.76655322,23.0970557 C7.76655322,23.0970557 7.87620399,24.8762583 7.64053665,26.0588878 C7.56934548,26.4097569 7.52024812,26.6927467 7.48587996,26.9164616 C7.55707114,26.5904497 7.65608415,26.2156795 7.76655322,26.0282943 C7.98503648,25.6573483 8.65603376,25.2978748 8.67485442,24.2060696 C8.69122021,23.2213417 7.92857451,22.1362289 7.72727533,21.0243468 C7.72727533,21.0243468 7.40405103,22.1218882 7.0824633,22.6563182 C6.77233163,23.1725833 6.24126183,23.7567278 6.37709786,24.399191 C6.49165838,24.9450936 6.70441361,25.6267548 6.90325793,26.2128113 C6.32554563,24.9422255 5.6889165,24.4326527 5.31986799,24.2414434 C4.8648991,24.0062559 3.93859553,24.2471796 3.30523956,24.1640036 C2.7553491,24.0923001 1.86177711,23.7442992 1.86177711,23.7442992 C2.66370069,25.055039 2.60969359,26.0187339 3.59164084,26.741505 C4.64805242,27.5187709 5.17421249,26.9814727 5.87875964,26.9738244 C6.08987829,26.9719123 6.33372853,27.0369234 6.56448613,27.1248797 C6.374643,27.0369234 6.14552197,26.9336704 5.87303161,26.8170327" id="Fill-7" fill="#85030C" transform="translate(5.268445, 24.093089) rotate(-7.000000) translate(-5.268445, -24.093089) "></path>
                    <path d="M3.86134243,22.5870461 C3.07332977,21.9350223 2.35732657,20.2160507 2.35732657,20.2160507 C2.35732657,20.2160507 3.39000775,21.6883623 3.92271413,22.1491768 C4.26639567,22.4474633 4.85556402,22.6998596 4.99630979,22.7572223 C5.07895702,22.5985186 5.44145921,21.9092091 5.67794484,21.4952409 C5.94716204,21.0258221 6.37676396,19.7217746 6.37676396,19.7217746 C6.37676396,19.7217746 6.10509189,21.3862516 5.64112182,22.4034851 C5.5036492,22.7036837 5.39890816,22.9493877 5.32035238,23.1453772 C5.45373355,22.8671677 5.62311945,22.5507163 5.76386522,22.4111335 C6.04126532,22.1348361 6.73271984,21.9981214 6.97738836,21.0019209 C7.19832649,20.1032372 6.72617352,18.8861899 6.77281602,17.8077694 C6.77281602,17.8077694 6.24747424,18.7217499 5.84078442,19.1194653 C5.44800552,19.50284 4.83919823,19.8852586 4.82856047,20.5143372 C4.82037758,21.0478111 4.87274809,21.7352086 4.93330151,22.3308256 C4.66817575,20.9980967 4.19029476,20.346073 3.89161914,20.0640393 C3.52338892,19.7160383 2.62245232,19.669192 2.05946923,19.4101034 C1.5693139,19.1844765 0.823033993,18.6070243 0.823033993,18.6070243 C1.2845492,20.0420502 1.03333436,20.9101404 1.78370572,21.8575826 C2.59135733,22.8767282 3.18543541,22.5354196 3.83352059,22.7333212 C4.02827346,22.79164 4.23775554,22.9226184 4.43169012,23.0698496 C4.27539685,22.934091 4.0871903,22.7734751 3.86134243,22.5870461" id="Fill-9" fill="#85030C" transform="translate(3.929805, 20.476573) rotate(-7.000000) translate(-3.929805, -20.476573) "></path>
                    <path d="M2.76678753,18.1815724 C2.18007405,17.3555482 1.88221672,15.5696533 1.88221672,15.5696533 C1.88221672,15.5696533 2.5229373,17.2207456 2.91407962,17.7981977 C3.16774932,18.1700998 3.65544979,18.5725954 3.77246517,18.666288 C3.88211594,18.543914 4.35836036,18.0161763 4.66194571,17.7054612 C5.00726383,17.35268 5.67416967,16.2799958 5.67416967,16.2799958 C5.67416967,16.2799958 5.07681843,17.7284063 4.43855272,18.5276612 C4.24870958,18.7638047 4.10223578,18.9588382 3.98931185,19.1156299 C4.1701538,18.8986073 4.39191022,18.6586396 4.54984007,18.5706833 C4.86160832,18.3966829 5.525241,18.4722105 5.95729779,17.6289775 C6.34844011,16.8670084 6.16841645,15.6145875 6.43845194,14.6384639 C6.43845194,14.6384639 5.76499979,15.3249054 5.30757603,15.5725214 C4.86733635,15.810577 4.22825235,15.9855335 4.08750657,16.5601175 C3.96885462,17.0467452 3.87311476,17.6930326 3.80356016,18.2571001 C3.83956489,16.9568768 3.53761612,16.2197649 3.32240601,15.8746321 C3.05646197,15.4501474 2.23980917,15.1461247 1.77747568,14.7445851 C1.37487731,14.3956281 0.81025764,13.6508679 0.81025764,13.6508679 C0.934637624,15.1011905 0.522219781,15.8249177 1.01237511,16.9109866 C1.54017176,18.0802315 2.15798024,17.9387366 2.71114385,18.3077705 C2.87725659,18.4177159 3.04255105,18.5984087 3.18902484,18.7886619 C3.07446433,18.6203978 2.93453685,18.4177159 2.76678753,18.1815724" id="Fill-12" fill="#85030C" transform="translate(3.601875, 16.383249) rotate(-7.000000) translate(-3.601875, -16.383249) "></path>
                    <path d="M2.55811539,13.9222995 C2.19234004,12.9939783 2.29135306,11.2702264 2.29135306,11.2702264 C2.29135306,11.2702264 2.534385,12.9700772 2.7733255,13.6125404 C2.92798219,14.0284207 3.29130267,14.5379935 3.37967792,14.6574993 C3.50569448,14.5771914 4.05313007,14.2311026 4.39681161,14.0332009 C4.78713564,13.809486 5.62260909,13.0188355 5.62260909,13.0188355 C5.62260909,13.0188355 4.77240643,14.1746958 4.01958021,14.7234665 C3.79618721,14.8859944 3.62107329,15.021753 3.48441896,15.1326544 C3.69553762,14.9863793 3.94920732,14.8305437 4.11204691,14.79517 C4.43527121,14.7253786 5.02853101,14.9863793 5.60133357,14.3381798 C6.11931074,13.7521232 6.21586888,12.5503727 6.66674633,11.732953 C6.66674633,11.732953 5.90573721,12.1679541 5.43522082,12.2626027 C4.98107022,12.3543832 4.35835201,12.329526 4.10877375,12.8161537 C3.89765509,13.2291658 3.67508038,13.7932332 3.49423843,14.2913335 C3.79782379,13.1087039 3.67508038,12.3448227 3.54906382,11.9662283 C3.39522542,11.4996776 2.70949893,10.9843685 2.36827226,10.4824441 C2.0720515,10.0464869 1.70954931,9.1984736 1.70954931,9.1984736 C1.52052447,10.5646641 0.991091244,11.1105667 1.21366595,12.248262 C1.45342474,13.4739137 2.04995769,13.5236281 2.48119619,14.0217284 C2.60966762,14.1708716 2.72422813,14.385026 2.8191497,14.6020486 C2.74795853,14.4137074 2.66285643,14.1880805 2.55811539,13.9222995" id="Fill-14" fill="#85030C" transform="translate(3.913364, 12.165564) rotate(-7.000000) translate(-3.913364, -12.165564) "></path>
                    <path d="M3.19989718,10.0485114 C3.05833312,9.09150884 3.51002885,7.53793322 3.51002885,7.53793322 C3.51002885,7.53793322 3.37746597,9.16799256 3.46256807,9.82670862 C3.51739346,10.2521493 3.74405961,10.8257773 3.79970329,10.9615359 C3.93308446,10.923294 4.50670531,10.7645903 4.86347947,10.6833263 C5.269351,10.5896338 6.2013826,10.1058742 6.2013826,10.1058742 C6.2013826,10.1058742 5.17852088,10.9213819 4.37332414,11.2062838 C4.13520193,11.2904159 3.9453588,11.3649875 3.79643013,11.4271305 C4.02145971,11.354471 4.28658547,11.2837235 4.44369702,11.2990203 C4.75464699,11.3286577 5.24398403,11.7397577 5.90598013,11.3104928 C6.50251308,10.923294 6.84292146,9.84774165 7.42799836,9.22822349 C7.42799836,9.22822349 6.63834912,9.4070042 6.18747168,9.35824582 C5.75132344,9.3104435 5.18424891,9.10776163 4.85366,9.48157583 C4.57380504,9.79993932 4.25221731,10.2540614 3.98136353,10.6575131 C4.5075236,9.66035653 4.55416609,8.92515674 4.51816136,8.53986999 C4.47397373,8.067583 3.9527234,7.39643834 3.74405961,6.83715112 C3.56321766,6.35052343 3.40856097,5.46809248 3.40856097,5.46809248 C2.94950063,6.66793088 2.34969452,7.01497577 2.31614466,8.12398975 C2.28013993,9.31809187 2.81611946,9.53511443 3.10824877,10.1173468 C3.19498744,10.2913472 3.25554086,10.5207984 3.29727361,10.7473814 C3.27190664,10.55426 3.23999336,10.3219407 3.19989718,10.0485114" id="Fill-16" fill="#85030C" transform="translate(4.871208, 8.486511) rotate(-7.000000) translate(-4.871208, -8.486511) "></path>
                    <path d="M4.57630403,6.7698971 C4.64585862,5.85018034 5.38559222,4.55473729 5.38559222,4.55473729 C5.38559222,4.55473729 4.92325872,6.01270825 4.86434189,6.64274291 C4.825064,7.04906269 4.91343925,7.63989945 4.93553306,7.78139433 C5.06564107,7.78521852 5.62616929,7.8052955 5.97066912,7.83302085 C6.36181144,7.86552643 7.31839171,7.69056991 7.31839171,7.69056991 C7.31839171,7.69056991 6.2104279,8.14373597 5.41177748,8.17146132 C5.17447356,8.18006574 4.98544871,8.19345039 4.83652005,8.20779109 C5.05745818,8.20587899 5.31521933,8.21735155 5.45678339,8.27758248 C5.73500178,8.39422016 6.09832226,8.91335343 6.7955048,8.71067156 C7.42476933,8.52806668 7.96156716,7.63989945 8.62683642,7.240272 C8.62683642,7.240272 7.8658273,7.17621688 7.46159235,7.00030432 C7.07126832,6.83012803 6.59420562,6.48117105 6.21206448,6.7287871 C5.88965847,6.93911734 5.49851615,7.26226107 5.16629067,7.55576735 C5.85774518,6.79188617 6.05413463,6.13030197 6.10159542,5.76700429 C6.15969396,5.32053056 5.82092216,4.55378124 5.74645783,3.98015332 C5.68263126,3.48205308 5.72436402,2.62639143 5.72436402,2.62639143 C5.05254844,3.59486657 4.42983023,3.73922959 4.16715934,4.74785868 C3.88484951,5.83392755 4.33163551,6.18766476 4.4781093,6.80622687 C4.52147864,6.9916999 4.52884324,7.21923897 4.51902377,7.43912967 C4.53702614,7.25461269 4.55666508,7.0328099 4.57630403,6.7698971" id="Fill-18" fill="#85030C" transform="translate(6.351191, 5.691760) rotate(-7.000000) translate(-6.351191, -5.691760) "></path>
                    <path d="M6.49473745,4.22647067 C6.75168031,3.40235856 7.70007769,2.42814714 7.70007769,2.42814714 C7.70007769,2.42814714 6.97098186,3.63180973 6.78523017,4.192053 C6.66494164,4.55439463 6.62239059,5.12324232 6.61338941,5.25804488 C6.73204136,5.29915488 7.24183564,5.47984768 7.55196732,5.60604582 C7.90465003,5.7475407 8.81867926,5.86513443 8.81867926,5.86513443 C8.81867926,5.86513443 7.7074423,5.95882699 6.9677087,5.75423303 C6.74922544,5.6940021 6.57247494,5.65193605 6.43254745,5.62134256 C6.63630151,5.68252954 6.87033227,5.76857373 6.98734765,5.86417838 C7.21892354,6.05251955 7.44395312,6.63379584 8.12558817,6.64909258 C8.74094177,6.66343328 9.41930366,6.00471722 10.1140313,5.82976071 C10.1140313,5.82976071 9.42830485,5.55059512 9.09444278,5.27334162 C8.77203677,5.0037365 8.40707971,4.54483417 8.00448134,4.66147184 C7.66407296,4.76185673 7.2377442,4.94541766 6.87196885,5.11750604 C7.66570954,4.6174937 7.9840241,4.0668109 8.10349435,3.74749136 C8.25078644,3.35455623 8.10022119,2.55338924 8.15177343,2.00557457 C8.19759763,1.53041945 8.41444431,0.756977803 8.41444431,0.756977803 C7.59533665,1.45106759 6.99389396,1.40326526 6.54219823,2.25319063 C6.05613434,3.16717111 6.39245128,3.62224926 6.39654272,4.2312509 C6.3981793,4.41385579 6.35726483,4.62514207 6.30162116,4.82399975 C6.35726483,4.6605158 6.4210914,4.46261416 6.49473745,4.22647067" id="Fill-20" fill="#85030C" transform="translate(8.196724, 3.703150) rotate(-7.000000) translate(-8.196724, -3.703150) "></path>
                    <path d="M8.61873855,3.95853078 C8.71938814,3.87535473 9.1538998,3.51492519 9.41329753,3.28069379 C9.7078817,3.0139568 10.5425369,2.56270284 10.5425369,2.56270284 C10.5425369,2.56270284 9.46484976,2.88775866 8.82003774,3.35717751 C8.62937631,3.49580426 8.47390133,3.60192542 8.34952135,3.68223333 C8.52545356,3.54838682 8.68911144,3.30459495 8.77421353,3.17074844 C8.94196285,2.90592355 9.03442955,2.34759237 9.67515013,2.0789433 C10.2536807,1.83515143 11.0727884,2.20705353 11.7773355,2.11240492 C11.7773355,2.11240492 11.2315365,2.59329633 10.9353158,2.96424239 C10.664462,3.30172681 10.4893481,3.86961845 10.0957509,4.00442101 C9.67515013,4.14782799 9.29055412,3.90786031 8.61873855,3.95853078" id="Fill-23" fill="#85030C" transform="translate(10.063428, 3.022680) rotate(-7.000000) translate(-10.063428, -3.022680) "></path>
                    <path d="M55.6556094,35.37455 C54.582832,35.9596505 52.5894791,35.8009467 52.5894791,35.8009467 C52.5894791,35.8009467 54.5541919,35.4118358 55.2980169,35.0294172 C55.7775345,34.7818011 56.3675212,34.2005248 56.5058121,34.059986 C56.4133454,33.8582602 56.0132019,32.9815655 55.7848991,32.4318388 C55.5255014,31.8065843 54.6106539,30.4690752 54.6106539,30.4690752 C54.6106539,30.4690752 55.9477387,31.8304855 56.581913,33.0351041 C56.7693012,33.3926655 56.9272311,33.6727872 57.0557025,33.8917218 C56.8863166,33.5532813 56.7046564,33.1479176 56.6645602,32.8869169 C56.5843678,32.3696957 56.8863166,31.4203415 56.1359453,30.5025369 C55.45922,29.6746006 54.0697646,29.519721 53.1254587,28.7979059 C53.1254587,28.7979059 53.6278883,30.0159092 53.7367208,30.7692738 C53.8422802,31.4958692 53.8144583,32.4930257 54.3766231,32.8916971 C54.8536858,33.2301376 55.5066807,33.586743 56.0819382,33.8764251 C54.7145766,33.3897974 53.8324607,33.587699 53.3938576,33.7875127 C52.8546049,34.0351288 52.2580719,35.1326702 51.6787231,35.6785728 C51.1738385,36.1537279 50.1943461,36.7330921 50.1943461,36.7330921 C51.7736446,37.0361589 52.4045457,37.8832161 53.7211733,37.5266107 C55.1376322,37.141324 55.1949125,36.1881456 55.7701699,35.498836 C55.942829,35.29233 56.1907707,35.1087691 56.4411672,34.9567577 C56.2235022,35.0695711 55.9624679,35.2072418 55.6556094,35.37455" id="Fill-1" fill="#85030C" transform="translate(53.625024, 33.205309) scale(-1, 1) rotate(-7.000000) translate(-53.625024, -33.205309) "></path>
                    <path d="M59.8364577,33.5224048 C58.7301305,33.7489879 56.933167,33.0262167 56.933167,33.0262167 C56.933167,33.0262167 58.8176874,33.237503 59.5803331,33.1017444 C60.072125,33.0137881 60.7349394,32.6504904 60.8912327,32.5625341 C60.8486816,32.3493357 60.6645665,31.430575 60.569645,30.8598152 C60.4624491,30.2106596 59.9027391,28.718271 59.9027391,28.718271 C59.9027391,28.718271 60.8454085,30.3540666 61.1751791,31.6428173 C61.2725555,32.025236 61.3584759,32.3283027 61.4313037,32.5663583 C61.3462016,32.2068848 61.2651909,31.7824001 61.282375,31.5309599 C61.3175614,31.0338157 61.7921693,30.2498575 61.2954676,29.190558 C60.8478634,28.2354675 59.6048818,27.690521 58.8888786,26.7555075 C58.8888786,26.7555075 59.0950875,28.0184449 59.0386255,28.7412161 C58.9829819,29.4391301 58.7489511,30.3454622 59.1818262,30.8741559 C59.5492381,31.3225418 60.0737616,31.8378508 60.5410048,32.2709399 C59.3880351,31.4286629 58.5370142,31.3550473 58.092683,31.4124101 C57.5452474,31.4822015 56.7703274,32.3177862 56.1230605,32.6504904 C55.561714,32.9401725 54.5404889,33.1887446 54.5404889,33.1887446 C55.9274894,33.9239444 56.3284511,34.8838151 57.6115289,34.9363976 C58.9919831,34.9947165 59.2440162,34.1361867 59.9158318,33.669636 C60.1171309,33.5290972 60.383075,33.4325365 60.6449276,33.3665692 C60.4215346,33.4067232 60.1531357,33.4573937 59.8364577,33.5224048" id="Fill-3" fill="#85030C" transform="translate(58.030595, 30.847365) scale(-1, 1) rotate(-7.000000) translate(-58.030595, -30.847365) "></path>
                    <path d="M62.6101696,30.5683396 C61.5472117,30.4564822 60.0497422,29.2728966 60.0497422,29.2728966 C60.0497422,29.2728966 61.7346,30.0128766 62.4628775,30.1084812 C62.9325756,30.1696682 63.6166655,30.0291294 63.7786868,29.9927996 C63.7835966,29.7843814 63.8065087,28.8876098 63.8392403,28.336927 C63.8768816,27.7107165 63.6747641,26.17913 63.6747641,26.17913 C63.6747641,26.17913 64.197651,27.9525963 64.2312009,29.2308305 C64.2410203,29.610381 64.2565678,29.9134477 64.2729336,30.1524594 C64.2704788,29.7977661 64.2843897,29.384754 64.353126,29.159127 C64.488962,28.7126533 65.0887681,28.131377 64.8539191,27.0156707 C64.6428004,26.0089537 63.6158473,25.1494679 63.1543321,24.084432 C63.1543321,24.084432 63.080686,25.3033913 62.876932,25.9506349 C62.6805425,26.5739772 62.2754893,27.3388144 62.5627088,27.9487721 C62.8057408,28.4669493 63.179699,29.0922038 63.5176525,29.6237656 C62.6363549,28.5176198 61.870436,28.2030805 61.4506536,28.1265968 C60.934313,28.0338602 60.0472873,28.5749826 59.3844729,28.6944884 C58.8083972,28.7967854 57.8207219,28.7298621 57.8207219,28.7298621 C58.9393235,29.8054145 59.1070728,30.801615 60.2723169,31.2222754 C61.5267545,31.6744854 61.9375358,30.9593626 62.6527207,30.7251312 C62.8662942,30.6562959 63.1297834,30.6438673 63.3842714,30.659164 C63.1706978,30.6314387 62.9145733,30.5998891 62.6101696,30.5683396" id="Fill-5" fill="#85030C" transform="translate(61.364294, 27.726768) scale(-1, 1) rotate(-7.000000) translate(-61.364294, -27.726768) "></path>
                    <path d="M64.3361406,26.8170327 C63.3844701,26.4068888 62.2576856,24.8877308 62.2576856,24.8877308 C62.2576856,24.8877308 63.6487776,26.0541076 64.2968628,26.3523941 C64.7150086,26.5445595 65.3729133,26.6133948 65.5292065,26.6267795 C65.5774856,26.4374823 65.7861494,25.6210185 65.9301683,25.1248304 C66.0954628,24.5607629 66.2296622,23.0970557 66.2296622,23.0970557 C66.2296622,23.0970557 66.339313,24.8762583 66.1036457,26.0588878 C66.0324545,26.4097569 65.9833571,26.6927467 65.948989,26.9164616 C66.0201802,26.5904497 66.1191932,26.2156795 66.2296622,26.0282943 C66.4481455,25.6573483 67.1191428,25.2978748 67.1379635,24.2060696 C67.1543292,23.2213417 66.3916835,22.1362289 66.1903844,21.0243468 C66.1903844,21.0243468 65.8671601,22.1218882 65.5455723,22.6563182 C65.2354407,23.1725833 64.7043709,23.7567278 64.8402069,24.399191 C64.9547674,24.9450936 65.1675226,25.6267548 65.366367,26.2128113 C64.7886547,24.9422255 64.1520255,24.4326527 63.782977,24.2414434 C63.3280081,24.0062559 62.4017046,24.2471796 61.7683486,24.1640036 C61.2184581,24.0923001 60.3248861,23.7442992 60.3248861,23.7442992 C61.1268097,25.055039 61.0728026,26.0187339 62.0547499,26.741505 C63.1111615,27.5187709 63.6373215,26.9814727 64.3418687,26.9738244 C64.5529873,26.9719123 64.7968376,27.0369234 65.0275952,27.1248797 C64.837752,27.0369234 64.608631,26.9336704 64.3361406,26.8170327" id="Fill-7" fill="#85030C" transform="translate(63.731555, 24.093089) scale(-1, 1) rotate(-7.000000) translate(-63.731555, -24.093089) "></path>
                    <path d="M65.001732,22.5870461 C64.2137193,21.9350223 63.4977161,20.2160507 63.4977161,20.2160507 C63.4977161,20.2160507 64.5303973,21.6883623 65.0631037,22.1491768 C65.4067852,22.4474633 65.9959536,22.6998596 66.1366993,22.7572223 C66.2193466,22.5985186 66.5818488,21.9092091 66.8183344,21.4952409 C67.0875516,21.0258221 67.5171535,19.7217746 67.5171535,19.7217746 C67.5171535,19.7217746 67.2454814,21.3862516 66.7815114,22.4034851 C66.6440388,22.7036837 66.5392977,22.9493877 66.4607419,23.1453772 C66.5941231,22.8671677 66.763509,22.5507163 66.9042548,22.4111335 C67.1816549,22.1348361 67.8731094,21.9981214 68.1177779,21.0019209 C68.338716,20.1032372 67.8665631,18.8861899 67.9132056,17.8077694 C67.9132056,17.8077694 67.3878638,18.7217499 66.981174,19.1194653 C66.5883951,19.50284 65.9795878,19.8852586 65.96895,20.5143372 C65.9607671,21.0478111 66.0131376,21.7352086 66.0736911,22.3308256 C65.8085653,20.9980967 65.3306843,20.346073 65.0320087,20.0640393 C64.6637785,19.7160383 63.7628419,19.669192 63.1998588,19.4101034 C62.7097035,19.1844765 61.9634235,18.6070243 61.9634235,18.6070243 C62.4249388,20.0420502 62.1737239,20.9101404 62.9240953,21.8575826 C63.7317469,22.8767282 64.325825,22.5354196 64.9739101,22.7333212 C65.168663,22.79164 65.3781451,22.9226184 65.5720797,23.0698496 C65.4157864,22.934091 65.2275799,22.7734751 65.001732,22.5870461" id="Fill-9" fill="#85030C" transform="translate(65.070195, 20.476573) scale(-1, 1) rotate(-7.000000) translate(-65.070195, -20.476573) "></path>
                    <path d="M64.5630374,18.1815724 C63.9763239,17.3555482 63.6784666,15.5696533 63.6784666,15.5696533 C63.6784666,15.5696533 64.3191871,17.2207456 64.7103295,17.7981977 C64.9639992,18.1700998 65.4516996,18.5725954 65.568715,18.666288 C65.6783658,18.543914 66.1546102,18.0161763 66.4581956,17.7054612 C66.8035137,17.35268 67.4704195,16.2799958 67.4704195,16.2799958 C67.4704195,16.2799958 66.8730683,17.7284063 66.2348026,18.5276612 C66.0449594,18.7638047 65.8984856,18.9588382 65.7855617,19.1156299 C65.9664036,18.8986073 66.1881601,18.6586396 66.3460899,18.5706833 C66.6578582,18.3966829 67.3214908,18.4722105 67.7535476,17.6289775 C68.14469,16.8670084 67.9646663,15.6145875 68.2347018,14.6384639 C68.2347018,14.6384639 67.5612496,15.3249054 67.1038259,15.5725214 C66.6635862,15.810577 66.0245022,15.9855335 65.8837564,16.5601175 C65.7651045,17.0467452 65.6693646,17.6930326 65.59981,18.2571001 C65.6358147,16.9568768 65.333866,16.2197649 65.1186559,15.8746321 C64.8527118,15.4501474 64.036059,15.1461247 63.5737255,14.7445851 C63.1711272,14.3956281 62.6065075,13.6508679 62.6065075,13.6508679 C62.7308875,15.1011905 62.3184696,15.8249177 62.808625,16.9109866 C63.3364216,18.0802315 63.9542301,17.9387366 64.5073937,18.3077705 C64.6735064,18.4177159 64.8388009,18.5984087 64.9852747,18.7886619 C64.8707142,18.6203978 64.7307867,18.4177159 64.5630374,18.1815724" id="Fill-12" fill="#85030C" transform="translate(65.398125, 16.383249) scale(-1, 1) rotate(-7.000000) translate(-65.398125, -16.383249) "></path>
                    <path d="M63.7313873,13.9222995 C63.3656119,12.9939783 63.464625,11.2702264 63.464625,11.2702264 C63.464625,11.2702264 63.7076569,12.9700772 63.9465974,13.6125404 C64.1012541,14.0284207 64.4645746,14.5379935 64.5529498,14.6574993 C64.6789664,14.5771914 65.226402,14.2311026 65.5700835,14.0332009 C65.9604075,13.809486 66.795881,13.0188355 66.795881,13.0188355 C66.795881,13.0188355 65.9456783,14.1746958 65.1928521,14.7234665 C64.9694591,14.8859944 64.7943452,15.021753 64.6576909,15.1326544 C64.8688095,14.9863793 65.1224792,14.8305437 65.2853188,14.79517 C65.6085431,14.7253786 66.2018029,14.9863793 66.7746055,14.3381798 C67.2925826,13.7521232 67.3891408,12.5503727 67.8400182,11.732953 C67.8400182,11.732953 67.0790091,12.1679541 66.6084927,12.2626027 C66.1543421,12.3543832 65.5316239,12.329526 65.2820457,12.8161537 C65.070927,13.2291658 64.8483523,13.7932332 64.6675103,14.2913335 C64.9710957,13.1087039 64.8483523,12.3448227 64.7223357,11.9662283 C64.5684973,11.4996776 63.8827708,10.9843685 63.5415442,10.4824441 C63.2453234,10.0464869 62.8828212,9.1984736 62.8828212,9.1984736 C62.6937964,10.5646641 62.1643631,11.1105667 62.3869379,12.248262 C62.6266966,13.4739137 63.2232296,13.5236281 63.6544681,14.0217284 C63.7829395,14.1708716 63.8975,14.385026 63.9924216,14.6020486 C63.9212304,14.4137074 63.8361283,14.1880805 63.7313873,13.9222995" id="Fill-14" fill="#85030C" transform="translate(65.086636, 12.165564) scale(-1, 1) rotate(-7.000000) translate(-65.086636, -12.165564) "></path>
                    <path d="M62.4574803,10.0485114 C62.3159162,9.09150884 62.767612,7.53793322 62.767612,7.53793322 C62.767612,7.53793322 62.6350491,9.16799256 62.7201512,9.82670862 C62.7749766,10.2521493 63.0016427,10.8257773 63.0572864,10.9615359 C63.1906676,10.923294 63.7642884,10.7645903 64.1210626,10.6833263 C64.5269341,10.5896338 65.4589657,10.1058742 65.4589657,10.1058742 C65.4589657,10.1058742 64.436104,10.9213819 63.6309072,11.2062838 C63.392785,11.2904159 63.2029419,11.3649875 63.0540132,11.4271305 C63.2790428,11.354471 63.5441686,11.2837235 63.7012801,11.2990203 C64.0122301,11.3286577 64.5015671,11.7397577 65.1635632,11.3104928 C65.7600962,10.923294 66.1005046,9.84774165 66.6855815,9.22822349 C66.6855815,9.22822349 65.8959322,9.4070042 65.4450548,9.35824582 C65.0089065,9.3104435 64.441832,9.10776163 64.1112431,9.48157583 C63.8313881,9.79993932 63.5098004,10.2540614 63.2389466,10.6575131 C63.7651067,9.66035653 63.8117492,8.92515674 63.7757445,8.53986999 C63.7315568,8.067583 63.2103065,7.39643834 63.0016427,6.83715112 C62.8208008,6.35052343 62.6661441,5.46809248 62.6661441,5.46809248 C62.2070837,6.66793088 61.6072776,7.01497577 61.5737278,8.12398975 C61.537723,9.31809187 62.0737026,9.53511443 62.3658319,10.1173468 C62.4525705,10.2913472 62.513124,10.5207984 62.5548567,10.7473814 C62.5294897,10.55426 62.4975765,10.3219407 62.4574803,10.0485114" id="Fill-16" fill="#85030C" transform="translate(64.128792, 8.486511) scale(-1, 1) rotate(-7.000000) translate(-64.128792, -8.486511) "></path>
                    <path d="M60.8739223,6.7698971 C60.9434769,5.85018034 61.6832104,4.55473729 61.6832104,4.55473729 C61.6832104,4.55473729 61.220877,6.01270825 61.1619601,6.64274291 C61.1226822,7.04906269 61.2110575,7.63989945 61.2331513,7.78139433 C61.3632593,7.78521852 61.9237875,7.8052955 62.2682874,7.83302085 C62.6594297,7.86552643 63.6160099,7.69056991 63.6160099,7.69056991 C63.6160099,7.69056991 62.5080461,8.14373597 61.7093957,8.17146132 C61.4720918,8.18006574 61.2830669,8.19345039 61.1341383,8.20779109 C61.3550764,8.20587899 61.6128376,8.21735155 61.7544016,8.27758248 C62.03262,8.39422016 62.3959405,8.91335343 63.093123,8.71067156 C63.7223876,8.52806668 64.2591854,7.63989945 64.9244547,7.240272 C64.9244547,7.240272 64.1634455,7.17621688 63.7592106,7.00030432 C63.3688866,6.83012803 62.8918239,6.48117105 62.5096827,6.7287871 C62.1872767,6.93911734 61.7961344,7.26226107 61.4639089,7.55576735 C62.1553634,6.79188617 62.3517529,6.13030197 62.3992137,5.76700429 C62.4573122,5.32053056 62.1185404,4.55378124 62.0440761,3.98015332 C61.9802495,3.48205308 62.0219822,2.62639143 62.0219822,2.62639143 C61.3501667,3.59486657 60.7274485,3.73922959 60.4647776,4.74785868 C60.1824677,5.83392755 60.6292537,6.18766476 60.7757275,6.80622687 C60.8190969,6.9916999 60.8264615,7.21923897 60.816642,7.43912967 C60.8346444,7.25461269 60.8542833,7.0328099 60.8739223,6.7698971" id="Fill-18" fill="#85030C" transform="translate(62.648809, 5.691760) scale(-1, 1) rotate(-7.000000) translate(-62.648809, -5.691760) "></path>
                    <path d="M59.1012894,4.22647067 C59.3582323,3.40235856 60.3066297,2.42814714 60.3066297,2.42814714 C60.3066297,2.42814714 59.5775338,3.63180973 59.3917822,4.192053 C59.2714936,4.55439463 59.2289426,5.12324232 59.2199414,5.25804488 C59.3385933,5.29915488 59.8483876,5.47984768 60.1585193,5.60604582 C60.511202,5.7475407 61.4252312,5.86513443 61.4252312,5.86513443 C61.4252312,5.86513443 60.3139943,5.95882699 59.5742607,5.75423303 C59.3557774,5.6940021 59.1790269,5.65193605 59.0390994,5.62134256 C59.2428535,5.68252954 59.4768842,5.76857373 59.5938996,5.86417838 C59.8254755,6.05251955 60.0505051,6.63379584 60.7321401,6.64909258 C61.3474938,6.66343328 62.0258556,6.00471722 62.7205833,5.82976071 C62.7205833,5.82976071 62.0348568,5.55059512 61.7009948,5.27334162 C61.3785887,5.0037365 61.0136317,4.54483417 60.6110333,4.66147184 C60.2706249,4.76185673 59.8442962,4.94541766 59.4785208,5.11750604 C60.2722615,4.6174937 60.5905761,4.0668109 60.7100463,3.74749136 C60.8573384,3.35455623 60.7067732,2.55338924 60.7583254,2.00557457 C60.8041496,1.53041945 61.0209963,0.756977803 61.0209963,0.756977803 C60.2018886,1.45106759 59.6004459,1.40326526 59.1487502,2.25319063 C58.6626863,3.16717111 58.9990033,3.62224926 59.0030947,4.2312509 C59.0047313,4.41385579 58.9638168,4.62514207 58.9081731,4.82399975 C58.9638168,4.6605158 59.0276434,4.46261416 59.1012894,4.22647067" id="Fill-20" fill="#85030C" transform="translate(60.803276, 3.703150) scale(-1, 1) rotate(-7.000000) translate(-60.803276, -3.703150) "></path>
                    <path d="M57.4918817,3.95853078 C57.5925313,3.87535473 58.0270429,3.51492519 58.2864407,3.28069379 C58.5810248,3.0139568 59.41568,2.56270284 59.41568,2.56270284 C59.41568,2.56270284 58.3379929,2.88775866 57.6931809,3.35717751 C57.5025194,3.49580426 57.3470445,3.60192542 57.2226645,3.68223333 C57.3985967,3.54838682 57.5622546,3.30459495 57.6473567,3.17074844 C57.815106,2.90592355 57.9075727,2.34759237 58.5482933,2.0789433 C59.1268238,1.83515143 59.9459315,2.20705353 60.6504787,2.11240492 C60.6504787,2.11240492 60.1046796,2.59329633 59.8084589,2.96424239 C59.5376051,3.30172681 59.3624912,3.86961845 58.968894,4.00442101 C58.5482933,4.14782799 58.1636973,3.90786031 57.4918817,3.95853078" id="Fill-23" fill="#85030C" transform="translate(58.936572, 3.022680) scale(-1, 1) rotate(-7.000000) translate(-58.936572, -3.022680) "></path>
                </g>
            </g>
        </g>
    </g>
</svg>