<?xml version="1.0" encoding="UTF-8" standalone="no"?>
<svg width="40px" height="9px" viewBox="0 0 40 9" version="1.1" xmlns="http://www.w3.org/2000/svg" xmlns:xlink="http://www.w3.org/1999/xlink">
    <!-- Generator: Sketch 41.2 (35397) - http://www.bohemiancoding.com/sketch -->
    <title>Group</title>
    <desc>Created with Sketch.</desc>
    <defs></defs>
    <g id="Page-1" stroke="none" stroke-width="1" fill="none" fill-rule="evenodd">
        <g id="Group" fill="#B70618">
            <polygon id="Fill-51" points="5 0 6.64827341 2.82869081 10 3.43788301 7.66642933 5.79526462 8.09006764 9 5 7.62785515 1.90993236 9 2.33357067 5.79526462 0 3.43788301 3.35172659 2.82869081"></polygon>
            <polygon id="Fill-51" points="20 0 21.6482734 2.82869081 25 3.43788301 22.6664293 5.79526462 23.0900676 9 20 7.62785515 16.9099324 9 17.3335707 5.79526462 15 3.43788301 18.3517266 2.82869081"></polygon>
            <polygon id="Fill-51" points="35 0 36.6482734 2.82869081 40 3.43788301 37.6664293 5.79526462 38.0900676 9 35 7.62785515 31.9099324 9 32.3335707 5.79526462 30 3.43788301 33.3517266 2.82869081"></polygon>
        </g>
    </g>
</svg>