<?xml version="1.0" encoding="UTF-8" standalone="no"?>
<svg width="20px" height="20px" viewBox="0 0 20 20" version="1.1" xmlns="http://www.w3.org/2000/svg" xmlns:xlink="http://www.w3.org/1999/xlink">
    <!-- Generator: Sketch 41.2 (35397) - http://www.bohemiancoding.com/sketch -->
    <title>Shape</title>
    <desc>Created with Sketch.</desc>
    <defs></defs>
    <g id="Page-1" stroke="none" stroke-width="1" fill="none" fill-rule="evenodd" opacity="0.49556903">
        <path d="M18.8961719,19.9222568 C19.5057031,19.9222568 20,19.4299611 20,18.8227237 L20,1.09953307 C20,0.492217899 19.5057031,0 18.8961719,0 L1.10382812,0 C0.4940625,0 0,0.492217899 0,1.09953307 L0,18.8227237 C0,19.4299611 0.4940625,19.9222568 1.10382812,19.9222568 L18.8961719,19.9222568 Z M13.7996094,19.9222568 L13.7996094,12.2073152 L16.399375,12.2073152 L16.7885938,9.20070039 L13.7996094,9.20070039 L13.7996094,7.28101167 C13.7996094,6.41050584 14.0423438,5.81727626 15.2955469,5.81727626 L16.8939063,5.81657588 L16.8939063,3.12747082 C16.6173438,3.09081712 15.6685938,3.00894942 14.5648438,3.00894942 C12.2603125,3.00894942 10.6826563,4.41011673 10.6826563,6.9833463 L10.6826563,9.20070039 L8.07625,9.20070039 L8.07625,12.2073152 L10.6826563,12.2073152 L10.6826563,19.9222568 L13.7996094,19.9222568 Z" id="Shape" fill="#FFFFFF"></path>
    </g>
</svg>