<?xml version="1.0" encoding="UTF-8" standalone="no"?>
<svg width="19px" height="19px" viewBox="0 0 19 19" version="1.1" xmlns="http://www.w3.org/2000/svg" xmlns:xlink="http://www.w3.org/1999/xlink">
    <!-- Generator: Sketch 41.2 (35397) - http://www.bohemiancoding.com/sketch -->
    <title>Load more</title>
    <desc>Created with Sketch.</desc>
    <defs></defs>
    <g id="Page-1" stroke="none" stroke-width="1" fill="none" fill-rule="evenodd">
        <path d="M1.7451628,15.0842279 C0.603564806,13.4910938 0,11.5586016 0,9.55026455 C0,4.27248677 4.25,0 9.5,0 C10.1,0 10.7,0.0502645503 11.25,0.201058201 L10.9,2.16137566 C10.45,2.06084656 9.95,2.01058201 9.5,2.01058201 C5.35,2.01058201 2,5.37830688 2,9.55026455 C2,11.0062853 2.42084278,12.4297623 3.18438338,13.6373924 L4.95,11.8624339 L6,17.5925926 L0.05,16.7883598 L1.7451628,15.0842279 Z M15.8232591,5.45545382 C16.5888443,6.67057478 17,8.08528739 17,9.5 C17,13.6719577 13.65,17.0396825 9.5,17.0396825 C9.05,17.0396825 8.55,16.989418 8.1,16.8888889 L7.75,18.8492063 C8.35,18.9497354 8.95,19 9.5,19 C14.75,19 19,14.7275132 19,9.44973545 C19,7.55586615 18.3964141,5.62154488 17.2614389,4.00966461 L18.95,2.31216931 L13,1.50793651 L14.05,7.23809524 L15.8232591,5.45545382 Z" id="Load-more" fill="#FFFFFF"></path>
    </g>
</svg>