<?xml version="1.0" encoding="UTF-8" standalone="no"?>
<svg width="10px" height="14px" viewBox="0 0 10 14" version="1.1" xmlns="http://www.w3.org/2000/svg" xmlns:xlink="http://www.w3.org/1999/xlink">
    <!-- Generator: Sketch 41.2 (35397) - http://www.bohemiancoding.com/sketch -->
    <title>Place</title>
    <desc>Created with Sketch.</desc>
    <defs></defs>
    <g id="Page-1" stroke="none" stroke-width="1" fill="none" fill-rule="evenodd">
        <g id="Place" fill="#D9222A">
            <path d="M4.65517241,13.3198966 C4.65517241,13.6601144 4.48275862,14 5,14 C5.51724138,14 5.34482759,13.7183117 5.34482759,13.3198966 C5.34482759,10.5994832 10,7.65333523 10,4.93074935 C10,2.20757168 7.76142375,0 5,0 C2.23857625,0 0,2.20757168 0,4.93074935 C0,7.65392703 4.65517241,10.5994832 4.65517241,13.3198966 Z M5,7 C6.1045695,7 7,6.1045695 7,5 C7,3.8954305 6.1045695,3 5,3 C3.8954305,3 3,3.8954305 3,5 C3,6.1045695 3.8954305,7 5,7 Z" id="Combined-Shape"></path>
        </g>
    </g>
</svg>