<?xml version="1.0" encoding="UTF-8" standalone="no"?>
<svg width="50px" height="37px" viewBox="0 0 50 37" version="1.1" xmlns="http://www.w3.org/2000/svg" xmlns:xlink="http://www.w3.org/1999/xlink">
    <!-- Generator: Sketch 41.2 (35397) - http://www.bohemiancoding.com/sketch -->
    <title>youtube</title>
    <desc>Created with Sketch.</desc>
    <defs></defs>
    <g id="Page-1" stroke="none" stroke-width="1" fill="none" fill-rule="evenodd">
        <g id="youtube" fill="#B70618">
            <path d="M49.484375,7.98429167 C49.484375,7.98429167 48.996875,4.35675 47.4984375,2.75958333 C45.596875,0.666 43.4671875,0.653666667 42.490625,0.534958333 C35.4953125,0 25.003125,0 25.003125,0 L24.9796875,0 C24.9796875,0 14.4875,0 7.49375,0.534958333 C6.5171875,0.653666667 4.3890625,0.666 2.4859375,2.75958333 C0.9890625,4.35675 0.5,7.98429167 0.5,7.98429167 C0.5,7.98429167 0,12.2408333 0,16.497375 L0,20.4872083 C0,24.7468333 0.5,29.0018333 0.5,29.0018333 C0.5,29.0018333 0.9875,32.6278333 2.4859375,34.2219167 C4.3890625,36.3155 6.884375,36.2522917 7.996875,36.4712083 C11.9953125,36.875125 24.9921875,37 24.9921875,37 C24.9921875,37 35.4953125,36.9815 42.490625,36.4527083 C43.4671875,36.329375 45.596875,36.3170417 47.4984375,34.2234583 C48.9953125,32.629375 49.484375,29.003375 49.484375,29.003375 C49.484375,29.003375 49.984375,24.7468333 49.984375,20.48875 L49.984375,16.4989167 C49.984375,12.2408333 49.484375,7.98429167 49.484375,7.98429167 Z M18.75,9.25 L18.75,27.75 L34.375,18.5 L18.75,9.25 Z" id="Shape"></path>
        </g>
    </g>
</svg>