<?xml version="1.0" encoding="UTF-8" standalone="no"?>
<svg width="25px" height="18px" viewBox="0 0 25 18" version="1.1" xmlns="http://www.w3.org/2000/svg" xmlns:xlink="http://www.w3.org/1999/xlink">
    <!-- Generator: Sketch 41.2 (35397) - http://www.bohemiancoding.com/sketch -->
    <title>youtube</title>
    <desc>Created with Sketch.</desc>
    <defs></defs>
    <g id="Page-1" stroke="none" stroke-width="1" fill="none" fill-rule="evenodd" opacity="0.504605877">
        <g id="youtube" fill="#FFFFFF">
            <path d="M24.7421875,3.88425 C24.7421875,3.88425 24.4984375,2.1195 23.7492188,1.3425 C22.7984375,0.324 21.7335938,0.318 21.2453125,0.26025 C17.7476562,0 12.5015625,0 12.5015625,0 L12.4898437,0 C12.4898437,0 7.24375,0 3.746875,0.26025 C3.25859375,0.318 2.19453125,0.324 1.24296875,1.3425 C0.49453125,2.1195 0.25,3.88425 0.25,3.88425 C0.25,3.88425 0,5.955 0,8.02575 L0,9.96675 C0,12.039 0.25,14.109 0.25,14.109 C0.25,14.109 0.49375,15.873 1.24296875,16.6485 C2.19453125,17.667 3.4421875,17.63625 3.9984375,17.74275 C5.99765625,17.93925 12.4960938,18 12.4960938,18 C12.4960938,18 17.7476562,17.991 21.2453125,17.73375 C21.7335938,17.67375 22.7984375,17.66775 23.7492188,16.64925 C24.4976563,15.87375 24.7421875,14.10975 24.7421875,14.10975 C24.7421875,14.10975 24.9921875,12.039 24.9921875,9.9675 L24.9921875,8.0265 C24.9921875,5.955 24.7421875,3.88425 24.7421875,3.88425 Z M9.375,4.5 L9.375,13.5 L17.1875,9 L9.375,4.5 Z" id="Shape"></path>
        </g>
    </g>
</svg>